<svg width="173" height="164" viewBox="0 0 173 164" fill="none" xmlns="http://www.w3.org/2000/svg">
<g clip-path="url(#clip0_3321_6701)">
<path d="M187.48 138.605H-26.8262V138.711H187.48V138.605Z" fill="#EBEBEB"/>
<path d="M9.85566 142.625H-4.34082V142.731H9.85566V142.625Z" fill="#EBEBEB"/>
<path d="M64.7539 141.48H46.5264V141.586H64.7539V141.48Z" fill="#EBEBEB"/>
<path d="M21.4642 144.102H13.2383V144.207H21.4642V144.102Z" fill="#EBEBEB"/>
<path d="M166.007 145.832H159.478V145.938H166.007V145.832Z" fill="#EBEBEB"/>
<path d="M155.661 145.832H140.963V145.938H155.661V145.832Z" fill="#EBEBEB"/>
<path d="M115.402 142.797H105.187V142.902H115.402V142.797Z" fill="#EBEBEB"/>
<path d="M74.7628 119.775H-8.00173C-9.35057 119.775 -10.4482 118.694 -10.4482 117.366V2.78838C-10.4482 1.45996 -9.35057 0.378906 -8.00173 0.378906H74.7628C76.1112 0.378906 77.2089 1.45996 77.2089 2.78838V117.366C77.2089 118.694 76.1112 119.775 74.7628 119.775ZM-8.00173 0.484859C-9.29185 0.484859 -10.3411 1.51821 -10.3411 2.7888V117.366C-10.3411 118.637 -9.29185 119.67 -8.00173 119.67H74.7628C76.0525 119.67 77.1017 118.637 77.1017 117.366V2.78838C77.1017 1.51821 76.0525 0.484437 74.7628 0.484437L-8.00173 0.484859Z" fill="#EBEBEB"/>
<path d="M167.466 119.775H84.7019C83.3531 119.775 82.2559 118.694 82.2559 117.366V2.78838C82.2559 1.45996 83.3535 0.378906 84.7019 0.378906H167.466C168.815 0.378906 169.913 1.45996 169.913 2.78838V117.366C169.913 118.694 168.815 119.775 167.466 119.775ZM84.7019 0.484859C83.4123 0.484859 82.363 1.51821 82.363 2.7888V117.366C82.363 118.637 83.4123 119.67 84.7019 119.67H167.466C168.756 119.67 169.805 118.637 169.805 117.366V2.78838C169.805 1.51821 168.756 0.484437 167.466 0.484437L84.7019 0.484859Z" fill="#EBEBEB"/>
<path d="M104.972 60.0742L151.205 60.0742V14.4175L104.972 14.4175V60.0742Z" fill="#F0F0F0"/>
<path d="M104.971 14.4141H104.173V60.0708H104.971V14.4141Z" fill="#E0E0E0"/>
<path d="M109.052 57.1836L147.122 57.1836V17.2943L109.052 17.2943V57.1836Z" fill="#FAFAFA"/>
<path d="M124.058 48.5116H136.114C138.727 48.5116 140.476 46.4255 140.02 43.8523L137.675 30.6242C137.219 28.051 134.731 25.9648 132.118 25.9648H120.062C117.449 25.9648 115.7 28.051 116.156 30.6242L118.501 43.8523C118.957 46.4255 121.445 48.5116 124.058 48.5116Z" fill="#F0F0F0"/>
<path d="M18.1623 73.9414H7.87695V136.438H18.1623V73.9414Z" fill="#F0F0F0"/>
<path d="M63.3017 136.438H8.92969V138.594H63.3017V136.438Z" fill="#F0F0F0"/>
<path d="M18.1619 136.438H64.2051L64.2051 73.9411H18.1619L18.1619 136.438Z" fill="#F5F5F5"/>
<path d="M20.0135 117.641H62.3535V106.481H20.0135V117.641Z" fill="#F0F0F0"/>
<path d="M20.0135 132.246H62.3535V121.086H20.0135V132.246Z" fill="#F0F0F0"/>
<path d="M57.3432 107.327H25.0254C24.7477 107.327 24.5205 107.103 24.5205 106.83V106.294C24.5205 106.021 24.7477 105.797 25.0254 105.797H57.3432C57.6209 105.797 57.8481 106.021 57.8481 106.294V106.83C57.8485 107.103 57.6209 107.327 57.3432 107.327Z" fill="#F5F5F5"/>
<path d="M57.3432 121.929H25.0254C24.7477 121.929 24.5205 121.705 24.5205 121.431V120.896C24.5205 120.622 24.7477 120.398 25.0254 120.398H57.3432C57.6209 120.398 57.8481 120.622 57.8481 120.896V121.431C57.8485 121.704 57.6209 121.929 57.3432 121.929Z" fill="#F5F5F5"/>
<path d="M20.0135 88.5469H62.3535V77.3872H20.0135V88.5469Z" fill="#F0F0F0"/>
<path d="M20.0135 103.039H62.3535V91.8794H20.0135V103.039Z" fill="#F0F0F0"/>
<path d="M57.3432 78.2333H25.0254C24.7477 78.2333 24.5205 78.0096 24.5205 77.7361V77.2004C24.5205 76.9268 24.7477 76.7031 25.0254 76.7031H57.3432C57.6209 76.7031 57.8481 76.9268 57.8481 77.2004V77.7361C57.8485 78.0092 57.6209 78.2333 57.3432 78.2333Z" fill="#F5F5F5"/>
<path d="M57.3432 92.7177H25.0254C24.7477 92.7177 24.5205 92.494 24.5205 92.2204V91.6848C24.5205 91.4112 24.7477 91.1875 25.0254 91.1875H57.3432C57.6209 91.1875 57.8481 91.4112 57.8481 91.6848V92.2204C57.8485 92.494 57.6209 92.7177 57.3432 92.7177Z" fill="#F5F5F5"/>
<path d="M62.5419 10.9688H4.80273V60.8893H62.5419V10.9688Z" fill="#E6E6E6"/>
<path d="M68.7298 9.03516H1.06524C0.748497 9.03516 0.492188 9.28801 0.492188 9.59953C0.492188 9.91148 0.748925 10.1639 1.06524 10.1639H68.7293C69.0461 10.1639 69.3024 9.91106 69.3024 9.59953C69.3028 9.28758 69.0461 9.03516 68.7298 9.03516Z" fill="#E6E6E6"/>
<path d="M64.9915 10.9688H5.94727V60.8893H64.9915V10.9688Z" fill="#F0F0F0"/>
<path d="M62.5415 60.8945H4.80273V62.4939H64.2293L62.5415 60.8945Z" fill="#E6E6E6"/>
<path d="M69.0746 60.8945H10.0303L11.7181 62.4939H70.7624L69.0746 60.8945Z" fill="#F0F0F0"/>
<path d="M61.5615 57.5199L61.5615 14.3555L9.37719 14.3555L9.37719 57.5199L61.5615 57.5199Z" fill="#FAFAFA"/>
<path d="M21.2246 57.5199L41.3561 14.3555H50.8593L30.7278 57.5199H21.2246Z" fill="white"/>
<path d="M32.7695 57.5199L52.901 14.3555H56.6059L36.4745 57.5199H32.7695Z" fill="white"/>
<path d="M61.5615 57.5199L61.5615 14.3555H61.1264L61.1264 57.5199H61.5615Z" fill="#E6E6E6"/>
<g opacity="0.4">
<path d="M9.41792 8.02344H3.51465V49.2191H9.41792V8.02344Z" fill="#F0F0F0"/>
<path d="M11.7191 8.02344H7.12012V49.2191H11.7191V8.02344Z" fill="#E6E6E6"/>
<path d="M15.3222 8.02344H9.41895V49.2191H15.3222V8.02344Z" fill="#F0F0F0"/>
<path d="M17.6195 8.02344H13.0205V49.2191H17.6195V8.02344Z" fill="#E6E6E6"/>
<path d="M21.2236 8.02344H15.3203V49.2191H21.2236V8.02344Z" fill="#F0F0F0"/>
</g>
<g opacity="0.4">
<path d="M59.3648 8.02344H55.9629V49.2191H59.3648V8.02344Z" fill="#F0F0F0"/>
<path d="M60.6911 8.02344H58.041V49.2191H60.6911V8.02344Z" fill="#E6E6E6"/>
<path d="M62.7681 8.02344H59.3662V49.2191H62.7681V8.02344Z" fill="#F0F0F0"/>
<path d="M64.0925 8.02344H61.4424V49.2191H64.0925V8.02344Z" fill="#E6E6E6"/>
<path d="M66.1685 8.02344H62.7666V49.2191H66.1685V8.02344Z" fill="#F0F0F0"/>
</g>
<path d="M126.123 90.816C125.98 92.5231 127.27 94.0208 129.003 94.1609C130.737 94.3015 132.257 93.0313 132.4 91.3243C132.542 89.6172 131.253 88.1195 129.519 87.9794C127.787 87.8388 126.266 89.109 126.123 90.816Z" fill="#E0E0E0"/>
<path d="M131.269 92.441C131.126 94.1481 132.416 95.6458 134.149 95.7859C135.882 95.9265 137.403 94.6563 137.545 92.9493C137.688 91.2422 136.398 89.7445 134.665 89.6044C132.932 89.4638 131.411 90.734 131.269 92.441Z" fill="#E0E0E0"/>
<path d="M136.781 93.0699C136.639 94.7769 137.928 96.2746 139.662 96.4148C141.395 96.5553 142.916 95.2852 143.058 93.5781C143.201 91.8711 141.911 90.3734 140.178 90.2332C138.445 90.0931 136.924 91.3628 136.781 93.0699Z" fill="#E0E0E0"/>
<path d="M120.273 92.441C120.131 94.1481 121.42 95.6458 123.154 95.7859C124.887 95.9265 126.408 94.6563 126.55 92.9493C126.692 91.2422 125.403 89.7445 123.67 89.6044C121.937 89.4638 120.416 90.734 120.273 92.441Z" fill="#E0E0E0"/>
<path d="M141.324 92.441C141.182 94.1481 142.471 95.6458 144.205 95.7859C145.938 95.9265 147.459 94.6563 147.601 92.9493C147.744 91.2422 146.454 89.7445 144.721 89.6044C142.987 89.4638 141.467 90.734 141.324 92.441Z" fill="#E0E0E0"/>
<path d="M116.044 90.5894C115.902 92.2965 117.191 93.7942 118.924 93.9343C120.658 94.0745 122.178 92.8047 122.321 91.0977C122.463 89.3906 121.174 87.8929 119.44 87.7528C117.707 87.6126 116.187 88.8824 116.044 90.5894Z" fill="#E0E0E0"/>
<path d="M111.581 91.7379C111.438 93.4449 112.728 94.9426 114.461 95.0827C116.195 95.2233 117.715 93.9531 117.858 92.2461C118 90.539 116.711 89.0413 114.977 88.9012C113.244 88.7611 111.723 90.0308 111.581 91.7379Z" fill="#E0E0E0"/>
<path d="M107.983 92.5742C107.983 92.5742 108.524 105.271 129.236 105.271C149.947 105.271 150.488 92.5742 150.488 92.5742H107.983Z" fill="#F0F0F0"/>
<path d="M162.303 105.262H158.366V138.589H162.303V105.262Z" fill="#E6E6E6"/>
<path d="M163.356 105.262H161.037V138.589H163.356V105.262Z" fill="#F0F0F0"/>
<path d="M145.546 105.262H141.608V138.589H145.546V105.262Z" fill="#E6E6E6"/>
<path d="M146.283 105.262H143.964V138.589H146.283V105.262Z" fill="#F0F0F0"/>
<path d="M108.159 109.312H164.074V105.272H108.159V109.312Z" fill="#F0F0F0"/>
<path d="M91.0661 105.262H87.1289V138.589H91.0661V105.262Z" fill="#E6E6E6"/>
<path d="M91.8046 105.262H89.4854V138.589H91.8046V105.262Z" fill="#F0F0F0"/>
<path d="M86.4262 109.312H106.474V105.272H86.4262V109.312Z" fill="#E6E6E6"/>
<path d="M107.823 105.262H103.886V138.589H107.823V105.262Z" fill="#E6E6E6"/>
<path d="M108.877 105.262H106.558V138.589H108.877V105.262Z" fill="#F0F0F0"/>
<path d="M80.3277 157.665C126.224 157.665 163.431 155.525 163.431 152.885C163.431 150.245 126.224 148.105 80.3277 148.105C34.4311 148.105 -2.77539 150.245 -2.77539 152.885C-2.77539 155.525 34.4311 157.665 80.3277 157.665Z" fill="#F5F5F5"/>
<path d="M125.535 148.694C125.535 150.437 124.26 151.925 122.514 152.211C119.174 152.757 113.386 153.508 106.806 153.508C100.226 153.508 94.4392 152.757 91.0986 152.211C89.3528 151.925 88.0781 150.437 88.0781 148.694V114.516H125.535V148.694Z" fill="#2F648E"/>
<path opacity="0.3" d="M88.0771 115.113V119.91C90.3312 120.733 97.7325 121.337 106.804 121.337C115.886 121.337 123.292 120.733 125.536 119.91V115.113H88.0771Z" fill="black"/>
<path d="M126.241 118.78C126.241 119.863 117.736 120.74 106.807 120.74C95.8769 120.74 87.3732 119.863 87.3732 118.78L87.0166 114.516H126.597L126.241 118.78Z" fill="#2F648E"/>
<path d="M106.807 116.475C117.737 116.475 126.597 115.598 126.597 114.515C126.597 113.432 117.737 112.555 106.807 112.555C95.877 112.555 87.0166 113.432 87.0166 114.515C87.0166 115.598 95.877 116.475 106.807 116.475Z" fill="#2F648E"/>
<path opacity="0.3" d="M106.807 116.475C117.737 116.475 126.597 115.598 126.597 114.515C126.597 113.432 117.737 112.555 106.807 112.555C95.877 112.555 87.0166 113.432 87.0166 114.515C87.0166 115.598 95.877 116.475 106.807 116.475Z" fill="black"/>
<path opacity="0.2" d="M93.098 146.284C92.2986 146.284 91.6445 145.64 91.6445 144.853V125.252C91.6445 124.464 92.2986 123.82 93.098 123.82C93.8973 123.82 94.5514 124.464 94.5514 125.252V144.853C94.5518 145.64 93.8977 146.284 93.098 146.284Z" fill="black"/>
<path opacity="0.2" d="M120.517 146.284C119.718 146.284 119.063 145.64 119.063 144.853V125.252C119.063 124.464 119.718 123.82 120.517 123.82C121.316 123.82 121.97 124.464 121.97 125.252V144.853C121.97 145.64 121.316 146.284 120.517 146.284Z" fill="black"/>
<path opacity="0.2" d="M111.376 146.284C110.577 146.284 109.923 145.64 109.923 144.853V125.252C109.923 124.464 110.577 123.82 111.376 123.82C112.176 123.82 112.83 124.464 112.83 125.252V144.853C112.83 145.64 112.176 146.284 111.376 146.284Z" fill="black"/>
<path opacity="0.2" d="M102.238 146.284C101.438 146.284 100.784 145.64 100.784 144.853V125.252C100.784 124.464 101.438 123.82 102.238 123.82C103.037 123.82 103.691 124.464 103.691 125.252V144.853C103.691 145.64 103.037 146.284 102.238 146.284Z" fill="black"/>
<path d="M55.8446 35.9205C55.8446 37.0007 54.9556 37.8762 53.8588 37.8762C52.762 37.8762 51.873 37.0007 51.873 35.9205C51.873 34.8403 52.762 33.9648 53.8588 33.9648C54.9556 33.9648 55.8446 34.8408 55.8446 35.9205Z" fill="#2F648E"/>
<path d="M52.2581 36.2087C52.22 36.2087 52.1836 36.1889 52.1638 36.1538C51.6118 35.1559 51.9872 33.9018 53.0005 33.3577C53.4912 33.0943 54.057 33.0348 54.5932 33.1905C55.1294 33.3463 55.5722 33.6979 55.8392 34.1817C55.8675 34.2328 55.8482 34.2969 55.7963 34.3248C55.744 34.3522 55.6793 34.3332 55.651 34.2826C55.411 33.8486 55.0137 33.5325 54.5323 33.3932C54.051 33.253 53.5435 33.3066 53.1029 33.543C52.1934 34.031 51.8565 35.1568 52.352 36.0525C52.3803 36.1036 52.361 36.1678 52.3091 36.1956C52.2929 36.2045 52.2753 36.2087 52.2581 36.2087Z" fill="#2F648E"/>
<path d="M50.3312 44.8712C49.8846 44.8712 49.4517 44.7306 49.0869 44.4634C48.6386 44.135 48.3467 43.6538 48.2657 43.1093C48.1847 42.5647 48.3236 42.0215 48.6575 41.5795C48.9913 41.138 49.4795 40.8505 50.0324 40.7703C50.0929 40.7635 50.1456 40.802 50.1542 40.8594C50.1627 40.9168 50.1225 40.9708 50.0637 40.9792C49.5674 41.051 49.1289 41.3089 48.8293 41.7053C48.5297 42.1017 48.405 42.5892 48.4779 43.0785C48.5507 43.5673 48.8126 43.9991 49.2151 44.2942C49.6175 44.5892 50.1122 44.7112 50.6089 44.6399C50.6681 44.6319 50.7221 44.6715 50.7307 44.729C50.7392 44.7864 50.6989 44.84 50.6402 44.8488C50.5365 44.864 50.4336 44.8712 50.3312 44.8712Z" fill="#2F648E"/>
<path d="M61.1321 48.0657C60.7322 48.0657 60.3405 47.9521 59.9972 47.733C59.9475 47.7014 59.9333 47.6359 59.9655 47.587C59.9976 47.538 60.064 47.5245 60.1138 47.5557C60.5347 47.8251 61.037 47.9162 61.5273 47.8132C62.0181 47.7102 62.439 47.4253 62.712 47.0108C63.2756 46.1551 63.0275 45.007 62.1587 44.4519C62.109 44.4202 62.0948 44.3548 62.127 44.3058C62.1591 44.2569 62.2255 44.2434 62.2753 44.2746C63.2431 44.8934 63.5199 46.172 62.8916 47.1256C62.5873 47.5874 62.1188 47.9048 61.5719 48.0196C61.4257 48.05 61.2783 48.0657 61.1321 48.0657Z" fill="#2F648E"/>
<path d="M52.7439 42.0296C54.2965 42.0296 55.5552 40.79 55.5552 39.2609C55.5552 37.7318 54.2965 36.4922 52.7439 36.4922C51.1913 36.4922 49.9326 37.7318 49.9326 39.2609C49.9326 40.79 51.1913 42.0296 52.7439 42.0296Z" fill="#2F648E"/>
<path d="M55.3789 45.5815C56.8352 44.1471 56.8352 41.8216 55.3789 40.3873C53.9225 38.9529 51.5612 38.9529 50.1048 40.3873C48.6484 41.8216 48.6484 44.1471 50.1048 45.5815C51.5612 47.0158 53.9225 47.0158 55.3789 45.5815Z" fill="#2F648E"/>
<path d="M53.1388 51.721C55.4164 51.721 57.2629 49.9025 57.2629 47.6593C57.2629 45.4161 55.4164 43.5977 53.1388 43.5977C50.8611 43.5977 49.0146 45.4161 49.0146 47.6593C49.0146 49.9025 50.8611 51.721 53.1388 51.721Z" fill="#2F648E"/>
<path d="M61.2757 48.8788C61.7991 46.6957 60.4264 44.5081 58.2098 43.9926C55.9932 43.4771 53.7719 44.829 53.2485 47.012C52.7251 49.1951 54.0977 51.3827 56.3144 51.8982C58.531 52.4137 60.7522 51.0618 61.2757 48.8788Z" fill="#2F648E"/>
<path d="M70.9374 56.3114C70.9387 56.6377 70.9541 57.0548 70.9653 57.4368C70.9781 57.8268 70.9987 58.2202 71.0236 58.6141C71.0801 59.4013 71.135 60.1928 71.2182 60.9826C71.3725 62.5634 71.5915 64.143 71.8684 65.7129C71.9399 66.105 72.0029 66.4993 72.0848 66.8893L72.273 67.8455C72.321 68.0004 72.2893 67.9679 72.2151 67.9624C72.1427 67.9649 72.2323 68.0405 72.4667 68.0401C72.936 68.043 73.6638 67.8108 74.3427 67.5166C74.6882 67.3668 75.0379 67.1988 75.3898 67.0236C75.7353 66.8484 76.0953 66.6428 76.4176 66.4664L77.6713 67.8868C77.3572 68.2444 77.0524 68.5407 76.7194 68.8472C76.3915 69.1519 76.0439 69.4407 75.671 69.7125C75.2998 69.989 74.8999 70.2406 74.4585 70.4753C74.0157 70.7096 73.5267 70.9126 72.9249 71.0418C72.6231 71.1021 72.2914 71.1465 71.9168 71.1249C71.5443 71.1021 71.1281 71.0215 70.7257 70.8315C70.3236 70.6471 69.9555 70.363 69.6854 70.0523C69.4103 69.7421 69.2208 69.4136 69.0837 69.1038C68.9487 68.8079 68.8449 68.4533 68.8029 68.2887L68.6332 67.6724C68.517 67.2621 68.4142 66.8484 68.3139 66.4343C67.9174 64.7762 67.599 63.0991 67.3859 61.4043C67.2801 60.5571 67.1939 59.7057 67.1429 58.8488C67.1168 58.4203 67.0958 57.9906 67.082 57.5571C67.0653 57.1155 67.0679 56.7082 67.0808 56.2109L70.9374 56.3114Z" fill="#FFB573"/>
<path d="M68.8576 51.7586C72.5141 54.5155 72.367 59.7101 72.367 59.7101L65.8273 61.2496C65.8273 61.2496 63.8205 56.0267 64.6349 54.1141C65.4844 52.1191 66.7998 50.2073 68.8576 51.7586Z" fill="#2F648E"/>
<path opacity="0.7" d="M68.8576 51.7586C72.5141 54.5155 72.367 59.7101 72.367 59.7101L65.8273 61.2496C65.8273 61.2496 63.8205 56.0267 64.6349 54.1141C65.4844 52.1191 66.7998 50.2073 68.8576 51.7586Z" fill="white"/>
<path d="M76.1547 66.9452L77.2369 65.1562L79.9462 68.0089C79.9462 68.0089 78.0029 69.2331 75.9893 68.3597L76.1547 66.9452Z" fill="#FFB573"/>
<path d="M78.5717 64.3086L82.0486 66.3251L79.9475 68.0178L77.2383 65.1647L78.5717 64.3086Z" fill="#FFB573"/>
<path d="M48.3906 149.766L52.1303 150.12L54.4499 141.498L50.7103 141.145L48.3906 149.766Z" fill="#FFB573"/>
<path d="M29.2314 142.519L32.5875 144.251L36.5783 136.459L33.2223 134.727L29.2314 142.519Z" fill="#FFB573"/>
<path d="M33.483 142.738L30.4815 139.737C30.3722 139.628 30.2067 139.614 30.0828 139.704L27.3299 141.701C27.0444 141.908 27.0196 142.349 27.2759 142.597C28.3405 143.626 28.9076 144.069 30.2273 145.389C31.0395 146.201 32.7145 148.115 33.8362 149.236C34.933 150.333 36.1434 149.325 35.7782 148.759C34.1418 146.222 33.8671 144.636 33.7633 143.347C33.744 143.114 33.6429 142.898 33.483 142.738Z" fill="#2F648E"/>
<path d="M52.7137 149.008H48.197C48.0324 149.008 47.8841 149.12 47.8404 149.278L46.8585 152.798C46.7564 153.163 47.0295 153.499 47.4096 153.502C49.0015 153.516 49.7559 153.509 51.7425 153.509C52.9645 153.509 56.1259 153.509 57.8133 153.509C59.4639 153.509 59.809 151.866 59.1262 151.717C56.0642 151.05 54.2992 150.129 53.3541 149.251C53.183 149.093 52.9542 149.008 52.7137 149.008Z" fill="#2F648E"/>
<path opacity="0.2" d="M54.4485 141.506L53.2535 145.95H49.417L50.7071 141.152L54.4485 141.506Z" fill="black"/>
<path opacity="0.2" d="M33.2203 134.727L36.578 136.46L34.5194 140.475L31.1621 138.742L33.2203 134.727Z" fill="black"/>
<path d="M67.7522 51.2345C67.7522 51.2345 69.4054 51.9508 63.8604 73.563C57.7471 73.0421 51.429 72.5043 48.4544 72.2506C49.255 66.0974 49.5971 62.2903 47.7129 49.3619C47.7129 49.3619 51.0016 48.9453 54.3294 49.0703C56.9328 49.1682 59.0638 49.2674 61.3252 49.6663C64.3057 50.1927 67.7522 51.2345 67.7522 51.2345Z" fill="#2F648E"/>
<path opacity="0.7" d="M67.7522 51.2345C67.7522 51.2345 69.4054 51.9508 63.8604 73.563C57.7471 73.0421 51.429 72.5043 48.4544 72.2506C49.255 66.0974 49.5971 62.2903 47.7129 49.3619C47.7129 49.3619 51.0016 48.9453 54.3294 49.0703C56.9328 49.1682 59.0638 49.2674 61.3252 49.6663C64.3057 50.1927 67.7522 51.2345 67.7522 51.2345Z" fill="white"/>
<path d="M54.3307 48.9609C54.3307 48.9609 53.4567 48.9761 52.4242 48.9761C51.8044 49.9192 54.4267 52.6672 57.7617 55.3671C58.5654 52.9065 59.8336 52.9175 59.8336 52.9175L54.3307 48.9609Z" fill="white"/>
<path d="M61.3243 49.6016C61.3243 49.6016 61.7139 49.656 62.6465 49.8654C63.2663 50.8084 63.6139 53.1617 61.785 55.2145C61.0714 52.6814 59.834 52.9106 59.834 52.9106L61.3243 49.6016Z" fill="white"/>
<path d="M55.7046 41.3672C55.9511 43.6217 56.0351 47.721 54.3301 49.0658C54.3301 49.0658 56.1508 50.8962 59.833 52.9164C62.5119 51.0937 61.3255 49.6619 61.3255 49.6619C58.8674 48.8577 59.0932 47.0291 59.6817 45.344L55.7046 41.3672Z" fill="#FFB573"/>
<path opacity="0.2" d="M57.3273 42.9844L59.6813 45.3364C59.5407 45.7353 59.4228 46.1414 59.3581 46.5412C58.4113 46.3229 57.0406 45.3537 57.0256 44.3563C57.0183 43.859 57.2253 43.2073 57.3273 42.9844Z" fill="black"/>
<path d="M64.542 34.0117C66.1167 35.3895 66.5814 38.7429 65.0812 41.0177C64.3389 37.3921 64.542 34.0117 64.542 34.0117Z" fill="#2F648E"/>
<path d="M55.2232 36.6401C54.9506 40.3518 54.7543 41.9175 56.3847 44.0568C58.8368 47.275 63.5258 46.793 64.9188 43.2362C66.1729 40.0348 66.4083 34.5025 62.9494 32.5531C59.5415 30.6325 55.4962 32.928 55.2232 36.6401Z" fill="#FFB573"/>
<path d="M54.7242 39.6186C57.5102 39.513 59.0541 35.925 58.3537 34.4125C61.5109 36.0305 66.2976 37.3087 65.7649 35.2217C65.0465 32.4075 61.5889 30.3437 57.3315 31.8519C54.8674 32.8996 52.7599 35.2213 54.7242 39.6186Z" fill="#2F648E"/>
<path d="M53.8743 39.6111C53.9909 40.3739 54.4542 41.013 54.978 41.3815C55.7662 41.9357 56.4888 41.3198 56.545 40.4178C56.5956 39.606 56.2462 38.3392 55.323 38.143C54.4131 37.9488 53.741 38.7386 53.8743 39.6111Z" fill="#FFB573"/>
<path d="M63.8617 73.5584C63.8617 73.5584 67.3463 95.9515 65.403 110.338C63.935 121.208 54.4472 144.661 54.4472 144.661L48.2881 144.495C48.2881 144.495 54.6504 121.763 55.9658 112.824C58.2156 97.532 52.5802 72.5977 52.5802 72.5977L63.8617 73.5584Z" fill="#2F648E"/>
<path opacity="0.2" d="M57.8492 78.1445L54.5635 83.248C55.3993 88.5401 56.2312 95.159 56.4434 101.528C61.0642 93.3819 58.8766 82.4578 57.8492 78.1445Z" fill="black"/>
<path d="M55.4084 144.997L47.6689 144.792L48.1383 142.336L56.1379 142.382L55.4084 144.997Z" fill="#2F648E"/>
<path d="M60.4934 73.317C60.4934 73.317 57.9281 98.1137 52.0441 111.601C47.2917 122.495 35.9596 139.913 35.9596 139.913L31.4326 137.306C31.4326 137.306 38.7349 117.933 42.3138 110.674C51.0892 92.8735 42.9263 78.5973 48.4558 72.2461L60.4934 73.317Z" fill="#2F648E"/>
<path d="M36.4508 140.291L30.6787 137.174L31.6157 134.742L37.768 138.158L36.4508 140.291Z" fill="#2F648E"/>
<path d="M48.3038 71.3362L47.4899 72.635C47.4269 72.7359 47.5439 72.8541 47.7222 72.8693L63.8787 74.2454C64.0176 74.2572 64.1385 74.2003 64.1547 74.115L64.4128 72.7688C64.4308 72.6756 64.3172 72.5856 64.1655 72.5726L48.5649 71.2437C48.45 71.234 48.3445 71.2712 48.3038 71.3362Z" fill="#2F648E"/>
<path d="M50.2473 73.2362L49.8298 73.2007C49.7467 73.1935 49.6872 73.1458 49.6974 73.0947L50.0482 71.3467C50.0585 71.2957 50.1347 71.2594 50.2182 71.2665L50.6358 71.302C50.7189 71.3092 50.7784 71.3569 50.7681 71.4079L50.4174 73.1559C50.4071 73.207 50.3304 73.2433 50.2473 73.2362Z" fill="#2F648E"/>
<path d="M62.6907 74.2987L62.2731 74.2632C62.1901 74.256 62.1305 74.2083 62.1408 74.1572L62.4916 72.4092C62.5018 72.3582 62.5781 72.3219 62.6612 72.329L63.0787 72.3645C63.1618 72.3717 63.2213 72.4194 63.2111 72.4704L62.8603 74.2185C62.85 74.2695 62.7738 74.3058 62.6907 74.2987Z" fill="#2F648E"/>
<path d="M56.4681 73.7596L56.0505 73.7241C55.9674 73.717 55.9079 73.6693 55.9181 73.6182L56.2689 71.8702C56.2792 71.8191 56.3554 71.7828 56.4385 71.79L56.8561 71.8254C56.9392 71.8326 56.9987 71.8803 56.9884 71.9314L56.6377 73.6794C56.6278 73.7309 56.5511 73.7668 56.4681 73.7596Z" fill="#2F648E"/>
<path d="M61.1239 38.4781C61.0828 38.778 61.2109 39.0425 61.4102 39.0691C61.6091 39.0953 61.8037 38.8735 61.8444 38.5736C61.8851 38.2736 61.757 38.0092 61.5581 37.9826C61.3592 37.9564 61.165 38.1782 61.1239 38.4781Z" fill="#2F648E"/>
<path d="M64.5653 38.9351C64.5242 39.2351 64.6523 39.4995 64.8516 39.5261C65.0505 39.5523 65.2451 39.3306 65.2858 39.0306C65.3269 38.7307 65.1984 38.4662 64.9995 38.4396C64.8006 38.4134 64.6065 38.6352 64.5653 38.9351Z" fill="#2F648E"/>
<path d="M64.9082 38.4466L65.6677 38.3359C65.6677 38.3359 65.2159 38.8488 64.9082 38.4466Z" fill="#2F648E"/>
<path d="M63.214 39.2656C63.214 39.2656 63.5541 40.6244 64.0372 41.3222C63.5853 41.6384 62.9258 41.3792 62.9258 41.3792L63.214 39.2656Z" fill="#ED893E"/>
<path d="M61.1441 42.2745C60.1339 41.9364 59.7473 41.1593 59.7288 41.1213C59.7113 41.0846 59.7271 41.0407 59.7644 41.0229C59.8013 41.0052 59.8463 41.0208 59.8643 41.0576C59.8694 41.0677 60.376 42.0778 61.715 42.2547C61.7579 42.2598 61.7849 42.2973 61.7793 42.3374C61.7737 42.378 61.736 42.4062 61.6953 42.4007C61.4943 42.3737 61.3104 42.3303 61.1441 42.2745Z" fill="#2F648E"/>
<path d="M59.5634 36.7352C59.5386 36.7268 59.5154 36.712 59.497 36.6905C59.4438 36.628 59.452 36.5351 59.5154 36.4824C60.2663 35.8602 61.0507 36.0843 61.0837 36.094C61.1656 36.1248 61.2071 36.1995 61.1836 36.2772C61.16 36.3553 61.0769 36.3996 60.9976 36.3768C60.9706 36.3688 60.3315 36.1924 59.7083 36.7082C59.6667 36.7428 59.6119 36.7513 59.5634 36.7352Z" fill="#2F648E"/>
<path d="M66.009 37.6424C65.9858 37.6348 65.9639 37.6208 65.9464 37.6014C65.3965 37.0007 64.7231 37.0974 64.7163 37.0987C64.634 37.1113 64.5577 37.056 64.5448 36.9758C64.532 36.8952 64.5877 36.8196 64.6695 36.807C64.7038 36.8015 65.5122 36.6854 66.1688 37.4034C66.2241 37.4642 66.2194 37.5575 66.1581 37.612C66.1161 37.6491 66.0587 37.6588 66.009 37.6424Z" fill="#2F648E"/>
<path d="M69.3987 69.4868C70.5658 65.9064 74.4593 63.9359 78.0948 65.0858C81.7302 66.2352 83.731 70.0697 82.5635 73.6502L79.8923 81.8427L66.7275 77.6798L69.3987 69.4868Z" fill="#2F648E"/>
<path opacity="0.3" d="M69.3987 69.4868C70.5658 65.9064 74.4593 63.9359 78.0948 65.0858C81.7302 66.2352 83.731 70.0697 82.5635 73.6502L79.8923 81.8427L66.7275 77.6798L69.3987 69.4868Z" fill="black"/>
<path d="M56.4055 65.3808L53.9976 72.7667C53.8519 73.2133 54.1018 73.6911 54.5548 73.8346L66.7282 77.6844L69.3998 69.4902C69.8888 67.9895 70.8549 66.7738 72.0833 65.9507C73.7832 64.8063 75.9828 64.4218 78.0946 65.0895L65.1008 60.9802C62.989 60.3124 60.7894 60.6969 59.0895 61.8413C57.8603 62.6645 56.8946 63.8802 56.4055 65.3808Z" fill="#2F648E"/>
<path d="M62.9382 70.9807L66.2921 60.6932C66.3431 60.537 66.2394 60.3728 66.0748 60.3487L62.6373 59.8477L62.2023 61.1816L64.6972 61.9705L61.8701 70.6422L62.9382 70.9807Z" fill="#2F648E"/>
<path d="M61.1567 70.419C60.9394 71.0851 61.3119 71.7985 61.9882 72.0125C62.6646 72.2265 63.3893 71.8597 63.6062 71.1936C63.8235 70.5275 63.4511 69.8141 62.7747 69.6001C62.0984 69.3861 61.3736 69.7529 61.1567 70.419Z" fill="#2F648E"/>
<path d="M67.3643 78.9023L84.2508 84.2421C84.5092 84.324 84.7861 84.1838 84.8693 83.9289C84.9524 83.6743 84.8101 83.4017 84.5517 83.3198L66.7291 77.6836C66.5628 78.1931 66.8474 78.7389 67.3643 78.9023Z" fill="#2F648E"/>
<path opacity="0.2" d="M67.3626 78.9023L74.2632 81.0842C74.5217 81.1661 74.7986 81.026 74.8817 80.771C74.9649 80.5165 74.8226 80.2438 74.5637 80.1619L66.727 77.6836C66.5611 78.1931 66.8457 78.7389 67.3626 78.9023Z" fill="black"/>
<path d="M49.5299 55.3159L49.2912 55.5713L49.025 55.8727C48.845 56.0753 48.6671 56.2855 48.4935 56.5C48.1446 56.928 47.8116 57.3742 47.4948 57.8309C46.8476 58.7355 46.2617 59.6857 45.7607 60.6731C45.2596 61.66 44.8139 62.6722 44.4723 63.717C44.3008 64.2383 44.1392 64.7643 44.0158 65.2978C43.9747 65.454 43.9669 65.5165 43.9489 65.5916C43.9408 65.66 43.9318 65.7242 43.9309 65.7748C43.9288 65.8782 43.9386 65.9293 43.9489 65.9732C43.9545 66.0479 44.0925 66.2286 44.4444 66.4025C44.7869 66.5743 45.2639 66.7052 45.7701 66.8006C46.7953 66.9931 47.9487 67.0226 49.106 67.0159C50.2684 67.0015 51.4509 66.915 52.6339 66.7913C53.8164 66.6858 55.0183 66.5178 56.1807 66.3464L56.6478 68.1712C54.248 68.9314 51.8388 69.4785 49.2959 69.7808C48.0233 69.9302 46.7251 69.996 45.3321 69.8639C44.6334 69.7896 43.9086 69.6588 43.1311 69.3523C42.7437 69.1948 42.3399 68.9867 41.9469 68.6828C41.5564 68.3818 41.1767 67.9699 40.9169 67.4739C40.3747 66.4836 40.4395 65.316 40.5878 64.63C40.6919 63.9842 40.8389 63.3472 41.0009 62.7144C41.349 61.4561 41.7892 60.2231 42.3519 59.05C42.9078 57.8735 43.5589 56.7469 44.2854 55.6684C44.6566 55.134 45.0475 54.6135 45.4624 54.1057C45.6694 53.8516 45.882 53.6008 46.1044 53.3522L46.4495 52.9837C46.575 52.8545 46.6753 52.7511 46.8438 52.5898L49.5299 55.3159Z" fill="#FFB573"/>
<path d="M55.2441 66.724L58.2486 65.1562L58.3832 68.3336C58.3832 68.3336 56.2612 69.2048 55.0156 68.2428L55.2441 66.724Z" fill="#FFB573"/>
<path d="M60.7195 64.9141L60.2686 67.8402L58.3832 68.3324L58.249 65.1551L60.7195 64.9141Z" fill="#FFB573"/>
<path d="M47.7129 49.3586C45.8244 49.6874 43.1777 55.0226 43.1777 55.0226L47.9388 59.2633C47.9388 59.2633 51.7255 55.1957 51.5232 52.7719C51.3518 50.7145 50.1182 48.9399 47.7129 49.3586Z" fill="#2F648E"/>
<path opacity="0.7" d="M47.7129 49.3586C45.8244 49.6874 43.1777 55.0226 43.1777 55.0226L47.9388 59.2633C47.9388 59.2633 51.7255 55.1957 51.5232 52.7719C51.3518 50.7145 50.1182 48.9399 47.7129 49.3586Z" fill="white"/>
<path d="M34.9586 144.363C34.9115 144.376 34.8618 144.381 34.8103 144.378C34.3341 144.353 33.825 143.638 33.5635 143.214C33.5481 143.188 33.5494 143.157 33.5665 143.133C33.5841 143.109 33.6141 143.097 33.6432 143.103C33.795 143.135 35.1305 143.429 35.296 143.871C35.3212 143.938 35.3324 144.043 35.2432 144.158C35.1605 144.266 35.0649 144.334 34.9586 144.363ZM33.7881 143.289C34.1691 143.868 34.548 144.217 34.8185 144.231C34.9355 144.237 35.0349 144.184 35.1245 144.068C35.1764 144.002 35.1669 143.953 35.1554 143.922C35.0542 143.651 34.2501 143.402 33.7881 143.289Z" fill="#2F648E"/>
<path d="M34.8242 143.2C34.4114 143.313 33.8688 143.322 33.6082 143.249C33.5825 143.241 33.5628 143.221 33.5559 143.196C33.5495 143.171 33.5572 143.144 33.5761 143.125C33.6091 143.093 34.3892 142.342 34.9335 142.38C35.0754 142.39 35.1911 142.45 35.2764 142.559C35.4093 142.729 35.3544 142.864 35.3094 142.929C35.2258 143.05 35.0432 143.14 34.8242 143.2ZM33.7878 143.134C34.2284 143.191 35.0209 143.084 35.1859 142.845C35.2134 142.806 35.2348 142.747 35.1581 142.649C35.0994 142.574 35.0226 142.534 34.9241 142.528C34.5525 142.501 34.0137 142.935 33.7878 143.134Z" fill="#2F648E"/>
<path d="M54.3133 149.571C53.8796 149.571 53.4077 149.488 53.0802 149.417C53.0489 149.41 53.0253 149.384 53.0219 149.353C53.0185 149.321 53.0356 149.291 53.0648 149.277C53.2504 149.191 54.889 148.446 55.3017 148.721C55.3544 148.756 55.4157 148.824 55.4084 148.949C55.3981 149.123 55.3231 149.263 55.1851 149.365C54.9807 149.518 54.6592 149.571 54.3133 149.571ZM53.3378 149.318C53.8243 149.407 54.7244 149.524 55.0947 149.248C55.1976 149.171 55.2507 149.071 55.2584 148.941C55.2618 148.881 55.2383 148.857 55.2173 148.843C54.9871 148.689 54.018 149.023 53.3378 149.318Z" fill="#2F648E"/>
<path d="M53.0966 149.419C53.079 149.419 53.0618 149.413 53.0481 149.401C53.0267 149.383 53.0173 149.355 53.0233 149.328C53.0387 149.26 53.4107 147.669 54.3001 147.77C54.523 147.796 54.5838 147.905 54.5954 147.992C54.6511 148.397 53.6177 149.214 53.1244 149.413C53.1154 149.417 53.106 149.419 53.0966 149.419ZM54.2199 147.913C53.652 147.913 53.3207 148.839 53.211 149.21C53.7446 148.935 54.4831 148.271 54.4475 148.012C54.445 147.993 54.4368 147.935 54.2825 147.917C54.2611 147.914 54.2401 147.913 54.2199 147.913Z" fill="#2F648E"/>
<path d="M61.4688 37.9818L62.2283 37.8711C62.2283 37.8711 61.7765 38.3839 61.4688 37.9818Z" fill="#2F648E"/>
<path d="M87.8396 73.3032L71.2438 76.6971C70.648 76.8153 70.0651 76.4396 69.9408 75.8528L69.1907 72.2901L68.9121 70.9816L69.4007 69.4872C69.4693 69.272 69.5507 69.0609 69.645 68.8583C69.6536 68.8287 69.6708 68.795 69.6879 68.7654C69.9665 68.1407 70.3394 67.575 70.7809 67.0812L71.6466 66.9039L85.8766 63.9954C86.3266 63.9026 86.7724 64.101 87.0167 64.4556C87.0938 64.5695 87.1495 64.6962 87.1796 64.8355L88.6925 72.02C88.8168 72.6025 88.4311 73.1808 87.8396 73.3032Z" fill="#2F648E"/>
<path opacity="0.3" d="M87.0163 64.4556L79.0098 72.4885L77.2954 71.8047L70.6262 69.1411L69.6875 68.7654C69.9661 68.1407 70.339 67.575 70.7805 67.0812L71.6463 66.9039L85.8762 63.9954C86.3262 63.9026 86.772 64.101 87.0163 64.4556Z" fill="black"/>
<path d="M87.0191 64.4556L77.2982 71.8047L76.6638 72.2859L70.5561 69.3015L69.6475 68.8583C69.656 68.8287 69.6732 68.795 69.6903 68.7654C69.9689 68.1407 70.3418 67.575 70.7833 67.0812L71.6491 66.9039L85.879 63.9954C86.329 63.9026 86.7748 64.101 87.0191 64.4556Z" fill="#2F648E"/>
<path opacity="0.2" d="M87.0191 64.4556L77.2982 71.8047L76.6638 72.2859L70.5561 69.3015L69.6475 68.8583C69.656 68.8287 69.6732 68.795 69.6903 68.7654C69.9689 68.1407 70.3418 67.575 70.7833 67.0812L71.6491 66.9039L85.879 63.9954C86.329 63.9026 86.7748 64.101 87.0191 64.4556Z" fill="white"/>
<path d="M108.103 88.1058L103.027 93.4735C102.614 93.9103 101.913 93.9348 101.47 93.5279L89.0664 82.1517C88.6228 81.7448 88.598 81.0546 89.0112 80.6182L94.0868 75.2505C94.1858 75.1458 94.3015 75.0643 94.4262 75.0082C94.8214 74.8267 95.3066 74.8866 95.6439 75.196L108.048 86.5722C108.384 86.8812 108.48 87.3544 108.325 87.7545C108.276 87.8816 108.202 88.0006 108.103 88.1058Z" fill="#2F648E"/>
<path opacity="0.3" d="M108.323 87.7545L97.0406 85.9635L94.4248 75.0082C94.82 74.8267 95.3052 74.8866 95.6425 75.196L108.046 86.5722C108.383 86.8808 108.479 87.354 108.323 87.7545Z" fill="black"/>
<path d="M108.323 87.7541L97.3394 84.5274L94.4248 75.0082C94.82 74.8267 95.3052 74.8866 95.6425 75.196L108.046 86.5722C108.383 86.8803 108.479 87.3535 108.323 87.7541Z" fill="#2F648E"/>
<path opacity="0.2" d="M108.323 87.7541L97.3394 84.5274L94.4248 75.0082C94.82 74.8267 95.3052 74.8866 95.6425 75.196L108.046 86.5722C108.383 86.8803 108.479 87.3535 108.323 87.7541Z" fill="white"/>
<path d="M112.512 96.9457L118.092 103.353C118.543 103.871 118.456 104.646 117.907 105.067L105.805 114.367C105.463 114.629 104.898 114.517 104.545 114.12L100.187 109.223C100.102 109.127 100.034 109.02 99.985 108.911C99.8277 108.561 99.8547 108.17 100.085 107.933L110.791 96.909C111.159 96.5299 111.697 96.4447 112.134 96.6561C112.274 96.7233 112.402 96.8195 112.512 96.9457Z" fill="#2F648E"/>
<path opacity="0.3" d="M112.134 96.6563L109.464 108.313L99.985 108.91C99.8277 108.561 99.8547 108.169 100.085 107.932L110.791 96.9087C111.159 96.5296 111.697 96.4448 112.134 96.6563Z" fill="black"/>
<path d="M112.134 96.6562L107.674 109.03L99.985 108.911C99.8277 108.561 99.8547 108.17 100.085 107.933L110.791 96.9091C111.159 96.5296 111.696 96.4448 112.134 96.6562Z" fill="#2F648E"/>
<path opacity="0.2" d="M112.134 96.6562L107.674 109.03L99.985 108.911C99.8277 108.561 99.8547 108.17 100.085 107.933L110.791 96.9091C111.159 96.5296 111.696 96.4448 112.134 96.6562Z" fill="white"/>
</g>
<defs>
<clipPath id="clip0_3321_6701">
<rect width="173" height="164" fill="white"/>
</clipPath>
</defs>
</svg>
