<svg width="24" height="24" viewBox="0 0 24 24" fill="none" xmlns="http://www.w3.org/2000/svg">
<g clip-path="url(#clip0_3321_8020)">
<g filter="url(#filter0_di_3321_8020)">
<path d="M18.5001 12C14.912 11.9956 12.0044 9.08806 12 5.50002C12 5.33103 12.013 5.16603 12.025 5H4.50004C4.22389 5.00023 4.00025 5.2243 4.00049 5.50048C4.00054 5.53119 4.00339 5.56184 4.00902 5.59203L5.50902 13.592C5.55327 13.8284 5.75952 13.9998 6.00004 14H19.734C20.995 14.0002 22.0587 13.0613 22.215 11.81L22.351 10.724C21.2378 11.552 19.8875 11.9995 18.5001 12Z" fill="#2F648E"/>
</g>
<g filter="url(#filter1_di_3321_8020)">
<path d="M18.5 24C19.8807 24 21 22.8807 21 21.5C21 20.1193 19.8807 19 18.5 19C17.1193 19 16 20.1193 16 21.5C16 22.8807 17.1193 24 18.5 24Z" fill="#2F648E"/>
</g>
<g filter="url(#filter2_di_3321_8020)">
<path d="M8.49998 24C9.88069 24 11 22.8807 11 21.5C11 20.1193 9.88069 19 8.49998 19C7.11928 19 6 20.1193 6 21.5C6 22.8807 7.11928 24 8.49998 24Z" fill="#2F648E"/>
</g>
<g filter="url(#filter3_di_3321_8020)">
<path d="M20.5 18H8.95898C7.29206 17.9966 5.85759 16.8208 5.52698 15.187L3.09 3.00003H0.500016C0.223875 3.00003 0 2.77616 0 2.50002C0 2.22388 0.223875 2 0.500016 2H3.50002C3.73767 1.99995 3.94247 2.16716 3.99 2.39998L6.50798 14.99C6.744 16.157 7.76836 16.997 8.95898 17H20.5C20.7761 17 21 17.2239 21 17.5C21 17.7762 20.7761 18 20.5 18Z" fill="#2F648E"/>
</g>
<g filter="url(#filter4_di_3321_8020)">
<path d="M18.5 11C21.5375 11 24 8.53754 24 5.49998C24 2.46243 21.5375 0 18.5 0C15.4624 0 13 2.46243 13 5.49998C13 8.53754 15.4624 11 18.5 11Z" fill="#2FBBA4"/>
</g>
<path d="M20.136 7.312C19.752 7.84 19.2133 8.104 18.52 8.104C17.8267 8.104 17.2853 7.84 16.896 7.312C16.512 6.784 16.32 6.08 16.32 5.2C16.32 4.32 16.512 3.616 16.896 3.088C17.2853 2.56 17.8267 2.296 18.52 2.296C19.2133 2.296 19.752 2.56 20.136 3.088C20.5253 3.616 20.72 4.32 20.72 5.2C20.72 6.08 20.5253 6.784 20.136 7.312ZM18.52 7.208C18.936 7.208 19.2533 7.03467 19.472 6.688C19.6907 6.34133 19.8 5.84533 19.8 5.2C19.8 4.55467 19.6907 4.05867 19.472 3.712C19.2533 3.36533 18.936 3.192 18.52 3.192C18.1093 3.192 17.792 3.36533 17.568 3.712C17.3493 4.05867 17.24 4.55467 17.24 5.2C17.24 5.84533 17.3493 6.34133 17.568 6.688C17.792 7.03467 18.1093 7.208 18.52 7.208Z" fill="white"/>
</g>
<defs>
<filter id="filter0_di_3321_8020" x="0.455873" y="0.56923" width="27.8029" height="18.4523" filterUnits="userSpaceOnUse" color-interpolation-filters="sRGB">
<feFlood flood-opacity="0" result="BackgroundImageFix"/>
<feColorMatrix in="SourceAlpha" type="matrix" values="0 0 0 0 0 0 0 0 0 0 0 0 0 0 0 0 0 0 127 0" result="hardAlpha"/>
<feMorphology radius="1.47692" operator="dilate" in="SourceAlpha" result="effect1_dropShadow_3321_8020"/>
<feOffset dy="1.47692"/>
<feGaussianBlur stdDeviation="1.03385"/>
<feComposite in2="hardAlpha" operator="out"/>
<feColorMatrix type="matrix" values="0 0 0 0 0.184314 0 0 0 0 0.733333 0 0 0 0 0.643137 0 0 0 0.1 0"/>
<feBlend mode="normal" in2="BackgroundImageFix" result="effect1_dropShadow_3321_8020"/>
<feBlend mode="normal" in="SourceGraphic" in2="effect1_dropShadow_3321_8020" result="shape"/>
<feColorMatrix in="SourceAlpha" type="matrix" values="0 0 0 0 0 0 0 0 0 0 0 0 0 0 0 0 0 0 127 0" result="hardAlpha"/>
<feOffset dx="5.90769" dy="-4.43077"/>
<feGaussianBlur stdDeviation="2.95385"/>
<feComposite in2="hardAlpha" operator="arithmetic" k2="-1" k3="1"/>
<feColorMatrix type="matrix" values="0 0 0 0 0 0 0 0 0 0 0 0 0 0 0 0 0 0 0.25 0"/>
<feBlend mode="normal" in2="shape" result="effect2_innerShadow_3321_8020"/>
</filter>
<filter id="filter1_di_3321_8020" x="12.4554" y="14.5692" width="14.4523" height="14.4523" filterUnits="userSpaceOnUse" color-interpolation-filters="sRGB">
<feFlood flood-opacity="0" result="BackgroundImageFix"/>
<feColorMatrix in="SourceAlpha" type="matrix" values="0 0 0 0 0 0 0 0 0 0 0 0 0 0 0 0 0 0 127 0" result="hardAlpha"/>
<feMorphology radius="1.47692" operator="dilate" in="SourceAlpha" result="effect1_dropShadow_3321_8020"/>
<feOffset dy="1.47692"/>
<feGaussianBlur stdDeviation="1.03385"/>
<feComposite in2="hardAlpha" operator="out"/>
<feColorMatrix type="matrix" values="0 0 0 0 0.184314 0 0 0 0 0.733333 0 0 0 0 0.643137 0 0 0 0.1 0"/>
<feBlend mode="normal" in2="BackgroundImageFix" result="effect1_dropShadow_3321_8020"/>
<feBlend mode="normal" in="SourceGraphic" in2="effect1_dropShadow_3321_8020" result="shape"/>
<feColorMatrix in="SourceAlpha" type="matrix" values="0 0 0 0 0 0 0 0 0 0 0 0 0 0 0 0 0 0 127 0" result="hardAlpha"/>
<feOffset dx="5.90769" dy="-4.43077"/>
<feGaussianBlur stdDeviation="2.95385"/>
<feComposite in2="hardAlpha" operator="arithmetic" k2="-1" k3="1"/>
<feColorMatrix type="matrix" values="0 0 0 0 0 0 0 0 0 0 0 0 0 0 0 0 0 0 0.25 0"/>
<feBlend mode="normal" in2="shape" result="effect2_innerShadow_3321_8020"/>
</filter>
<filter id="filter2_di_3321_8020" x="2.45538" y="14.5692" width="14.4523" height="14.4523" filterUnits="userSpaceOnUse" color-interpolation-filters="sRGB">
<feFlood flood-opacity="0" result="BackgroundImageFix"/>
<feColorMatrix in="SourceAlpha" type="matrix" values="0 0 0 0 0 0 0 0 0 0 0 0 0 0 0 0 0 0 127 0" result="hardAlpha"/>
<feMorphology radius="1.47692" operator="dilate" in="SourceAlpha" result="effect1_dropShadow_3321_8020"/>
<feOffset dy="1.47692"/>
<feGaussianBlur stdDeviation="1.03385"/>
<feComposite in2="hardAlpha" operator="out"/>
<feColorMatrix type="matrix" values="0 0 0 0 0.184314 0 0 0 0 0.733333 0 0 0 0 0.643137 0 0 0 0.1 0"/>
<feBlend mode="normal" in2="BackgroundImageFix" result="effect1_dropShadow_3321_8020"/>
<feBlend mode="normal" in="SourceGraphic" in2="effect1_dropShadow_3321_8020" result="shape"/>
<feColorMatrix in="SourceAlpha" type="matrix" values="0 0 0 0 0 0 0 0 0 0 0 0 0 0 0 0 0 0 127 0" result="hardAlpha"/>
<feOffset dx="5.90769" dy="-4.43077"/>
<feGaussianBlur stdDeviation="2.95385"/>
<feComposite in2="hardAlpha" operator="arithmetic" k2="-1" k3="1"/>
<feColorMatrix type="matrix" values="0 0 0 0 0 0 0 0 0 0 0 0 0 0 0 0 0 0 0.25 0"/>
<feBlend mode="normal" in2="shape" result="effect2_innerShadow_3321_8020"/>
</filter>
<filter id="filter3_di_3321_8020" x="-3.54462" y="-2.43077" width="30.4523" height="25.4523" filterUnits="userSpaceOnUse" color-interpolation-filters="sRGB">
<feFlood flood-opacity="0" result="BackgroundImageFix"/>
<feColorMatrix in="SourceAlpha" type="matrix" values="0 0 0 0 0 0 0 0 0 0 0 0 0 0 0 0 0 0 127 0" result="hardAlpha"/>
<feMorphology radius="1.47692" operator="dilate" in="SourceAlpha" result="effect1_dropShadow_3321_8020"/>
<feOffset dy="1.47692"/>
<feGaussianBlur stdDeviation="1.03385"/>
<feComposite in2="hardAlpha" operator="out"/>
<feColorMatrix type="matrix" values="0 0 0 0 0.184314 0 0 0 0 0.733333 0 0 0 0 0.643137 0 0 0 0.1 0"/>
<feBlend mode="normal" in2="BackgroundImageFix" result="effect1_dropShadow_3321_8020"/>
<feBlend mode="normal" in="SourceGraphic" in2="effect1_dropShadow_3321_8020" result="shape"/>
<feColorMatrix in="SourceAlpha" type="matrix" values="0 0 0 0 0 0 0 0 0 0 0 0 0 0 0 0 0 0 127 0" result="hardAlpha"/>
<feOffset dx="5.90769" dy="-4.43077"/>
<feGaussianBlur stdDeviation="2.95385"/>
<feComposite in2="hardAlpha" operator="arithmetic" k2="-1" k3="1"/>
<feColorMatrix type="matrix" values="0 0 0 0 0 0 0 0 0 0 0 0 0 0 0 0 0 0 0.25 0"/>
<feBlend mode="normal" in2="shape" result="effect2_innerShadow_3321_8020"/>
</filter>
<filter id="filter4_di_3321_8020" x="10.8452" y="-2.69344" width="16.746" height="16.746" filterUnits="userSpaceOnUse" color-interpolation-filters="sRGB">
<feFlood flood-opacity="0" result="BackgroundImageFix"/>
<feColorMatrix in="SourceAlpha" type="matrix" values="0 0 0 0 0 0 0 0 0 0 0 0 0 0 0 0 0 0 127 0" result="hardAlpha"/>
<feMorphology radius="0.897813" operator="dilate" in="SourceAlpha" result="effect1_dropShadow_3321_8020"/>
<feOffset dy="0.897813"/>
<feGaussianBlur stdDeviation="0.628469"/>
<feComposite in2="hardAlpha" operator="out"/>
<feColorMatrix type="matrix" values="0 0 0 0 0.184314 0 0 0 0 0.733333 0 0 0 0 0.643137 0 0 0 0.1 0"/>
<feBlend mode="normal" in2="BackgroundImageFix" result="effect1_dropShadow_3321_8020"/>
<feBlend mode="normal" in="SourceGraphic" in2="effect1_dropShadow_3321_8020" result="shape"/>
<feColorMatrix in="SourceAlpha" type="matrix" values="0 0 0 0 0 0 0 0 0 0 0 0 0 0 0 0 0 0 127 0" result="hardAlpha"/>
<feOffset dx="3.59125" dy="-2.69344"/>
<feGaussianBlur stdDeviation="1.79563"/>
<feComposite in2="hardAlpha" operator="arithmetic" k2="-1" k3="1"/>
<feColorMatrix type="matrix" values="0 0 0 0 0 0 0 0 0 0 0 0 0 0 0 0 0 0 0.25 0"/>
<feBlend mode="normal" in2="shape" result="effect2_innerShadow_3321_8020"/>
</filter>
<clipPath id="clip0_3321_8020">
<rect width="24" height="24" fill="white"/>
</clipPath>
</defs>
</svg>
