<svg width="17" height="16" viewBox="0 0 17 16" fill="none" xmlns="http://www.w3.org/2000/svg">
<path d="M11.1668 1.33203H5.8335C3.16683 1.33203 1.8335 2.66536 1.8335 5.33203V13.9987C1.8335 14.3654 2.1335 14.6654 2.50016 14.6654H11.1668C13.8335 14.6654 15.1668 13.332 15.1668 10.6654V5.33203C15.1668 2.66536 13.8335 1.33203 11.1668 1.33203Z" stroke="#101828" stroke-linecap="round" stroke-linejoin="round"/>
<path d="M9.10685 5.22677L5.64685 8.68677C5.51352 8.8201 5.38686 9.0801 5.36019 9.26677L5.17353 10.5868C5.10686 11.0668 5.44019 11.4001 5.92019 11.3334L7.24018 11.1468C7.42684 11.1201 7.68686 10.9934 7.82019 10.8601L11.2802 7.4001C11.8735 6.80677 12.1602 6.11343 11.2802 5.23343C10.4002 4.34677 9.70685 4.62677 9.10685 5.22677Z" stroke="#101828" stroke-miterlimit="10" stroke-linecap="round" stroke-linejoin="round"/>
<path d="M8.61328 5.71875C8.90661 6.76542 9.72661 7.59208 10.7799 7.88542" stroke="#101828" stroke-miterlimit="10" stroke-linecap="round" stroke-linejoin="round"/>
</svg>
