<svg width="18" height="18" viewBox="0 0 18 18" fill="none" xmlns="http://www.w3.org/2000/svg">
<g filter="url(#filter0_di_3321_8029)">
<path d="M15.6685 8.24953C15.6685 9.18203 14.4385 9.86203 14.1035 10.6745C13.756 11.5145 14.1285 12.862 13.496 13.4945C12.8635 14.127 11.516 13.752 10.676 14.102C9.866 14.437 9.1835 15.667 8.2535 15.667C7.321 15.667 6.641 14.437 5.8285 14.102C4.9885 13.7545 3.641 14.127 3.0085 13.4945C2.376 12.862 2.751 11.5145 2.401 10.6745C2.0635 9.86203 0.833496 9.18203 0.833496 8.24953C0.833496 7.31703 2.0635 6.63703 2.3985 5.82453C2.746 4.98453 2.3735 3.63703 3.006 3.00453C3.6385 2.37203 4.986 2.74703 5.826 2.39703C6.636 2.06203 7.3185 0.832031 8.2485 0.832031C9.181 0.832031 9.861 2.06203 10.6735 2.39703C11.5135 2.74453 12.861 2.37203 13.4935 3.00453C14.126 3.63703 13.751 4.98453 14.101 5.82453C14.4385 6.63703 15.6685 7.31703 15.6685 8.24953Z" fill="#2F648E"/>
<path d="M8.24854 0.957031C8.66142 0.957048 9.03171 1.23038 9.42236 1.58203C9.61086 1.75172 9.80844 1.94281 10.0024 2.10645C10.1984 2.27169 10.4046 2.42159 10.6255 2.5127C10.8524 2.60657 11.1087 2.64955 11.3677 2.67383C11.6246 2.6979 11.8998 2.70444 12.1538 2.71875C12.6798 2.74841 13.1266 2.81476 13.4048 3.09277C13.6829 3.37093 13.7494 3.81748 13.7788 4.34375C13.793 4.59789 13.7986 4.8728 13.8228 5.12988C13.841 5.32419 13.87 5.51729 13.9233 5.69727L13.9858 5.87305C14.0776 6.09367 14.2276 6.30028 14.3931 6.49609C14.557 6.68999 14.7487 6.88776 14.9185 7.07617C15.2703 7.46671 15.5435 7.83721 15.5435 8.25C15.5433 8.66271 15.27 9.03331 14.9185 9.42383C14.7489 9.61215 14.5575 9.80911 14.394 10.0029C14.2287 10.1989 14.0789 10.406 13.9878 10.627C13.894 10.8539 13.8509 11.1102 13.8267 11.3691C13.8026 11.6262 13.7961 11.9012 13.7817 12.1553C13.7521 12.6814 13.6859 13.128 13.4077 13.4062C13.1296 13.6844 12.683 13.7499 12.1567 13.7793C11.9026 13.7935 11.6277 13.8 11.3706 13.8242C11.1115 13.8486 10.8545 13.8917 10.6274 13.9863C10.4074 14.0774 10.2019 14.2275 10.0063 14.3926C9.81255 14.5562 9.61475 14.7473 9.42627 14.917C9.03554 15.2687 8.66503 15.542 8.25342 15.542C7.84055 15.542 7.47023 15.2686 7.07959 14.917C6.89109 14.7473 6.69352 14.5562 6.49951 14.3926C6.30357 14.2273 6.09733 14.0774 5.87646 13.9863C5.64954 13.8925 5.39327 13.8495 5.13428 13.8252C4.87734 13.8011 4.60221 13.7946 4.34814 13.7803C3.8221 13.7506 3.3754 13.6843 3.09717 13.4062C2.81901 13.1281 2.7525 12.6815 2.72314 12.1553C2.70897 11.9011 2.70339 11.6262 2.6792 11.3691C2.6548 11.11 2.61072 10.853 2.51611 10.626C2.42435 10.4054 2.27438 10.1987 2.10889 10.0029C1.94505 9.80913 1.75318 9.61215 1.5835 9.42383C1.23168 9.03334 0.958703 8.66269 0.958496 8.25C0.958496 7.8371 1.23183 7.46586 1.5835 7.0752C1.75304 6.88687 1.94441 6.68991 2.10791 6.49609C2.27323 6.30008 2.42306 6.09302 2.51416 5.87207C2.60798 5.64515 2.65103 5.38884 2.67529 5.12988C2.69936 4.87287 2.70589 4.59786 2.72021 4.34375C2.74988 3.81759 2.81603 3.37099 3.09424 3.09277C3.37239 2.81462 3.81895 2.74909 4.34521 2.71973C4.59938 2.70555 4.87424 2.699 5.13135 2.6748C5.39039 2.65042 5.64652 2.60627 5.87354 2.51172C6.09374 2.42063 6.29986 2.27166 6.49561 2.10645C6.6894 1.94286 6.8872 1.7517 7.07568 1.58203C7.46641 1.23031 7.83692 0.957031 8.24854 0.957031Z" stroke="#2F648E" stroke-width="0.25"/>
</g>
<g filter="url(#filter1_di_3321_8029)">
<path d="M16.6679 9.25094C16.6679 10.1834 15.4379 10.8634 15.1029 11.6759C14.7554 12.5159 15.1279 13.8634 14.4954 14.4959C13.8629 15.1284 12.5154 14.7534 11.6754 15.1034C10.8654 15.4384 10.1829 16.6684 9.25295 16.6684C8.32045 16.6684 7.64045 15.4384 6.82795 15.1034C5.98795 14.7559 4.64045 15.1284 4.00795 14.4959C3.37545 13.8634 3.75045 12.5159 3.40045 11.6759C3.06545 10.8659 1.83545 10.1834 1.83545 9.25344C1.83545 8.32094 3.06545 7.64094 3.40045 6.82844C3.74795 5.98844 3.37545 4.64094 4.00795 4.00844C4.64045 3.37594 5.98795 3.75094 6.82795 3.40094C7.63795 3.06594 8.32045 1.83594 9.25045 1.83594C10.1829 1.83594 10.8629 3.06594 11.6754 3.40094C12.5154 3.74844 13.8629 3.37594 14.4954 4.00844C15.1279 4.64094 14.7529 5.98844 15.1029 6.82844C15.4379 7.63844 16.6679 8.31844 16.6679 9.25094Z" fill="#FDB913"/>
<path d="M9.25049 1.96094C9.66337 1.96095 10.0337 2.23429 10.4243 2.58594C10.6128 2.75562 10.8104 2.94672 11.0044 3.11035C11.2003 3.2756 11.4066 3.42549 11.6274 3.5166C11.8544 3.61047 12.1107 3.65346 12.3696 3.67773C12.6266 3.70181 12.9017 3.70834 13.1558 3.72266C13.6818 3.75232 14.1285 3.81866 14.4067 4.09668C14.6849 4.37484 14.7514 4.82139 14.7808 5.34766C14.7949 5.6018 14.8005 5.8767 14.8247 6.13379C14.843 6.3281 14.872 6.52119 14.9253 6.70117L14.9878 6.87695C15.0789 7.09691 15.228 7.30271 15.3931 7.49805C15.5567 7.69169 15.7488 7.88881 15.9185 8.07715C16.2701 8.46746 16.5425 8.83809 16.5425 9.25098C16.5425 9.66381 16.27 10.0342 15.9185 10.4248C15.7487 10.6134 15.5567 10.8108 15.3931 11.0049C15.2279 11.2007 15.0789 11.4072 14.9878 11.6279C14.8939 11.8549 14.85 12.1111 14.8257 12.3701C14.8016 12.627 14.7961 12.9022 14.7817 13.1562C14.7521 13.6824 14.685 14.129 14.4067 14.4072C14.1287 14.6853 13.6828 14.7519 13.1567 14.7812C12.9025 14.7954 12.6268 14.801 12.3696 14.8252C12.1752 14.8435 11.9823 14.8724 11.8022 14.9258L11.6274 14.9883C11.4073 15.0794 11.2011 15.2284 11.0054 15.3936C10.8115 15.5572 10.6138 15.7492 10.4253 15.9189C10.0348 16.2704 9.66474 16.5428 9.25342 16.543C8.84052 16.543 8.46928 16.2706 8.07861 15.9189C7.89014 15.7493 7.69349 15.5572 7.49951 15.3936C7.30352 15.2283 7.09642 15.0794 6.87549 14.9883C6.64853 14.8944 6.39232 14.8504 6.1333 14.8262C5.8763 14.8021 5.60126 14.7966 5.34717 14.7822C4.821 14.7526 4.37441 14.6854 4.09619 14.4072C3.81831 14.1291 3.75251 13.6832 3.72314 13.1572C3.70896 12.903 3.70244 12.6273 3.67822 12.3701C3.65991 12.1757 3.63105 11.9828 3.57764 11.8027L3.51611 11.6279C3.425 11.4077 3.27511 11.2016 3.10986 11.0059C2.94624 10.812 2.75513 10.6143 2.58545 10.4258C2.23389 10.0352 1.96066 9.66532 1.96045 9.25391C1.96045 8.84101 2.23379 8.46977 2.58545 8.0791C2.75499 7.89078 2.94636 7.69382 3.10986 7.5C3.27518 7.30399 3.42501 7.09693 3.51611 6.87598C3.60994 6.64906 3.65299 6.39274 3.67725 6.13379C3.70131 5.87677 3.70784 5.60176 3.72217 5.34766C3.75184 4.82149 3.81798 4.37489 4.09619 4.09668C4.37435 3.81852 4.8209 3.75299 5.34717 3.72363C5.60133 3.70945 5.87619 3.7029 6.1333 3.67871C6.39234 3.65432 6.64848 3.61017 6.87549 3.51562C7.09569 3.42453 7.30182 3.27556 7.49756 3.11035C7.69136 2.94677 7.88916 2.75561 8.07764 2.58594C8.46836 2.23422 8.83887 1.96094 9.25049 1.96094Z" stroke="#FDB913" stroke-width="0.25"/>
</g>
<path d="M9.25053 13.7716C11.7482 13.7716 13.773 11.7468 13.773 9.24906C13.773 6.75135 11.7482 4.72656 9.25053 4.72656C6.75282 4.72656 4.72803 6.75135 4.72803 9.24906C4.72803 11.7468 6.75282 13.7716 9.25053 13.7716Z" fill="white"/>
<g filter="url(#filter2_di_3321_8029)">
<path d="M8.45557 7.31969C8.67807 7.54219 8.78807 7.80969 8.78807 8.12219C8.78807 8.43469 8.67807 8.70219 8.45557 8.92219C8.23307 9.14469 7.96557 9.25469 7.65057 9.25469C7.33807 9.25469 7.07057 9.14469 6.85057 8.92219C6.62807 8.69969 6.51807 8.43469 6.51807 8.12219C6.51807 7.80969 6.62807 7.54219 6.85057 7.31969C7.07307 7.09719 7.33807 6.98719 7.65057 6.98719C7.96807 6.98719 8.23557 7.09719 8.45557 7.31969ZM8.12807 8.59719C8.26057 8.46469 8.32557 8.30719 8.32557 8.12469C8.32557 7.94219 8.26057 7.78219 8.12807 7.65219C7.99557 7.51969 7.83807 7.45469 7.65057 7.45469C7.46557 7.45469 7.30807 7.51969 7.17807 7.64969C7.04557 7.77969 6.98057 7.93719 6.98057 8.12469C6.98057 8.30969 7.04557 8.46719 7.17807 8.59719C7.31057 8.72969 7.46807 8.79469 7.65057 8.79469C7.83807 8.79469 7.99807 8.72719 8.12807 8.59719ZM10.3328 6.94979C10.3607 6.89885 10.4142 6.86719 10.4722 6.86719C10.593 6.86719 10.6697 6.99658 10.6117 7.10252L8.17581 11.5496C8.14791 11.6005 8.09446 11.6322 8.03639 11.6322C7.9156 11.6322 7.83894 11.5028 7.89697 11.3969L10.3328 6.94979ZM11.6506 9.57469C11.8731 9.79719 11.9831 10.0622 11.9831 10.3747C11.9831 10.6872 11.8731 10.9547 11.6506 11.1747C11.4281 11.3972 11.1631 11.5072 10.8506 11.5072C10.5356 11.5072 10.2681 11.3972 10.0456 11.1747C9.82307 10.9522 9.71307 10.6872 9.71307 10.3747C9.71307 10.0622 9.82307 9.79469 10.0456 9.57469C10.2681 9.35219 10.5356 9.24219 10.8506 9.24219C11.1606 9.24219 11.4281 9.35469 11.6506 9.57469ZM11.3231 10.8497C11.4556 10.7172 11.5206 10.5597 11.5206 10.3772C11.5206 10.1947 11.4556 10.0347 11.3231 9.90469C11.1906 9.77219 11.0331 9.70719 10.8506 9.70719C10.6631 9.70719 10.5056 9.77219 10.3731 9.90469C10.2406 10.0372 10.1756 10.1947 10.1756 10.3772C10.1756 10.5597 10.2406 10.7197 10.3731 10.8497C10.5056 10.9822 10.6631 11.0472 10.8506 11.0472C11.0331 11.0472 11.1906 10.9822 11.3231 10.8497Z" fill="#2F648E"/>
<path d="M10.4722 6.99219C10.4978 6.99219 10.5143 7.01946 10.5024 7.04199L8.06592 11.4893C8.05999 11.5001 8.04894 11.5068 8.03662 11.5068C8.01089 11.5068 7.99416 11.4796 8.00635 11.457L10.4429 7.00977C10.4489 6.99904 10.4599 6.99221 10.4722 6.99219ZM10.8501 9.36719C11.1258 9.36719 11.3625 9.4653 11.562 9.66211V9.66309C11.7612 9.86228 11.8579 10.0958 11.8579 10.375C11.8578 10.6544 11.7613 10.8898 11.563 11.0859H11.562C11.3628 11.2851 11.1292 11.3818 10.8501 11.3818C10.5682 11.3817 10.333 11.2847 10.1343 11.0859C9.93517 10.8868 9.83845 10.654 9.83838 10.375C9.83838 10.0956 9.93412 9.85922 10.1323 9.66309L10.1333 9.66406L10.1343 9.66309C10.333 9.46442 10.5683 9.36729 10.8501 9.36719ZM10.8501 9.58203C10.6298 9.58214 10.4406 9.66048 10.2847 9.81641C10.1291 9.97201 10.0503 10.161 10.0503 10.377C10.0503 10.5918 10.1285 10.7837 10.2847 10.9375V10.9385C10.4406 11.0943 10.6299 11.1718 10.8501 11.1719C11.0661 11.1719 11.256 11.0941 11.4116 10.9385C11.5673 10.7828 11.646 10.593 11.646 10.377C11.6459 10.1885 11.5855 10.0179 11.4653 9.875L11.4106 9.81543C11.2551 9.66031 11.0657 9.58203 10.8501 9.58203ZM7.65088 7.1123C7.93553 7.11238 8.17082 7.2092 8.3667 7.40723V7.4082C8.56566 7.60716 8.66257 7.84267 8.6626 8.12207C8.6626 8.40157 8.566 8.63684 8.36768 8.83301L8.3667 8.83398C8.16796 9.03257 7.93268 9.12981 7.65088 9.12988C7.37131 9.12988 7.13516 9.03241 6.93896 8.83398L6.86865 8.75781C6.7167 8.5759 6.64307 8.36633 6.64307 8.12207C6.64309 7.8427 6.74005 7.60715 6.93896 7.4082C7.13816 7.20901 7.37173 7.1123 7.65088 7.1123ZM7.65088 7.33008C7.43329 7.33008 7.24381 7.4074 7.09033 7.56055C6.93344 7.71454 6.85596 7.90474 6.85596 8.125C6.85603 8.34225 6.93364 8.53107 7.08936 8.68457V8.68555C7.24503 8.84122 7.43485 8.91992 7.65088 8.91992C7.8716 8.91985 8.06311 8.83872 8.21631 8.68555C8.37191 8.52995 8.45061 8.3409 8.45068 8.125C8.45068 7.90967 8.37231 7.71652 8.21533 7.5625C8.05961 7.40735 7.8707 7.33015 7.65088 7.33008Z" stroke="#2F648E" stroke-width="0.25"/>
</g>
<defs>
<filter id="filter0_di_3321_8029" x="0.233496" y="0.0820312" width="16.435" height="16.4359" filterUnits="userSpaceOnUse" color-interpolation-filters="sRGB">
<feFlood flood-opacity="0" result="BackgroundImageFix"/>
<feColorMatrix in="SourceAlpha" type="matrix" values="0 0 0 0 0 0 0 0 0 0 0 0 0 0 0 0 0 0 127 0" result="hardAlpha"/>
<feMorphology radius="0.25" operator="dilate" in="SourceAlpha" result="effect1_dropShadow_3321_8029"/>
<feOffset dy="0.25"/>
<feGaussianBlur stdDeviation="0.175"/>
<feComposite in2="hardAlpha" operator="out"/>
<feColorMatrix type="matrix" values="0 0 0 0 0.184314 0 0 0 0 0.733333 0 0 0 0 0.643137 0 0 0 0.1 0"/>
<feBlend mode="normal" in2="BackgroundImageFix" result="effect1_dropShadow_3321_8029"/>
<feBlend mode="normal" in="SourceGraphic" in2="effect1_dropShadow_3321_8029" result="shape"/>
<feColorMatrix in="SourceAlpha" type="matrix" values="0 0 0 0 0 0 0 0 0 0 0 0 0 0 0 0 0 0 127 0" result="hardAlpha"/>
<feOffset dx="1" dy="-0.75"/>
<feGaussianBlur stdDeviation="0.5"/>
<feComposite in2="hardAlpha" operator="arithmetic" k2="-1" k3="1"/>
<feColorMatrix type="matrix" values="0 0 0 0 0 0 0 0 0 0 0 0 0 0 0 0 0 0 0.25 0"/>
<feBlend mode="normal" in2="shape" result="effect2_innerShadow_3321_8029"/>
</filter>
<filter id="filter1_di_3321_8029" x="1.23545" y="1.08594" width="16.4325" height="16.432" filterUnits="userSpaceOnUse" color-interpolation-filters="sRGB">
<feFlood flood-opacity="0" result="BackgroundImageFix"/>
<feColorMatrix in="SourceAlpha" type="matrix" values="0 0 0 0 0 0 0 0 0 0 0 0 0 0 0 0 0 0 127 0" result="hardAlpha"/>
<feMorphology radius="0.25" operator="dilate" in="SourceAlpha" result="effect1_dropShadow_3321_8029"/>
<feOffset dy="0.25"/>
<feGaussianBlur stdDeviation="0.175"/>
<feComposite in2="hardAlpha" operator="out"/>
<feColorMatrix type="matrix" values="0 0 0 0 0.184314 0 0 0 0 0.733333 0 0 0 0 0.643137 0 0 0 0.1 0"/>
<feBlend mode="normal" in2="BackgroundImageFix" result="effect1_dropShadow_3321_8029"/>
<feBlend mode="normal" in="SourceGraphic" in2="effect1_dropShadow_3321_8029" result="shape"/>
<feColorMatrix in="SourceAlpha" type="matrix" values="0 0 0 0 0 0 0 0 0 0 0 0 0 0 0 0 0 0 127 0" result="hardAlpha"/>
<feOffset dx="1" dy="-0.75"/>
<feGaussianBlur stdDeviation="0.5"/>
<feComposite in2="hardAlpha" operator="arithmetic" k2="-1" k3="1"/>
<feColorMatrix type="matrix" values="0 0 0 0 0 0 0 0 0 0 0 0 0 0 0 0 0 0 0.25 0"/>
<feBlend mode="normal" in2="shape" result="effect2_innerShadow_3321_8029"/>
</filter>
<filter id="filter2_di_3321_8029" x="5.91807" y="6.11719" width="7.06509" height="6.36562" filterUnits="userSpaceOnUse" color-interpolation-filters="sRGB">
<feFlood flood-opacity="0" result="BackgroundImageFix"/>
<feColorMatrix in="SourceAlpha" type="matrix" values="0 0 0 0 0 0 0 0 0 0 0 0 0 0 0 0 0 0 127 0" result="hardAlpha"/>
<feMorphology radius="0.25" operator="dilate" in="SourceAlpha" result="effect1_dropShadow_3321_8029"/>
<feOffset dy="0.25"/>
<feGaussianBlur stdDeviation="0.175"/>
<feComposite in2="hardAlpha" operator="out"/>
<feColorMatrix type="matrix" values="0 0 0 0 0.184314 0 0 0 0 0.733333 0 0 0 0 0.643137 0 0 0 0.1 0"/>
<feBlend mode="normal" in2="BackgroundImageFix" result="effect1_dropShadow_3321_8029"/>
<feBlend mode="normal" in="SourceGraphic" in2="effect1_dropShadow_3321_8029" result="shape"/>
<feColorMatrix in="SourceAlpha" type="matrix" values="0 0 0 0 0 0 0 0 0 0 0 0 0 0 0 0 0 0 127 0" result="hardAlpha"/>
<feOffset dx="1" dy="-0.75"/>
<feGaussianBlur stdDeviation="0.5"/>
<feComposite in2="hardAlpha" operator="arithmetic" k2="-1" k3="1"/>
<feColorMatrix type="matrix" values="0 0 0 0 0 0 0 0 0 0 0 0 0 0 0 0 0 0 0.25 0"/>
<feBlend mode="normal" in2="shape" result="effect2_innerShadow_3321_8029"/>
</filter>
</defs>
</svg>
