<svg width="20" height="20" viewBox="0 0 20 20" fill="none" xmlns="http://www.w3.org/2000/svg">
<path d="M1.66675 7.5013V5.41797C1.66675 3.34297 3.34175 1.66797 5.41675 1.66797H7.50008" stroke="#2F648E" stroke-width="1.5" stroke-miterlimit="10" stroke-linecap="round" stroke-linejoin="round"/>
<path d="M12.5 1.66797H14.5833C16.6583 1.66797 18.3333 3.34297 18.3333 5.41797V7.5013" stroke="#2F648E" stroke-width="1.5" stroke-miterlimit="10" stroke-linecap="round" stroke-linejoin="round"/>
<path d="M18.3333 13.332V14.582C18.3333 16.657 16.6583 18.332 14.5833 18.332H13.3333" stroke="#2F648E" stroke-width="1.5" stroke-miterlimit="10" stroke-linecap="round" stroke-linejoin="round"/>
<path d="M7.50008 18.3333H5.41675C3.34175 18.3333 1.66675 16.6583 1.66675 14.5833V12.5" stroke="#2F648E" stroke-width="1.5" stroke-miterlimit="10" stroke-linecap="round" stroke-linejoin="round"/>
<path d="M14.1666 7.91797V12.0846C14.1666 13.7513 13.3333 14.5846 11.6666 14.5846H8.33325C6.66659 14.5846 5.83325 13.7513 5.83325 12.0846V7.91797C5.83325 6.2513 6.66659 5.41797 8.33325 5.41797H11.6666C13.3333 5.41797 14.1666 6.2513 14.1666 7.91797Z" stroke="#2F648E" stroke-width="1.5" stroke-miterlimit="10" stroke-linecap="round" stroke-linejoin="round"/>
<path d="M15.8334 10H4.16675" stroke="#2F648E" stroke-width="1.5" stroke-miterlimit="10" stroke-linecap="round" stroke-linejoin="round"/>
</svg>
