<svg width="20" height="20" viewBox="0 0 20 20" fill="none" xmlns="http://www.w3.org/2000/svg">
<path d="M18.3332 7.50156V12.5016C18.3332 14.5849 17.9165 16.0432 16.9832 16.9849L11.6665 11.6682L18.1082 5.22656C18.2582 5.8849 18.3332 6.63489 18.3332 7.50156Z" stroke="#2F648E" stroke-width="1.5" stroke-linecap="round" stroke-linejoin="round"/>
<path d="M18.1082 5.22631L5.22483 18.1096C2.71649 17.5346 1.6665 15.8013 1.6665 12.5013V7.5013C1.6665 3.33464 3.33317 1.66797 7.49984 1.66797H12.4998C15.7998 1.66797 17.5332 2.71797 18.1082 5.22631Z" stroke="#2F648E" stroke-width="1.5" stroke-linecap="round" stroke-linejoin="round"/>
<path d="M16.9834 16.9846C16.0418 17.918 14.5834 18.3346 12.5001 18.3346H7.50011C6.63344 18.3346 5.88343 18.2596 5.2251 18.1096L11.6668 11.668L16.9834 16.9846Z" stroke="#2F648E" stroke-width="1.5" stroke-linecap="round" stroke-linejoin="round"/>
<path d="M5.20022 6.65156C5.76689 4.2099 9.43356 4.2099 10.0002 6.65156C10.3252 8.0849 9.42522 9.30156 8.63355 10.0516C8.05855 10.6016 7.15023 10.6016 6.5669 10.0516C5.77523 9.30156 4.86689 8.0849 5.20022 6.65156Z" stroke="#2F648E" stroke-width="1.5"/>
<path d="M7.57908 7.2487H7.58657" stroke="#2F648E" stroke-width="2" stroke-linecap="round" stroke-linejoin="round"/>
</svg>
