<svg width="20" height="20" viewBox="0 0 20 20" fill="none" xmlns="http://www.w3.org/2000/svg">
<path d="M1.6665 7.08203H10.8332" stroke="#2F648E" stroke-width="1.5" stroke-miterlimit="10" stroke-linecap="round" stroke-linejoin="round"/>
<path d="M5 13.75H6.66667" stroke="#2F648E" stroke-width="1.5" stroke-miterlimit="10" stroke-linecap="round" stroke-linejoin="round"/>
<path d="M8.75 13.75H12.0833" stroke="#2F648E" stroke-width="1.5" stroke-miterlimit="10" stroke-linecap="round" stroke-linejoin="round"/>
<path d="M18.3332 9.44298V13.4263C18.3332 16.3513 17.5915 17.0846 14.6332 17.0846H5.3665C2.40817 17.0846 1.6665 16.3513 1.6665 13.4263V6.57631C1.6665 3.65131 2.40817 2.91797 5.3665 2.91797H11.0665" stroke="#2F648E" stroke-width="1.5" stroke-linecap="round" stroke-linejoin="round"/>
<path d="M14.167 2.71094H16.7753C17.3503 2.71094 17.817 3.23594 17.817 3.7526C17.817 4.3276 17.3503 4.79427 16.7753 4.79427H14.167V2.71094Z" stroke="#2F648E" stroke-width="1.5" stroke-miterlimit="10" stroke-linecap="round" stroke-linejoin="round"/>
<path d="M14.167 4.79297H17.142C17.8003 4.79297 18.3337 5.25964 18.3337 5.83464C18.3337 6.40964 17.8003 6.8763 17.142 6.8763H14.167V4.79297Z" stroke="#2F648E" stroke-width="1.5" stroke-miterlimit="10" stroke-linecap="round" stroke-linejoin="round"/>
<path d="M15.6333 6.875V7.91667" stroke="#2F648E" stroke-width="1.5" stroke-miterlimit="10" stroke-linecap="round" stroke-linejoin="round"/>
<path d="M15.6333 1.66797V2.70964" stroke="#2F648E" stroke-width="1.5" stroke-miterlimit="10" stroke-linecap="round" stroke-linejoin="round"/>
<path d="M15.1585 2.71094H13.3335" stroke="#2F648E" stroke-width="1.5" stroke-miterlimit="10" stroke-linecap="round" stroke-linejoin="round"/>
<path d="M15.1585 6.875H13.3335" stroke="#2F648E" stroke-width="1.5" stroke-miterlimit="10" stroke-linecap="round" stroke-linejoin="round"/>
</svg>
