<svg width="21" height="21" viewBox="0 0 21 21" fill="none" xmlns="http://www.w3.org/2000/svg">
<path d="M12.1667 2.16797C13.8334 2.16797 14.6667 3.00964 14.6667 4.69297V10.568C14.6667 12.2263 13.4917 12.868 12.05 12.0013L10.95 11.3346C10.7 11.1846 10.3 11.1846 10.05 11.3346L8.95004 12.0013C7.50837 12.868 6.33337 12.2263 6.33337 10.568V4.69297C6.33337 3.00964 7.16671 2.16797 8.83337 2.16797H12.1667Z" stroke="#2F648E" stroke-width="1.5" stroke-linecap="round" stroke-linejoin="round"/>
<path d="M6.18329 4.65781C3.34163 5.13281 2.16663 6.88281 2.16663 10.4161V12.9411C2.16663 17.1495 3.83329 18.8328 7.99996 18.8328H13C17.1666 18.8328 18.8333 17.1495 18.8333 12.9411V10.4161C18.8333 6.82448 17.6166 5.06615 14.6666 4.63281" stroke="#2F648E" stroke-width="1.5" stroke-linecap="round" stroke-linejoin="round"/>
</svg>
