<svg width="20" height="20" viewBox="0 0 20 20" fill="none" xmlns="http://www.w3.org/2000/svg">
<path d="M7.70831 7.54297C9.19165 8.08464 10.8083 8.08464 12.2916 7.54297" stroke="#2F648E" stroke-width="1.5" stroke-linecap="round" stroke-linejoin="round"/>
<path d="M14.0167 1.66797H5.98333C4.20833 1.66797 2.76666 3.11797 2.76666 4.88464V16.6263C2.76666 18.1263 3.84166 18.7596 5.15833 18.0346L9.225 15.7763C9.65833 15.5346 10.3583 15.5346 10.7833 15.7763L14.85 18.0346C16.1667 18.768 17.2417 18.1346 17.2417 16.6263V4.88464C17.2333 3.11797 15.7917 1.66797 14.0167 1.66797Z" stroke="#2F648E" stroke-width="1.5" stroke-linecap="round" stroke-linejoin="round"/>
<path d="M14.0167 1.66797H5.98333C4.20833 1.66797 2.76666 3.11797 2.76666 4.88464V16.6263C2.76666 18.1263 3.84166 18.7596 5.15833 18.0346L9.225 15.7763C9.65833 15.5346 10.3583 15.5346 10.7833 15.7763L14.85 18.0346C16.1667 18.768 17.2417 18.1346 17.2417 16.6263V4.88464C17.2333 3.11797 15.7917 1.66797 14.0167 1.66797Z" stroke="#2F648E" stroke-width="1.5" stroke-linecap="round" stroke-linejoin="round"/>
</svg>
