<svg width="20" height="20" viewBox="0 0 20 20" fill="none" xmlns="http://www.w3.org/2000/svg">
<path d="M10.4166 18.3349H3.39993C2.43327 18.3349 1.6416 17.5599 1.6416 16.6099V4.24326C1.6416 2.05993 3.2666 1.06826 5.25827 2.04326L8.95827 3.85993C9.75827 4.25159 10.4166 5.29326 10.4166 6.17659V18.3349Z" stroke="#2F648E" stroke-width="1.5" stroke-linecap="round" stroke-linejoin="round"/>
<path d="M18.3082 12.5503V15.7003C18.3082 17.5003 17.4748 18.3336 15.6748 18.3336H10.4165V8.68359L10.8082 8.76693L14.5582 9.60859L16.2498 9.98359C17.3498 10.2253 18.2498 10.7919 18.2998 12.3919C18.3082 12.4419 18.3082 12.4919 18.3082 12.5503Z" stroke="#2F648E" stroke-width="1.5" stroke-linecap="round" stroke-linejoin="round"/>
<path d="M4.5835 7.5H7.47516" stroke="#2F648E" stroke-width="1.5" stroke-linecap="round" stroke-linejoin="round"/>
<path d="M4.5835 10.832H7.47516" stroke="#2F648E" stroke-width="1.5" stroke-linecap="round" stroke-linejoin="round"/>
<path d="M14.5581 9.60729V12.2906C14.5581 13.324 13.7164 14.1656 12.6831 14.1656C11.6498 14.1656 10.8081 13.324 10.8081 12.2906V8.76562L14.5581 9.60729Z" stroke="#2F648E" stroke-width="1.5" stroke-linecap="round" stroke-linejoin="round"/>
<path d="M18.2998 12.3927C18.2498 13.376 17.4331 14.1677 16.4331 14.1677C15.3998 14.1677 14.5581 13.326 14.5581 12.2927V9.60938L16.2498 9.98437C17.3498 10.226 18.2498 10.7927 18.2998 12.3927Z" stroke="#2F648E" stroke-width="1.5" stroke-linecap="round" stroke-linejoin="round"/>
</svg>
