<svg width="20" height="20" viewBox="0 0 20 20" fill="none" xmlns="http://www.w3.org/2000/svg">
<g clip-path="url(#clip0_1549_6368)">
<g clip-path="url(#clip1_1549_6368)">
<mask id="path-1-inside-1_1549_6368" fill="white">
<path d="M19.6872 5.48875C19.6872 5.41055 19.6718 5.33207 19.6402 5.25805L18.1652 1.81418C17.8786 1.1457 17.2773 0.730469 16.5957 0.730469H3.47516C2.79691 0.730469 2.21133 1.13203 1.90855 1.8052L0.363789 5.24895C0.329453 5.32555 0.312695 5.40731 0.312695 5.48875L0.3125 6.85738C0.3125 7.96055 0.940391 8.91922 1.85723 9.3966V17.6814C1.85723 18.5558 2.56863 19.2672 3.44305 19.2672H16.6267C17.5012 19.2672 18.2126 18.5558 18.2126 17.6814V9.35969C19.0914 8.87082 19.6875 7.93266 19.6875 6.85742L19.6872 5.48875ZM2.97754 2.28535C3.04187 2.1423 3.19211 1.9023 3.47516 1.9023H16.5957C16.8848 1.9023 17.0283 2.13633 17.088 2.27566L18.2132 4.90277H1.80344L2.97754 2.28535ZM3.0291 17.6813V16.3561H7.44246V18.0953H3.44301C3.21863 18.0953 3.0291 17.9057 3.0291 17.6813ZM11.4554 18.0953H8.61438V12.0276H11.4554V18.0953ZM16.6267 18.0953H12.6273V16.3561H17.0407V17.6813C17.0407 17.9057 16.8511 18.0953 16.6267 18.0953ZM17.0407 15.1842H12.6273V11.7052C12.6273 11.2368 12.2462 10.8557 11.7778 10.8557H8.29313C7.8241 10.8557 7.44254 11.2368 7.44254 11.7052V15.1842H3.02918V9.71516C3.07719 9.71758 3.12547 9.71883 3.17406 9.71883C4.10098 9.71883 4.92629 9.27586 5.44957 8.59047C5.97285 9.27586 6.79816 9.71883 7.72512 9.71883C8.65207 9.71883 9.47734 9.27586 10.0006 8.59047C10.5239 9.27586 11.3492 9.71883 12.2762 9.71883C13.2031 9.71883 14.0284 9.27586 14.5517 8.59047C15.075 9.27586 15.9003 9.71883 16.8272 9.71883C16.8991 9.71883 16.9702 9.71527 17.0408 9.71L17.0407 15.1842ZM16.8271 8.54695C15.8955 8.54695 15.1376 7.78902 15.1376 6.85738C15.1376 6.53379 14.8752 6.27145 14.5516 6.27145C14.228 6.27145 13.9657 6.53379 13.9657 6.85738C13.9657 7.78902 13.2078 8.54695 12.2761 8.54695C11.3444 8.54695 10.5865 7.78902 10.5865 6.85738C10.5865 6.53379 10.3241 6.27145 10.0005 6.27145C9.67695 6.27145 9.41461 6.53379 9.41461 6.85738C9.41461 7.78902 8.65668 8.54695 7.72504 8.54695C6.7934 8.54695 6.03543 7.78902 6.03543 6.85738C6.03543 6.53379 5.77309 6.27145 5.44949 6.27145C5.1259 6.27145 4.86355 6.53379 4.86355 6.85738C4.86355 7.78902 4.10562 8.54695 3.17398 8.54695C2.24234 8.54695 1.48438 7.78902 1.48438 6.85738V6.07469H18.5156V6.85738C18.5156 7.78902 17.7582 8.54695 16.8271 8.54695Z"/>
</mask>
<path d="M19.6872 5.48875H18.1872V5.48909L19.6872 5.48875ZM19.6402 5.25805L21.0192 4.66787L21.019 4.66749L19.6402 5.25805ZM18.1652 1.81418L19.544 1.22362L19.5438 1.22324L18.1652 1.81418ZM1.90855 1.8052L0.540558 1.1899L0.539942 1.19128L1.90855 1.8052ZM0.363789 5.24895L-1.00482 4.63503L-1.00499 4.6354L0.363789 5.24895ZM0.312695 5.48875L1.8127 5.48896V5.48875H0.312695ZM0.3125 6.85738L-1.1875 6.85717V6.85738H0.3125ZM1.85723 9.3966H3.35723V8.48647L2.54997 8.06615L1.85723 9.3966ZM18.2126 9.35969L17.4834 8.04886L16.7126 8.47765V9.35969H18.2126ZM19.6875 6.85742H21.1875V6.85708L19.6875 6.85742ZM2.97754 2.28535L1.60953 1.67008L1.60893 1.67143L2.97754 2.28535ZM17.088 2.27566L18.4669 1.6851L18.4666 1.68437L17.088 2.27566ZM18.2132 4.90277V6.40277H20.4875L19.5921 4.31221L18.2132 4.90277ZM1.80344 4.90277L0.434825 4.28885L-0.51342 6.40277H1.80344V4.90277ZM3.0291 16.3561V14.8561H1.5291V16.3561H3.0291ZM7.44246 16.3561H8.94246V14.8561H7.44246V16.3561ZM7.44246 18.0953V19.5953H8.94246V18.0953H7.44246ZM11.4554 18.0953V19.5953H12.9554V18.0953H11.4554ZM8.61438 18.0953H7.11438V19.5953H8.61438V18.0953ZM8.61438 12.0276V10.5276H7.11438V12.0276H8.61438ZM11.4554 12.0276H12.9554V10.5276H11.4554V12.0276ZM12.6273 18.0953H11.1273V19.5953H12.6273V18.0953ZM12.6273 16.3561V14.8561H11.1273V16.3561H12.6273ZM17.0407 16.3561H18.5407V14.8561H17.0407V16.3561ZM17.0407 15.1842V16.6842H18.5407L18.5407 15.1842L17.0407 15.1842ZM12.6273 15.1842H11.1273V16.6842H12.6273V15.1842ZM7.44254 15.1842V16.6842H8.94254V15.1842H7.44254ZM3.02918 15.1842H1.52918V16.6842H3.02918V15.1842ZM3.02918 9.71516L3.10475 8.21706L1.52918 8.13758V9.71516H3.02918ZM5.44957 8.59047L6.64181 7.68022L5.44957 6.11863L4.25733 7.68022L5.44957 8.59047ZM10.0006 8.59047L11.1929 7.68022L10.0006 6.11863L8.80838 7.68022L10.0006 8.59047ZM14.5517 8.59047L15.744 7.68022L14.5517 6.11863L13.3595 7.68022L14.5517 8.59047ZM17.0408 9.71L18.5408 9.71002L18.5408 8.09375L16.929 8.21417L17.0408 9.71ZM1.48438 6.07469V4.57469H-0.015625V6.07469H1.48438ZM18.5156 6.07469H20.0156V4.57469H18.5156V6.07469ZM19.6872 5.48875H21.1872C21.1872 5.21351 21.1329 4.93372 21.0192 4.66787L19.6402 5.25805L18.2611 5.84822C18.2107 5.73042 18.1872 5.60758 18.1872 5.48875H19.6872ZM19.6402 5.25805L21.019 4.66749L19.544 1.22362L18.1652 1.81418L16.7863 2.40474L18.2613 5.84861L19.6402 5.25805ZM18.1652 1.81418L19.5438 1.22324C19.0414 0.0511075 17.9277 -0.769531 16.5957 -0.769531V0.730469V2.23047C16.6256 2.23047 16.6501 2.23795 16.6763 2.25599C16.704 2.27514 16.7491 2.31805 16.7865 2.40512L18.1652 1.81418ZM16.5957 0.730469V-0.769531H3.47516V0.730469V2.23047H16.5957V0.730469ZM3.47516 0.730469V-0.769531C2.1432 -0.769531 1.0584 0.0385736 0.540558 1.1899L1.90855 1.8052L3.27655 2.42049C3.3248 2.31321 3.37624 2.26834 3.39954 2.25235C3.41991 2.23838 3.4403 2.23047 3.47516 2.23047V0.730469ZM1.90855 1.8052L0.539942 1.19128L-1.00482 4.63503L0.363789 5.24895L1.7324 5.86287L3.27717 2.41912L1.90855 1.8052ZM0.363789 5.24895L-1.00499 4.6354C-1.12811 4.91006 -1.1873 5.20147 -1.1873 5.48875H0.312695H1.8127C1.8127 5.61314 1.78701 5.74103 1.73257 5.86249L0.363789 5.24895ZM0.312695 5.48875L-1.1873 5.48854L-1.1875 6.85717L0.3125 6.85738L1.8125 6.8576L1.8127 5.48896L0.312695 5.48875ZM0.3125 6.85738H-1.1875C-1.1875 8.54405 -0.226596 10.0027 1.16448 10.7271L1.85723 9.3966L2.54997 8.06615C2.10738 7.8357 1.8125 7.37704 1.8125 6.85738H0.3125ZM1.85723 9.3966H0.357226V17.6814H1.85723H3.35723V9.3966H1.85723ZM1.85723 17.6814H0.357226C0.357226 19.3842 1.74018 20.7672 3.44305 20.7672V19.2672V17.7672C3.42095 17.7672 3.40121 17.7599 3.3829 17.7416C3.36459 17.7233 3.35723 17.7035 3.35723 17.6814H1.85723ZM3.44305 19.2672V20.7672H16.6267V19.2672V17.7672H3.44305V19.2672ZM16.6267 19.2672V20.7672C18.3296 20.7672 19.7126 19.3842 19.7126 17.6814H18.2126H16.7126C16.7126 17.7035 16.7052 17.7232 16.6869 17.7416C16.6686 17.7599 16.6489 17.7672 16.6267 17.7672V19.2672ZM18.2126 17.6814H19.7126V9.35969H18.2126H16.7126V17.6814H18.2126ZM18.2126 9.35969L18.9418 10.6705C20.2752 9.92871 21.1875 8.50084 21.1875 6.85742H19.6875H18.1875C18.1875 7.36447 17.9075 7.81293 17.4834 8.04886L18.2126 9.35969ZM19.6875 6.85742L21.1875 6.85708L21.1872 5.48841L19.6872 5.48875L18.1872 5.48909L18.1875 6.85776L19.6875 6.85742ZM2.97754 2.28535L4.34555 2.90062C4.33576 2.92237 4.29373 3.0159 4.18409 3.12134C4.05158 3.24878 3.80407 3.4023 3.47516 3.4023V1.9023V0.402305C2.21521 0.402305 1.70208 1.46431 1.60953 1.67008L2.97754 2.28535ZM3.47516 1.9023V3.4023H16.5957V1.9023V0.402305H3.47516V1.9023ZM16.5957 1.9023V3.4023C16.2887 3.4023 16.04 3.26299 15.8917 3.12137C15.7706 3.00562 15.7231 2.89854 15.7095 2.86696L17.088 2.27566L18.4666 1.68437C18.3622 1.44106 17.8544 0.402305 16.5957 0.402305V1.9023ZM17.088 2.27566L15.7092 2.86623L16.8344 5.49334L18.2132 4.90277L19.5921 4.31221L18.4669 1.6851L17.088 2.27566ZM18.2132 4.90277V3.40277H1.80344V4.90277V6.40277H18.2132V4.90277ZM1.80344 4.90277L3.17205 5.5167L4.34615 2.89927L2.97754 2.28535L1.60893 1.67143L0.434825 4.28885L1.80344 4.90277ZM3.0291 17.6813H4.5291V16.3561H3.0291H1.5291V17.6813H3.0291ZM3.0291 16.3561V17.8561H7.44246V16.3561V14.8561H3.0291V16.3561ZM7.44246 16.3561H5.94246V18.0953H7.44246H8.94246V16.3561H7.44246ZM7.44246 18.0953V16.5953H3.44301V18.0953V19.5953H7.44246V18.0953ZM3.44301 18.0953V16.5953C4.04733 16.5953 4.5291 17.0776 4.5291 17.6813H3.0291H1.5291C1.5291 18.7339 2.38993 19.5953 3.44301 19.5953V18.0953ZM11.4554 18.0953V16.5953H8.61438V18.0953V19.5953H11.4554V18.0953ZM8.61438 18.0953H10.1144V12.0276H8.61438H7.11438V18.0953H8.61438ZM8.61438 12.0276V13.5276H11.4554V12.0276V10.5276H8.61438V12.0276ZM11.4554 12.0276H9.95539V18.0953H11.4554H12.9554V12.0276H11.4554ZM16.6267 18.0953V16.5953H12.6273V18.0953V19.5953H16.6267V18.0953ZM12.6273 18.0953H14.1273V16.3561H12.6273H11.1273V18.0953H12.6273ZM12.6273 16.3561V17.8561H17.0407V16.3561V14.8561H12.6273V16.3561ZM17.0407 16.3561H15.5407V17.6813H17.0407H18.5407V16.3561H17.0407ZM17.0407 17.6813H15.5407C15.5407 17.0774 16.0226 16.5953 16.6267 16.5953V18.0953V19.5953C17.6796 19.5953 18.5407 18.7341 18.5407 17.6813H17.0407ZM17.0407 15.1842V13.6842H12.6273V15.1842V16.6842H17.0407V15.1842ZM12.6273 15.1842H14.1273V11.7052H12.6273H11.1273V15.1842H12.6273ZM12.6273 11.7052H14.1273C14.1273 10.4084 13.0746 9.3557 11.7778 9.3557V10.8557V12.3557C11.4178 12.3557 11.1273 12.0652 11.1273 11.7052H12.6273ZM11.7778 10.8557V9.3557H8.29313V10.8557V12.3557H11.7778V10.8557ZM8.29313 10.8557V9.3557C6.99751 9.3557 5.94254 10.4065 5.94254 11.7052H7.44254H8.94254C8.94254 12.067 8.65069 12.3557 8.29313 12.3557V10.8557ZM7.44254 11.7052H5.94254V15.1842H7.44254H8.94254V11.7052H7.44254ZM7.44254 15.1842V13.6842H3.02918V15.1842V16.6842H7.44254V15.1842ZM3.02918 15.1842H4.52918V9.71516H3.02918H1.52918V15.1842H3.02918ZM3.02918 9.71516L2.9536 11.2133C3.02624 11.2169 3.09973 11.2188 3.17406 11.2188V9.71883V8.21883C3.15121 8.21883 3.12813 8.21824 3.10475 8.21706L3.02918 9.71516ZM3.17406 9.71883V11.2188C4.58995 11.2188 5.84799 10.5405 6.64181 9.50072L5.44957 8.59047L4.25733 7.68022C4.00459 8.01125 3.612 8.21883 3.17406 8.21883V9.71883ZM5.44957 8.59047L4.25733 9.50072C5.05116 10.5405 6.3092 11.2188 7.72512 11.2188V9.71883V8.21883C7.28713 8.21883 6.89454 8.01124 6.64181 7.68022L5.44957 8.59047ZM7.72512 9.71883V11.2188C9.14106 11.2188 10.399 10.5405 11.1929 9.50072L10.0006 8.59047L8.80838 7.68022C8.55564 8.01126 8.16308 8.21883 7.72512 8.21883V9.71883ZM10.0006 8.59047L8.80838 9.50072C9.60222 10.5405 10.8603 11.2188 12.2762 11.2188V9.71883V8.21883C11.8382 8.21883 11.4456 8.01124 11.1929 7.68022L10.0006 8.59047ZM12.2762 9.71883V11.2188C13.6921 11.2188 14.9501 10.5405 15.744 9.50072L14.5517 8.59047L13.3595 7.68022C13.1067 8.01124 12.7142 8.21883 12.2762 8.21883V9.71883ZM14.5517 8.59047L13.3595 9.50072C14.1533 10.5405 15.4113 11.2188 16.8272 11.2188V9.71883V8.21883C16.3893 8.21883 15.9967 8.01125 15.744 7.68022L14.5517 8.59047ZM16.8272 9.71883V11.2188C16.9478 11.2188 17.0582 11.2129 17.1525 11.2058L17.0408 9.71L16.929 8.21417C16.8822 8.21766 16.8505 8.21883 16.8272 8.21883V9.71883ZM17.0408 9.71L15.5408 9.70998L15.5407 15.1842L17.0407 15.1842L18.5407 15.1842L18.5408 9.71002L17.0408 9.71ZM16.8271 8.54695V7.04695C16.7239 7.04695 16.6376 6.9606 16.6376 6.85738H15.1376H13.6376C13.6376 8.61745 15.0671 10.047 16.8271 10.047V8.54695ZM15.1376 6.85738H16.6376C16.6376 5.70536 15.7037 4.77145 14.5516 4.77145V6.27145V7.77145C14.0468 7.77145 13.6376 7.36222 13.6376 6.85738H15.1376ZM14.5516 6.27145V4.77145C13.3996 4.77145 12.4657 5.70536 12.4657 6.85738H13.9657H15.4657C15.4657 7.36222 15.0565 7.77145 14.5516 7.77145V6.27145ZM13.9657 6.85738H12.4657C12.4657 6.96057 12.3794 7.04695 12.2761 7.04695V8.54695V10.047C14.0362 10.047 15.4657 8.61747 15.4657 6.85738H13.9657ZM12.2761 8.54695V7.04695C12.1728 7.04695 12.0865 6.96057 12.0865 6.85738H10.5865H9.08648C9.08648 8.61747 10.516 10.047 12.2761 10.047V8.54695ZM10.5865 6.85738H12.0865C12.0865 5.70536 11.1526 4.77145 10.0005 4.77145V6.27145V7.77145C9.49571 7.77145 9.08648 7.36222 9.08648 6.85738H10.5865ZM10.0005 6.27145V4.77145C8.84853 4.77145 7.91461 5.70536 7.91461 6.85738H9.41461H10.9146C10.9146 7.36222 10.5054 7.77145 10.0005 7.77145V6.27145ZM9.41461 6.85738H7.91461C7.91461 6.9606 7.82825 7.04695 7.72504 7.04695V8.54695V10.047C9.48511 10.047 10.9146 8.61745 10.9146 6.85738H9.41461ZM7.72504 8.54695V7.04695C7.62178 7.04695 7.53543 6.96055 7.53543 6.85738H6.03543H4.53543C4.53543 8.6175 5.96502 10.047 7.72504 10.047V8.54695ZM6.03543 6.85738H7.53543C7.53543 5.70536 6.60151 4.77145 5.44949 4.77145V6.27145V7.77145C4.94466 7.77145 4.53543 7.36222 4.53543 6.85738H6.03543ZM5.44949 6.27145V4.77145C4.29747 4.77145 3.36355 5.70536 3.36355 6.85738H4.86355H6.36355C6.36355 7.36222 5.95433 7.77145 5.44949 7.77145V6.27145ZM4.86355 6.85738H3.36355C3.36355 6.9606 3.2772 7.04695 3.17398 7.04695V8.54695V10.047C4.93405 10.047 6.36355 8.61745 6.36355 6.85738H4.86355ZM3.17398 8.54695V7.04695C3.07073 7.04695 2.98438 6.96055 2.98438 6.85738H1.48438H-0.015625C-0.015625 8.6175 1.41396 10.047 3.17398 10.047V8.54695ZM1.48438 6.85738H2.98438V6.07469H1.48438H-0.015625V6.85738H1.48438ZM1.48438 6.07469V7.57469H18.5156V6.07469V4.57469H1.48438V6.07469ZM18.5156 6.07469H17.0156V6.85738H18.5156H20.0156V6.07469H18.5156ZM18.5156 6.85738H17.0156C17.0156 6.96152 16.9289 7.04695 16.8271 7.04695V8.54695V10.047C18.5876 10.047 20.0156 8.61652 20.0156 6.85738H18.5156Z" fill="#2F648E" mask="url(#path-1-inside-1_1549_6368)"/>
</g>
</g>
<defs>
<clipPath id="clip0_1549_6368">
<rect width="20" height="20" fill="white"/>
</clipPath>
<clipPath id="clip1_1549_6368">
<rect width="20" height="20" fill="white"/>
</clipPath>
</defs>
</svg>
