<svg width="20" height="20" viewBox="0 0 20 20" fill="none" xmlns="http://www.w3.org/2000/svg">
<path d="M3.33333 11.6654C2.41286 11.6654 1.66667 10.9192 1.66667 9.9987C1.66667 9.07822 2.41286 8.33203 3.33333 8.33203C4.25381 8.33203 5 9.07822 5 9.9987C5 10.9192 4.25381 11.6654 3.33333 11.6654Z" stroke="#2F648E" stroke-width="1.25" stroke-linecap="round" stroke-linejoin="round"/>
<path d="M3.33333 5.0013C2.41286 5.0013 1.66667 4.25511 1.66667 3.33464C1.66667 2.41416 2.41286 1.66797 3.33333 1.66797C4.25381 1.66797 5 2.41416 5 3.33464C5 4.25511 4.25381 5.0013 3.33333 5.0013Z" stroke="#2F648E" stroke-width="1.25" stroke-linecap="round" stroke-linejoin="round"/>
<path d="M3.33333 18.3333C2.41286 18.3333 1.66667 17.5871 1.66667 16.6667C1.66667 15.7462 2.41286 15 3.33333 15C4.25381 15 5 15.7462 5 16.6667C5 17.5871 4.25381 18.3333 3.33333 18.3333Z" stroke="#2F648E" stroke-width="1.25" stroke-linecap="round" stroke-linejoin="round"/>
<path d="M16.6666 11.6654C15.7461 11.6654 14.9999 10.9192 14.9999 9.9987C14.9999 9.07822 15.7461 8.33203 16.6666 8.33203C17.5871 8.33203 18.3333 9.07822 18.3333 9.9987C18.3333 10.9192 17.5871 11.6654 16.6666 11.6654Z" stroke="#2F648E" stroke-width="1.25" stroke-linecap="round" stroke-linejoin="round"/>
<path d="M15 10H5" stroke="#2F648E" stroke-width="1.25" stroke-linecap="round" stroke-linejoin="round"/>
<path d="M4.99992 3.33203H8.33325C9.99992 3.33203 10.8333 4.16536 10.8333 5.83203V14.1654C10.8333 15.832 9.99992 16.6654 8.33325 16.6654H4.99992" stroke="#2F648E" stroke-width="1.25" stroke-linecap="round" stroke-linejoin="round"/>
</svg>
