<svg width="20" height="20" viewBox="0 0 20 20" fill="none" xmlns="http://www.w3.org/2000/svg">
<path d="M8.74984 16.5846V3.41797C8.74984 2.16797 8.2165 1.66797 6.8915 1.66797H3.52484C2.19984 1.66797 1.6665 2.16797 1.6665 3.41797V16.5846C1.6665 17.8346 2.19984 18.3346 3.52484 18.3346H6.8915C8.2165 18.3346 8.74984 17.8346 8.74984 16.5846Z" stroke="#2F648E" stroke-width="1.5" stroke-linecap="round" stroke-linejoin="round"/>
<path d="M18.3333 9.08463V3.41797C18.3333 2.16797 17.8 1.66797 16.475 1.66797H13.1083C11.7833 1.66797 11.25 2.16797 11.25 3.41797V9.08463C11.25 10.3346 11.7833 10.8346 13.1083 10.8346H16.475C17.8 10.8346 18.3333 10.3346 18.3333 9.08463Z" stroke="#2F648E" stroke-width="1.5" stroke-linecap="round" stroke-linejoin="round"/>
<path d="M18.3333 16.582V15.082C18.3333 13.832 17.8 13.332 16.475 13.332H13.1083C11.7833 13.332 11.25 13.832 11.25 15.082V16.582C11.25 17.832 11.7833 18.332 13.1083 18.332H16.475C17.8 18.332 18.3333 17.832 18.3333 16.582Z" stroke="#2F648E" stroke-width="1.5" stroke-linecap="round" stroke-linejoin="round"/>
</svg>
