<svg width="21" height="21" viewBox="0 0 21 21" fill="none" xmlns="http://www.w3.org/2000/svg">
<path d="M7.99992 8.83333C8.92039 8.83333 9.66659 8.08714 9.66659 7.16667C9.66659 6.24619 8.92039 5.5 7.99992 5.5C7.07944 5.5 6.33325 6.24619 6.33325 7.16667C6.33325 8.08714 7.07944 8.83333 7.99992 8.83333Z" stroke="#2F648E" stroke-width="1.5" stroke-linecap="round" stroke-linejoin="round"/>
<path d="M11.3334 2.16797H8.00008C3.83341 2.16797 2.16675 3.83464 2.16675 8.0013V13.0013C2.16675 17.168 3.83341 18.8346 8.00008 18.8346H13.0001C17.1667 18.8346 18.8334 17.168 18.8334 13.0013V8.83464" stroke="#2F648E" stroke-width="1.5" stroke-linecap="round" stroke-linejoin="round"/>
<path d="M15.5 7.16797V2.16797L17.1667 3.83464" stroke="#2F648E" stroke-width="1.5" stroke-linecap="round" stroke-linejoin="round"/>
<path d="M15.4999 2.16797L13.8333 3.83464" stroke="#2F648E" stroke-width="1.5" stroke-linecap="round" stroke-linejoin="round"/>
<path d="M2.7251 16.2898L6.83343 13.5315C7.49176 13.0898 8.44176 13.1398 9.03343 13.6482L9.30843 13.8898C9.95843 14.4482 11.0084 14.4482 11.6584 13.8898L15.1251 10.9148C15.7751 10.3565 16.8251 10.3565 17.4751 10.9148L18.8334 12.0815" stroke="#2F648E" stroke-width="1.5" stroke-linecap="round" stroke-linejoin="round"/>
</svg>
