<svg width="22" height="22" viewBox="0 0 22 22" fill="none" xmlns="http://www.w3.org/2000/svg">
<path d="M11 21C16.5228 21 21 16.5228 21 11C21 5.47715 16.5228 1 11 1C5.47715 1 1 5.47715 1 11C1 16.5228 5.47715 21 11 21Z" stroke="#2F648E" stroke-width="1.5"/>
<path d="M6.076 15.132C5.804 15.132 5.548 15.088 5.308 15C5.068 14.92 4.872 14.756 4.72 14.508C4.576 14.252 4.504 13.872 4.504 13.368V9.408C4.504 8.976 4.584 8.648 4.744 8.424C4.904 8.192 5.128 8.036 5.416 7.956C5.704 7.868 6.036 7.824 6.412 7.824C6.788 7.824 7.12 7.868 7.408 7.956C7.696 8.044 7.92 8.204 8.08 8.436C8.248 8.66 8.332 8.984 8.332 9.408V10.368H7.216V9.36C7.216 9.12 7.18 8.94 7.108 8.82C7.044 8.7 6.952 8.62 6.832 8.58C6.72 8.54 6.584 8.52 6.424 8.52C6.28 8.52 6.148 8.54 6.028 8.58C5.908 8.62 5.812 8.7 5.74 8.82C5.676 8.94 5.644 9.12 5.644 9.36V13.62C5.644 13.86 5.676 14.04 5.74 14.16C5.812 14.28 5.908 14.36 6.028 14.4C6.148 14.44 6.28 14.46 6.424 14.46C6.656 14.46 6.844 14.392 6.988 14.256C7.14 14.112 7.216 13.9 7.216 13.62V12.18H6.508V11.52H8.332V15H7.468L7.408 14.4C7.392 14.432 7.372 14.468 7.348 14.508C7.324 14.54 7.304 14.568 7.288 14.592C7.192 14.736 7.048 14.864 6.856 14.976C6.672 15.08 6.412 15.132 6.076 15.132ZM11.0607 15.084C10.6687 15.084 10.3287 15.024 10.0407 14.904C9.75269 14.784 9.53269 14.572 9.38069 14.268C9.23669 13.964 9.16469 13.536 9.16469 12.984V12.576C9.35669 12.576 9.55269 12.576 9.75269 12.576C9.95269 12.576 10.1487 12.576 10.3407 12.576V13.08C10.3407 13.416 10.3727 13.676 10.4367 13.86C10.5007 14.044 10.5887 14.172 10.7007 14.244C10.8127 14.308 10.9407 14.34 11.0847 14.34C11.3167 14.34 11.5007 14.264 11.6367 14.112C11.7807 13.952 11.8527 13.656 11.8527 13.224C11.8527 12.904 11.8047 12.664 11.7087 12.504C11.6127 12.344 11.4607 12.216 11.2527 12.12C11.0527 12.016 10.7927 11.9 10.4727 11.772C10.2087 11.652 9.98069 11.512 9.78869 11.352C9.59669 11.192 9.45269 10.988 9.35669 10.74C9.26069 10.492 9.21269 10.184 9.21269 9.816C9.21269 9.368 9.26869 9.004 9.38069 8.724C9.50069 8.436 9.70069 8.228 9.98069 8.1C10.2607 7.964 10.6367 7.896 11.1087 7.896C11.7167 7.896 12.1807 8.036 12.5007 8.316C12.8207 8.588 12.9807 8.988 12.9807 9.516V10.344C12.7967 10.344 12.6087 10.344 12.4167 10.344C12.2327 10.344 12.0447 10.344 11.8527 10.344V9.852C11.8527 9.484 11.7927 9.22 11.6727 9.06C11.5607 8.892 11.3767 8.808 11.1207 8.808C10.8567 8.808 10.6647 8.888 10.5447 9.048C10.4327 9.2 10.3767 9.444 10.3767 9.78C10.3767 10.068 10.4327 10.292 10.5447 10.452C10.6567 10.604 10.8007 10.724 10.9767 10.812C11.1607 10.9 11.3487 10.98 11.5407 11.052C11.9007 11.188 12.1927 11.328 12.4167 11.472C12.6407 11.616 12.8047 11.808 12.9087 12.048C13.0127 12.288 13.0647 12.628 13.0647 13.068C13.0647 13.572 12.9807 13.972 12.8127 14.268C12.6527 14.556 12.4207 14.764 12.1167 14.892C11.8207 15.02 11.4687 15.084 11.0607 15.084ZM14.6582 15V8.724H13.5302V7.908H16.9622V8.724H15.8102V15H14.6582Z" fill="#2F648E"/>
</svg>
