<svg width="20" height="20" viewBox="0 0 20 20" fill="none" xmlns="http://www.w3.org/2000/svg">
<path d="M18.3105 8.76962L10.961 2.37072C10.6945 2.13934 10.3534 2.01187 10.0005 2.01172C9.64753 2.01157 9.30637 2.13874 9.03964 2.36988L1.69263 8.76639C1.46775 8.96025 1.30753 9.21825 1.23349 9.50578C1.15944 9.79331 1.1751 10.0966 1.27837 10.375C1.38164 10.6533 1.56758 10.8935 1.81124 11.0631C2.0549 11.2328 2.34461 11.3239 2.64152 11.3242H3.54159V16.5325C3.54206 16.9191 3.69585 17.2898 3.96924 17.5632C4.24263 17.8366 4.61329 17.9904 4.99992 17.9908H7.08326C7.46989 17.9904 7.84055 17.8366 8.11394 17.5632C8.38733 17.2898 8.54112 16.9191 8.54159 16.5325V14.4492C8.54182 14.2452 8.58473 14.0435 8.66756 13.8571C8.75039 13.6707 8.87131 13.5037 9.02255 13.3668C9.1741 13.2288 9.35324 13.1246 9.54812 13.061C9.74299 12.9975 9.94914 12.976 10.1529 12.9982C10.5249 13.0555 10.8629 13.247 11.1034 13.5365C11.3439 13.826 11.4701 14.1935 11.4583 14.5696V16.5325C11.4587 16.9191 11.6125 17.2898 11.8859 17.5632C12.1593 17.8366 12.53 17.9904 12.9166 17.9908H14.9999C15.3866 17.9904 15.7572 17.8366 16.0306 17.5632C16.304 17.2898 16.4578 16.9191 16.4583 16.5325V11.3242H17.3583C17.6548 11.3239 17.9442 11.2331 18.1877 11.0639C18.4311 10.8946 18.6171 10.6551 18.7207 10.3772C18.8242 10.0994 18.8404 9.79655 18.7671 9.50924C18.6938 9.22193 18.5345 8.96387 18.3105 8.76962Z" stroke="#2F648E" stroke-width="1.5" stroke-miterlimit="10" stroke-linecap="round" stroke-linejoin="round"/>
</svg>
