<svg width="30" height="36" viewBox="0 0 30 36" fill="none" xmlns="http://www.w3.org/2000/svg">
<g clip-path="url(#clip0_3321_15221)">
<path d="M28.7927 26.8113L26.5301 14.3457C26.5075 14.2213 26.4303 14.1135 26.3197 14.052L20.6249 10.8846C20.551 10.8434 20.4681 10.827 20.3867 10.8333L21.4228 24.1988L21.3881 24.2143L28.2036 27.2719C28.259 27.2967 28.318 27.309 28.3766 27.309C28.4695 27.309 28.5615 27.2784 28.6372 27.2192C28.7608 27.1227 28.8206 26.9656 28.7927 26.8113Z" fill="#2F648E"/>
<path d="M14.3983 13.9128L8.57386 10.8791C8.50405 10.8427 8.42665 10.8279 8.35043 10.833C8.37063 10.8318 8.39093 10.8319 8.41107 10.8335L7.375 24.1989L14.2252 27.2721C14.2805 27.2968 14.3395 27.3091 14.3983 27.3091V13.9128Z" fill="#2F648E"/>
<path d="M8.41274 10.8333C8.33135 10.827 8.24849 10.8434 8.17458 10.8845L2.47966 14.052C2.36907 14.1134 2.2919 14.2212 2.26934 14.3456L0.00679936 26.8113C-0.0212131 26.9655 0.0386369 27.1226 0.162218 27.2192C0.237987 27.2784 0.329956 27.309 0.422768 27.309C0.481437 27.309 0.540443 27.2968 0.595849 27.2719L7.3742 24.231L8.41274 10.8333Z" fill="#2F648E"/>
<path d="M20.3876 10.832C20.3316 10.8364 20.2762 10.8513 20.2248 10.878L14.4004 13.9116V27.308H14.4004C14.4592 27.308 14.5183 27.2957 14.5735 27.2709L21.4237 24.1978L20.3876 10.832Z" fill="#4CE166"/>
<path d="M1.58462 18.1225L1.125 20.6548L7.93091 17.0601L8.08892 15.0217L8.11513 14.6836L1.58462 18.1225Z" fill="#FDB913"/>
<path d="M7.99121 16.2734L7.92995 17.0639L1.12404 20.6586L0.00679936 26.8142C-0.0212131 26.9684 0.0386369 27.1255 0.162218 27.2221C0.237987 27.2813 0.329956 27.3119 0.422768 27.3119C0.481437 27.3119 0.540443 27.2997 0.595849 27.2748L7.3742 24.2339L7.99121 16.2734Z" fill="#A8EEFC"/>
<path d="M14.4014 15.5826L8.11391 14.6836L7.92969 17.0601L14.3997 26.8858V23.3129L10.5389 17.2335L14.4014 17.6955V15.5826Z" fill="#FDB913"/>
<path d="M25.8705 13.8029L23.1348 12.2812L20.5449 12.8864L20.5773 13.3047L20.7052 14.9547L25.8705 13.8029Z" fill="#FDB913"/>
<path d="M20.937 17.9182L20.6918 14.7542L20.547 12.8867L14.4023 15.584V17.6969L18.4161 15.9514L20.937 17.9182Z" fill="#FDB913" fill-opacity="0.75"/>
<path d="M28.7935 26.8099L28.2252 23.6787L20.707 14.9531L20.9368 17.9163L28.6469 27.2099C28.7642 27.1128 28.8208 26.9602 28.7935 26.8099Z" fill="#FDB913"/>
<path d="M14.4267 1.60156C11.1663 1.60156 8.51367 4.25195 8.51367 7.50973C8.51367 9.52494 9.47043 11.6885 11.3574 13.9403C12.7434 15.5943 14.1105 16.658 14.168 16.7025C14.2442 16.7614 14.3354 16.7908 14.4267 16.7908C14.518 16.7908 14.6093 16.7614 14.6854 16.7025C14.7429 16.658 16.1101 15.5943 17.496 13.9403C19.383 11.6885 20.3398 9.52499 20.3398 7.50973C20.3397 4.25195 17.6871 1.60156 14.4267 1.60156ZM16.6165 7.50967C16.6165 8.71803 15.636 9.69768 14.4267 9.69768C13.2173 9.69768 12.2369 8.71809 12.2369 7.50967C12.2369 6.30125 13.2173 5.32166 14.4267 5.32166C15.636 5.32166 16.6165 6.30131 16.6165 7.50967Z" fill="#2F648E"/>
<path d="M14.4268 1.60156C14.1683 1.60156 13.9138 1.61832 13.6641 1.65061C16.5656 2.02563 18.8144 4.51014 18.8144 7.50973C18.8144 9.52494 17.8577 11.6885 15.9707 13.9403C15.0794 15.0039 14.1965 15.8229 13.6641 16.2842C13.9597 16.5403 14.1476 16.6866 14.1681 16.7025C14.2443 16.7614 14.3355 16.7908 14.4268 16.7908C14.518 16.7908 14.6093 16.7614 14.6855 16.7025C14.743 16.658 16.1101 15.5943 17.4961 13.9403C19.3831 11.6885 20.3399 9.52499 20.3399 7.50973C20.3398 4.25195 17.6872 1.60156 14.4268 1.60156Z" fill="#2F648E"/>
<path d="M14.5735 27.2706L17.1208 26.1279L14.4004 23.3125V27.3077H14.4004C14.4592 27.3077 14.5182 27.2955 14.5735 27.2706Z" fill="#FDB913" fill-opacity="0.75"/>
<path d="M26.5309 14.3477C26.5084 14.2233 26.4312 14.1155 26.3206 14.054L25.8723 13.8047L20.707 14.9565L28.2252 23.6821L26.5309 14.3477Z" fill="#1EA4E9"/>
<path d="M14.3983 27.3105C14.3984 27.3105 14.3984 27.3105 14.3983 27.3105V26.8882L7.92833 17.0625L7.375 24.2003L14.2252 27.2735C14.2805 27.2983 14.3395 27.3105 14.3983 27.3105Z" fill="#1EA4E9"/>
</g>
<g clip-path="url(#clip1_3321_15221)">
<path d="M19.1218 24.411C18.7473 24.0386 18.4919 23.5633 18.3878 23.0455C18.2837 22.5277 18.3356 21.9906 18.537 21.5024C18.7383 21.0141 19.0801 20.5966 19.5189 20.3027C19.9578 20.0088 20.474 19.8518 21.0022 19.8516C21.5303 19.8513 22.0467 20.0078 22.4858 20.3013C22.925 20.5947 23.2671 21.0119 23.469 21.5C23.6708 21.988 23.7233 22.525 23.6197 23.0429C23.5161 23.5608 23.2611 24.0363 22.887 24.4092C22.8648 24.4314 22.8384 24.4489 22.8094 24.4609C22.7803 24.4728 22.7492 24.479 22.7178 24.4789C22.6864 24.4788 22.6554 24.4726 22.6264 24.4605C22.5974 24.4484 22.5711 24.4308 22.5489 24.4085C22.5268 24.3863 22.5092 24.3599 22.4972 24.3309C22.4853 24.3019 22.4792 24.2708 22.4792 24.2394C22.4793 24.208 22.4855 24.1769 22.4976 24.1479C22.5097 24.1189 22.5273 24.0926 22.5496 24.0704C22.8565 23.7644 23.0658 23.3741 23.1507 22.949C23.2357 22.524 23.1926 22.0832 23.0269 21.6827C22.8613 21.2821 22.5804 20.9398 22.22 20.6989C21.8596 20.4581 21.4358 20.3297 21.0023 20.3299C20.5688 20.3301 20.1452 20.459 19.785 20.7002C19.4248 20.9413 19.1443 21.284 18.979 21.6847C18.8137 22.0854 18.7711 22.5262 18.8565 22.9512C18.9419 23.3762 19.1515 23.7662 19.4588 24.072C19.4812 24.0941 19.4991 24.1204 19.5114 24.1494C19.5236 24.1784 19.53 24.2096 19.5302 24.2411C19.5304 24.2726 19.5243 24.3038 19.5124 24.333C19.5004 24.3621 19.4829 24.3886 19.4606 24.411C19.4384 24.4333 19.412 24.4511 19.3829 24.4632C19.3539 24.4753 19.3227 24.4815 19.2912 24.4815C19.2597 24.4815 19.2285 24.4753 19.1994 24.4632C19.1703 24.4511 19.144 24.4334 19.1218 24.411ZM26.4339 26.7393C26.2776 26.6487 26.1002 26.6006 25.9196 26.6C25.7389 26.5994 25.5613 26.6462 25.4043 26.7357C25.3912 26.7433 25.3786 26.7516 25.3659 26.7596C25.3232 26.1221 24.8115 25.7884 24.305 25.7882H24.3041C24.0023 25.7882 23.6987 25.9067 23.4933 26.1373C23.2885 25.8848 22.9707 25.7549 22.655 25.7548H22.6541C22.4472 25.7541 22.2442 25.8104 22.0671 25.9174L22.0688 22.5207C22.0688 22.2388 21.957 21.9685 21.7579 21.7689C21.5588 21.5693 21.2887 21.4569 21.0068 21.4561H21.0048C20.7234 21.4572 20.4538 21.5694 20.2547 21.7684C20.0557 21.9674 19.9434 22.237 19.9423 22.5184L19.9386 28.1309L19.3478 27.3532C19.0147 26.9137 18.5009 26.6792 18.0072 26.7414C17.6372 26.788 17.3408 26.9951 17.2144 27.2955C17.1309 27.4938 17.0534 27.9088 17.4718 28.4604C18.3455 29.6118 18.64 30.4499 18.8999 31.1894C19.1115 31.7917 19.2943 32.3119 19.7396 32.821C20.1337 33.2724 20.323 33.7809 20.3184 34.3755L20.3142 34.9109C20.3139 34.9423 20.3199 34.9734 20.3317 35.0025C20.3434 35.0316 20.3608 35.0581 20.3829 35.0805C20.4049 35.1029 20.4311 35.1207 20.46 35.1329C20.489 35.1452 20.52 35.1516 20.5514 35.1519H25.1505C25.2139 35.1514 25.2745 35.1257 25.319 35.0805C25.3635 35.0353 25.3882 34.9743 25.3877 34.9109L25.3835 34.3749C25.3788 33.7789 25.5684 33.27 25.9629 32.8189C26.5989 32.0925 26.949 31.1596 26.948 30.1942L26.9505 27.709C26.9511 27.2832 26.7628 26.9298 26.4339 26.7393Z" fill="#2F648E"/>
</g>
<defs>
<clipPath id="clip0_3321_15221">
<rect width="28.7999" height="28.7999" fill="white" transform="translate(0 0.0546875)"/>
</clipPath>
<clipPath id="clip1_3321_15221">
<rect width="15.3" height="15.3" fill="white" transform="translate(14.4004 19.8516)"/>
</clipPath>
</defs>
</svg>
