<svg width="20" height="20" viewBox="0 0 20 20" fill="none" xmlns="http://www.w3.org/2000/svg">
<path d="M16.237 3.125H15.5903C15.4178 3.125 15.2778 3.26492 15.2778 3.4375C15.2778 3.61008 15.4178 3.75 15.5903 3.75H16.237C16.4093 3.75 16.5495 3.89023 16.5495 4.0625V18.4375C16.5495 18.6098 16.4093 18.75 16.237 18.75H3.76172C3.58945 18.75 3.44922 18.6098 3.44922 18.4375V4.0625C3.44922 3.89023 3.58945 3.75 3.76172 3.75H4.40839C4.58097 3.75 4.72089 3.61008 4.72089 3.4375C4.72089 3.26492 4.58097 3.125 4.40839 3.125H3.76172C3.24475 3.125 2.82422 3.54553 2.82422 4.0625V18.4375C2.82422 18.9545 3.24475 19.375 3.76172 19.375H16.237C16.754 19.375 17.1745 18.9545 17.1745 18.4375V4.0625C17.1745 3.54553 16.754 3.125 16.237 3.125Z" fill="#2F648E"/>
<path d="M4.38672 4.375C4.21414 4.375 4.07422 4.51492 4.07422 4.6875V17.8125C4.07422 17.9851 4.21414 18.125 4.38672 18.125H15.612C15.7846 18.125 15.9245 17.9851 15.9245 17.8125V4.6875C15.9245 4.51492 15.7846 4.375 15.612 4.375H14.6528V2.33597C14.6528 2.16339 14.5129 2.02347 14.3403 2.02347H11.9763C11.6836 1.19995 10.8891 0.625 9.99936 0.625C9.10962 0.625 8.31509 1.19995 8.02243 2.02347H5.65839C5.48581 2.02347 5.34589 2.16339 5.34589 2.33597V4.375H4.38672ZM15.2995 17.5H4.69922V5H15.2995V17.5ZM5.97089 2.64847H8.25727C8.4039 2.64847 8.5307 2.54654 8.56244 2.40341C8.71015 1.73508 9.31455 1.25 9.99936 1.25C10.6842 1.25 11.2886 1.73508 11.4363 2.40341C11.468 2.54654 11.5948 2.64847 11.7415 2.64847H14.0278V4.375H5.97089V2.64847Z" fill="#2F648E"/>
<path d="M13.3795 10.5466C13.2082 10.5663 13.085 10.7213 13.1047 10.8928C13.1181 11.0097 13.125 11.1299 13.125 11.25C13.125 12.9732 11.7232 14.375 10 14.375C8.27682 14.375 6.875 12.9732 6.875 11.25C6.875 9.52683 8.27682 8.125 10 8.125C10.7236 8.125 11.4026 8.36502 11.9638 8.81897C12.0978 8.92762 12.2948 8.90671 12.4033 8.77258C12.5119 8.63846 12.491 8.44162 12.3569 8.33313C11.6928 7.79587 10.8557 7.5 10 7.5C7.93228 7.5 6.25 9.18228 6.25 11.25C6.25 13.3177 7.93228 15 10 15C12.0677 15 13.75 13.3177 13.75 11.25C13.75 11.1063 13.7418 10.9621 13.7257 10.8214C13.7061 10.65 13.5535 10.528 13.3795 10.5466Z" fill="#2F648E"/>
<path d="M13.2926 8.77124L10.2457 11.8181L8.9397 10.5123C8.81762 10.3902 8.61987 10.3902 8.4978 10.5123C8.37573 10.6343 8.37573 10.8321 8.4978 10.9542L10.0247 12.481C10.0858 12.542 10.1657 12.5725 10.2457 12.5725C10.3257 12.5725 10.4056 12.542 10.4666 12.481L13.7345 9.21313C13.8565 9.09106 13.8565 8.89331 13.7345 8.77124C13.6124 8.64917 13.4146 8.64917 13.2926 8.77124Z" fill="#2F648E"/>
</svg>
