<svg width="18" height="17" viewBox="0 0 18 17" fill="none" xmlns="http://www.w3.org/2000/svg">
<path d="M7.375 1.50094C7.54076 1.50094 7.69973 1.56678 7.81694 1.68399C7.93415 1.8012 8 1.96018 8 2.12594C8 2.2917 7.93415 2.45067 7.81694 2.56788C7.69973 2.68509 7.54076 2.75094 7.375 2.75094H3.625C3.12772 2.75094 2.65081 2.94848 2.29917 3.30011C1.94754 3.65174 1.75 4.12866 1.75 4.62594V13.3759C1.75 13.8732 1.94754 14.3501 2.29917 14.7018C2.65081 15.0534 3.12772 15.2509 3.625 15.2509H12.375C12.8723 15.2509 13.3492 15.0534 13.7008 14.7018C14.0525 14.3501 14.25 13.8732 14.25 13.3759V10.8759C14.25 10.7102 14.3158 10.5512 14.4331 10.434C14.5503 10.3168 14.7092 10.2509 14.875 10.2509C15.0408 10.2509 15.1997 10.3168 15.3169 10.434C15.4342 10.5512 15.5 10.7102 15.5 10.8759V13.3759C15.5 14.2047 15.1708 14.9996 14.5847 15.5856C13.9987 16.1717 13.2038 16.5009 12.375 16.5009H3.625C2.7962 16.5009 2.00134 16.1717 1.41529 15.5856C0.82924 14.9996 0.5 14.2047 0.5 13.3759V4.62594C0.5 3.79713 0.82924 3.00228 1.41529 2.41623C2.00134 1.83018 2.7962 1.50094 3.625 1.50094H7.375ZM11.475 0.313436C11.5802 0.262032 11.6978 0.241221 11.8142 0.253377C11.9307 0.265532 12.0414 0.310164 12.1337 0.382186L17.7587 4.75719C17.834 4.81561 17.8949 4.89047 17.9369 4.97604C17.9788 5.06162 18.0006 5.15565 18.0006 5.25094C18.0006 5.34622 17.9788 5.44025 17.9369 5.52583C17.8949 5.6114 17.834 5.68626 17.7587 5.74469L12.1337 10.1197C12.0414 10.1916 11.9307 10.236 11.8142 10.2481C11.6978 10.2601 11.5804 10.2392 11.4752 10.1877C11.3701 10.1363 11.2815 10.0563 11.2196 9.95701C11.1577 9.85769 11.1249 9.74298 11.125 9.62594V7.78219C8.335 8.06969 6.595 10.2484 5.63 12.0309L5.43375 12.4059C5.37069 12.5318 5.26701 12.6326 5.13949 12.6922C5.01198 12.7517 4.86809 12.7665 4.73113 12.7341C4.59417 12.7017 4.47216 12.624 4.38484 12.5137C4.29752 12.4033 4.25001 12.2667 4.25 12.1259C4.25 9.53094 4.8975 7.19969 6.17125 5.50094C7.34375 3.93844 9.02875 2.94219 11.125 2.77719V0.875936C11.1248 0.758799 11.1575 0.643953 11.2193 0.544497C11.2812 0.44504 11.3698 0.364977 11.475 0.313436Z" fill="#2F648E"/>
</svg>
