<svg width="20" height="20" viewBox="0 0 20 20" fill="none" xmlns="http://www.w3.org/2000/svg">
<path d="M10.1167 6.35156H5.72505C4.17505 6.35156 3.82505 7.12658 3.63339 8.08491L2.92505 11.4599H12.925L12.2167 8.08491C12.0084 7.12658 11.6667 6.35156 10.1167 6.35156Z" stroke="#2F648E" stroke-width="1.5" stroke-linecap="round" stroke-linejoin="round"/>
<path d="M14.1583 16.9698C14.2249 17.7031 13.6416 18.3365 12.8916 18.3365H11.7166C11.0416 18.3365 10.9499 18.0448 10.8249 17.6948L10.6999 17.3198C10.5249 16.8115 10.4083 16.4615 9.50828 16.4615H6.30828C5.40828 16.4615 5.27494 16.8532 5.11661 17.3198L4.99161 17.6948C4.87494 18.0531 4.78327 18.3365 4.09994 18.3365H2.92493C2.17493 18.3365 1.58328 17.7031 1.65828 16.9698L2.00828 13.1614C2.09994 12.2198 2.27494 11.4531 3.9166 11.4531H11.8916C13.5333 11.4531 13.7083 12.2198 13.7999 13.1614L14.1583 16.9698Z" stroke="#2F648E" stroke-width="1.5" stroke-linecap="round" stroke-linejoin="round"/>
<path d="M2.9165 9.58594H2.2915" stroke="#2F648E" stroke-width="1.5" stroke-linecap="round" stroke-linejoin="round"/>
<path d="M13.5415 9.58594H12.9165" stroke="#2F648E" stroke-width="1.5" stroke-linecap="round" stroke-linejoin="round"/>
<path d="M4.1665 13.9609H6.0415" stroke="#2F648E" stroke-width="1.5" stroke-linecap="round" stroke-linejoin="round"/>
<path d="M9.7915 13.9609H11.6665" stroke="#2F648E" stroke-width="1.5" stroke-linecap="round" stroke-linejoin="round"/>
<path d="M15.5916 7.28347C15.8249 6.7418 15.7416 6.00848 15.3083 5.36681C14.8833 4.72514 14.2333 4.36681 13.6416 4.37514" stroke="#2F648E" stroke-width="1.5" stroke-linecap="round" stroke-linejoin="round"/>
<path d="M18.1834 8.10962C18.5334 6.85129 18.2834 5.30965 17.3917 3.97632C16.5 2.64298 15.1667 1.8263 13.8667 1.66797" stroke="#2F648E" stroke-width="1.5" stroke-linecap="round" stroke-linejoin="round"/>
</svg>
