<svg width="12" height="13" viewBox="0 0 12 13" fill="none" xmlns="http://www.w3.org/2000/svg">
<path d="M10.5 3.49219C8.835 3.32719 7.16 3.24219 5.49 3.24219C4.5 3.24219 3.51 3.29219 2.52 3.39219L1.5 3.49219" stroke="#DA4343" stroke-width="0.9" stroke-linecap="round" stroke-linejoin="round"/>
<path d="M4.25 2.985L4.36 2.33C4.44 1.855 4.5 1.5 5.345 1.5H6.655C7.5 1.5 7.565 1.875 7.64 2.335L7.75 2.985" stroke="#DA4343" stroke-width="0.9" stroke-linecap="round" stroke-linejoin="round"/>
<path d="M9.42617 5.07031L9.10117 10.1053C9.04617 10.8903 9.00117 11.5003 7.60617 11.5003H4.39617C3.00117 11.5003 2.95617 10.8903 2.90117 10.1053L2.57617 5.07031" stroke="#DA4343" stroke-width="0.9" stroke-linecap="round" stroke-linejoin="round"/>
<path d="M5.16602 8.75H6.83102" stroke="#DA4343" stroke-width="0.9" stroke-linecap="round" stroke-linejoin="round"/>
<path d="M4.75 6.75H7.25" stroke="#DA4343" stroke-width="0.9" stroke-linecap="round" stroke-linejoin="round"/>
</svg>
