<svg width="88" height="115" viewBox="0 0 88 115" fill="none" xmlns="http://www.w3.org/2000/svg">
<g clip-path="url(#clip0_3_12196)">
<path d="M85.858 3.06949V112.417C85.858 113.18 85.2408 113.781 84.4774 113.781H28.3255C27.5621 113.781 26.9449 113.18 26.9449 112.417V3.08573C26.9449 2.32231 27.5621 1.70508 28.3255 1.70508H84.4774C85.2408 1.70508 85.858 2.32231 85.858 3.06949Z" fill="url(#paint0_linear_3_12196)"/>
<path d="M84.2337 5.58789V101.827H28.553V5.58789H84.2337Z" fill="url(#paint1_linear_3_12196)"/>
<path d="M61.0713 108.454H51.7316C51.2118 108.454 50.7895 108.032 50.7895 107.512C50.7895 107.008 51.2118 106.586 51.7316 106.586H61.0713C61.591 106.586 62.0134 107.008 62.0134 107.512C62.0134 108.032 61.591 108.454 61.0713 108.454Z" fill="#3F85D1"/>
<path d="M57.0756 3.88276C57.0756 4.25635 56.767 4.56496 56.3934 4.56496C56.0198 4.56496 55.7275 4.25635 55.7275 3.88276C55.7275 3.50917 56.0198 3.2168 56.3934 3.2168C56.767 3.2168 57.0756 3.50917 57.0756 3.88276Z" fill="#3F85D1"/>
<path d="M49.3114 31.0411C50.3185 30.1315 51.488 29.4493 52.7387 29.0432L52.9823 30.7812L58.5699 26.4281L52.0078 23.748L52.2514 25.5023C50.3022 26.3144 48.5805 27.5651 47.2811 29.1407C45.6405 31.0736 44.6984 33.5101 44.4873 35.9465C44.2761 38.3667 44.8446 40.8194 46.0304 42.8497C47.1998 44.8801 49.0028 46.4719 51.0332 47.4465C49.149 46.212 47.6709 44.4416 46.8587 42.4274C46.0466 40.4296 45.8517 38.2205 46.3227 36.2064C46.7775 34.1923 47.8333 32.3731 49.3114 31.0411Z" fill="url(#paint2_linear_3_12196)"/>
<path d="M66.7239 32.4527C65.4894 30.3412 63.589 28.7169 61.4449 27.791C63.4428 28.993 65.0346 30.796 65.8955 32.8588C66.7726 34.9217 66.9675 37.2119 66.4477 39.3073C65.9604 41.3863 64.8234 43.2705 63.2641 44.5862C62.2571 45.4308 61.1038 46.0643 59.9018 46.4379L59.6582 44.7649L54.0869 49.1505L60.6815 51.7818L60.4054 49.8976C62.2733 49.1667 63.9301 48.0135 65.2295 46.5516C66.9838 44.6024 68.0395 42.1173 68.2832 39.5996C68.5593 37.082 67.9583 34.5318 66.7239 32.4527Z" fill="url(#paint3_linear_3_12196)"/>
<path fill-rule="evenodd" clip-rule="evenodd" d="M50.3022 36.5794H51.2443C51.3743 36.0434 51.5854 35.5236 51.8453 35.0688L51.1631 34.3866C51.0819 34.3054 51.0819 34.1592 51.1631 34.078L52.6412 32.6161C52.7224 32.5349 52.8524 32.5349 52.9336 32.6161L53.5995 33.2821C54.0543 32.9897 54.5579 32.7786 55.0939 32.6486V31.674C55.0939 31.5603 55.1913 31.4629 55.305 31.4629H57.3841C57.4978 31.4629 57.5953 31.5603 57.5953 31.674V32.6161C58.1313 32.7298 58.6348 32.941 59.0897 33.2171L59.7881 32.5349C59.8693 32.4537 59.9993 32.4537 60.0805 32.5349L61.5423 33.9968C61.6235 34.078 61.6235 34.2242 61.5423 34.3054L60.8764 34.9714C61.1687 35.4262 61.3799 35.9297 61.5261 36.4657H62.4844C62.5981 36.4657 62.6956 36.5469 62.6956 36.6769V38.7397C62.6956 38.8534 62.5981 38.9509 62.4844 38.9509H61.5423C61.4286 39.4869 61.2175 40.0067 60.9413 40.4615L61.6235 41.1437C61.7048 41.2249 61.7048 41.3711 61.6235 41.4523L60.1617 42.9142C60.0805 42.9954 59.9505 42.9954 59.8693 42.9142L59.2034 42.2482C58.7486 42.5406 58.245 42.7517 57.709 42.8817V43.8563C57.709 43.97 57.6115 44.0674 57.4978 44.0674H55.4187C55.305 44.0674 55.2076 43.97 55.2076 43.8563V42.9142C54.6716 42.7842 54.168 42.5893 53.697 42.3132L53.0148 42.9954C52.9336 43.0766 52.8036 43.0766 52.7224 42.9954L51.2443 41.5335C51.1631 41.4523 51.1631 41.3061 51.2443 41.2249L51.9103 40.5589C51.6341 40.1041 51.4067 39.6006 51.2768 39.0646H50.3022C50.1885 39.0646 50.0911 38.9834 50.0911 38.8534V36.7906C50.0911 36.6769 50.1885 36.5794 50.3022 36.5794ZM57.4004 40.5265C58.2288 40.2503 58.8947 39.6006 59.1709 38.7722C59.9668 36.3683 57.774 34.1917 55.3863 35.0039C54.5579 35.28 53.9082 35.9459 53.632 36.7743C52.8361 39.1458 55.0127 41.3224 57.4004 40.5265Z" fill="url(#paint4_linear_3_12196)"/>
<path d="M76.1449 61.2364H36.642C36.2359 61.2364 35.9111 60.8953 35.9111 60.4893V60.4405C35.9111 60.0345 36.2359 59.6934 36.642 59.6934H76.1449C76.5509 59.6934 76.892 60.0345 76.892 60.4405V60.4893C76.892 60.8953 76.5509 61.2364 76.1449 61.2364Z" fill="#D1D6E8"/>
<path d="M64.6936 61.2364H36.6745C36.2522 61.2364 35.9111 60.8953 35.9111 60.473C35.9111 60.0507 36.2522 59.6934 36.6745 59.6934H64.6936C65.1159 59.6934 65.457 60.0507 65.457 60.473C65.457 60.8953 65.1159 61.2364 64.6936 61.2364Z" fill="url(#paint5_linear_3_12196)"/>
<path d="M67.3722 78.9753H45.0057C42.7967 78.9753 41.0099 77.1886 41.0099 74.9958C41.0099 72.7867 42.7967 71 45.0057 71H67.3722C69.565 71 71.3517 72.7867 71.3517 74.9958C71.3517 77.1886 69.565 78.9753 67.3722 78.9753Z" fill="url(#paint6_linear_3_12196)"/>
<path d="M48.5556 73.3636H49.3244V75.7251C49.3244 75.9903 49.261 76.2223 49.1344 76.4212C49.0089 76.62 48.8331 76.7751 48.607 76.8864C48.381 76.9964 48.1176 77.0515 47.8169 77.0515C47.5151 77.0515 47.2511 76.9964 47.025 76.8864C46.7989 76.7751 46.6231 76.62 46.4977 76.4212C46.3722 76.2223 46.3095 75.9903 46.3095 75.7251V73.3636H47.0783V75.6594C47.0783 75.7979 47.1085 75.921 47.1688 76.0288C47.2304 76.1365 47.3168 76.2211 47.4281 76.2827C47.5393 76.3442 47.669 76.375 47.8169 76.375C47.9661 76.375 48.0957 76.3442 48.2058 76.2827C48.317 76.2211 48.4029 76.1365 48.4632 76.0288C48.5248 75.921 48.5556 75.7979 48.5556 75.6594V73.3636ZM49.9569 77V73.3636H51.3916C51.6674 73.3636 51.9024 73.4163 52.0965 73.5217C52.2906 73.6258 52.4386 73.7708 52.5404 73.9567C52.6434 74.1413 52.6948 74.3544 52.6948 74.5959C52.6948 74.8374 52.6428 75.0504 52.5386 75.2351C52.4344 75.4197 52.2835 75.5636 52.0858 75.6665C51.8893 75.7695 51.6514 75.821 51.372 75.821H50.4576V75.2049H51.2478C51.3957 75.2049 51.5176 75.1795 51.6135 75.1286C51.7106 75.0765 51.7828 75.0049 51.8301 74.9137C51.8787 74.8214 51.9029 74.7154 51.9029 74.5959C51.9029 74.4751 51.8787 74.3698 51.8301 74.2798C51.7828 74.1887 51.7106 74.1183 51.6135 74.0685C51.5165 74.0176 51.3934 73.9922 51.2442 73.9922H50.7257V77H49.9569ZM54.4833 77H53.1942V73.3636H54.4939C54.8597 73.3636 55.1746 73.4364 55.4385 73.582C55.7025 73.7264 55.9055 73.9342 56.0476 74.2053C56.1908 74.4763 56.2624 74.8007 56.2624 75.1783C56.2624 75.5571 56.1908 75.8826 56.0476 76.1548C55.9055 76.4271 55.7013 76.636 55.435 76.7816C55.1698 76.9272 54.8526 77 54.4833 77ZM53.963 76.3413H54.4513C54.6786 76.3413 54.8698 76.301 55.0248 76.2205C55.1811 76.1388 55.2983 76.0128 55.3764 75.8423C55.4557 75.6707 55.4954 75.4493 55.4954 75.1783C55.4954 74.9096 55.4557 74.69 55.3764 74.5195C55.2983 74.3491 55.1817 74.2236 55.0266 74.1431C54.8715 74.0626 54.6804 74.0224 54.4531 74.0224H53.963V76.3413ZM57.2536 77H56.4298L57.6851 73.3636H58.6758L59.9294 77H59.1055L58.1947 74.1946H58.1663L57.2536 77ZM57.2021 75.5707H59.1481V76.1708H57.2021V75.5707ZM59.7842 73.9975V73.3636H62.7708V73.9975H61.6575V77H60.8975V73.9975H59.7842ZM63.2626 77V73.3636H65.7129V73.9975H64.0314V74.864H65.5868V75.4979H64.0314V76.3661H65.72V77H63.2626Z" fill="white"/>
<path d="M18.1088 46.8274C17.6052 47.2172 17.4103 47.8994 17.5403 48.5329C18.0925 51.3267 20.2853 61.9496 22.3482 61.6085C24.7846 61.2186 21.731 51.749 20.7564 49.4912C19.8143 47.3147 19.3108 45.8528 18.1088 46.8274Z" fill="#F2BC97"/>
<path d="M21.5198 60.9764C21.2761 60.4241 21.3898 59.7907 21.7147 59.2709C23.339 56.7695 29.2676 47.7222 30.5671 47.9333C32.0614 48.1932 23.9887 61.2525 23.2902 61.6586C22.6893 61.9997 21.8933 61.886 21.5198 60.9764Z" fill="#F2BC97"/>
<path d="M19.1808 46.3086L19.4732 51.0678L19.928 58.7507C19.928 58.7507 21.1949 62.3566 22.673 62.1942C23.7288 62.0805 26.9287 56.8015 28.6504 53.8453C28.6504 53.8291 28.6667 53.8291 28.6667 53.8128C29.3489 52.6596 29.7874 51.8637 29.7874 51.8637L27.5134 50.2881L23.1278 55.9244C20.4477 47.4618 19.1808 46.3086 19.1808 46.3086Z" fill="url(#paint7_linear_3_12196)"/>
<path style="mix-blend-mode:multiply" opacity="0.5" d="M19.4731 51.0674L19.9279 58.7503C19.9279 58.7503 21.1949 62.3562 22.673 62.1938C23.7288 62.0801 26.9287 56.8012 28.6504 53.8449C26.8799 56.1514 23.6313 60.4558 22.4456 60.4233C21.0487 60.3908 20.0416 48.6797 20.0416 48.6797L19.4731 51.0674Z" fill="url(#paint8_linear_3_12196)"/>
<path fill-rule="evenodd" clip-rule="evenodd" d="M11.9202 41.2087L11.9364 40.9163C11.9364 40.9163 11.0268 36.482 12.9598 34.143C14.8927 31.804 18.8235 35.7673 18.8235 35.7673C18.8235 35.7673 18.8072 35.7835 18.791 35.816C18.9209 36.2058 19.392 36.7743 19.3757 37.1804C19.3595 37.5702 18.8559 39.1945 18.8397 40.1366C18.8072 41.0625 18.1737 42.4106 17.4753 43.1416C17.1504 43.4827 16.5332 43.5801 15.9647 43.5964C15.9972 43.5964 15.8997 43.5964 15.8997 43.5964C15.7535 43.5964 15.6886 43.5639 15.5261 43.5314V43.5801C15.5261 43.5801 15.5261 43.6613 15.5424 43.6613L15.7698 44.506C15.7698 44.506 15.315 45.2856 14.3891 45.2694C12.6186 45.2207 11.709 43.97 11.709 43.97L11.9202 41.2087Z" fill="#F2BC97"/>
<path d="M5.79657 59.06C5.79657 59.6447 5.79657 60.2241 5.79657 60.798C5.81281 65.0212 5.94276 68.887 6.31634 68.9195C10.0197 69.1306 17.9138 69.8291 19.9767 67.8962C20.9837 63.9491 20.1878 54.4957 20.1228 49.1356C20.0904 47.0565 18.7909 45.1723 16.8255 44.5388C16.2083 44.3439 15.7697 44.3276 15.7048 44.3276C15.4286 46.0656 11.3354 43.9865 11.7415 43.7754C7.64826 44.2627 5.53668 45.221 5.94276 51.1172C5.87778 52.644 5.81281 55.8114 5.79657 59.06Z" fill="url(#paint9_linear_3_12196)"/>
<path style="mix-blend-mode:multiply" opacity="0.5" d="M9.27257 48.4844L8.59037 55.615L16.322 54.2344L7.30718 57.1256L6.94983 55.1115L9.27257 48.4844Z" fill="url(#paint10_linear_3_12196)"/>
<path style="mix-blend-mode:multiply" opacity="0.5" d="M5.79657 59.06C5.79657 59.6447 5.79657 60.2241 5.79657 60.798C10.4908 59.9046 16.793 56.5586 16.793 56.5586L6.3001 58.8001C6.3001 58.8001 6.10519 58.9138 5.79657 59.06Z" fill="url(#paint11_linear_3_12196)"/>
<path d="M7.35586 106.879L6.9173 108.682L4.31843 108.568L4.17224 107.074L7.35586 106.879Z" fill="#F2BC97"/>
<path d="M3.29522 113.945H7.43717C7.74578 113.945 8.00567 113.685 8.00567 113.36C8.02191 112.483 7.85949 111.378 7.4859 110.664C7.01485 109.786 6.98237 108.52 6.98237 108.52H4.26979C4.20482 109.185 4.05864 109.916 3.75002 110.339C3.31146 110.94 2.93787 112.369 2.72671 113.23C2.6455 113.604 2.92163 113.945 3.29522 113.945Z" fill="url(#paint12_linear_3_12196)"/>
<path d="M22.4944 108.697L22.2994 107.251L19.0184 107.219L19.3595 108.681L22.4944 108.697Z" fill="#F2BC97"/>
<path d="M4.38347 107.349H6.83615H7.55084L13.3821 78.6798L18.9534 107.738H19.327H22.202H22.673L19.9604 67.8945C17.8001 68.8204 8.36299 69.1615 6.17019 68.6742L3.89618 107.349H4.38347Z" fill="url(#paint13_linear_3_12196)"/>
<path d="M7.3559 45.4314C6.73866 45.5613 6.25138 46.0811 6.0727 46.6983C5.30929 49.4434 2.87285 58.6856 4.87073 59.3191C7.20971 60.0663 8.88273 51.7661 9.06141 49.3134C9.20759 47.2668 8.88273 45.139 7.3559 45.4314Z" fill="#F2BC97"/>
<path d="M4.62707 58.2319C4.80575 57.6634 5.30928 57.241 5.89402 57.0624C8.75278 56.234 19.1645 53.2778 19.9929 54.2848C20.9675 55.4543 6.15391 60.4084 5.52044 59.9049C5.03315 59.5151 4.31846 59.1577 4.62707 58.2319Z" fill="#F2BC97"/>
<path d="M5.68289 47.3004C5.68289 47.3004 4.46467 52.2058 4.12357 54.6098C3.76622 57.0137 3.60379 59.3527 4.91947 60.0674C6.23515 60.7821 16.9068 56.5427 16.9068 56.5427L16.4195 54.155L7.77823 56.3153C7.77823 56.3153 9.06142 51.5236 9.25634 48.8922C9.43501 46.2771 8.81778 45.3675 7.89193 45.2051C6.17018 44.8965 5.68289 47.3004 5.68289 47.3004Z" fill="url(#paint14_linear_3_12196)"/>
<path d="M11.8715 35.9447C11.9473 35.6848 12.0339 35.4304 12.1314 35.1813C12.4725 34.2717 13.0085 33.2971 13.9668 33.1022C14.714 32.956 15.4612 33.3459 16.1921 33.5895C17.3616 33.9631 18.661 33.9469 19.8143 33.5245C20.3178 33.3459 20.8051 33.086 21.3411 33.1347C22.0396 33.1997 22.6081 33.8007 22.8517 34.4666C23.2091 35.5062 22.9167 36.7569 22.1208 37.5203C21.3411 38.2837 20.0904 38.5274 19.0671 38.1375C18.3524 37.8776 17.5728 37.6015 16.8094 37.5365C16.4358 37.5041 15.981 37.5365 15.6723 37.7802C15.38 38.0238 15.2338 38.3812 15.0876 38.7385C14.9577 39.0634 14.844 39.5994 14.5191 39.7943C14.1942 39.973 14.178 39.4207 14.178 39.242C14.1888 38.8739 14.1997 38.5057 14.2105 38.1375C14.2267 37.9426 14.3079 37.4878 14.0968 37.3579C14.0643 37.3416 14.0156 37.3254 13.9831 37.3254C13.642 37.3254 13.3171 37.5528 13.106 37.8289C12.6187 38.4624 12.9598 39.3233 12.8623 40.0704C12.7811 40.574 12.5375 41.5648 11.839 41.4836C11.5142 41.4348 11.4654 40.9638 11.4492 40.7039C11.3842 40.2654 11.303 39.8268 11.2868 39.372C11.2543 38.9172 11.3355 38.4786 11.4005 38.0401C11.5087 37.3254 11.6658 36.6269 11.8715 35.9447Z" fill="url(#paint15_linear_3_12196)"/>
<path d="M29.154 46.2753C29.154 46.2753 28.3906 45.9504 28.3093 46.4864C28.2444 47.0387 28.6017 48.5655 28.6017 48.5655" fill="#F2BC97"/>
<path d="M32.7273 44.2625L30.3234 49.4927C30.2746 49.5902 30.1934 49.6389 30.0797 49.6227L27.7895 49.3303C27.6433 49.2978 27.5458 49.1354 27.627 49.0055L30.0472 43.8727C30.096 43.7915 30.1772 43.7265 30.2746 43.7427L32.5486 43.9377C32.6948 43.9539 32.7923 44.1163 32.7273 44.2625Z" fill="#1C2E48"/>
<path d="M32.7923 44.4076L30.3884 49.6378C30.3396 49.7353 30.2422 49.784 30.1447 49.7678L27.8545 49.4754C27.7083 49.4429 27.6108 49.2805 27.6758 49.1506L30.1122 44.0178C30.161 43.9203 30.2422 43.8716 30.3396 43.8878L32.6136 44.0828C32.7598 44.099 32.8573 44.2614 32.7923 44.4076Z" fill="url(#paint16_linear_3_12196)"/>
<path d="M31.5579 47.6247C31.5904 47.3486 31.5092 47.0075 31.0219 46.8775C30.4209 46.7151 29.7387 46.8451 29.6737 47.2999C29.5925 47.9821 29.7387 48.8917 30.4046 49.0541C30.8107 49.1678 31.4442 48.6155 31.5579 47.6247Z" fill="#F2BC97"/>
<path d="M22.4943 108.697C22.4943 108.697 23.4851 109.915 25.6942 111.475C27.9195 113.034 28.4717 112.644 28.5367 113.261C28.6179 113.862 19.6031 113.7 19.6031 113.7L19.3594 108.681C19.3594 108.681 22.4781 108.567 22.4943 108.697Z" fill="url(#paint17_linear_3_12196)"/>
<path d="M18.5473 54.7059C18.6285 55.5505 20.2528 55.2257 20.805 55.0957C21.7146 54.8846 22.5917 54.0399 22.5105 53.7151C22.4293 53.3902 20.4152 53.9912 20.334 53.9262C20.2528 53.8613 20.6913 53.4877 20.5939 53.1953C20.4802 52.8867 19.6518 53.2603 19.1807 53.5851C18.7097 53.8938 18.4985 54.1699 18.5473 54.7059Z" fill="#F2BC97"/>
</g>
<defs>
<linearGradient id="paint0_linear_3_12196" x1="16696.9" y1="8127.88" x2="38061.5" y2="8127.88" gradientUnits="userSpaceOnUse">
<stop offset="0.03" stop-color="#214F95"/>
<stop offset="1" stop-color="#0E408C"/>
</linearGradient>
<linearGradient id="paint1_linear_3_12196" x1="5228.37" y1="-27495.9" x2="5228.37" y2="-59795.4" gradientUnits="userSpaceOnUse">
<stop stop-color="#DCDCF4"/>
<stop offset="1" stop-color="#F9FBFC"/>
</linearGradient>
<linearGradient id="paint2_linear_3_12196" x1="5564.71" y1="4955.34" x2="6793.37" y2="4955.34" gradientUnits="userSpaceOnUse">
<stop offset="0.04" stop-color="#7B8BFF"/>
<stop offset="1" stop-color="#6F80FF"/>
</linearGradient>
<linearGradient id="paint3_linear_3_12196" x1="6473.32" y1="5619.93" x2="7725.61" y2="5619.93" gradientUnits="userSpaceOnUse">
<stop offset="0.04" stop-color="#7B8BFF"/>
<stop offset="1" stop-color="#6F80FF"/>
</linearGradient>
<linearGradient id="paint4_linear_3_12196" x1="5413.53" y1="3254.56" x2="6391.68" y2="3254.56" gradientUnits="userSpaceOnUse">
<stop offset="0.03" stop-color="#214F95"/>
<stop offset="1" stop-color="#0E408C"/>
</linearGradient>
<linearGradient id="paint5_linear_3_12196" x1="10028.7" y1="717.779" x2="15403.3" y2="717.779" gradientUnits="userSpaceOnUse">
<stop offset="0.03" stop-color="#214F95"/>
<stop offset="1" stop-color="#0E408C"/>
</linearGradient>
<linearGradient id="paint6_linear_3_12196" x1="11293.8" y1="4051.63" x2="16961.1" y2="4051.63" gradientUnits="userSpaceOnUse">
<stop offset="0.04" stop-color="#7B8BFF"/>
<stop offset="1" stop-color="#6F80FF"/>
</linearGradient>
<linearGradient id="paint7_linear_3_12196" x1="2514.7" y1="5565.54" x2="3207.55" y2="5565.54" gradientUnits="userSpaceOnUse">
<stop offset="0.04" stop-color="#7B8BFF"/>
<stop offset="1" stop-color="#6F80FF"/>
</linearGradient>
<linearGradient id="paint8_linear_3_12196" x1="2198.21" y1="4941.67" x2="2717.62" y2="4941.67" gradientUnits="userSpaceOnUse">
<stop offset="0.04" stop-color="#7B8BFF"/>
<stop offset="1" stop-color="#6F80FF"/>
</linearGradient>
<linearGradient id="paint9_linear_3_12196" x1="2249.18" y1="8477.3" x2="3576.65" y2="8477.3" gradientUnits="userSpaceOnUse">
<stop offset="0.04" stop-color="#7B8BFF"/>
<stop offset="1" stop-color="#6F80FF"/>
</linearGradient>
<linearGradient id="paint10_linear_3_12196" x1="1505.22" y1="3165.05" x2="2045.87" y2="3165.05" gradientUnits="userSpaceOnUse">
<stop offset="0.04" stop-color="#7B8BFF"/>
<stop offset="1" stop-color="#6F80FF"/>
</linearGradient>
<linearGradient id="paint11_linear_3_12196" x1="1684.59" y1="1796.16" x2="2428.41" y2="1796.16" gradientUnits="userSpaceOnUse">
<stop offset="0.04" stop-color="#7B8BFF"/>
<stop offset="1" stop-color="#6F80FF"/>
</linearGradient>
<linearGradient id="paint12_linear_3_12196" x1="-700.811" y1="-3846.68" x2="-873.47" y2="-3846.68" gradientUnits="userSpaceOnUse">
<stop offset="0.04" stop-color="#7B8BFF"/>
<stop offset="1" stop-color="#6F80FF"/>
</linearGradient>
<linearGradient id="paint13_linear_3_12196" x1="8180.38" y1="-5013.63" x2="8180.38" y2="-9208.28" gradientUnits="userSpaceOnUse">
<stop offset="0.03" stop-color="#214F95"/>
<stop offset="1" stop-color="#0E408C"/>
</linearGradient>
<linearGradient id="paint14_linear_3_12196" x1="1841.7" y1="5138.65" x2="2888.25" y2="5138.65" gradientUnits="userSpaceOnUse">
<stop offset="0.04" stop-color="#7B8BFF"/>
<stop offset="1" stop-color="#6F80FF"/>
</linearGradient>
<linearGradient id="paint15_linear_3_12196" x1="2198.53" y1="2267.17" x2="3044.72" y2="2267.17" gradientUnits="userSpaceOnUse">
<stop offset="0.03" stop-color="#214F95"/>
<stop offset="1" stop-color="#0E408C"/>
</linearGradient>
<linearGradient id="paint16_linear_3_12196" x1="1509.22" y1="1999.25" x2="1672.92" y2="1999.25" gradientUnits="userSpaceOnUse">
<stop offset="0.03" stop-color="#214F95"/>
<stop offset="1" stop-color="#0E408C"/>
</linearGradient>
<linearGradient id="paint17_linear_3_12196" x1="-2140.05" y1="-3601.64" x2="-2658.59" y2="-3601.64" gradientUnits="userSpaceOnUse">
<stop offset="0.04" stop-color="#7B8BFF"/>
<stop offset="1" stop-color="#6F80FF"/>
</linearGradient>
<clipPath id="clip0_3_12196">
<rect width="87.7119" height="115" fill="white" transform="translate(0.144043)"/>
</clipPath>
</defs>
</svg>
