<svg width="20" height="20" viewBox="0 0 20 20" fill="none" xmlns="http://www.w3.org/2000/svg">
<path d="M8.75002 16.5827V3.41602C8.75002 2.16602 8.21669 1.66602 6.89169 1.66602H3.52502C2.20002 1.66602 1.66669 2.16602 1.66669 3.41602V16.5827C1.66669 17.8327 2.20002 18.3327 3.52502 18.3327H6.89169C8.21669 18.3327 8.75002 17.8327 8.75002 16.5827Z" stroke="#2F648E" stroke-width="1.5" stroke-linecap="round" stroke-linejoin="round"/>
<path d="M18.3333 9.08268V3.41602C18.3333 2.16602 17.8 1.66602 16.475 1.66602H13.1083C11.7833 1.66602 11.25 2.16602 11.25 3.41602V9.08268C11.25 10.3327 11.7833 10.8327 13.1083 10.8327H16.475C17.8 10.8327 18.3333 10.3327 18.3333 9.08268Z" stroke="#2F648E" stroke-width="1.5" stroke-linecap="round" stroke-linejoin="round"/>
<path d="M18.3333 16.584V15.084C18.3333 13.834 17.8 13.334 16.475 13.334H13.1083C11.7833 13.334 11.25 13.834 11.25 15.084V16.584C11.25 17.834 11.7833 18.334 13.1083 18.334H16.475C17.8 18.334 18.3333 17.834 18.3333 16.584Z" stroke="#2F648E" stroke-width="1.5" stroke-linecap="round" stroke-linejoin="round"/>
</svg>
