<svg width="20" height="20" viewBox="0 0 20 20" fill="none" xmlns="http://www.w3.org/2000/svg">
<path d="M13.3334 1.66602H6.66675C3.33341 1.66602 1.66675 3.33268 1.66675 6.66602V17.4993C1.66675 17.9577 2.04175 18.3327 2.50008 18.3327H13.3334C16.6667 18.3327 18.3334 16.666 18.3334 13.3327V6.66602C18.3334 3.33268 16.6667 1.66602 13.3334 1.66602Z" stroke="#2F648E" stroke-width="1.5" stroke-linecap="round" stroke-linejoin="round"/>
<path d="M10.7583 6.53248L6.43332 10.8575C6.26666 11.0241 6.10833 11.3492 6.07499 11.5825L5.84166 13.2325C5.75833 13.8325 6.17499 14.2492 6.77499 14.1658L8.42498 13.9325C8.65831 13.8992 8.98333 13.7408 9.15 13.5742L13.475 9.24915C14.2167 8.50748 14.575 7.64082 13.475 6.54082C12.375 5.43248 11.5083 5.78248 10.7583 6.53248Z" stroke="#2F648E" stroke-width="1.5" stroke-miterlimit="10" stroke-linecap="round" stroke-linejoin="round"/>
<path d="M10.1416 7.14844C10.5083 8.45677 11.5333 9.4901 12.8499 9.85677" stroke="#2F648E" stroke-width="1.5" stroke-miterlimit="10" stroke-linecap="round" stroke-linejoin="round"/>
</svg>
