<svg width="20" height="20" viewBox="0 0 20 20" fill="none" xmlns="http://www.w3.org/2000/svg">
<path d="M6.66669 1.66602V4.16602" stroke="#2F648E" stroke-width="1.5" stroke-miterlimit="10" stroke-linecap="round" stroke-linejoin="round"/>
<path d="M13.3333 1.66602V4.16602" stroke="#2F648E" stroke-width="1.5" stroke-miterlimit="10" stroke-linecap="round" stroke-linejoin="round"/>
<path d="M17.5 7.08268V11.3577C16.7583 10.766 15.8167 10.416 14.7917 10.416C13.7667 10.416 12.8083 10.7743 12.0583 11.3827C11.05 12.1743 10.4167 13.416 10.4167 14.791C10.4167 15.6077 10.65 16.391 11.05 17.041C11.3583 17.5494 11.7583 17.991 12.2333 18.3327H6.66667C3.75 18.3327 2.5 16.666 2.5 14.166V7.08268C2.5 4.58268 3.75 2.91602 6.66667 2.91602H13.3333C16.25 2.91602 17.5 4.58268 17.5 7.08268Z" stroke="#2F648E" stroke-width="1.5" stroke-miterlimit="10" stroke-linecap="round" stroke-linejoin="round"/>
<path d="M5.83331 9.16602H10.8333" stroke="#2F648E" stroke-width="1.5" stroke-miterlimit="10" stroke-linecap="round" stroke-linejoin="round"/>
<path d="M5.83331 13.334H8.01664" stroke="#2F648E" stroke-width="1.5" stroke-miterlimit="10" stroke-linecap="round" stroke-linejoin="round"/>
<path d="M19.1667 14.791C19.1667 15.6077 18.9333 16.391 18.5333 17.041C18.3 17.441 18.0084 17.791 17.6667 18.0744C16.9 18.7577 15.9 19.166 14.7917 19.166C13.8334 19.166 12.95 18.8577 12.2333 18.3327C11.7583 17.991 11.3584 17.5494 11.05 17.041C10.65 16.391 10.4167 15.6077 10.4167 14.791C10.4167 13.416 11.05 12.1743 12.0584 11.3827C12.8084 10.7743 13.7667 10.416 14.7917 10.416C15.8167 10.416 16.7584 10.766 17.5 11.3577C18.5167 12.1577 19.1667 13.3993 19.1667 14.791Z" stroke="#2F648E" stroke-width="1.5" stroke-miterlimit="10" stroke-linecap="round" stroke-linejoin="round"/>
<path d="M14.7916 16.8757C14.7916 15.7257 15.725 14.7923 16.875 14.7923C15.725 14.7923 14.7916 13.859 14.7916 12.709C14.7916 13.859 13.8583 14.7923 12.7083 14.7923C13.8583 14.7923 14.7916 15.7257 14.7916 16.8757Z" stroke="#2F648E" stroke-width="1.5" stroke-linecap="round" stroke-linejoin="round"/>
</svg>
