<svg width="20" height="20" viewBox="0 0 20 20" fill="none" xmlns="http://www.w3.org/2000/svg">
<path d="M17.0834 9.41601V5.86602C17.0834 2.50769 16.3 1.66602 13.15 1.66602H6.85002C3.70002 1.66602 2.91669 2.50769 2.91669 5.86602V15.2493C2.91669 17.466 4.13336 17.991 5.60836 16.4077L5.61668 16.3993C6.30001 15.6743 7.34168 15.7327 7.93334 16.5243L8.77502 17.6493" stroke="#2F648E" stroke-width="1.5" stroke-linecap="round" stroke-linejoin="round"/>
<path d="M6.66669 5.83398H13.3334" stroke="#2F648E" stroke-width="1.5" stroke-linecap="round" stroke-linejoin="round"/>
<path d="M7.5 9.16602H12.5" stroke="#2F648E" stroke-width="1.5" stroke-linecap="round" stroke-linejoin="round"/>
<path d="M15.1758 12.3095L12.2258 15.2595C12.1092 15.3762 12.0008 15.5929 11.9758 15.7512L11.8175 16.8762C11.7592 17.2845 12.0425 17.5679 12.4508 17.5096L13.5758 17.3512C13.7342 17.3262 13.9592 17.2179 14.0675 17.1012L17.0175 14.1512C17.5258 13.6429 17.7675 13.0512 17.0175 12.3012C16.2758 11.5596 15.6842 11.8012 15.1758 12.3095Z" stroke="#2F648E" stroke-width="1.5" stroke-miterlimit="10" stroke-linecap="round" stroke-linejoin="round"/>
<path d="M14.7493 12.7344C14.9993 13.6344 15.6993 14.3344 16.5993 14.5844" stroke="#2F648E" stroke-width="1.5" stroke-miterlimit="10" stroke-linecap="round" stroke-linejoin="round"/>
</svg>
