<svg width="327" height="180" viewBox="0 0 327 180" fill="none" xmlns="http://www.w3.org/2000/svg">
<path d="M36.0773 180L121.925 179.514L144.808 179.507L152.389 179.504L175.316 179.496L280.06 179.465C280.06 179.465 304.018 145.963 278.427 114.144C251.893 81.153 238.991 108.021 230.835 61.5825C210.305 -55.3098 7.33004 12.7242 60.5689 112.195C79.7384 148.011 22.8352 128.974 36.0773 180Z" fill="#EBF3FA"/>
<path d="M152.605 179.292C152.921 179.292 153.19 179.103 153.244 178.844L156.379 163.676L160.887 141.86L162.147 135.76L158.936 135.682L158.379 139.223L154.467 164.109L152.148 178.86C152.113 179.089 152.327 179.292 152.605 179.292Z" fill="#B3D2F2"/>
<path d="M158.379 139.223C160.459 140.007 160.886 141.86 160.886 141.86L162.147 135.76L158.936 135.682L158.379 139.223Z" fill="#97C5EF"/>
<path d="M218.892 179.292C218.576 179.292 218.306 179.103 218.252 178.844L215.118 163.676L210.61 141.86L209.35 135.76L212.56 135.682L213.118 139.223L217.029 164.109L219.348 178.86C219.384 179.089 219.17 179.292 218.892 179.292Z" fill="#B3D2F2"/>
<path d="M213.118 139.223C211.037 140.007 210.61 141.86 210.61 141.86L209.35 135.76L212.56 135.682L213.118 139.223Z" fill="#97C5EF"/>
<path d="M149.875 138.154H218.571C219.853 138.154 220.902 137.077 220.902 135.759C220.902 134.442 219.853 133.364 218.571 133.364H149.875C148.594 133.364 147.545 134.442 147.545 135.759C147.545 137.077 148.594 138.154 149.875 138.154Z" fill="#B3D2F2"/>
<path d="M194.492 85.327C195.309 85.327 195.972 84.646 195.972 83.8061C195.972 82.9661 195.309 82.2852 194.492 82.2852C193.674 82.2852 193.012 82.9661 193.012 83.8061C193.012 84.646 193.674 85.327 194.492 85.327Z" fill="#2C3A64"/>
<path d="M194.492 83.2215C194.375 83.2215 194.279 83.1231 194.279 83.003V76.8474C194.279 76.7272 194.375 76.6289 194.492 76.6289C194.609 76.6289 194.705 76.7272 194.705 76.8474V83.003C194.705 83.1231 194.609 83.2215 194.492 83.2215Z" fill="#2C3A64"/>
<path d="M175.799 83.8061C175.799 82.9661 176.461 82.2852 177.279 82.2852C178.096 82.2852 178.759 82.9661 178.759 83.8061C178.759 84.6461 178.096 85.327 177.279 85.327C176.461 85.327 175.799 84.646 175.799 83.8061Z" fill="#2C3A64"/>
<path d="M153.156 115.686C153.126 115.943 153.213 116.211 153.415 116.397C153.743 116.699 154.247 116.672 154.541 116.335C154.84 115.996 155.82 115.114 156.736 115.115C157.168 115.116 157.556 115.317 157.92 115.732C159.324 117.328 157.328 119.682 157.308 119.705C157.016 120.044 157.047 120.562 157.376 120.862C157.706 121.162 158.21 121.13 158.502 120.792C159.532 119.596 160.983 116.77 159.103 114.633C158.436 113.875 157.615 113.475 156.729 113.477C155.946 113.478 155.136 113.78 154.322 114.375C153.755 114.788 153.394 115.195 153.354 115.24C153.241 115.369 153.176 115.526 153.156 115.686Z" fill="#2C3A64"/>
<path d="M158.264 115.324C158.264 115.466 158.313 115.608 158.413 115.722C158.627 115.967 158.994 115.986 159.232 115.766L161.087 114.051C161.324 113.831 161.344 113.454 161.13 113.209C160.915 112.964 160.549 112.945 160.311 113.165L158.456 114.88C158.328 114.998 158.264 115.161 158.264 115.324Z" fill="#2C3A64"/>
<path d="M160.087 114.809L160.246 114.917C160.427 115.042 160.615 115.147 160.81 115.232C160.812 115.232 160.815 115.234 160.817 115.234C162.092 115.79 163.598 115.508 164.61 114.471C166.704 112.331 169.473 110.846 172.882 110.042C173.014 110.011 173.143 109.982 173.273 109.954C174.562 109.674 175.755 109.535 176.739 109.472C178.259 109.372 179.488 108.157 179.625 106.598L179.635 106.49L179.683 105.95C179.806 104.592 178.747 103.432 177.422 103.47C176.126 103.507 174.414 103.644 172.504 104.028C171.225 104.283 169.858 104.647 168.466 105.166C165.41 106.302 162.236 108.169 159.623 111.224C158.692 112.314 158.913 114.002 160.087 114.809Z" fill="#2F648E"/>
<path d="M160.816 115.234C162.092 115.79 163.597 115.507 164.61 114.47C166.703 112.331 169.473 110.846 172.882 110.041C173.013 110.01 173.143 109.981 173.273 109.954C172.973 107.056 172.662 104.115 172.662 104.115L172.504 104.027C171.225 104.282 169.857 104.647 168.465 105.165C168.465 105.165 169.108 108.08 166.777 109.492C164.445 110.904 162.53 115.836 160.816 115.234Z" fill="#2F648E"/>
<path d="M196.87 102.007C198.061 100.909 197.63 99.0599 197.611 98.9814L196.474 99.3129L197.043 99.1471L196.474 99.3093C196.476 99.3206 196.729 100.451 196.113 101.019L196.87 102.007Z" fill="#2F648E"/>
<path d="M180.875 102.007C179.685 100.909 180.115 99.0599 180.134 98.9814L181.271 99.3129L180.702 99.1471L181.271 99.3093C181.269 99.3206 181.016 100.451 181.632 101.019L180.875 102.007Z" fill="#2F648E"/>
<path d="M179.269 99.6375H202.682C204.281 99.6375 205.588 98.2938 205.588 96.6513V86.4383C205.588 84.796 204.281 83.4521 202.682 83.4521H179.269C177.671 83.4521 176.363 84.796 176.363 86.4383V96.6513C176.363 98.2938 177.671 99.6375 179.269 99.6375Z" fill="#4C88F2"/>
<path d="M173.097 99.6374H196.862C198.363 99.6374 199.592 98.3751 199.592 96.8324V86.2572C199.592 84.7143 198.363 83.4521 196.862 83.4521H173.097C171.595 83.4521 170.367 84.7144 170.367 86.2572V96.8324C170.367 98.375 171.595 99.6374 173.097 99.6374Z" fill="#97BDFF"/>
<path d="M178.766 133.354H205.189C206.288 133.354 207.187 132.43 207.187 131.3V102.946C207.187 101.817 206.288 100.893 205.189 100.893H178.766C177.667 100.893 176.768 101.817 176.768 102.946V131.3C176.768 132.43 177.667 133.354 178.766 133.354Z" fill="#4C88F2"/>
<path d="M200.191 102.947V131.301C200.191 132.429 199.292 133.354 198.193 133.354H171.77C170.671 133.354 169.771 132.429 169.771 131.301V102.947C169.771 101.817 170.671 100.893 171.77 100.893H198.193C199.292 100.893 200.191 101.817 200.191 102.947Z" fill="#97BDFF"/>
<path d="M163.721 133.439H180.88C181.913 133.439 182.759 132.57 182.759 131.508V127.44C182.759 126.378 181.913 125.509 180.88 125.509H163.721C162.688 125.509 161.842 126.378 161.842 127.44V131.508C161.842 132.57 162.688 133.439 163.721 133.439Z" fill="#2F648E"/>
<path d="M167.977 133.439H185.135C186.169 133.439 187.015 132.57 187.015 131.508V127.44C187.015 126.378 186.169 125.509 185.135 125.509H167.977C166.943 125.509 166.098 126.378 166.098 127.44V131.508C166.098 132.57 166.943 133.439 167.977 133.439Z" fill="#2F648E"/>
<path d="M174.18 133.439H191.338C192.372 133.439 193.218 132.57 193.218 131.508V127.44C193.218 126.378 192.372 125.509 191.338 125.509H174.18C173.147 125.509 172.301 126.378 172.301 127.44V131.508C172.301 132.57 173.147 133.439 174.18 133.439Z" fill="#2FBBA4"/>
<path d="M176.559 127.44V131.508C176.559 132.569 177.405 133.439 178.439 133.439H195.596C196.631 133.439 197.476 132.569 197.476 131.508V127.44C197.476 126.377 196.631 125.508 195.596 125.508H178.439C177.404 125.508 176.559 126.377 176.559 127.44Z" fill="#2F648E"/>
<path d="M176.559 131.209V131.508C176.559 132.569 177.405 133.439 178.439 133.439H195.596C196.631 133.439 197.476 132.569 197.476 131.508V127.44C197.476 126.377 196.631 125.508 195.596 125.508H189.315C187.883 127.808 184.405 131.323 176.559 131.209Z" fill="#2F648E"/>
<path d="M182.32 100.893H191.979V99.6375H182.32V100.893Z" fill="#4C88F2"/>
<path d="M190.221 100.893H195.807V99.6375H190.221V100.893Z" fill="#2C3A64"/>
<path d="M172.538 104.043L173.95 105.841C174.191 106.148 174.647 106.148 174.887 105.841L175.452 105.121L176.354 103.972C176.542 103.734 176.376 103.379 176.079 103.379H172.847C172.513 103.379 172.329 103.776 172.538 104.043Z" fill="#2F648E"/>
<path d="M172.538 104.043L173.95 105.841C174.191 106.148 174.647 106.148 174.887 105.841L175.452 105.121C174.217 104.814 173.744 103.914 173.568 103.379H172.847C172.513 103.379 172.329 103.776 172.538 104.043Z" fill="#2F648E"/>
<path d="M201.925 108.004C201.925 108.004 201.924 108.003 201.924 108.001L201.729 107.413L201.69 107.297C201.121 105.595 201.853 103.73 203.403 102.89C204.505 102.295 205.833 101.482 207.185 100.432C210.39 97.9425 212.617 95.0486 213.832 91.7956C214.511 89.978 216.334 88.8962 218.202 89.2216L218.42 89.2601C219.22 89.4008 219.872 89.886 220.262 90.5366C220.653 91.1852 220.783 91.9975 220.544 92.7945C217.676 102.332 209.64 107.427 205.429 109.511C204.056 110.191 202.416 109.487 201.925 108.004Z" fill="#2F648E"/>
<path d="M201.924 108.001L201.729 107.413L201.69 107.297C201.121 105.595 201.853 103.73 203.403 102.89C204.505 102.295 205.833 101.482 207.185 100.432C210.39 97.9425 212.617 95.0486 213.832 91.7956C214.511 89.978 216.334 88.8962 218.202 89.2216L218.42 89.2601C219.22 89.4008 219.872 89.886 220.262 90.5366C218.486 90.1257 216.433 90.2156 215.574 92.3709C213.919 96.5228 209.038 101.037 205.102 103.475C201.254 105.856 201.893 107.911 201.924 108.001Z" fill="#2F648E"/>
<path d="M217.792 80.9419C218.051 80.8106 218.367 80.8076 218.64 80.9621C219.082 81.2134 219.243 81.786 218.999 82.2411C218.754 82.7021 218.193 84.1282 218.539 85.1486C218.703 85.6304 219.062 85.9863 219.637 86.2364C221.852 87.1997 223.584 84.086 223.601 84.0546C223.849 83.6012 224.407 83.4401 224.848 83.6944C225.289 83.9488 225.446 84.5227 225.198 84.9759C224.325 86.5758 221.888 89.2602 218.923 87.97C217.871 87.5123 217.139 86.7476 216.807 85.759C216.513 84.8855 216.526 83.8685 216.846 82.736C217.069 81.9484 217.362 81.3918 217.395 81.3311C217.489 81.156 217.629 81.0239 217.792 80.9419Z" fill="#2C3A64"/>
<path d="M219.335 86.7722C219.485 86.7189 219.654 86.7199 219.811 86.7881C220.151 86.9347 220.31 87.3361 220.167 87.6846L219.056 90.4002C218.913 90.7484 218.523 90.9122 218.184 90.7658C217.844 90.619 217.685 90.2177 217.828 89.8692L218.939 87.1536C219.016 86.9673 219.163 86.8336 219.335 86.7722Z" fill="#2C3A64"/>
<path d="M179.607 93.9268H191.565C191.565 93.9268 190.346 96.5263 184.982 96.5276C180.579 96.5285 179.607 93.9268 179.607 93.9268Z" fill="#EBF3FA"/>
<path d="M197.978 86.6211H172.789V92.2945H197.978V86.6211Z" fill="#4C88F2"/>
<path d="M177.674 88.9922H177.1V89.5828H177.674V88.9922Z" fill="#EBF3FA"/>
<path d="M176.946 88.9922H176.371V89.5828H176.946V88.9922Z" fill="#EBF3FA"/>
<path d="M176.946 89.7637H176.371V90.3543H176.946V89.7637Z" fill="#EBF3FA"/>
<path d="M176.194 88.9922H175.619V89.5828H176.194V88.9922Z" fill="#EBF3FA"/>
<path d="M178.405 88.9922H177.83V89.5828H178.405V88.9922Z" fill="#EBF3FA"/>
<path d="M178.405 89.7637H177.83V90.3543H178.405V89.7637Z" fill="#EBF3FA"/>
<path d="M179.135 88.9922H178.561V89.5828H179.135V88.9922Z" fill="#EBF3FA"/>
<path d="M177.674 88.2285H177.1V88.8192H177.674V88.2285Z" fill="#EBF3FA"/>
<path d="M177.674 87.5195H177.1V88.1102H177.674V87.5195Z" fill="#EBF3FA"/>
<path d="M178.405 88.2285H177.83V88.8192H178.405V88.2285Z" fill="#EBF3FA"/>
<path d="M176.946 88.2285H176.371V88.8192H176.946V88.2285Z" fill="#EBF3FA"/>
<path d="M177.674 89.7637H177.1V90.3543H177.674V89.7637Z" fill="#EBF3FA"/>
<path d="M177.674 90.541H177.1V91.1317H177.674V90.541Z" fill="#EBF3FA"/>
<path d="M193.032 88.9922H192.457V89.5828H193.032V88.9922Z" fill="#EBF3FA"/>
<path d="M192.303 88.9922H191.729V89.5828H192.303V88.9922Z" fill="#EBF3FA"/>
<path d="M192.303 89.7637H191.729V90.3543H192.303V89.7637Z" fill="#EBF3FA"/>
<path d="M191.551 88.9922H190.977V89.5828H191.551V88.9922Z" fill="#EBF3FA"/>
<path d="M193.762 88.9922H193.188V89.5828H193.762V88.9922Z" fill="#EBF3FA"/>
<path d="M193.762 89.7637H193.188V90.3543H193.762V89.7637Z" fill="#EBF3FA"/>
<path d="M194.491 88.9922H193.916V89.5828H194.491V88.9922Z" fill="#EBF3FA"/>
<path d="M193.032 88.2285H192.457V88.8192H193.032V88.2285Z" fill="#EBF3FA"/>
<path d="M193.032 87.5195H192.457V88.1102H193.032V87.5195Z" fill="#EBF3FA"/>
<path d="M193.762 88.2285H193.188V88.8192H193.762V88.2285Z" fill="#EBF3FA"/>
<path d="M192.303 88.2285H191.729V88.8192H192.303V88.2285Z" fill="#EBF3FA"/>
<path d="M193.032 89.7637H192.457V90.3543H193.032V89.7637Z" fill="#EBF3FA"/>
<path d="M193.032 90.541H192.457V91.1317H193.032V90.541Z" fill="#EBF3FA"/>
<path d="M177.279 83.2215C177.162 83.2215 177.066 83.1231 177.066 83.003V76.8474C177.066 76.7272 177.162 76.6289 177.279 76.6289C177.396 76.6289 177.492 76.7272 177.492 76.8474V83.003C177.492 83.1231 177.396 83.2215 177.279 83.2215Z" fill="#2C3A64"/>
<path d="M193.021 102.757C193.021 102.524 193.206 102.334 193.434 102.334C193.661 102.334 193.846 102.524 193.846 102.757C193.846 102.991 193.661 103.181 193.434 103.181C193.206 103.181 193.021 102.991 193.021 102.757Z" fill="white"/>
<path d="M194.787 102.757C194.787 102.524 194.972 102.334 195.199 102.334C195.427 102.334 195.611 102.524 195.611 102.757C195.611 102.991 195.427 103.181 195.199 103.181C194.972 103.181 194.787 102.991 194.787 102.757Z" fill="white"/>
<path d="M196.535 102.757C196.535 102.524 196.72 102.334 196.947 102.334C197.175 102.334 197.359 102.524 197.359 102.757C197.359 102.991 197.175 103.181 196.947 103.181C196.72 103.181 196.535 102.991 196.535 102.757Z" fill="white"/>
<path d="M192.068 100.893L184.95 113.177L178.678 100.893H178.943L184.963 112.681L191.794 100.893H192.068Z" fill="#2C3A64"/>
<path d="M179.422 113.834C179.422 110.679 181.911 108.121 184.981 108.121C188.051 108.121 190.54 110.679 190.54 113.834C190.54 116.989 188.051 119.547 184.981 119.547C181.911 119.547 179.422 116.99 179.422 113.834Z" fill="#2F648E"/>
<path d="M184.98 118.872C182.277 118.872 180.078 116.612 180.078 113.834C180.078 111.057 182.277 108.797 184.98 108.797C187.683 108.797 189.881 111.057 189.881 113.834C189.881 116.612 187.683 118.872 184.98 118.872ZM184.98 109.408C182.605 109.408 180.673 111.394 180.673 113.834C180.673 116.275 182.605 118.261 184.98 118.261C187.355 118.261 189.287 116.275 189.287 113.834C189.287 111.394 187.355 109.408 184.98 109.408Z" fill="#2F648E"/>
<path d="M183.455 116.747L183.453 116.393C184.412 116.34 184.476 116.235 184.473 115.546L184.457 112.082C184.454 111.594 184.286 111.557 183.905 111.511L183.625 111.465L183.624 111.149C184.34 111.059 185.14 110.864 185.688 110.66L185.711 115.539C185.715 116.247 185.771 116.333 186.721 116.376L186.723 116.73L183.455 116.747Z" fill="white"/>
<path d="M114.599 79.3778L107.1 84.6954L104.75 79.18C104.75 79.18 105.519 77.0564 105.564 73.7427C105.582 72.3494 105.474 70.7454 105.123 69L112.12 71.5577C112.12 71.5577 112.044 72.2016 112.058 73.1348C112.074 74.1431 112.196 75.4886 112.635 76.723C113.012 77.7826 113.622 78.7604 114.599 79.3778Z" fill="#FFB27D"/>
<path d="M115.598 78.834C115.598 78.834 127.323 70.1123 128.114 68.8274C128.904 67.5423 133.156 55.7627 133.156 55.7627L135.685 56.3535C135.685 56.3535 133.753 70.8121 132.393 73.5254C131.033 76.2386 117.181 86.9277 117.181 86.9277L115.598 78.834Z" fill="#FFB27D"/>
<path d="M127.531 173.204C127.531 173.204 128.377 174.9 130.251 175.32C131.431 175.584 132.442 176.215 133.071 177.1C133.603 177.849 133.088 178.901 132.187 178.901H122.675C121.865 178.901 121.233 178.183 121.314 177.354C121.385 176.63 121.459 175.787 121.491 175.14C121.561 173.728 122.937 172.592 122.937 172.592L127.531 173.204Z" fill="#2C3A64"/>
<path d="M127.76 173.524C127.76 173.524 125.478 174.91 121.616 174.074C121.616 174.074 115.052 156.822 114.663 148.704C114.646 148.378 114.64 148.068 114.646 147.772C114.778 140.137 107.918 120.255 109.768 116.181C111.619 112.106 126.569 118.012 126.569 118.012L126.866 131.866L127.76 173.524Z" fill="#35488B"/>
<path d="M126.866 131.866L114.663 148.704C114.646 148.378 114.64 148.068 114.646 147.772C114.778 140.137 107.918 120.255 109.768 116.181C111.619 112.106 126.569 118.012 126.569 118.012L126.866 131.866Z" fill="#2C3A64"/>
<path d="M103.037 173.195C103.037 173.195 103.883 174.891 105.757 175.311C106.937 175.575 107.948 176.207 108.577 177.092C109.108 177.84 108.594 178.892 107.693 178.892H98.1806C97.3705 178.892 96.7384 178.174 96.8195 177.346C96.8903 176.621 96.9644 175.778 96.9966 175.131C97.0669 173.72 98.4429 172.583 98.4429 172.583L103.037 173.195Z" fill="#2C3A64"/>
<path d="M117.824 118.34C117.824 118.34 104.611 169.015 104.206 173.974C104.206 173.974 101.629 175.333 97.4453 172.933C97.4453 172.933 96.4038 150.617 97.4453 144.013C99.1375 133.285 99.3952 118.124 105.575 113.892C111.754 109.661 117.824 118.34 117.824 118.34Z" fill="#35488B"/>
<path d="M112.635 76.7229C108.895 77.127 105.564 73.7427 105.564 73.7427L112.058 73.1348C112.074 74.1429 112.196 75.4884 112.635 76.7229Z" fill="#EA9C68"/>
<path d="M114.64 72.7815C114.64 72.7815 108.222 77.2536 103.807 72.353C99.0414 67.0642 100.378 61.4762 102.675 60.3027C107.257 57.9627 110.681 58.8358 112.2 60.5164C113.72 62.1969 118.194 70.3498 114.64 72.7815Z" fill="#FFB27D"/>
<path d="M105.564 73.7934C105.564 73.7934 104.075 71.7178 103.718 70.3462C103.718 70.3462 101.045 68.5931 101.916 67.6064C102.787 66.6195 103.857 67.8414 104.007 67.4714C104.158 67.1016 102.918 62.2092 104.276 61.888C105.634 61.5668 110.992 61.3621 112.469 58.72C113.947 56.078 106.3 50.5965 98.5579 56.5733C90.8156 62.5499 95.7987 71.734 105.564 73.7934Z" fill="#2C3A64"/>
<path d="M95.5955 62.027C95.5955 62.027 94.7877 60.9601 94.9162 59.9434C94.9162 59.9434 95.3435 61.1257 95.9791 61.4911C96.6146 61.8566 95.5955 62.027 95.5955 62.027Z" fill="#2C3A64"/>
<path d="M95.4886 61.1162C95.4886 61.1162 94.3682 61.3795 94.1504 62.4147C94.1504 62.4147 94.7291 61.6134 95.6876 61.8958L95.4886 61.1162Z" fill="#2C3A64"/>
<path d="M110.084 70.1322C110.084 70.1322 111.085 71.2511 113.218 70.4044C113.218 70.4044 114.66 69.4672 114.083 68.1061C114.083 68.1061 111.894 68.0153 110.084 70.1322Z" fill="white"/>
<path d="M133.127 55.9503C133.127 55.9503 133.291 54.815 133.028 53.8177C132.765 52.8204 132.813 49.8485 133.258 50.0369C133.702 50.2253 133.818 51.6009 134.341 51.5494C134.864 51.4979 135.496 50.3336 136.136 50.6669C136.776 51.0002 137.639 50.3796 137.225 52.4643C136.81 54.5491 135.656 56.541 135.656 56.541L133.127 55.9503Z" fill="#FFB27D"/>
<path d="M101.688 88.4874C101.688 88.4874 94.7281 98.8468 91.2499 102.134C91.2499 102.134 86.9283 115.019 86.5672 115.873C86.2061 116.726 83.543 115.344 83.543 115.344C83.543 115.344 84.7337 102.984 86.4727 99.2437C88.2116 95.5035 93.5558 82.9783 97.7518 82.294C101.948 81.6097 101.688 88.4874 101.688 88.4874Z" fill="#FFB27D"/>
<path d="M86.5119 115.896C86.5119 115.896 86.3065 117.17 86.5841 118.296C86.8619 119.423 86.3005 122.192 85.8044 121.972C85.3082 121.751 85.6549 120.774 85.0659 120.822C84.4769 120.87 83.1793 124.009 82.4657 123.622C81.7521 123.235 81.3348 122.074 81.8393 119.737C82.3437 117.401 83.6786 115.183 83.6786 115.183L86.5119 115.896Z" fill="#FFB27D"/>
<path d="M125.053 119.632C122.88 120.567 120.52 121.277 118.158 121.813C118.158 121.813 118.158 121.813 118.157 121.813C118.155 121.814 118.153 121.814 118.15 121.815C111.137 123.409 104.114 123.489 101.973 123.472C101.545 123.468 101.313 123.461 101.313 123.461C100.291 123.351 99.5013 122.532 99.3719 121.521C99.3543 121.39 99.3507 121.256 99.3554 121.121C99.3554 121.121 98.9329 109.166 98.8046 106.452C98.5986 102.101 97.85 95.482 97.85 95.482L96.2609 97.1441C96.2609 97.1441 93.8179 97.221 91.5849 95.6462C89.5839 94.2348 89.2305 91.9764 89.2305 91.9764C89.2305 91.9764 94.2883 83.7242 97.4699 81.4125C99.7463 79.7589 104.751 79.1807 104.751 79.1807C106.139 80.3021 108.796 81.8674 111.449 81.1391C113.442 80.59 113.578 79.3961 113.39 78.2118L122.247 73.5498C122.247 73.5498 126.018 76.3743 125.844 81.715C125.844 81.715 122.62 84.1125 122.22 85.7516C121.208 89.8995 127.621 114.528 127.621 114.528C128.064 116.643 126.992 118.796 125.053 119.632Z" fill="#2F648E"/>
<path d="M118.158 121.812C118.157 121.813 118.155 121.813 118.151 121.814C111.138 123.409 104.116 123.489 101.975 123.472C101.546 123.468 101.314 123.461 101.314 123.461C100.293 123.351 99.5029 122.532 99.3734 121.521C99.3558 121.39 99.3522 121.256 99.357 121.12C99.357 121.12 98.9345 109.165 98.8062 106.452C98.6002 102.101 97.8516 95.4814 97.8516 95.4814C97.8516 95.4814 103.2 113.952 106.104 118.225C108.984 122.466 118.016 121.823 118.158 121.812Z" fill="#2F648E"/>
<path d="M181.098 60.8797L171.211 68.0838C170.697 67.3384 170.525 66.4487 170.663 65.6134C170.802 64.7774 171.25 63.997 171.976 63.4679C172.616 63.0021 172.766 62.091 172.313 61.4341L169.176 56.8869L171.491 55.2002L174.628 59.7473C174.854 60.0758 175.189 60.2792 175.548 60.3419C175.906 60.4046 176.288 60.3266 176.607 60.0937C177.333 59.5652 178.198 59.3886 179.011 59.5308C179.824 59.6731 180.584 60.1342 181.098 60.8797Z" fill="#2F648E"/>
<path d="M181.098 60.8806L174.525 65.6697C172.666 66.6281 171.931 65.4249 172.069 64.5896C172.209 63.7537 172.656 62.9732 173.383 62.4441C174.022 61.9784 174.172 61.0673 173.719 60.4103L170.582 55.8632L171.491 55.2012L174.628 59.7483C174.854 60.0768 175.189 60.2802 175.548 60.3429C175.906 60.4055 176.288 60.3275 176.607 60.0947C177.333 59.5662 178.198 59.3896 179.011 59.5318C179.824 59.674 180.584 60.1351 181.098 60.8806Z" fill="#2F648E"/>
<path d="M165.47 19.8975L171.826 32.1438C175.087 36.8706 175.197 42.5739 173.447 47.2094C173.446 47.21 173.447 47.2109 173.446 47.2115C172.85 48.7908 172.038 50.2455 171.062 51.4956C170.255 52.5282 170.298 54.1516 171.176 55.4259L171.359 55.6922C171.902 56.4813 172.359 57.1426 172.359 57.1426L170.673 58.3704C170.673 58.3704 170.211 57.7027 169.664 56.9091C168.697 55.5106 167.079 54.84 165.732 55.2975C159.977 57.2527 152.517 55.6174 148.199 49.3587L139.26 38.9947L165.47 19.8975Z" fill="#2F648E"/>
<path d="M155.302 54.6984C151.94 52.4275 149.195 53.3493 146.289 54.3251C143.965 55.1054 141.562 55.9122 138.837 55.0991C135.815 54.1973 133.473 51.5224 133.01 48.443C132.657 46.1008 133.48 44.0558 135.264 42.8263C137.801 41.0823 141.109 41.4911 144.831 44.0082C147.497 45.8111 149.445 48.0507 149.526 48.1451L148.199 49.3575C148.127 49.2746 140.965 41.1034 136.252 44.3434C134.625 45.4606 134.623 47.2168 134.765 48.1639C135.12 50.5183 136.998 52.6492 139.333 53.346C141.531 54.002 143.574 53.3161 145.737 52.5897C148.767 51.5724 152.201 50.4193 156.278 53.1728L155.302 54.6984Z" fill="#2F648E"/>
<path d="M174.377 40.7998C173.405 36.7878 175.16 34.4307 177.018 31.9354C178.503 29.9399 180.039 27.8767 180.195 24.9654C180.367 21.7362 178.686 18.5796 176.012 17.1109C173.978 15.9937 171.828 16.1146 170.108 17.4382C167.667 19.3211 166.948 22.6645 168.027 27.107C168.8 30.289 170.212 32.9192 170.272 33.0296L171.824 32.1431C171.772 32.046 166.639 22.3964 171.174 18.8983C172.739 17.6904 174.352 18.2691 175.174 18.7209C177.219 19.8437 178.554 22.3706 178.421 24.8655C178.296 27.2145 176.99 28.9688 175.607 30.826C173.67 33.4276 171.475 36.3763 172.653 41.2409L174.377 40.7998Z" fill="#2F648E"/>
<path d="M173.446 47.2109C172.85 48.7903 172.038 50.245 171.062 51.495C170.255 52.5277 170.298 54.1511 171.176 55.4253L171.359 55.6917C171.405 56.4044 171.588 57.0095 171.968 57.4264L170.673 58.3697C170.673 58.3697 170.211 57.702 169.664 56.9084C168.697 55.5099 167.079 54.8393 165.732 55.2968C159.977 57.2521 152.517 55.6167 148.199 49.358L139.26 38.994L143.593 35.8369C143.593 35.8369 159.165 63.4758 173.446 47.2109Z" fill="#2F648E"/>
<path d="M173.789 56.5315L169.472 59.6767C168.886 60.1037 168.067 59.9603 167.651 59.3581C167.236 58.7559 167.376 57.9138 167.961 57.4868L172.278 54.3416C172.864 53.9147 173.683 54.058 174.099 54.6603C174.514 55.2624 174.375 56.1046 173.789 56.5315Z" fill="#2F648E"/>
<path d="M160.387 48.9889L159.844 48.2016C161.903 46.5414 161.887 46.2017 160.83 44.6696L155.516 36.9665C154.767 35.8813 154.336 36.0677 153.413 36.5798L152.719 36.9259L152.234 36.2238C153.697 34.8706 155.184 33.1476 156.097 31.8105L163.584 42.6629C164.67 44.2375 164.927 44.3386 167.112 42.906L167.655 43.6934L160.387 48.9889Z" fill="white"/>
<path d="M76.3464 66.8663C76.3464 66.8663 77.3588 68.2915 77.2503 69.9171C77.1697 71.1238 76.123 72.3446 76.0527 72.3928L77.7046 73.2981C77.7046 73.2981 78.9297 71.063 78.5167 69.1957C78.3901 68.6236 77.8045 67.708 77.3742 67.3002C76.9001 66.8506 76.3464 66.8663 76.3464 66.8663Z" fill="#6BB7BF"/>
<path d="M72.97 67.0172L71.9238 64.6406C71.9238 64.6406 76.8059 64.8104 78.4235 68.8983C78.4235 68.8983 75.0072 66.3947 72.97 67.0172Z" fill="#86D1CD"/>
<path d="M251.989 85.9765C251.989 85.9765 250.142 84.9427 249.434 83.084C248.909 81.7044 249.446 79.7895 249.5 79.6983L247.21 79.584C247.21 79.584 246.991 82.7181 248.399 84.5639C248.831 85.1295 249.946 85.8284 250.63 86.0487C251.384 86.2916 251.989 85.9765 251.989 85.9765Z" fill="#6BB7BF"/>
<path d="M255.652 83.9932L258.02 86.0625C258.02 86.0625 252.527 88.5 248.654 84.8429C248.654 84.8429 253.713 85.778 255.652 83.9932Z" fill="#86D1CD"/>
<path d="M47.6648 125.919C47.6648 125.919 46.2394 124.812 45.8716 123.16C45.5986 121.934 46.2836 120.394 46.3395 120.325L44.4296 119.934C44.4296 119.934 43.8638 122.538 44.8217 124.27C45.1153 124.8 45.9665 125.531 46.5144 125.804C47.118 126.105 47.6648 125.919 47.6648 125.919Z" fill="#6BB7BF"/>
<path d="M50.9833 124.724L52.7207 126.768C52.7207 126.768 47.8095 128.108 45.002 124.537C45.002 124.537 49.1368 125.974 50.9833 124.724Z" fill="#86D1CD"/>
<path d="M261.483 114.79C261.483 114.79 261.358 112.87 264.864 111.941C266.436 111.525 269.935 112.265 267.717 115.803C265.409 119.483 263.352 118.154 263.352 118.154C263.352 118.154 268.165 114.283 266.239 112.513C264.114 110.56 263.297 114.431 263.297 114.431C263.297 114.431 262.441 114.384 261.483 114.79Z" fill="#F1A34F"/>
<path d="M262.728 118.377C262.728 118.377 261.417 117.646 261.936 116.027L263.821 116.363C263.821 116.363 263.096 118.116 264.869 118.329C264.869 118.329 263.163 118.745 262.728 118.377Z" fill="#DB7714"/>
<path d="M109.204 26.8636C109.204 26.8636 111.991 22.7389 116.265 25.6598L118.868 23.1017C118.868 23.1017 116.436 21.2042 110.827 24.607C107.157 26.8334 109.204 26.8636 109.204 26.8636Z" fill="#5685D8"/>
<path d="M106.452 30.9075C106.452 30.9075 105.901 26.1727 113.613 23.2188C113.613 23.2188 110.825 24.6072 109.965 29.3267L106.452 30.9075Z" fill="#739AF0"/>
<path d="M246.522 142.809C246.522 142.809 243.092 142.63 243.202 138.924L240.75 138.276C240.75 138.276 240.55 140.473 244.609 142.651C247.265 144.076 246.522 142.809 246.522 142.809Z" fill="#5685D8"/>
<path d="M249.892 142.995C249.892 142.995 247.346 145.091 242.768 141.456C242.768 141.456 244.609 142.651 247.67 141.427L249.892 142.995Z" fill="#739AF0"/>
<path d="M197.255 25.9533C197.255 25.9533 193.824 25.7747 193.934 22.0683L191.482 21.4209C191.482 21.4209 191.283 23.6172 195.342 25.7954C197.997 27.2206 197.255 25.9533 197.255 25.9533Z" fill="#5685D8"/>
<path d="M200.624 26.1398C200.624 26.1398 198.079 28.2355 193.5 24.6007C193.5 24.6007 195.341 25.7954 198.402 24.5713L200.624 26.1398Z" fill="#739AF0"/>
<path d="M213.229 50.3617C213.229 50.3617 215.308 49.0119 215.527 47.3809C215.527 47.3809 217.552 47.4934 217.99 48.1682C217.99 48.1682 217.059 50.8679 215.965 51.374C215.965 51.374 213.502 51.5428 213.229 50.3617Z" fill="#2F648E"/>
<path d="M142.215 100.553C142.215 100.553 144.736 98.9168 145.001 96.9395C145.001 96.9395 147.456 97.0758 147.987 97.8941C147.987 97.8941 146.859 101.167 145.532 101.781C145.532 101.781 142.547 101.985 142.215 100.553Z" fill="#97BDFF"/>
<path d="M214.329 161.134C214.329 161.134 212.62 160.025 212.44 158.685C212.44 158.685 210.776 158.777 210.416 159.332C210.416 159.332 211.181 161.55 212.08 161.966C212.08 161.966 214.104 162.105 214.329 161.134Z" fill="#2F648E"/>
<path d="M195.224 62.9326C195.224 62.9326 196.724 64.3387 198.035 64.1612C198.035 64.1612 198.391 65.8423 197.964 66.348C197.964 66.348 195.67 66.1771 195.038 65.3924C195.038 65.3924 194.369 63.4146 195.224 62.9326Z" fill="#86D1CD"/>
<path d="M135.502 50.2531C135.502 50.2531 135.431 51.0101 136.059 51.7962C136.687 52.5825 137.492 52.9947 137.599 52.5165C137.707 52.0382 137.241 48.8509 135.502 50.2531Z" fill="#FFB27D"/>
<path d="M327 179.406V179.546C327 179.768 326.833 179.952 326.629 179.952H0.37058C0.167366 179.952 0 179.768 0 179.546V179.406C0 179.183 0.167253 179 0.37058 179H326.629C326.833 179 327 179.183 327 179.406Z" fill="#282828"/>
</svg>
