<svg width="20" height="20" viewBox="0 0 20 20" fill="none" xmlns="http://www.w3.org/2000/svg">
<g clip-path="url(#clip0_10607_21888)">
<path d="M18.833 11.7969C18.5791 11.2617 18.2548 10.75 17.872 10.2734C16.5439 8.625 15.0869 6.52344 15.0751 6.5C15.0009 6.39453 14.8837 6.33203 14.7548 6.33203C14.6259 6.33203 14.5048 6.39453 14.4345 6.5C14.4267 6.51172 13.7744 7.45312 12.9501 8.5625C12.622 7.94922 12.2314 7.35547 11.7783 6.79297C9.80562 4.33594 7.63765 1.21484 7.61812 1.18359C7.5439 1.07813 7.42671 1.01562 7.2978 1.01562C7.1689 1.01562 7.0478 1.07813 6.97749 1.18359C6.95405 1.21484 4.78999 4.33984 2.81343 6.79297C2.25093 7.49219 1.77827 8.24219 1.40718 9.01953C0.567335 10.7812 0.411085 12.7227 0.961867 14.4922C2.34077 18.9141 7.24312 18.9844 7.2978 18.9844C7.33296 18.9844 9.67671 18.9492 11.5791 17.4766C12.915 18.668 14.6728 18.6875 14.7548 18.6875C14.79 18.6875 18.1845 18.6367 19.1416 15.5703C19.5244 14.3477 19.415 13.0039 18.8369 11.7891L18.833 11.7969ZM1.70405 14.2617C1.21187 12.6797 1.35249 10.9375 2.1064 9.35547C2.45015 8.63281 2.89155 7.93359 3.41499 7.28125C4.95405 5.36719 6.6064 3.05078 7.28999 2.08203C7.96968 3.05078 9.62593 5.36328 11.165 7.28125C11.6884 7.93359 12.1298 8.62891 12.4736 9.35547C13.2275 10.9375 13.372 12.6797 12.8759 14.2617C12.5439 15.3203 11.9892 16.0938 11.3525 16.6602C11.3447 16.668 11.333 16.668 11.3251 16.6758C11.3173 16.6836 11.3173 16.6914 11.3095 16.6992C9.62984 18.1641 7.41109 18.2031 7.28609 18.207C7.1064 18.207 2.90327 18.1328 1.69624 14.2617H1.70405ZM18.3916 15.3438C17.6064 17.8594 14.8642 17.9102 14.7509 17.9102C14.7353 17.9102 13.2783 17.8906 12.165 16.9531C12.7744 16.3359 13.2978 15.5391 13.6259 14.4922C14.1416 12.8359 14.0283 11.0273 13.3251 9.35938C13.9072 8.58203 14.4306 7.85156 14.7509 7.40234C15.2587 8.12109 16.2939 9.55859 17.2626 10.7617C17.6103 11.1914 17.8994 11.6562 18.1298 12.1328C18.622 13.168 18.7158 14.3086 18.3955 15.3438H18.3916Z" fill="#2F648E" stroke="#2F648E" stroke-width="0.5"/>
<path d="M6.31599 16.398C4.67146 15.7418 3.57771 14.5855 3.0738 12.9605C3.00739 12.7535 2.78864 12.6402 2.58552 12.7027C2.37849 12.7652 2.26521 12.9879 2.32771 13.191C2.90192 15.023 4.17927 16.3824 6.02692 17.1207C6.0738 17.1402 6.12458 17.148 6.17146 17.148C6.32771 17.148 6.47224 17.0543 6.53474 16.9019C6.61677 16.7027 6.51911 16.4761 6.31599 16.3941V16.398Z" fill="#2F648E" stroke="#2F648E" stroke-width="0.5"/>
</g>
<defs>
<clipPath id="clip0_10607_21888">
<rect width="20" height="20" fill="white"/>
</clipPath>
</defs>
</svg>
