<svg width="20" height="20" viewBox="0 0 20 20" fill="none" xmlns="http://www.w3.org/2000/svg">
<path d="M10.0013 15.1667C11.8423 15.1667 13.3346 13.6743 13.3346 11.8333C13.3346 9.99238 11.8423 8.5 10.0013 8.5C8.16035 8.5 6.66797 9.99238 6.66797 11.8333C6.66797 13.6743 8.16035 15.1667 10.0013 15.1667Z" stroke="#2F648E" stroke-width="1.5" stroke-miterlimit="10" stroke-linecap="round" stroke-linejoin="round"/>
<path d="M10.2096 10.7915V11.5665C10.2096 11.8582 10.0596 12.1332 9.8013 12.2832L9.16797 12.6665" stroke="#2F648E" stroke-width="1.5" stroke-miterlimit="10" stroke-linecap="round" stroke-linejoin="round"/>
<path d="M6.66734 18.3333H13.334C16.684 18.3333 17.284 16.9917 17.459 15.3583L18.084 8.69167C18.309 6.65833 17.7257 5 14.1673 5H5.834C2.27567 5 1.69234 6.65833 1.91734 8.69167L2.54234 15.3583C2.71734 16.9917 3.31734 18.3333 6.66734 18.3333Z" stroke="#2F648E" stroke-width="1.5" stroke-miterlimit="10" stroke-linecap="round" stroke-linejoin="round"/>
<path d="M6.66797 5.00033V4.33366C6.66797 2.85866 6.66797 1.66699 9.33464 1.66699H10.668C13.3346 1.66699 13.3346 2.85866 13.3346 4.33366V5.00033" stroke="#2F648E" stroke-width="1.5" stroke-miterlimit="10" stroke-linecap="round" stroke-linejoin="round"/>
<path d="M18.0418 9.16699C16.6001 10.217 15.0001 10.9503 13.3418 11.367" stroke="#2F648E" stroke-width="1.5" stroke-miterlimit="10" stroke-linecap="round" stroke-linejoin="round"/>
<path d="M2.18359 9.39209C3.57526 10.3421 5.09193 11.0171 6.66693 11.4004" stroke="#2F648E" stroke-width="1.5" stroke-miterlimit="10" stroke-linecap="round" stroke-linejoin="round"/>
</svg>
