<svg width="20" height="20" viewBox="0 0 20 20" fill="none" xmlns="http://www.w3.org/2000/svg">
<path d="M10.4176 18.3335H3.40091C2.43424 18.3335 1.64258 17.5585 1.64258 16.6085V4.24179C1.64258 2.05846 3.26758 1.06679 5.25924 2.04179L8.95924 3.85846C9.75924 4.25013 10.4176 5.29179 10.4176 6.17513V18.3335Z" stroke="#2F648E" stroke-width="1.5" stroke-linecap="round" stroke-linejoin="round"/>
<path d="M18.3077 12.5503V15.7003C18.3077 17.5003 17.4743 18.3336 15.6743 18.3336H10.416V8.68359L10.8077 8.76693L14.5577 9.60859L16.2493 9.98359C17.3493 10.2253 18.2493 10.7919 18.2993 12.3919C18.3077 12.4419 18.3077 12.4919 18.3077 12.5503Z" stroke="#2F648E" stroke-width="1.5" stroke-linecap="round" stroke-linejoin="round"/>
<path d="M4.58398 7.5H7.47565" stroke="#2F648E" stroke-width="1.5" stroke-linecap="round" stroke-linejoin="round"/>
<path d="M4.58398 10.8335H7.47565" stroke="#2F648E" stroke-width="1.5" stroke-linecap="round" stroke-linejoin="round"/>
<path d="M14.5586 9.60827V12.2916C14.5586 13.3249 13.7169 14.1666 12.6836 14.1666C11.6503 14.1666 10.8086 13.3249 10.8086 12.2916V8.7666L14.5586 9.60827Z" stroke="#2F648E" stroke-width="1.5" stroke-linecap="round" stroke-linejoin="round"/>
<path d="M18.3003 12.3917C18.2503 13.3751 17.4336 14.1667 16.4336 14.1667C15.4003 14.1667 14.5586 13.3251 14.5586 12.2917V9.6084L16.2503 9.9834C17.3503 10.2251 18.2503 10.7917 18.3003 12.3917Z" stroke="#2F648E" stroke-width="1.5" stroke-linecap="round" stroke-linejoin="round"/>
</svg>
