<svg width="20" height="20" viewBox="0 0 20 20" fill="none" xmlns="http://www.w3.org/2000/svg">
<g clip-path="url(#clip0_10167_17763)">
<path d="M15.2594 10.6394L9.13483 5.30698C8.91272 5.11416 8.62851 5.00794 8.33439 5.00781C8.04026 5.00769 7.75596 5.11366 7.53368 5.30628L1.41118 10.6367C1.22377 10.7983 1.09026 11.0133 1.02856 11.2529C0.966852 11.4925 0.979904 11.7452 1.06596 11.9772C1.15202 12.2092 1.30697 12.4093 1.51002 12.5507C1.71306 12.692 1.9545 12.7679 2.20192 12.7682H2.95197V17.1085C2.95236 17.4306 3.08053 17.7395 3.30835 17.9674C3.53618 18.1952 3.84506 18.3233 4.16725 18.3237H5.90336C6.22555 18.3233 6.53444 18.1952 6.76226 17.9674C6.99009 17.7395 7.11825 17.4306 7.11864 17.1085V15.3723C7.11883 15.2024 7.15459 15.0343 7.22361 14.879C7.29264 14.7236 7.39341 14.5845 7.51944 14.4704C7.64573 14.3554 7.79502 14.2685 7.95741 14.2156C8.1198 14.1626 8.2916 14.1447 8.46141 14.1632C8.77136 14.211 9.0531 14.3706 9.25348 14.6118C9.45387 14.853 9.55905 15.1593 9.54919 15.4727V17.1085C9.54958 17.4307 9.67775 17.7395 9.90557 17.9674C10.1334 18.1952 10.4423 18.3234 10.7645 18.3237H12.5006C12.8228 18.3234 13.1317 18.1952 13.3595 17.9674C13.5873 17.7395 13.7155 17.4307 13.7159 17.1085V12.7682H14.4659C14.713 12.768 14.9541 12.6923 15.157 12.5513C15.3599 12.4103 15.5149 12.2106 15.6012 11.9791C15.6875 11.7475 15.701 11.4952 15.6399 11.2557C15.5788 11.0163 15.4461 10.8013 15.2594 10.6394Z" stroke="#2F648E" stroke-width="1.30435" stroke-miterlimit="10" stroke-linecap="round" stroke-linejoin="round"/>
</g>
<path d="M14.9993 4.66276C15.5977 4.66276 16.0827 4.17773 16.0827 3.57943C16.0827 2.98112 15.5977 2.49609 14.9993 2.49609C14.401 2.49609 13.916 2.98112 13.916 3.57943C13.916 4.17773 14.401 4.66276 14.9993 4.66276Z" stroke="#2F648E" stroke-width="1.30435"/>
<path d="M12.0901 2.94878C12.7742 -0.0581586 17.229 -0.0546863 17.9096 2.95226C18.3089 4.71614 17.2117 6.2092 16.2499 7.13281C15.552 7.80642 14.4478 7.80642 13.7464 7.13281C12.7881 6.2092 11.6908 4.71267 12.0901 2.94878Z" stroke="#2F648E" stroke-width="1.30435"/>
<defs>
<clipPath id="clip0_10167_17763">
<rect width="16.6667" height="16.6667" fill="white" transform="translate(0 3.33203)"/>
</clipPath>
</defs>
</svg>
