<svg width="327" height="180" viewBox="0 0 327 180" fill="none" xmlns="http://www.w3.org/2000/svg">
<path d="M18.6187 179.524L120.996 179.039L148.285 179.032L157.326 179.029L184.667 179.022L309.579 178.991C309.579 178.991 338.15 145.577 307.631 113.842C275.988 80.9384 260.603 107.735 250.876 61.4196C226.393 -55.1634 -15.6636 12.6905 47.8261 111.898C70.6867 147.62 2.827 128.633 18.6187 179.524Z" fill="#EBF3FA"/>
<g opacity="0.5">
<path d="M199.615 179.048H59.2637V54.408C59.2637 48.9049 63.6201 44.4277 68.9751 44.4277H191.464C195.958 44.4277 199.615 48.1857 199.615 52.8049L199.615 179.048ZM61.4712 176.779H197.407V52.8048C197.407 49.4366 194.741 46.6964 191.463 46.6964H68.975C64.8373 46.6964 61.4712 50.1557 61.4712 54.408V176.779Z" fill="#2F648E"/>
<path d="M198.511 70.5605H60.3672V73.0835H198.511V70.5605Z" fill="#2F648E"/>
<path d="M198.511 90.876H60.3672V93.3989H198.511V90.876Z" fill="#2F648E"/>
<path d="M198.511 111.191H60.3672V113.714H198.511V111.191Z" fill="#2F648E"/>
<path d="M198.511 131.581H60.3672V134.104H198.511V131.581Z" fill="#2F648E"/>
<path d="M90.4995 131.581H93.9492V118.388H90.4995V131.581Z" fill="#2F648E"/>
<path d="M86.7041 131.581H89.6934V117.242H86.7041V131.581Z" fill="#2F648E"/>
<path d="M82.0387 131.345L85.0059 131.718L86.6997 117.485L83.7326 117.112L82.0387 131.345Z" fill="#2F648E"/>
<path d="M186.888 131.581H190.338V118.388H186.888V131.581Z" fill="#2F648E"/>
<path d="M183.093 131.581H186.082V117.242H183.093V131.581Z" fill="#2F648E"/>
<path d="M178.427 131.349L181.395 131.722L183.088 117.489L180.121 117.116L178.427 131.349Z" fill="#2F648E"/>
<path d="M65.2284 131.581H79.334V129.001H65.2284V131.581Z" fill="#95C0F4"/>
<path d="M63.5019 129.001H77.6074V127.227H63.5019V129.001Z" fill="#2F648E"/>
<path d="M64.8906 127.227H78.4141V125.452H64.8906V127.227Z" fill="#2F648E"/>
<path d="M64.5623 125.452H76.7754V124.097H64.5623V125.452Z" fill="#2F648E"/>
<path d="M132.934 131.581H147.039V129.001H132.934V131.581Z" fill="#2F648E"/>
<path d="M131.209 129.001H145.314V127.227H131.209V129.001Z" fill="#2F648E"/>
<path d="M132.596 127.227H146.119V125.452H132.596V127.227Z" fill="#2F648E"/>
<path d="M132.267 125.452H144.48V124.097H132.267V125.452Z" fill="#2F648E"/>
<path d="M130.744 124.097H144.85V122.322H130.744V124.097Z" fill="#2F648E"/>
<path d="M132.131 122.323H145.654V120.549H132.131V122.323Z" fill="#2F648E"/>
<path d="M131.803 120.549H144.016V119.194H131.803V120.549Z" fill="#2F648E"/>
<path d="M122.359 131.523H124.764V117.241H122.359V131.523Z" fill="#2F648E"/>
<path d="M151.928 131.523H154.332V116.587H151.928V131.523Z" fill="#2F648E"/>
<path d="M159.211 131.523H161.615V117.241H159.211V131.523Z" fill="#2F648E"/>
<path d="M119.32 131.523H122.359V116.064H119.32V131.523Z" fill="#2F648E"/>
<path d="M162.117 131.523H165.156V116.064H162.117V131.523Z" fill="#2F648E"/>
<path d="M116.281 131.523H119.32V116.8H116.281V131.523Z" fill="#2F648E"/>
<path d="M147.475 131.53L150.469 130.993L147.672 114.534L144.679 115.072L147.475 131.53Z" fill="#2F648E"/>
<path d="M113.242 131.523H116.281V119.058H113.242V131.523Z" fill="#2F648E"/>
<path d="M166.092 131.523H169.131V119.058H166.092V131.523Z" fill="#2F648E"/>
<path d="M110.203 131.523H113.242V118.387H110.203V131.523Z" fill="#95C0F4"/>
<path d="M106.68 131.523H109.719V118.387H106.68V131.523Z" fill="#2F648E"/>
<path d="M169.553 131.523H172.592V118.387H169.553V131.523Z" fill="#2F648E"/>
<path d="M103.073 131.523H106.111V117.241H103.073V131.523Z" fill="#2F648E"/>
<path d="M155.863 131.523H158.902V117.241H155.863V131.523Z" fill="#2F648E"/>
<path d="M163.34 57.4238H159.891V70.6168H163.34V57.4238Z" fill="#2F648E"/>
<path d="M167.136 56.2783H164.146V70.6175H167.136V56.2783Z" fill="#2F648E"/>
<path d="M170.1 56.1505L167.133 56.5234L168.827 70.7565L171.794 70.3836L170.1 56.1505Z" fill="#2F648E"/>
<path d="M107.827 77.6846H104.377V90.8775H107.827V77.6846Z" fill="#2F648E"/>
<path d="M111.622 76.5381H108.633V90.8773H111.622V76.5381Z" fill="#2F648E"/>
<path d="M114.584 76.4122L111.617 76.7852L113.311 91.0182L116.278 90.6453L114.584 76.4122Z" fill="#2F648E"/>
<path d="M66.9536 57.4238H63.5039V70.6168H66.9536V57.4238Z" fill="#2F648E"/>
<path d="M70.7471 56.2783H67.7578V70.6175H70.7471V56.2783Z" fill="#2F648E"/>
<path d="M73.7113 56.1476L70.7441 56.5205L72.438 70.7536L75.4052 70.3806L73.7113 56.1476Z" fill="#2F648E"/>
<path d="M188.611 68.0371H174.506V70.6171H188.611V68.0371Z" fill="#95C0F4"/>
<path d="M190.336 66.2627H176.23V68.037H190.336V66.2627Z" fill="#2F648E"/>
<path d="M188.951 64.4883H175.428V66.2626H188.951V64.4883Z" fill="#2F648E"/>
<path d="M189.278 63.1338H177.064V64.4889H189.278V63.1338Z" fill="#2F648E"/>
<path d="M120.906 68.0371H106.801V70.6171H120.906V68.0371Z" fill="#2F648E"/>
<path d="M122.631 66.2627H108.525V68.037H122.631V66.2627Z" fill="#2F648E"/>
<path d="M121.244 64.4883H107.721V66.2626H121.244V64.4883Z" fill="#2F648E"/>
<path d="M121.572 63.1338H109.359V64.4889H121.572V63.1338Z" fill="#2F648E"/>
<path d="M123.096 61.3594H108.99V63.1337H123.096V61.3594Z" fill="#2F648E"/>
<path d="M121.709 59.585H108.186V61.3592H121.709V59.585Z" fill="#2F648E"/>
<path d="M122.037 58.2305H109.824V59.5856H122.037V58.2305Z" fill="#2F648E"/>
<path d="M131.481 56.2783H129.076V70.5607H131.481V56.2783Z" fill="#2F648E"/>
<path d="M101.912 55.624H99.5078V70.5608H101.912V55.624Z" fill="#2F648E"/>
<path d="M94.6291 56.2783H92.2246V70.5607H94.6291V56.2783Z" fill="#2F648E"/>
<path d="M134.521 55.1006H131.482V70.5605H134.521V55.1006Z" fill="#2F648E"/>
<path d="M91.7244 55.1006H88.6855V70.5605H91.7244V55.1006Z" fill="#2F648E"/>
<path d="M137.558 55.8369H134.52V70.5601H137.558V55.8369Z" fill="#2F648E"/>
<path d="M109.154 54.1065L106.16 53.5693L103.364 70.0281L106.357 70.5652L109.154 54.1065Z" fill="#2F648E"/>
<path d="M165.057 88.2959H150.951V90.8759H165.057V88.2959Z" fill="#2F648E"/>
<path d="M166.781 86.5215H152.676V88.2958H166.781V86.5215Z" fill="#2F648E"/>
<path d="M165.396 84.7471H151.873V86.5213H165.396V84.7471Z" fill="#2F648E"/>
<path d="M165.723 83.3926H153.51V84.7477H165.723V83.3926Z" fill="#2F648E"/>
<path d="M167.246 81.6182H153.141V83.3925H167.246V81.6182Z" fill="#2F648E"/>
<path d="M165.859 79.8438H152.336V81.618H165.859V79.8438Z" fill="#2F648E"/>
<path d="M166.188 78.4893H153.975V79.8444H166.188V78.4893Z" fill="#2F648E"/>
<path d="M153.304 74.3663L150.311 73.8291L147.514 90.288L150.508 90.8251L153.304 74.3663Z" fill="#2F648E"/>
<path d="M140.598 58.0947H137.559V70.56H140.598V58.0947Z" fill="#2F648E"/>
<path d="M87.7478 58.0947H84.709V70.56H87.7478V58.0947Z" fill="#2F648E"/>
<path d="M143.636 57.4238H140.598V70.5599H143.636V57.4238Z" fill="#95C0F4"/>
<path d="M147.162 57.4238H144.123V70.5599H147.162V57.4238Z" fill="#2F648E"/>
<path d="M84.2849 57.4238H81.2461V70.5599H84.2849V57.4238Z" fill="#2F648E"/>
<path d="M142.674 75.416H139.635V90.8759H142.674V75.416Z" fill="#2F648E"/>
<path d="M138.697 78.4111H135.658V90.8764H138.697V78.4111Z" fill="#2F648E"/>
<path d="M135.236 77.7402H132.197V90.8763H135.236V77.7402Z" fill="#2F648E"/>
<path d="M125.082 77.7402H122.043V90.8763H125.082V77.7402Z" fill="#2F648E"/>
<path d="M120.84 77.7402H117.801V90.8763H120.84V77.7402Z" fill="#2F648E"/>
<path d="M72.996 75.416H69.957V90.8759H72.996V75.416Z" fill="#2F648E"/>
<path d="M76.0203 75.2817L73.0039 75.6611L74.8317 91.0066L77.848 90.6272L76.0203 75.2817Z" fill="#2F648E"/>
<path d="M69.0193 78.4111H65.9805V90.8764H69.0193V78.4111Z" fill="#2F648E"/>
<path d="M65.5585 77.7402H62.5195V90.8763H65.5585V77.7402Z" fill="#2F648E"/>
<path d="M150.767 56.2783H147.729V70.5607H150.767V56.2783Z" fill="#2F648E"/>
<path d="M117.744 96.9092H115.34V111.192H117.744V96.9092Z" fill="#2F648E"/>
<path d="M120.781 95.7314H117.742V111.191H120.781V95.7314Z" fill="#2F648E"/>
<path d="M123.82 96.4688H120.781V111.192H123.82V96.4688Z" fill="#2F648E"/>
<path d="M126.859 98.7266H123.82V111.192H126.859V98.7266Z" fill="#2F648E"/>
<path d="M129.898 98.0557H126.859V111.192H129.898V98.0557Z" fill="#95C0F4"/>
<path d="M133.424 98.0557H130.385V111.192H133.424V98.0557Z" fill="#2F648E"/>
<path d="M137.031 96.9092H133.992V111.192H137.031V96.9092Z" fill="#2F648E"/>
<path d="M173.4 76.5938H170.361V90.8761H173.4V76.5938Z" fill="#2F648E"/>
<path d="M176.711 76.5938H173.672V90.8761H176.711V76.5938Z" fill="#2F648E"/>
<path d="M97.9764 56.2783H94.9375V70.5607H97.9764V56.2783Z" fill="#2F648E"/>
<path d="M180.633 108.675H166.527V111.255H180.633V108.675Z" fill="#2F648E"/>
<path d="M182.357 106.9H168.252V108.675H182.357V106.9Z" fill="#2F648E"/>
<path d="M180.971 105.126H167.447V106.9H180.971V105.126Z" fill="#2F648E"/>
<path d="M181.297 103.771H169.084V105.127H181.297V103.771Z" fill="#2F648E"/>
<path d="M182.822 101.997H168.717V103.771H182.822V101.997Z" fill="#2F648E"/>
<path d="M181.436 100.223H167.912V101.997H181.436V100.223Z" fill="#2F648E"/>
<path d="M181.762 98.8682H169.549V100.223H181.762V98.8682Z" fill="#2F648E"/>
<path d="M161.639 96.2617H159.234V111.198H161.639V96.2617Z" fill="#2F648E"/>
<path d="M154.356 96.916H151.951V111.198H154.356V96.916Z" fill="#2F648E"/>
<path d="M151.449 95.7383H148.41V111.198H151.449V95.7383Z" fill="#2F648E"/>
<path d="M168.878 94.7462L165.885 94.209L163.088 110.668L166.082 111.205L168.878 94.7462Z" fill="#2F648E"/>
<path d="M147.473 98.7324H144.434V111.198H147.473V98.7324Z" fill="#2F648E"/>
<path d="M144.012 98.0615H140.973V111.198H144.012V98.0615Z" fill="#2F648E"/>
<path d="M112.041 95.7383H109.002V111.198H112.041V95.7383Z" fill="#2F648E"/>
<path d="M108.062 98.7324H105.023V111.198H108.062V98.7324Z" fill="#2F648E"/>
<path d="M104.601 98.0615H101.562V111.198H104.601V98.0615Z" fill="#2F648E"/>
<path d="M99.867 95.7383H96.8281V111.198H99.867V95.7383Z" fill="#2F648E"/>
<path d="M95.8904 98.7324H92.8516V111.198H95.8904V98.7324Z" fill="#2F648E"/>
<path d="M92.4295 98.0615H89.3906V111.198H92.4295V98.0615Z" fill="#2F648E"/>
<path d="M157.703 96.916H154.664V111.198H157.703V96.916Z" fill="#2F648E"/>
</g>
<path d="M232.961 67.34H215.122C214.303 67.34 213.633 66.6514 213.633 65.8098V48.1152C213.633 47.2735 214.303 46.585 215.122 46.585H232.961C233.78 46.585 234.45 47.2735 234.45 48.1152V65.8098C234.45 66.6514 233.78 67.34 232.961 67.34Z" fill="#C0D8FB"/>
<path d="M232.189 66.4401H215.895C215.147 66.4401 214.535 65.8111 214.535 65.0425V48.881C214.535 48.1124 215.147 47.4834 215.895 47.4834H232.189C232.937 47.4834 233.549 48.1124 233.549 48.881V65.0426C233.549 65.8113 232.937 66.4401 232.189 66.4401Z" fill="#DFEBFD"/>
<path d="M223.611 49.3778C223.611 49.1331 223.804 48.9346 224.043 48.9346C224.281 48.9346 224.474 49.1331 224.474 49.3778C224.474 49.6226 224.281 49.821 224.043 49.821C223.804 49.821 223.611 49.6226 223.611 49.3778Z" fill="#2F648E"/>
<path d="M227.09 50.0044C227.205 49.7904 227.468 49.7134 227.676 49.8322C227.884 49.9511 227.959 50.221 227.843 50.4349C227.728 50.6489 227.465 50.7258 227.257 50.6069C227.049 50.4881 226.974 50.2183 227.09 50.0044Z" fill="#2F648E"/>
<path d="M230.071 52.438C230.271 52.3053 230.537 52.3645 230.667 52.5702C230.796 52.7759 230.738 53.0502 230.538 53.1828C230.338 53.3154 230.071 53.2563 229.942 53.0506C229.813 52.8449 229.871 52.5706 230.071 52.438Z" fill="#2F648E"/>
<path d="M231.548 56.2051C231.787 56.2051 231.98 56.4035 231.98 56.6482C231.98 56.893 231.787 57.0915 231.548 57.0915C231.31 57.0915 231.117 56.893 231.117 56.6482C231.117 56.4035 231.31 56.2051 231.548 56.2051Z" fill="#2F648E"/>
<path d="M230.795 60.5771C230.963 60.7501 230.963 61.0308 230.795 61.2039C230.626 61.3769 230.353 61.3769 230.185 61.2039C230.016 61.0308 230.016 60.7503 230.185 60.5771C230.353 60.4039 230.626 60.404 230.795 60.5771Z" fill="#2F648E"/>
<path d="M228.086 63.3671C228.254 63.5401 228.254 63.8207 228.086 63.9938C227.917 64.1669 227.644 64.1669 227.476 63.9938C227.308 63.8208 227.308 63.5403 227.476 63.3671C227.644 63.194 227.917 63.194 228.086 63.3671Z" fill="#2F648E"/>
<path d="M223.611 64.8054C223.611 64.5607 223.804 64.3623 224.043 64.3623C224.281 64.3623 224.474 64.5607 224.474 64.8054C224.474 65.0503 224.281 65.2486 224.043 65.2486C223.804 65.2486 223.611 65.0502 223.611 64.8054Z" fill="#2F648E"/>
<path d="M220.98 50.0044C220.865 49.7904 220.602 49.7134 220.394 49.8322C220.186 49.9511 220.111 50.221 220.226 50.4349C220.342 50.6489 220.605 50.7258 220.813 50.6069C221.021 50.4881 221.096 50.2183 220.98 50.0044Z" fill="#2F648E"/>
<path d="M217.999 52.438C217.799 52.3053 217.532 52.3645 217.403 52.5702C217.274 52.7759 217.331 53.0502 217.532 53.1828C217.732 53.3154 217.999 53.2563 218.128 53.0506C218.257 52.8449 218.199 52.5706 217.999 52.438Z" fill="#2F648E"/>
<path d="M216.523 56.2051C216.285 56.2051 216.092 56.4035 216.092 56.6482C216.092 56.893 216.285 57.0915 216.523 57.0915C216.761 57.0915 216.954 56.893 216.954 56.6482C216.954 56.4035 216.761 56.2051 216.523 56.2051Z" fill="#2F648E"/>
<path d="M217.277 60.5771C217.108 60.7501 217.108 61.0308 217.277 61.2038C217.445 61.3769 217.718 61.3769 217.887 61.2038C218.055 61.0308 218.055 60.7502 217.887 60.5771C217.718 60.404 217.445 60.404 217.277 60.5771Z" fill="#2F648E"/>
<path d="M219.984 63.3671C219.815 63.5401 219.815 63.8207 219.984 63.9938C220.152 64.1669 220.425 64.1669 220.594 63.9938C220.762 63.8208 220.762 63.5403 220.594 63.3671C220.425 63.194 220.152 63.194 219.984 63.3671Z" fill="#2F648E"/>
<path d="M223.926 56.6482C223.926 56.4035 224.119 56.2051 224.357 56.2051C224.595 56.2051 224.788 56.4035 224.788 56.6482C224.788 56.893 224.595 57.0915 224.357 57.0915C224.119 57.0915 223.926 56.893 223.926 56.6482Z" fill="#2F648E"/>
<path d="M224.416 51.1123H224.299V56.6485H224.416V51.1123Z" fill="#2F648E"/>
<path d="M227.051 54.1842L224.195 56.4883L224.413 56.7739L227.269 54.4697L227.051 54.1842Z" fill="#2F648E"/>
<path d="M256.053 165.655C256.053 165.655 275.779 146.374 281.314 150.856C286.849 155.339 256.053 165.655 256.053 165.655Z" fill="#CDE0FB"/>
<path d="M254.629 169.364C254.629 169.364 291.33 152.479 300.013 161.407C308.697 170.334 289.942 169.233 282.997 168.234C276.051 167.235 254.629 169.364 254.629 169.364Z" fill="#CDE0FB"/>
<path d="M253.086 165.231C253.086 165.231 253.258 164.281 253.494 162.892C253.953 160.181 254.651 155.794 254.773 153.509C254.958 150.053 257.663 147.599 260.632 151.117C263.601 154.636 254.227 164.282 254.227 164.282L253.086 165.231Z" fill="#CDE0FB"/>
<path d="M263.498 99.2154C260.813 91.9933 248.849 95.5763 248.849 95.5763C248.849 95.5763 241.845 109.427 239.467 109.986C237.09 110.544 243.206 96.9421 243.206 96.9421C238.494 96.9612 227.18 104.071 227.18 104.071C227.18 104.071 229.42 119.151 226.981 119.091C224.542 119.032 225.661 105.634 225.661 105.634C221.282 107.494 217.599 113.344 217.599 113.344C213.196 122.707 225.121 128.034 225.121 128.034C225.121 128.034 225.787 133.278 223.218 139.637L223.218 139.638C223.218 139.638 222.614 140.825 222.075 142.794L223.306 142.666C223.373 142.316 223.452 141.977 223.543 141.65C223.543 141.647 223.544 141.645 223.545 141.643C223.547 141.639 223.548 141.634 223.549 141.629C223.615 141.425 223.708 141.134 223.826 140.78C223.826 140.779 223.827 140.779 223.827 140.778C223.827 140.778 223.828 140.778 223.827 140.777C224.129 139.981 224.329 139.396 224.45 138.976C224.45 138.974 224.45 138.973 224.451 138.972C225.345 136.48 226.665 133.217 227.684 132.456C227.684 132.456 227.528 132.273 227.363 131.903C227.465 132.08 227.572 132.263 227.684 132.456C230.246 136.878 240.858 136.56 246.606 134.715C252.355 132.87 249.629 131.433 246.198 128.999C242.766 126.565 236.215 127.979 234.152 127.099C232.089 126.218 234.843 124.84 238.786 124.744C242.73 124.648 245.081 128.467 251.463 128.431C257.846 128.395 261.464 115.676 261.464 115.676C257.235 117.52 249.166 115.856 248.713 114.34C248.26 112.825 259.865 111.779 261.626 111.128C263.386 110.477 266.183 106.437 263.498 99.2154Z" fill="#DFEBFD"/>
<path d="M70.6775 162.987C65.1511 156.043 75.5637 145.731 75.5637 145.731C75.5637 145.731 93.1736 146.475 95.0929 144.337C97.0121 142.199 80.1577 140.68 80.1577 140.68C82.8947 135.816 96.387 128.211 96.387 128.211C96.387 128.211 109.87 139.228 111.218 136.671C112.566 134.113 98.7953 127.541 98.7953 127.541C103.144 124.083 111 123.647 111 123.647C122.713 124.493 121.052 139.906 121.052 139.906C121.052 139.906 125.804 143.62 133.517 144.631H133.517C133.517 144.631 135.029 144.691 137.269 145.268L136.434 146.469C136.052 146.336 135.674 146.222 135.301 146.128C135.298 146.126 135.296 146.126 135.294 146.126C135.288 146.125 135.283 146.124 135.277 146.123C135.04 146.072 134.701 146.002 134.286 145.919C134.285 145.919 134.285 145.919 134.284 145.919C134.283 145.918 134.283 145.919 134.282 145.918C133.328 145.772 132.64 145.64 132.159 145.523C132.157 145.523 132.156 145.523 132.154 145.522C129.197 145.009 125.239 144.493 123.906 145.108C123.906 145.108 123.816 144.841 123.549 144.457C123.662 144.665 123.781 144.881 123.906 145.108C126.76 150.31 120.326 161.107 115.202 165.99C110.077 170.873 110.242 167.224 109.837 162.27C109.432 157.315 114.597 151.352 114.925 148.71C115.253 146.068 112.313 148.121 109.944 152.146C107.575 156.171 109.96 160.807 106.243 167.39C102.525 173.973 87.9778 170.379 87.9778 170.379C92.2239 167.068 95.2489 157.758 94.0253 156.415C92.8016 155.073 85.0822 166.476 83.4285 167.922C81.7749 169.369 76.2037 169.932 70.6775 162.987Z" fill="#CDE0FB"/>
<path d="M172.713 160.657H116.771V132.525H172.927C178.124 132.525 182.337 136.855 182.337 142.196V150.767C182.337 156.229 178.028 160.657 172.713 160.657Z" fill="#FCECDB"/>
<path d="M231.239 144.1V148.332C231.239 150.594 230.802 152.711 230.036 154.532C228.5 158.195 225.644 160.657 222.373 160.657H115.017C114.306 160.657 113.731 159.857 113.731 158.87V158.237C113.731 157.251 114.306 156.45 115.017 156.45H178.623C179.829 156.45 180.929 155.706 181.371 154.552C181.373 154.545 181.376 154.538 181.379 154.532C181.991 152.926 182.338 151.096 182.338 149.153V143.773C182.338 142.784 182.246 141.824 182.073 140.91C182.07 140.895 182.067 140.88 182.064 140.864C181.6 138.455 179.518 136.733 177.128 136.733H115.016C114.306 136.733 113.73 135.933 113.73 134.945V134.313C113.73 133.326 114.306 132.525 115.016 132.525H222.913C226.716 132.525 229.922 136.069 230.918 140.91C231.127 141.924 231.239 142.994 231.239 144.1Z" fill="#B5453C"/>
<path d="M116.771 146.592L124.721 147.065L116.771 147.35V146.592Z" fill="#F4D2B8"/>
<path d="M116.771 151.006L135.683 151.479L116.771 151.763V151.006Z" fill="#F4D2B8"/>
<path d="M170.18 109.906H123.943V86.1982H170.358C174.699 86.1982 178.218 89.8147 178.218 94.2758V101.646C178.218 106.208 174.619 109.906 170.18 109.906Z" fill="#FCECDB"/>
<path d="M218.697 95.9527V99.5194C218.697 101.425 218.336 103.21 217.702 104.744C216.431 107.831 214.066 109.906 211.358 109.906H122.49C121.902 109.906 121.426 109.232 121.426 108.401V107.866C121.426 107.035 121.902 106.361 122.49 106.361H176.663C176.953 105.861 177.208 105.32 177.424 104.744C177.931 103.391 178.218 101.849 178.218 100.211V95.6775C178.218 94.8436 178.142 94.0344 177.998 93.2647C177.756 91.9596 177.322 90.7648 176.742 89.7444H122.49C121.902 89.7444 121.426 89.07 121.426 88.2376V87.705C121.426 86.8725 121.902 86.1982 122.49 86.1982H211.806C214.953 86.1982 217.608 89.1845 218.432 93.2648C218.605 94.1189 218.697 95.0209 218.697 95.9527Z" fill="#2F648E"/>
<path d="M123.943 98.0527L130.523 98.4512L123.943 98.6912V98.0527Z" fill="#F4D2B8"/>
<path d="M123.943 101.772L139.598 102.171L123.943 102.411V101.772Z" fill="#F4D2B8"/>
<path d="M129.631 179.048H193.431V160.607H129.089C124.479 160.607 120.742 164.448 120.742 169.185V169.913C120.742 174.958 124.722 179.048 129.631 179.048Z" fill="#2F648E"/>
<path d="M190.091 179.048H262.758V160.607H189.899C185.212 160.607 181.412 164.512 181.412 169.329V170.129C181.412 175.055 185.298 179.048 190.091 179.048Z" fill="#FCECDB"/>
<path d="M176.588 179.048H265.242C265.954 179.048 266.531 178.455 266.531 177.724V177.615C266.531 176.883 265.953 176.29 265.242 176.29H176.588C175.876 176.29 175.299 176.883 175.299 177.615V177.724C175.299 178.455 175.876 179.048 176.588 179.048Z" fill="#2F648E"/>
<path d="M176.588 163.365H265.242C265.954 163.365 266.531 162.772 266.531 162.041V161.932C266.531 161.2 265.953 160.607 265.242 160.607H176.588C175.876 160.607 175.299 161.2 175.299 161.932V162.041C175.299 162.772 175.876 163.365 176.588 163.365Z" fill="#2F648E"/>
<path d="M262.759 169.828L252.896 170.138L262.759 170.325V169.828Z" fill="#F4D2B8"/>
<path d="M262.758 165.584L239.295 165.894L262.758 166.081V165.584Z" fill="#F4D2B8"/>
<path d="M239.535 165.833C239.535 165.833 240.541 166.625 240.874 167.928C240.932 168.155 240.97 168.399 240.978 168.656C241.033 170.387 240.978 174.303 240.978 174.303L243.946 172.345L246.907 174.303V168.995C246.907 167.991 246.653 167.015 246.182 166.376C245.953 166.066 245.675 165.833 245.361 165.833H239.535Z" fill="#699DEE"/>
<path d="M239.535 165.833C239.535 165.833 240.541 166.625 240.874 167.928L246.822 168.005C246.822 168.005 246.589 166.14 245.361 165.833H239.535Z" fill="#568CDB"/>
<path d="M171.089 132.526H243.04V109.906H170.875C165.677 109.906 161.463 114.237 161.463 119.579V122.634C161.463 128.097 165.772 132.526 171.089 132.526Z" fill="#FCECDB"/>
<path d="M161.423 118.682V123.551C161.429 124.298 161.606 125.009 161.923 125.659C162.486 126.818 163.49 127.78 164.753 128.399C165.723 128.871 166.845 129.141 168.036 129.141H245.187C246.091 129.141 246.824 129.77 246.824 130.546V131.12C246.824 131.896 246.091 132.525 245.187 132.525H111.909C108.084 132.525 104.706 130.894 102.663 128.399C101.376 126.826 100.621 124.91 100.621 122.84V119C100.621 117.582 100.999 116.241 101.674 115.045C103.387 112.004 107.018 109.906 111.219 109.906H245.187C246.091 109.906 246.824 110.534 246.824 111.31V111.884C246.824 112.66 246.091 113.289 245.187 113.289H167.801C165.951 113.289 164.278 113.964 163.109 115.045C162.603 115.513 162.191 116.057 161.901 116.654C161.598 117.28 161.429 117.964 161.423 118.682Z" fill="#7EB2FC"/>
<path d="M243.041 121.216L233.15 121.596L243.041 121.825V121.216Z" fill="#F4D2B8"/>
<path d="M243.041 116.01L219.512 116.39L243.041 116.619V116.01Z" fill="#F4D2B8"/>
<path d="M219.754 116.315C219.754 116.315 221.307 117.032 221.821 118.211C221.912 118.417 221.97 118.638 221.982 118.87C222.068 120.437 221.982 123.982 221.982 123.982L226.567 122.209L231.139 123.982V119.177C231.139 118.268 230.747 117.385 230.019 116.806C229.666 116.526 229.237 116.314 228.752 116.314H219.754V116.315Z" fill="#2FBBA4"/>
<path d="M219.754 116.314C219.754 116.314 221.307 117.032 221.821 118.211L231.008 118.281C231.008 118.281 230.648 116.593 228.752 116.314H219.754Z" fill="#2FBBA4"/>
<path d="M327 179.455V179.594C327 179.817 326.833 180.001 326.629 180.001H0.37058C0.167366 180.001 0 179.817 0 179.594V179.455C0 179.232 0.167253 179.049 0.37058 179.049H326.629C326.833 179.049 327 179.232 327 179.455Z" fill="#282828"/>
<path d="M153.427 53.8203C153.427 53.8203 155.096 56.3593 156.049 61.6968C156.883 66.3714 157.614 68.0972 158.818 69.0559C160.023 70.0144 166.733 72.8449 166.733 72.8449L166.231 74.0529C166.231 74.0529 156.396 72.6764 155.291 70.9871C154.186 69.2977 149.974 59.3169 150.301 57.0183C150.628 54.7196 153.427 53.8203 153.427 53.8203Z" fill="#F4A269"/>
<path d="M177.51 109.579C177.422 110.564 178.757 110.804 180.304 110.883C181.851 110.963 181.383 111.288 183.503 111.683C185.622 112.077 186.472 111.481 186.625 111.187C186.762 110.926 185.776 110.517 184.726 110.056C184.594 109.998 184.462 109.939 184.329 109.879C183.147 109.345 182.484 108.256 181.562 107.246C180.69 106.289 179.861 103.226 179.861 103.226L176.98 102.594C176.98 102.594 177.789 105.351 178.07 106.528C178.235 107.22 177.991 107.994 177.775 108.583C177.659 108.903 177.541 109.231 177.51 109.579Z" fill="#FFB27D"/>
<path d="M180.304 110.884C181.85 110.963 181.383 111.288 183.503 111.683C185.622 112.077 186.472 111.481 186.625 111.187C186.762 110.926 185.776 110.517 184.726 110.056L184.71 110.074C184.71 110.074 183.219 110.594 181.499 110.114C180.097 109.722 178.741 108.861 177.775 108.583C177.658 108.904 177.541 109.231 177.51 109.579C177.422 110.565 178.757 110.804 180.304 110.884Z" fill="#C65447"/>
<path d="M148.828 74.4774C148.828 74.4774 167.968 72.997 171.571 75.3341C175.174 77.6711 180.953 104.893 180.953 104.893C180.953 104.893 180.597 105.187 179.8 105.276C179.059 105.358 177.428 104.91 177.428 104.91C177.428 104.91 169.123 92.7302 168.538 89.6618C167.953 86.5934 168.095 83.8554 166.763 83.782C165.431 83.7086 148.826 85.8567 146.314 81.3091C143.802 76.7615 145.878 72.2598 145.878 72.2598L148.828 74.4774Z" fill="#2FBBA4"/>
<path d="M170.186 112.738C170.098 113.724 171.433 113.963 172.98 114.043C174.526 114.122 174.059 114.447 176.178 114.842C178.298 115.236 179.147 114.64 179.301 114.346C179.437 114.085 178.452 113.676 177.402 113.215C177.27 113.157 177.137 113.098 177.005 113.038C175.823 112.504 175.16 111.415 174.238 110.405C173.365 109.448 172.537 106.385 172.537 106.385L169.656 105.753C169.656 105.753 170.465 108.51 170.746 109.687C170.911 110.379 170.667 111.153 170.451 111.742C170.334 112.063 170.217 112.391 170.186 112.738Z" fill="#FFB27D"/>
<path d="M172.98 114.043C174.526 114.122 174.059 114.447 176.178 114.842C178.298 115.236 179.147 114.641 179.301 114.346C179.437 114.085 178.452 113.676 177.402 113.215L177.385 113.233C177.385 113.233 175.895 113.753 174.175 113.273C172.773 112.882 171.417 112.02 170.451 111.742C170.334 112.063 170.217 112.391 170.186 112.738C170.097 113.724 171.433 113.964 172.98 114.043Z" fill="#C65447"/>
<path d="M145.08 75.6963C145.08 75.6963 162.083 76.5234 165.595 79.0028C169.107 81.4821 173.851 108.915 173.851 108.915C173.851 108.915 173.483 109.194 172.684 109.251C171.941 109.304 170.327 108.791 170.327 108.791C170.327 108.791 162.489 96.2881 162.021 93.1984C161.553 90.1089 161.799 87.3786 160.471 87.2521C159.142 87.1255 142.468 88.6076 140.13 83.963C137.793 79.3184 145.08 75.6963 145.08 75.6963Z" fill="#2FBBA4"/>
<path d="M152.691 38.1766C152.04 37.5313 151.14 37.2423 150.492 37.1128C150.7 36.9818 151.039 37.0036 151.039 37.0036C150.659 36.8388 149.675 37.0094 149.675 37.0094C144.714 33.3788 141.77 41.4801 141.403 43.4457C141.035 45.4109 140.362 48.2224 138.024 50.6594C132.03 56.9089 140.594 64.1412 140.594 64.1412C140.63 64.1782 144.892 54.8039 149.172 53.298C150.4 52.1839 151.312 49.8842 151.383 49.7029C150.757 51.5519 150.178 52.529 149.748 53.0517C153.582 50.9355 154.415 39.887 152.691 38.1766Z" fill="#163560"/>
<path d="M144.365 50.8958C144.365 50.8958 145.949 50.7413 147.532 50.8958C148.608 51.0007 149.674 51.3439 150.28 51.6045C151.779 52.2482 151.621 54.9747 148.477 54.4698C145.333 53.965 144.145 51.7044 144.365 50.8958Z" fill="#FFB27D"/>
<path d="M150.147 52.8843C150.165 52.8943 150.596 55.2298 148.537 55.1363C147.185 55.0751 144.27 53.3943 144.528 52.205C144.65 51.6397 145.671 50.1729 145.877 46.8252L146.123 46.8927L150.26 48.0332C150.26 48.0332 150.077 49.3825 149.991 50.6595C149.918 51.7319 149.916 52.7533 150.147 52.8843Z" fill="#FFB27D"/>
<path d="M150.26 48.033C150.26 48.033 150.077 49.3824 149.991 50.6594C147.649 50.4308 146.552 48.1464 146.123 46.8926L150.26 48.033Z" fill="#F4A269"/>
<path d="M145.733 46.1495C145.733 46.1495 145.023 43.897 145.15 42.1643C145.241 40.9273 146.921 36.6966 151.052 38.4583C151.052 38.4583 152.266 38.9127 153.234 40.0338C154.003 40.9255 154.999 42.6747 152.542 46.1055L151.829 47.2953L145.733 46.1495Z" fill="#163560"/>
<path d="M150.371 49.9909C150.371 49.9909 144.96 48.6619 145.817 45.2116C146.674 41.7612 146.553 39.2659 150.044 39.9686C153.535 40.6711 153.876 42.1632 153.863 43.3864C153.849 44.6096 151.8 50.2476 150.371 49.9909Z" fill="#FFB27D"/>
<path d="M152.518 40.5313C152.518 40.5313 150.032 44.1894 147.619 44.1909C145.205 44.1925 144.379 43.3102 144.379 43.3102C144.379 43.3102 146.469 42.3501 147.447 39.9701C147.447 39.9701 151.885 38.3119 152.518 40.5313Z" fill="#163560"/>
<path d="M152.07 40.7633C152.07 40.7633 152.947 41.9572 152.996 42.9063C153.045 43.8555 152.715 45.6955 153.243 45.7692C153.243 45.7692 155.041 43.3117 154.18 41.4264C153.267 39.4274 152.07 40.7633 152.07 40.7633Z" fill="#163560"/>
<path d="M156.524 74.7744C156.075 75.327 154.671 75.4966 153.17 75.7503C151.989 75.9506 150.749 76.2018 149.867 76.7343C147.864 77.9428 141.32 82.0274 139.402 81.8416C138.658 81.7696 138.797 80.3107 139.248 78.375C139.957 75.3181 141.441 71.0728 141.441 69.2268C141.441 68.2194 141.767 65.8354 142.203 63.1097C142.238 62.89 142.274 62.6687 142.31 62.4448C143.172 57.1454 144.365 50.8965 144.365 50.8965C144.365 50.8965 145.696 53.8807 148.289 53.8807C150.882 53.8807 150.28 51.6049 150.28 51.6049C150.28 51.6049 152.646 51.8908 153.205 52.5097C153.765 53.1286 155.182 55.8033 155.463 56.5329C155.463 56.5329 155.521 57.4611 153.284 57.9031C153.284 57.9031 153.829 60.4228 153.893 62.1023C153.941 63.3432 153.07 67.2267 152.819 69.6422C152.73 70.4976 152.718 71.169 152.854 71.4735C153.026 71.8638 153.586 72.2524 154.223 72.6336C155.487 73.3898 157.058 74.1177 156.524 74.7744Z" fill="#2F648E"/>
<path d="M154.223 72.633C155.658 75.1479 150.33 75.904 149.448 76.4364C147.445 77.645 141.32 82.0269 139.402 81.841C138.658 81.769 138.797 80.3102 139.248 78.3745C139.957 75.3175 141.441 71.0722 141.441 69.2262C141.441 68.2188 141.767 65.8348 142.203 63.1091L144.511 60.8311C144.511 60.8311 146.985 67.4022 149.343 68.4791C150.579 69.0429 151.87 69.4153 152.819 69.6416C152.73 70.497 152.718 71.1684 152.853 71.4729C153.026 71.8632 153.586 72.2518 154.223 72.633Z" fill="#2F648E"/>
<path d="M143.654 52.8635C143.654 52.8635 141.68 51.6316 139.771 53.9686C137.862 56.3056 141.128 73.012 143.956 73.8703C147.097 74.8236 156.523 74.7746 156.523 74.7746L156.129 73.5994C156.129 73.5994 146.336 70.3567 145.935 69.8262C145.533 69.2958 144.657 53.133 143.654 52.8635Z" fill="#FFB27D"/>
<path d="M144.364 50.8955C144.364 50.8955 140.31 51.2713 139.133 52.6417C137.955 54.0121 137.611 57.7252 137.611 57.7252C137.611 57.7252 141.181 60.687 145.483 59.5376L144.364 50.8955Z" fill="#2F648E"/>
<path d="M169.527 68.7636L169.914 65.1094L164.885 71.9191C164.885 71.9191 166.99 72.9967 167.114 72.7905C167.237 72.5843 169.527 68.7636 169.527 68.7636Z" fill="#163560"/>
<path d="M162.003 68.7637L157.357 76.0535H165.159L169.528 68.7637H162.003Z" fill="#1C468A"/>
<path d="M169.527 68.7635L169.892 65.1445L167.264 68.5237L169.527 68.7635Z" fill="#EFDECE"/>
<path d="M157.595 75.6786L157.238 75.4168L161.854 68.3672L162.001 68.763L157.595 75.6786Z" fill="#EFDECE"/>
<path d="M161.854 68.3672L169.203 68.5792L169.526 68.763H162L161.854 68.3672Z" fill="#FCECDB"/>
<path d="M160.321 74.6056C160.177 74.5856 159.994 74.5892 159.82 74.6014C160.382 74.3327 160.947 74.0417 160.947 74.0417C160.947 74.0417 160.695 73.7764 159.73 74.1287C159.622 74.1684 159.513 74.1777 159.405 74.1655L160.758 73.5406C160.517 73.3178 159.869 73.4954 159.365 73.6854C159.005 73.8211 158.603 73.7605 158.3 73.5184C158.295 73.5143 158.29 73.5105 158.285 73.5064C158.307 73.504 158.327 73.5026 158.351 73.4991C159.14 73.3799 159.341 72.916 159.122 72.969C158.903 73.0222 157.58 73.1211 157.58 73.1211C156.982 73.0855 155.797 73.5551 155.797 73.5551L156.46 74.8122C156.46 74.8122 158.365 75.1765 158.861 75.0186C158.901 75.0059 158.949 74.9884 159.002 74.9677L160.734 74.8507C160.734 74.8508 160.703 74.6587 160.321 74.6056Z" fill="#FFB27D"/>
<path d="M227.324 123.693C227.324 123.693 237.322 128.17 239.137 128.089C240.952 128.007 252.135 124.588 252.135 124.588L251.85 126.565C251.85 126.565 243.22 131.666 240.203 131.956C237.232 132.241 227.075 129.216 226.094 128.577C225.113 127.939 224.474 124.34 227.324 123.693Z" fill="#ED985F"/>
<path d="M225.822 107.225C225.822 107.225 222.134 106.505 220.297 107.884C216.969 110.381 216.79 118.991 215.543 120.273C214.296 121.556 211.29 121.009 211.022 127.645C210.754 134.282 212.219 134.837 210.475 137.799C208.731 140.761 211.213 143.727 211.213 143.727C211.213 143.727 210.196 142.091 210.632 140.911C210.632 140.911 211.055 143.516 212.665 144.127C214.276 144.737 214.514 145.185 214.771 146.08C214.771 146.08 228.509 138.846 228.524 133.714C228.539 128.583 231.228 123.5 229.908 121.276C229.908 121.276 230.496 122.227 230.568 123.286C230.568 123.286 231.36 121.726 229.987 120.274C228.614 118.822 231.598 115.816 231.156 112.336C230.853 109.947 229.221 107.329 225.822 107.225Z" fill="#233862"/>
<path d="M228.54 128.583C227.661 129.209 226.56 129.725 225.178 130.053C219.997 131.283 218.011 126.783 217.266 123.693C217.972 123.278 218.637 123.186 219.021 123.139C219.395 123.094 219.789 123.064 220.116 123.047C220.697 122.589 221.564 120.715 221.756 117.805L222 117.872L226.083 119.02C226.083 119.02 225.896 120.354 225.804 121.615C225.733 122.602 225.722 123.545 225.904 123.775C226.223 123.847 226.414 123.893 226.414 123.893C226.414 123.893 226.414 123.894 226.416 123.897C226.471 123.989 227.656 125.991 228.54 128.583Z" fill="#FFB27D"/>
<path d="M226.084 119.021C226.084 119.021 225.896 120.354 225.805 121.616C223.492 121.378 222.418 119.115 222 117.873L226.084 119.021Z" fill="#ED985F"/>
<path d="M226.775 120.273C226.775 120.273 221.284 119.962 221.525 116.451C221.767 112.939 221.22 110.535 224.736 110.585C228.253 110.635 228.841 112.024 229.038 113.216C229.235 114.409 228.21 120.264 226.775 120.273Z" fill="#FFB27D"/>
<path d="M229.01 111.252C228.236 110.134 227.579 110.318 227.198 110.609C224.318 108.694 222.212 111.056 222.212 111.056C221.669 113.548 219.801 114.861 219.801 114.861C219.801 114.861 220.756 115.57 223.103 115.13C223.82 114.996 224.485 114.528 225.062 113.944C224.018 115.482 222.667 116.546 222.667 116.546C225.511 115.441 226.891 111.588 227.031 111.18C227.344 111.514 227.957 112.234 228.112 112.906C228.323 113.821 229.233 115.25 229.76 115.226C229.76 115.226 230.171 112.93 229.01 111.252Z" fill="#233862"/>
<path d="M215.702 140.056C215.206 137.451 213.589 127.043 215.206 123.693C215.787 122.49 218.065 122.382 220.565 122.487C221.343 123.003 224.307 124.954 225.525 124.71C225.538 124.708 225.562 124.702 225.593 124.694C226.166 124.546 226.383 124.132 225.905 123.775C225.904 123.775 227.143 123.653 228.681 123.95C229.549 124.118 231.892 125.364 231.892 125.364C231.892 125.364 230.712 127.554 228.972 128.31C229.268 131.029 228.829 132.229 226.084 138.509C223.764 143.818 226.396 148.598 226.396 148.598C226.396 148.598 212.743 159.88 212.667 154.135C212.609 149.811 216.336 143.386 215.702 140.056Z" fill="white"/>
<path d="M227.072 160.866C227.815 160.78 228.483 160.362 228.898 159.723C228.964 159.622 229.035 159.513 229.109 159.396C230.663 156.979 231.268 149.574 234.764 141.685C235.616 139.765 238.672 139.419 239.506 137.248C239.506 137.248 241.557 130.211 235.579 130.004C229.602 129.796 219.57 149.583 219.412 151.658C219.258 153.669 215.459 162.212 227.072 160.866Z" fill="#2FBBA4"/>
<path d="M250.833 160.703H242.325C242.325 160.703 242.006 159.309 242.565 158.36C243.06 157.52 242.87 157.042 242.504 156.347C242.889 156.509 243.388 156.657 243.937 156.624C244.361 156.599 244.809 156.402 245.202 156.167C245.568 156.596 247.136 158.422 247.626 158.784C248.182 159.195 250.661 159.048 250.833 160.703Z" fill="#2F648E"/>
<path d="M216.599 126.422C216.599 126.422 215.491 136.776 222.673 138.945C229.854 141.115 231.893 129.419 226.095 128.577C220.296 127.736 216.599 126.422 216.599 126.422Z" fill="#EBEEF2"/>
<path d="M239.702 132.037C240.214 135.984 242.215 148.443 245.744 154.521C246.882 156.481 242.878 157.579 242.856 157.573C242.319 157.429 241.424 156.549 241.012 156.167C238.147 153.513 232.33 145.999 232.33 139.975C232.33 137.037 232.28 131.427 234.358 130.002C235.639 129.123 239.499 130.47 239.702 132.037Z" fill="#2FBBA4"/>
<path d="M221.999 160.704C221.999 160.704 222.314 160.253 222.864 159.396C223.518 158.378 224.242 156.373 225.121 153.804C226.043 151.107 227.138 147.789 228.506 144.336C228.928 143.27 229.377 142.192 229.854 141.115C230.705 139.194 233.048 139.46 233.881 137.288C233.881 137.288 237.133 129.762 231.155 129.554C225.178 129.347 213.819 149.688 213.166 151.658C212.451 153.815 208.965 162.77 221.999 160.704Z" fill="#2FBBA4"/>
<path d="M244.587 160.703H236.078C236.078 160.703 235.76 159.309 236.319 158.36C236.813 157.52 236.624 157.042 236.258 156.347C236.643 156.509 237.142 156.657 237.691 156.624C238.115 156.599 238.563 156.402 238.956 156.167C239.322 156.596 240.89 158.422 241.38 158.784C241.936 159.195 244.415 159.048 244.587 160.703Z" fill="#2F648E"/>
<path d="M225.123 153.804C226.045 151.107 227.14 147.789 228.508 144.336C228.151 141.72 227.38 139.432 226.084 138.51C226.084 138.51 222.94 148.52 225.123 153.804Z" fill="#2FBBA4"/>
<path d="M234.735 131.757C235.247 135.705 235.969 148.443 239.498 154.521C240.636 156.481 236.631 157.579 236.61 157.573C236.073 157.429 235.178 156.549 234.765 156.167C231.9 153.513 226.084 145.999 226.084 139.975C226.084 137.037 229.438 131.663 231.517 130.237C232.797 129.359 234.531 130.19 234.735 131.757Z" fill="#2FBBA4"/>
<path d="M227.804 118.254C227.804 118.254 227.285 118.043 225.824 118.165C225.824 118.165 225.902 118.75 226.979 118.808C227.589 118.841 227.804 118.254 227.804 118.254Z" fill="white"/>
<path d="M253.205 120.452L251.441 117.182L247.625 128.124L249.876 130.608L253.205 120.452Z" fill="#163560"/>
<path d="M243.994 122.368L240.447 132.782L249.876 130.608L253.205 120.452L243.994 122.368Z" fill="#2F648E"/>
<path d="M240.636 132.257L240.471 131.96L243.827 122.104L243.995 122.368L240.636 132.257Z" fill="#EFDECE"/>
<path d="M243.826 122.104L252.765 120.316L253.204 120.452L243.994 122.368L243.826 122.104Z" fill="#FCECDB"/>
<path d="M253.205 120.452L251.298 117.341L250.082 120.854L252.766 120.317L253.205 120.452Z" fill="#EFDECE"/>
<path d="M246.714 123.876C246.408 123.815 245.75 123.56 245.084 123.372C245.283 123.214 245.504 123.019 245.566 122.819C245.685 122.433 245.764 122.309 245.368 122.431C244.972 122.553 243.586 123.206 243.586 123.206C243.586 123.206 243.589 123.208 243.589 123.208C242.802 123.444 242.077 124.588 242.077 124.588C242.077 124.588 232.328 128.11 231.156 128.17C229.341 128.264 217.265 123.694 217.265 123.694C214.415 124.34 215.055 127.939 216.035 128.577C217.016 129.216 225.705 132.465 230.855 132.526C233.464 132.557 242.952 126.29 242.952 126.29C242.952 126.29 244.061 125.769 244.932 125.932C245.804 126.094 247.824 125.932 248.259 125.199C248.695 124.466 247.229 123.978 246.714 123.876Z" fill="#FFB27D"/>
<path d="M223.488 125.947C223.488 125.947 222.408 129.461 218.698 130.261C218.698 130.261 212.573 128.321 215.623 124.033C215.623 124.033 218.638 121.73 223.488 125.947Z" fill="white"/>
<path d="M253.044 124.141L253.044 124.141C253.046 124.044 253.037 123.948 253.011 123.856C253.011 123.856 252.137 122.435 251.851 122.377C250.98 122.2 250.98 123.38 251.165 124.141C251.293 124.671 251.621 125.179 251.886 125.454L251.886 125.454L251.851 126.566C253.324 125.734 253.044 124.141 253.044 124.141Z" fill="#FFB27D"/>
<path d="M175.874 141.448C175.874 141.448 174.321 142.423 173.807 144.025C173.716 144.305 173.658 144.605 173.646 144.921C173.56 147.049 173.646 151.866 173.646 151.866L169.061 149.458L164.488 151.866V145.338C164.488 144.103 164.881 142.902 165.609 142.116C165.962 141.735 166.391 141.448 166.876 141.448H175.874Z" fill="#2FBBA4"/>
<path d="M175.874 141.448C175.874 141.448 174.321 142.423 173.807 144.025L164.619 144.12C164.619 144.12 164.98 141.826 166.876 141.448H175.874Z" fill="#2FBBA4"/>
<path d="M85.627 110.284C85.627 110.284 86.6008 114.626 89.4394 114.626C91.8724 114.626 95.21 108.974 95.21 108.974L85.627 110.284Z" fill="#2FBBA4"/>
<path d="M118.057 174.809L116.428 175.697C116.428 175.697 107.621 166.1 105.504 156.891C105.127 155.247 104.974 153.625 105.135 152.086C105.135 152.086 105.007 151.669 104.783 150.932C104.774 150.9 104.763 150.866 104.754 150.833C104.655 150.51 104.538 150.129 104.407 149.698C103.982 148.307 103.398 146.402 102.732 144.234C101.199 139.245 97.6934 127.993 96.1953 123.312L106.963 119.309C106.963 119.309 108.186 122.175 109.943 129.965C110.214 130.982 110.485 132.106 110.738 133.331C111.026 134.719 111.293 136.236 111.517 137.875C111.894 140.652 112.146 143.776 112.162 147.203C112.168 148.597 112.135 150.042 112.054 151.534C111.996 152.627 112.154 154.085 112.45 155.742C113.807 163.322 118.057 174.809 118.057 174.809Z" fill="#2F648E"/>
<path d="M123.952 179.049H115.247C115.247 179.049 114.921 177.622 115.493 176.651C115.999 175.792 115.805 175.302 115.43 174.591C115.824 174.757 116.335 174.908 116.896 174.875C117.33 174.85 117.789 174.647 118.191 174.407C118.565 174.846 120.17 176.715 120.671 177.085C121.24 177.505 123.777 177.355 123.952 179.049Z" fill="#233862"/>
<path d="M111.517 137.875L104.754 150.833C104.655 150.51 104.538 150.129 104.407 149.698C103.982 148.307 103.398 146.402 102.732 144.234C101.199 139.245 97.6934 127.993 96.1953 123.312L106.963 119.309C106.963 119.309 108.186 122.175 109.943 129.965C110.214 130.982 110.485 132.106 110.738 133.331C111.026 134.719 111.294 136.236 111.517 137.875Z" fill="#2F648E"/>
<path d="M96.0188 176.248C96.0188 176.248 95.4162 177.767 95.9836 179.048H100.719C100.719 179.048 100.817 177.893 99.0988 176.553C97.7972 175.539 96.0188 176.248 96.0188 176.248Z" fill="#233862"/>
<path d="M101.172 77.3314C101.175 77.0892 101.296 74.4771 105.158 74.2451C105.158 74.2451 103.263 74.5251 102.955 75.3918C102.955 75.3918 104.224 74.2988 105.286 74.614C106.348 74.9291 107.011 76.8112 107.032 77.4352C107.053 78.059 106.514 80.0854 105.849 80.2729C105.598 80.3441 105.305 80.3338 105.039 80.2941C105.224 80.5752 105.406 80.886 105.581 81.2335C107.199 84.4485 105.803 88.2358 104.489 87.9169C103.647 87.7123 103.135 89.213 103.135 89.213L95.0312 82.0516C95.0312 82.0516 97.8702 75.6239 101.172 77.3314Z" fill="#2C3A64"/>
<path d="M96.0781 99.092C96.9766 99.7326 98.1031 100.261 99.5173 100.596C104.818 101.855 106.85 97.2504 107.613 94.0896C106.89 93.6645 106.21 93.5707 105.817 93.5226C105.434 93.4762 105.031 93.4453 104.697 93.4282C104.102 92.9596 103.215 91.042 103.019 88.0645L102.769 88.1331L98.5913 89.3083C98.5913 89.3083 98.7827 90.6733 98.8764 91.9633C98.949 92.9728 98.9603 93.9375 98.7743 94.1736C98.4483 94.2464 98.2526 94.2938 98.2526 94.2938C98.2526 94.2938 98.2524 94.2952 98.2505 94.2977C98.1945 94.3923 96.9826 96.4409 96.0781 99.092Z" fill="#FFB27D"/>
<path d="M98.5918 89.3087C98.5918 89.3087 98.7839 90.6724 98.8769 91.9637C101.244 91.7201 102.342 89.404 102.77 88.1338L98.5918 89.3087Z" fill="#ED985F"/>
<path d="M98.5443 91.3575C98.5443 91.3575 103.994 89.9184 103.07 86.4443C102.145 82.9702 102.226 80.4447 98.7076 81.2167C95.1889 81.9888 94.8685 83.5035 94.9026 84.7402C94.9368 85.977 97.1029 91.6423 98.5443 91.3575Z" fill="#FFB27D"/>
<path d="M94.5475 82.7639C95.107 81.4826 95.802 81.5329 96.241 81.7468C98.7587 79.2345 101.331 81.1723 101.331 81.1723C102.36 83.5618 104.49 84.4959 104.49 84.4959C104.49 84.4959 103.669 85.4026 101.229 85.4436C100.483 85.456 99.7254 85.123 99.0322 84.6552C100.379 85.9841 101.941 86.7746 101.941 86.7746C98.8724 86.2496 96.7389 82.666 96.52 82.2853C96.2704 82.6844 95.7951 83.5325 95.77 84.2395C95.7358 85.2002 96.1008 87.0552 95.5679 87.139C95.5677 87.139 93.7086 84.6855 94.5475 82.7639Z" fill="#2C3A64"/>
<path d="M96.9754 94.0045C96.9754 94.0045 106.128 91.7209 110.108 95.0942L108.119 123.6L90.2188 119.156C90.2188 119.156 90.7223 117.352 94.1548 112.556C97.5873 107.759 96.0943 100.724 96.9754 94.0045Z" fill="#FFB27D"/>
<path d="M102.312 120.427C102.312 120.427 102.302 120.524 102.283 120.708C102.275 120.787 102.264 120.883 102.253 120.994C102.176 121.733 102.03 123.151 101.842 124.994C101.351 129.829 100.58 137.593 100.055 143.722C99.6438 148.514 99.3829 152.307 99.524 152.916C99.9479 154.748 99.524 176.655 99.524 176.655C98.0026 177.405 95.6959 176.655 95.6959 176.655C95.6959 176.655 91.6434 156.914 92.2107 154.17C92.7781 151.426 91.8314 149.084 91.8314 149.084C88.685 134.025 89.0295 125.679 89.6543 121.683C89.8359 120.521 90.0417 119.727 90.1925 119.243C90.3198 118.832 90.4081 118.644 90.4081 118.644C97.3485 116.725 102.312 120.427 102.312 120.427Z" fill="#2F648E"/>
<path d="M111.342 103.225C110.901 106.654 109.133 110.851 108.501 113.11C108.501 113.11 109.557 120.952 108.549 123.105C108.435 123.351 108.293 123.522 108.12 123.6C104.387 125.271 89.8514 123.648 89.2378 118.83C89.0149 117.079 94.7745 110.92 95.11 110.173C95.2495 109.864 95.3977 108.862 94.7226 106.785C93.7653 109.818 88.4824 108.946 88.4824 108.946C89.1025 107.855 90.6472 100.312 92.3721 96.907C93.6689 94.3474 97.1314 93.9766 97.1314 93.9766C97.1314 93.9766 98.5726 96.3256 102.058 95.9924C105.543 95.6592 106.18 93.4668 106.18 93.4668C106.18 93.4668 109.271 93.8892 110.224 94.6788C110.389 94.8155 111.922 98.7319 111.342 103.225Z" fill="#2FBBA4"/>
<path d="M108.502 113.109C108.502 113.109 109.557 120.952 108.549 123.105C105.83 121.702 102.286 118.674 103.365 113.943C104.931 107.07 111.342 103.225 111.342 103.225C110.901 106.654 109.133 110.85 108.502 113.109Z" fill="#2FBBA4"/>
<path d="M97.1502 103.836L103.383 114.112H92.7781L86.8398 104.058L97.1502 103.836Z" fill="#2F648E"/>
<path d="M103.059 113.595L103.166 113.236L97.2687 103.512L97.1504 103.835L103.059 113.595Z" fill="#EFDECE"/>
<path d="M97.2685 103.512L87.2784 103.804L86.8398 104.058L97.1502 103.835L97.2685 103.512Z" fill="#FCECDB"/>
<path d="M86.8406 104.058L81.2363 100.94L87.7692 111.483L92.7788 114.111L86.8406 104.058Z" fill="#163560"/>
<path d="M116.498 111.259C115.898 111.541 114.357 113.406 113.807 113.596C111.335 114.446 100.811 112.183 100.811 112.183L101.136 110.289C101.136 110.289 111.466 110.571 112.601 110.258C112.815 110.199 113.931 108.405 114.36 108.147L116.498 111.259Z" fill="#FFB27D"/>
<path d="M101.137 110.288C101.137 110.288 99.8909 109.246 99.0492 109.482C98.2075 109.718 96.969 110.811 96.5093 111.071C96.0496 111.33 94.8001 112.256 95.4333 112.816C96.0664 113.376 98.0378 112.895 98.8187 112.466C99.5997 112.037 100.811 112.183 100.811 112.183L101.137 110.288Z" fill="#FFB27D"/>
<path d="M99.2866 109.448C99.2866 109.448 97.7727 109.262 97.3593 109.271C96.9459 109.279 97.0583 109.372 97.2864 109.702C97.5145 110.032 98.3029 110.158 98.3391 110.273C98.3752 110.388 99.2866 109.448 99.2866 109.448Z" fill="#FFB27D"/>
<path d="M106.182 93.4668C106.182 93.4668 110.671 94.0142 111.907 95.9924C113.47 98.4939 117.158 108.457 117.039 110.967C117.039 110.967 114.343 115.684 105.095 114.929C105.095 114.929 104.133 111.436 106.078 110.283C106.078 110.283 110.828 109.415 111.375 108.92L109.788 102.143L106.182 93.4668Z" fill="#2FBBA4"/>
<path d="M88.275 107.814C88.1359 107.233 86.9026 107.596 86.4869 107.93C86.3859 108.011 86.2773 108.15 86.1709 108.312C86.1579 108.215 86.1468 108.121 86.1406 108.049C86.1171 107.776 85.8077 107.287 85.7309 107.653C85.6541 108.019 85.5276 109.558 85.5276 109.558C85.5126 110.797 86.2877 111.308 86.7857 110.905C87.2834 110.502 88.4142 108.395 88.275 107.814Z" fill="#FFB27D"/>
</svg>
