<svg width="20" height="20" viewBox="0 0 20 20" fill="none" xmlns="http://www.w3.org/2000/svg">
<g clip-path="url(#clip0_10607_22042)">
<path d="M7.50065 8.33333C5.20315 8.33333 3.33398 6.46417 3.33398 4.16667C3.33398 1.86917 5.20315 0 7.50065 0C9.79815 0 11.6673 1.86917 11.6673 4.16667C11.6673 6.46417 9.79815 8.33333 7.50065 8.33333ZM7.50065 1.25C5.89232 1.25 4.58398 2.55833 4.58398 4.16667C4.58398 5.775 5.89232 7.08333 7.50065 7.08333C9.10898 7.08333 10.4173 5.775 10.4173 4.16667C10.4173 2.55833 9.10898 1.25 7.50065 1.25Z" fill="#2F648E"/>
<path d="M7.70833 17.5H0.625C0.28 17.5 0 17.22 0 16.875V13.9583C0 11.7758 1.77583 10 3.95833 10H11.0417C11.3867 10 11.6667 10.28 11.6667 10.625C11.6667 10.97 11.3867 11.25 11.0417 11.25H3.95833C2.465 11.25 1.25 12.465 1.25 13.9583V16.25H7.70833C8.05333 16.25 8.33333 16.53 8.33333 16.875C8.33333 17.22 8.05333 17.5 7.70833 17.5Z" fill="#2F648E"/>
<path d="M18.5417 20.0002H11.4583C10.6542 20.0002 10 19.346 10 18.5418V14.7918C10 13.9877 10.6542 13.3335 11.4583 13.3335H18.5417C19.3458 13.3335 20 13.9877 20 14.7918V18.5418C20 19.346 19.3458 20.0002 18.5417 20.0002ZM11.4583 14.5835C11.3433 14.5835 11.25 14.6768 11.25 14.7918V18.5418C11.25 18.6568 11.3433 18.7502 11.4583 18.7502H18.5417C18.6567 18.7502 18.75 18.6568 18.75 18.5418V14.7918C18.75 14.6768 18.6567 14.5835 18.5417 14.5835H11.4583Z" fill="#2F648E"/>
<path d="M16.875 14.5833C16.53 14.5833 16.25 14.3033 16.25 13.9583V12.7083C16.25 12.5933 16.1567 12.5 16.0417 12.5H13.9583C13.8433 12.5 13.75 12.5933 13.75 12.7083V13.9583C13.75 14.3033 13.47 14.5833 13.125 14.5833C12.78 14.5833 12.5 14.3033 12.5 13.9583V12.7083C12.5 11.9042 13.1542 11.25 13.9583 11.25H16.0417C16.8458 11.25 17.5 11.9042 17.5 12.7083V13.9583C17.5 14.3033 17.22 14.5833 16.875 14.5833Z" fill="#2F648E"/>
<path d="M14.9999 17.4998C14.9083 17.4998 14.8166 17.4798 14.7316 17.4389L10.3566 15.3556C10.0449 15.2073 9.91245 14.8348 10.0608 14.5223C10.2091 14.2106 10.5816 14.0789 10.8941 14.2264L14.9999 16.1823L19.1066 14.2264C19.4191 14.0789 19.7916 14.2106 19.9399 14.5223C20.0883 14.8339 19.9558 15.2064 19.6441 15.3556L15.2691 17.4389C15.1833 17.4798 15.0916 17.4998 14.9999 17.4998Z" fill="#2F648E"/>
</g>
<defs>
<clipPath id="clip0_10607_22042">
<rect width="20" height="20" fill="white"/>
</clipPath>
</defs>
</svg>
