<svg width="20" height="20" viewBox="0 0 20 20" fill="none" xmlns="http://www.w3.org/2000/svg">
<g clip-path="url(#clip0_10607_21942)">
<path d="M1.6659 11.9395C1.18105 11.9395 0.787109 11.5759 0.787109 11.1516C0.787109 10.6971 1.15075 10.3638 1.6659 10.3638C2.18105 10.3638 2.54468 10.6971 2.54468 11.1516C2.54468 11.6062 2.18105 11.9395 1.6659 11.9395ZM1.6659 10.9698C1.51438 10.9698 1.39317 11.0607 1.39317 11.1516C1.39317 11.2426 1.51438 11.3335 1.6659 11.3335C1.81741 11.3335 1.93862 11.2426 1.93862 11.1516C1.93862 11.0607 1.81741 10.9698 1.6659 10.9698Z" fill="#2F648E" stroke="#2F648E" stroke-width="0.5"/>
<path d="M10.4529 13.3335C8.90749 13.3335 7.63477 12.0608 7.63477 10.5153V9.45472C7.63477 9.2729 7.75598 9.15169 7.9378 9.15169C8.11961 9.15169 8.24083 9.2729 8.24083 9.45472V10.5153C8.24083 11.7275 9.24083 12.7275 10.4529 12.7275C11.6651 12.7275 12.6651 11.7275 12.6651 10.5153L12.6348 9.12139C12.6348 8.93957 12.756 8.81836 12.9378 8.81836C13.0893 8.81836 13.2408 8.93957 13.2408 9.12139L13.2711 10.5153C13.2711 12.0608 11.9984 13.3335 10.4529 13.3335Z" fill="#2F648E" stroke="#2F648E" stroke-width="0.5"/>
<path d="M13.9694 19.6966H6.90879C5.9997 19.6966 5.30273 18.9996 5.30273 18.0906V17.6663C5.30273 16.9996 5.51486 16.333 5.9391 15.7875C6.36334 15.2421 6.9694 14.8784 7.60577 14.6966H7.66637C8.03001 14.6966 8.36334 14.5148 8.57546 14.2118C8.69667 14.0299 8.75728 13.8178 8.75728 13.636V12.6663C8.75728 12.4845 8.87849 12.3633 9.06031 12.3633C9.24213 12.3633 9.36334 12.4845 9.36334 12.6663V13.636C9.36334 13.9693 9.24213 14.3027 9.06031 14.5754C8.75728 15.0299 8.24213 15.3027 7.69667 15.3027C7.21183 15.4239 6.75728 15.7269 6.39364 16.1512C6.06031 16.6057 5.87849 17.1209 5.87849 17.6663V18.0906C5.87849 18.6663 6.30273 19.0906 6.87849 19.0906H13.9391C14.5149 19.0906 14.9391 18.6663 14.9391 18.0906V17.6663C14.9391 17.1209 14.7573 16.6057 14.4239 16.1512C14.1209 15.7269 13.6664 15.4542 13.1512 15.3027C12.6058 15.3027 12.1512 15.0299 11.7876 14.5754C11.6058 14.3027 11.4846 13.9693 11.4846 13.636V12.6663C11.4846 12.4845 11.6058 12.3633 11.7876 12.3633C11.9694 12.3633 12.0906 12.4845 12.0906 12.6663V13.636C12.0906 13.8481 12.1512 14.0603 12.2724 14.2118C12.4239 14.4239 12.727 14.6966 13.1815 14.6966H13.2421C13.9088 14.8784 14.4846 15.2421 14.9088 15.7875C15.333 16.333 15.5452 16.9996 15.5452 17.6663V18.0906C15.5755 18.9996 14.8785 19.6966 13.9694 19.6966Z" fill="#2F648E" stroke="#2F648E" stroke-width="0.5"/>
<path d="M9.11961 10.06C8.69537 10.06 8.24083 9.96907 7.78628 9.72665C7.69537 9.66604 7.63477 9.57514 7.63477 9.45392C7.63477 7.90847 8.90749 6.63574 10.4529 6.63574C11.9984 6.63574 13.2711 7.90847 13.2711 9.45392C13.2711 9.54483 13.2408 9.63574 13.1499 9.69635C13.059 9.75695 12.9984 9.78726 12.9075 9.75695L11.3317 9.39332C11.3014 9.39332 11.1196 9.48423 10.9984 9.54483C10.5742 9.75695 9.87719 10.06 9.11961 10.06ZM8.24083 9.27211C9.21052 9.72665 10.1196 9.27211 10.7257 8.99938C10.9984 8.87817 11.2105 8.78726 11.362 8.78726H11.3923L12.6045 9.05998C12.4226 8.02968 11.5136 7.2418 10.4226 7.2418C9.30143 7.2418 8.33174 8.15089 8.24083 9.27211Z" fill="#2F648E" stroke="#2F648E" stroke-width="0.5"/>
<path d="M10.4551 15.6363C10.1824 15.6363 9.87933 15.5454 9.6369 15.3636L8.6369 14.6363C8.51569 14.5454 8.48539 14.3333 8.5763 14.2121C8.66721 14.0909 8.87933 14.0606 9.00054 14.1515L10.0005 14.8788C10.2733 15.0909 10.6672 15.0909 10.9399 14.8788L11.9399 14.1515C12.0611 14.0606 12.2733 14.0909 12.3642 14.2121C12.4551 14.3333 12.4248 14.5454 12.3036 14.6363L11.3036 15.3636C11.0611 15.5454 10.7581 15.6363 10.4551 15.6363Z" fill="#2F648E" stroke="#2F648E" stroke-width="0.5"/>
<path d="M10.4534 5.09078C10.3928 5.09078 10.3322 5.06048 10.2716 5.03018C10.211 4.96957 10.1504 4.87866 10.1504 4.78775V1.42412C10.1504 1.2726 10.2413 1.15139 10.3928 1.12109L13.7261 0.302904C13.8171 0.272601 13.908 0.302904 13.9989 0.36351C14.0595 0.424116 14.1201 0.515025 14.1201 0.605934V3.93927C14.1201 4.09078 14.0292 4.212 13.8777 4.2423L10.5443 5.09078C10.514 5.09078 10.4837 5.09078 10.4534 5.09078ZM10.7565 1.66654V4.39381L13.4837 3.69684V0.999874L10.7565 1.66654Z" fill="#2F648E" stroke="#2F648E" stroke-width="0.5"/>
<path d="M10.4547 5.09061C10.4244 5.09061 10.3941 5.09061 10.3941 5.09061L7.06078 4.24213C6.93957 4.21183 6.81836 4.09061 6.81836 3.9391V0.605765C6.81836 0.514856 6.84866 0.423947 6.93957 0.36334C7.00018 0.302734 7.09109 0.302734 7.182 0.302734L10.5153 1.12092C10.6365 1.15122 10.7578 1.27243 10.7578 1.42395V4.78758C10.7578 4.87849 10.7275 4.9694 10.6365 5.03001C10.5759 5.06031 10.5153 5.09061 10.4547 5.09061ZM7.42442 3.69667L10.1517 4.39364V1.66637L7.42442 0.999704V3.69667Z" fill="#2F648E" stroke="#2F648E" stroke-width="0.5"/>
<path d="M2.24053 11.3032C2.05871 11.3032 1.9375 11.1819 1.9375 11.0001V8.57588C1.9375 8.45467 2.02841 8.33346 2.14962 8.27285L4.54356 7.54558C4.63447 7.51528 4.72538 7.54558 4.81629 7.60619C4.9072 7.66679 4.9375 7.7577 4.9375 7.84861V10.2729C4.9375 10.4547 4.81629 10.5759 4.63447 10.5759C4.45265 10.5759 4.33144 10.4547 4.33144 10.2729V8.24255L2.54356 8.788V11.0001C2.54356 11.1819 2.42235 11.3032 2.24053 11.3032Z" fill="#2F648E" stroke="#2F648E" stroke-width="0.5"/>
<path d="M4.06043 11.2418C3.57558 11.2418 3.18164 10.8781 3.18164 10.4539C3.18164 9.99935 3.54528 9.66602 4.06043 9.66602C4.54528 9.66602 4.93922 10.0297 4.93922 10.4539C4.93922 10.9084 4.57558 11.2418 4.06043 11.2418ZM4.06043 10.2721C3.90891 10.2721 3.7877 10.363 3.7877 10.4539C3.7877 10.5448 3.90891 10.6357 4.06043 10.6357C4.21194 10.6357 4.33316 10.5448 4.33316 10.4539C4.33316 10.363 4.21194 10.2721 4.06043 10.2721Z" fill="#2F648E" stroke="#2F648E" stroke-width="0.5"/>
<path d="M18.8785 11.6365H15.6058C15.4239 11.6365 15.3027 11.5153 15.3027 11.3335V8.18194C15.3027 8.00012 15.4239 7.87891 15.6058 7.87891H18.8785C19.0603 7.87891 19.1815 8.00012 19.1815 8.18194V11.3335C19.1815 11.5153 19.0603 11.6365 18.8785 11.6365ZM15.9088 11.0304H18.5755V8.48497H15.9088V11.0304Z" fill="#2F648E" stroke="#2F648E" stroke-width="0.25"/>
<path d="M16.6976 10.6967C16.637 10.6967 16.5763 10.6967 16.546 10.6664C16.4551 10.6058 16.3945 10.5149 16.3945 10.3937V9.09064C16.3945 8.96943 16.4551 8.87852 16.546 8.81792C16.637 8.75731 16.7582 8.75731 16.8491 8.81792L18.1218 9.48458C18.2127 9.54519 18.2733 9.6361 18.2733 9.75731C18.2733 9.87852 18.2127 9.96943 18.0915 10.03L16.8188 10.6664C16.7885 10.6967 16.7582 10.6967 16.6976 10.6967ZM17.0006 9.60579V9.90882L17.3036 9.75731L17.0006 9.60579Z" fill="#2F648E"/>
<path d="M2.96899 7.39458C2.93869 7.39458 2.90839 7.39458 2.87808 7.39458C2.72657 7.33398 2.63566 7.18246 2.66596 7.03095C3.12051 5.39458 4.15081 3.94004 5.57505 2.97034C5.72657 2.87943 5.90839 2.90973 5.9993 3.03095C6.0902 3.18246 6.0599 3.36428 5.93869 3.45519C4.63566 4.36428 3.69627 5.69761 3.27202 7.21276C3.21142 7.30367 3.0902 7.39458 2.96899 7.39458Z" fill="#2F648E" stroke="#2F648E" stroke-width="0.5"/>
<path d="M6.54518 15.8787C6.48458 15.8787 6.45427 15.8787 6.39367 15.8484C4.93912 15.0908 3.727 13.8181 3.06033 12.3029C2.99973 12.1514 3.06033 11.9696 3.21185 11.909C3.36336 11.8484 3.54518 11.909 3.60579 12.0605C4.24215 13.4544 5.33306 14.6059 6.6967 15.3029C6.84821 15.3938 6.90882 15.5756 6.81791 15.6968C6.7573 15.8181 6.66639 15.8787 6.54518 15.8787Z" fill="#2F648E" stroke="#2F648E" stroke-width="0.5"/>
<path d="M13.9381 15.6061C13.8472 15.6061 13.726 15.5455 13.6957 15.4546C13.6048 15.3031 13.6351 15.1213 13.7866 15.0304C14.8472 14.3637 15.6957 13.394 16.2411 12.3031C16.3017 12.1516 16.4835 12.091 16.6351 12.1819C16.7866 12.2425 16.8472 12.4243 16.7563 12.5758C16.1502 13.7576 15.2108 14.8182 14.0593 15.5455C14.0593 15.5758 13.9987 15.6061 13.9381 15.6061Z" fill="#2F648E" stroke="#2F648E" stroke-width="0.5"/>
<path d="M16.9992 7.24177C16.878 7.24177 16.7567 7.15086 16.6961 7.02965C16.3628 5.96905 15.7567 4.96905 14.9386 4.18117C14.8174 4.05996 14.8174 3.87814 14.9386 3.75692C15.0598 3.63571 15.2416 3.63571 15.3628 3.75692C16.2113 4.60541 16.878 5.69632 17.2416 6.84783C17.3022 6.99935 17.2113 7.18117 17.0598 7.24177C17.0598 7.24177 17.0295 7.24177 16.9992 7.24177Z" fill="#2F648E" stroke="#2F648E" stroke-width="0.5"/>
<path d="M7.45342 19.6967C7.2716 19.6967 7.15039 19.5755 7.15039 19.3936V17.6058C7.15039 17.4239 7.2716 17.3027 7.45342 17.3027C7.63524 17.3027 7.75645 17.4239 7.75645 17.6058V19.3936C7.75645 19.5755 7.63524 19.6967 7.45342 19.6967Z" fill="#2F648E" stroke="#2F648E" stroke-width="0.5"/>
<path d="M13.4534 19.6967C13.2716 19.6967 13.1504 19.5755 13.1504 19.3936V17.6058C13.1504 17.4239 13.2716 17.3027 13.4534 17.3027C13.6352 17.3027 13.7565 17.4239 13.7565 17.6058V19.3936C13.7565 19.5755 13.6352 19.6967 13.4534 19.6967Z" fill="#2F648E" stroke="#2F648E" stroke-width="0.5"/>
</g>
<defs>
<clipPath id="clip0_10607_21942">
<rect width="20" height="20" fill="white"/>
</clipPath>
</defs>
</svg>
