<svg width="20" height="20" viewBox="0 0 20 20" fill="none" xmlns="http://www.w3.org/2000/svg">
<path d="M5.83398 6.25L8.28567 7.69953C9.71498 8.54458 10.2863 8.54458 11.7157 7.69953L14.1673 6.25" stroke="#2F648E" stroke-width="1.5" stroke-linecap="round" stroke-linejoin="round"/>
<path d="M18.3293 8.33203C18.3271 8.02643 18.3238 8.1405 18.3195 7.93745C18.2651 5.38207 18.2379 4.10438 17.2953 3.15791C16.3526 2.21143 15.0408 2.17846 12.417 2.11251C10.7999 2.07187 9.19877 2.07187 7.5817 2.11251C4.95796 2.17845 3.64608 2.21141 2.70347 3.15789C1.76087 4.10437 1.73363 5.38205 1.67915 7.93743C1.66163 8.75911 1.66164 9.57586 1.67916 10.3975C1.73363 12.9529 1.76087 14.2306 2.70348 15.1771C3.64608 16.1235 4.95796 16.1565 7.58171 16.2224C8.08835 16.2352 8.74577 16.2439 9.16602 16.2487" stroke="#2F648E" stroke-width="1.5" stroke-linecap="round" stroke-linejoin="round"/>
<path d="M12.9891 15.5402C12.4651 15.8473 11.0913 16.4744 11.928 17.2592C12.3368 17.6425 12.792 17.9167 13.3644 17.9167H16.6304C17.2028 17.9167 17.658 17.6425 18.0667 17.2592C18.9036 16.4744 17.5297 15.8473 17.0057 15.5402C15.7769 14.8199 14.2178 14.8199 12.9891 15.5402Z" stroke="#2F648E" stroke-width="1.5"/>
<path d="M16.6634 11.6667C16.6634 12.5872 15.9172 13.3333 14.9967 13.3333C14.0762 13.3333 13.3301 12.5872 13.3301 11.6667C13.3301 10.7462 14.0762 10 14.9967 10C15.9172 10 16.6634 10.7462 16.6634 11.6667Z" stroke="#2F648E" stroke-width="1.5"/>
</svg>
