<svg width="20" height="20" viewBox="0 0 20 20" fill="none" xmlns="http://www.w3.org/2000/svg">
<g clip-path="url(#clip0_10607_21904)">
<path d="M12.4484 14.5081C12.2294 14.5081 12.0024 14.5081 11.7457 14.473C10.1605 14.3049 8.67967 13.6028 7.54617 12.4821C6.41267 11.3613 5.69388 9.88852 5.50781 8.30541L6.04835 8.24595C6.21953 9.70194 6.88029 11.0566 7.92231 12.0878C8.96433 13.119 10.3258 13.7656 11.7835 13.9216H11.7997C12.0375 13.9432 12.2511 13.9541 12.4511 13.9541C12.9761 13.9654 13.5003 13.9081 14.0105 13.7838C15.1175 13.5045 16.1304 12.936 16.9455 12.1365C17.7605 11.337 18.3483 10.3352 18.6488 9.23372C18.9492 8.13225 18.9514 6.97072 18.6553 5.8681C18.3591 4.76548 17.7751 3.76141 16.9632 2.95873C16.1513 2.15606 15.1406 1.58364 14.0347 1.3001C12.9288 1.01656 11.7673 1.03211 10.6694 1.34513C9.57142 1.65816 8.57641 2.25743 7.78626 3.08154C6.99612 3.90565 6.43924 4.92499 6.17268 6.03514L5.64835 5.91081C5.93468 4.70607 6.53631 3.59916 7.39153 2.70362C8.24675 1.80808 9.32478 1.15614 10.5151 0.814649C11.7054 0.47316 12.965 0.45442 14.165 0.760351C15.3649 1.06628 16.4618 1.68587 17.3433 2.55558C18.2248 3.42528 18.8591 4.5138 19.1811 5.70949C19.5032 6.90519 19.5014 8.16502 19.1759 9.35979C18.8505 10.5546 18.2131 11.6413 17.3291 12.5085C16.4451 13.3756 15.3464 13.9921 14.1457 14.2946C13.5913 14.438 13.0209 14.5098 12.4484 14.5081Z" fill="#2F648E" stroke="#2F648E" stroke-width="0.5"/>
<path d="M12.4475 12.3572C12.3205 12.3572 12.2016 12.3572 12.0827 12.3572C10.9377 12.2745 9.86014 11.7849 9.04473 10.9769C8.22931 10.169 7.72988 9.09591 7.63672 7.95177L8.17726 7.90312C8.26137 8.91527 8.70393 9.86418 9.42531 10.5791C10.1467 11.2941 11.0995 11.7281 12.1124 11.8031H12.4475C13.0216 11.804 13.5899 11.6881 14.1178 11.4626C14.7693 11.1891 15.3432 10.7591 15.7886 10.2106C16.234 9.66207 16.537 9.0121 16.6709 8.31835C16.8048 7.62459 16.7653 6.90851 16.556 6.23368C16.3467 5.55884 15.974 4.94612 15.471 4.44989C14.9681 3.95367 14.3504 3.5893 13.6728 3.38911C12.9952 3.18893 12.2786 3.15913 11.5867 3.30236C10.8948 3.4456 10.249 3.75743 9.70659 4.21018C9.16415 4.66293 8.74188 5.24259 8.47726 5.89772L7.97726 5.69502C8.3097 4.88624 8.85559 4.18296 9.55663 3.6603C10.2577 3.13764 11.0875 2.81522 11.9575 2.72748C12.8276 2.63975 13.7051 2.79 14.4963 3.16218C15.2876 3.53436 15.9629 4.11449 16.4501 4.84061C16.9374 5.56672 17.2182 6.41155 17.2626 7.28485C17.3071 8.15816 17.1134 9.02713 16.7024 9.79895C16.2914 10.5708 15.6785 11.2165 14.9291 11.667C14.1797 12.1176 13.322 12.3561 12.4475 12.3572Z" fill="#2F648E" stroke="#2F648E" stroke-width="0.5"/>
<path d="M7.55083 19.4598C5.84703 19.4583 4.20249 18.8343 2.9266 17.7051C1.6507 16.5759 0.831416 15.0194 0.622865 13.3284C0.414314 11.6375 0.830877 9.92854 1.79418 8.5232C2.75749 7.11786 4.20114 6.11298 5.85353 5.69759C6.40893 5.56085 6.97885 5.49188 7.55083 5.49219C7.76164 5.49219 7.98867 5.49219 8.25083 5.52732C9.83769 5.69154 11.321 6.39225 12.4557 7.51367C13.5904 8.63508 14.3085 10.1101 14.4914 11.6949L13.9508 11.7544C13.7798 10.2951 13.1166 8.93771 12.0706 7.90595C11.0246 6.87419 9.65823 6.22968 8.19678 6.07868C7.95083 6.05705 7.74542 6.04624 7.54813 6.04624C7.0199 6.04604 6.49357 6.10956 5.98056 6.23543C4.87148 6.51357 3.85635 7.08171 3.03928 7.88159C2.22221 8.68146 1.63261 9.68428 1.33095 10.7872C1.02929 11.8901 1.02644 13.0534 1.32267 14.1578C1.61891 15.2622 2.20358 16.2679 3.01671 17.0717C3.82984 17.8756 4.84217 18.4487 5.94987 18.7323C7.05757 19.0159 8.22076 18.9997 9.32014 18.6855C10.4195 18.3712 11.4155 17.7702 12.206 16.944C12.9965 16.1178 13.553 15.0963 13.8184 13.9841L14.3589 14.1084C13.9983 15.6398 13.1282 17.0032 11.8913 17.9755C10.6545 18.9477 9.12404 19.471 7.55083 19.4598Z" fill="#2F648E" stroke="#2F648E" stroke-width="0.5"/>
<path d="M7.5522 17.2976C6.44161 17.2922 5.36683 16.9042 4.50889 16.1989C3.65095 15.4937 3.06227 14.5143 2.84203 13.4258C2.62178 12.3372 2.78341 11.206 3.29971 10.2227C3.816 9.23943 4.6554 8.46411 5.67652 8.02736C6.27456 7.77234 6.91827 7.64176 7.56841 7.64357H7.93328C9.07134 7.74102 10.1388 8.23581 10.9487 9.04126C11.7586 9.84672 12.2593 10.9115 12.363 12.049L11.8225 12.0976C11.7268 11.0897 11.2806 10.1473 10.5615 9.43467C9.8424 8.72199 8.89605 8.28422 7.88733 8.19763C7.77652 8.19763 7.66841 8.19763 7.5522 8.19763C6.97811 8.19676 6.40985 8.31262 5.88193 8.53817C5.2305 8.81085 4.65649 9.24017 4.21084 9.78799C3.76519 10.3358 3.4617 10.9852 3.32732 11.6785C3.19293 12.3718 3.23181 13.0875 3.44049 13.7622C3.64917 14.4368 4.02121 15.0495 4.52357 15.5459C5.02593 16.0422 5.64307 16.4068 6.32019 16.6073C6.99732 16.8079 7.71348 16.8381 8.4051 16.6954C9.09672 16.5526 9.74239 16.2413 10.2848 15.7891C10.8272 15.3369 11.2496 14.7577 11.5144 14.103L11.5846 13.9328H11.7657V14.203L12.0144 14.303C11.6554 15.1912 11.0383 15.9513 10.2429 16.4852C9.44743 17.019 8.51016 17.302 7.5522 17.2976Z" fill="#2F648E" stroke="#2F648E" stroke-width="0.5"/>
</g>
<defs>
<clipPath id="clip0_10607_21904">
<rect width="20" height="20" fill="white"/>
</clipPath>
</defs>
</svg>
