<svg width="20" height="22" viewBox="0 0 20 22" fill="none" xmlns="http://www.w3.org/2000/svg">
<path d="M12.7506 10.072C12.7081 10.0649 12.6585 10.0649 12.616 10.072C11.6385 10.0366 10.8594 9.23616 10.8594 8.24449C10.8594 7.23158 11.674 6.41699 12.6869 6.41699C13.6998 6.41699 14.5144 7.23866 14.5144 8.24449C14.5073 9.23616 13.7281 10.0366 12.7506 10.072Z" stroke="#2F648E" stroke-width="1.5" stroke-linecap="round" stroke-linejoin="round"/>
<path d="M12.0213 15.2288C12.9917 15.3917 14.0613 15.2217 14.8121 14.7188C15.8108 14.0529 15.8108 12.9621 14.8121 12.2963C14.0542 11.7934 12.9704 11.6234 12 11.7934" stroke="#2F648E" stroke-width="1.5" stroke-linecap="round" stroke-linejoin="round"/>
<path d="M4.2286 10.072C4.2711 10.0649 4.32068 10.0649 4.36318 10.072C5.34068 10.0366 6.11984 9.23616 6.11984 8.24449C6.11984 7.23158 5.30526 6.41699 4.29235 6.41699C3.27943 6.41699 2.46484 7.23866 2.46484 8.24449C2.47193 9.23616 3.25109 10.0366 4.2286 10.072Z" stroke="#2F648E" stroke-width="1.5" stroke-linecap="round" stroke-linejoin="round"/>
<path d="M4.95786 15.2288C3.98745 15.3917 2.91786 15.2217 2.16703 14.7188C1.16828 14.0529 1.16828 12.9621 2.16703 12.2963C2.92495 11.7934 4.0087 11.6234 4.97911 11.7934" stroke="#2F648E" stroke-width="1.5" stroke-linecap="round" stroke-linejoin="round"/>
<path d="M8.49867 15.363C8.45617 15.3559 8.40659 15.3559 8.36409 15.363C7.38659 15.3276 6.60742 14.5272 6.60742 13.5355C6.60742 12.5226 7.422 11.708 8.43492 11.708C9.44784 11.708 10.2624 12.5297 10.2624 13.5355C10.2553 14.5272 9.47617 15.3347 8.49867 15.363Z" stroke="#2F648E" stroke-width="1.5" stroke-linecap="round" stroke-linejoin="round"/>
<path d="M6.43852 17.5944C5.43977 18.2602 5.43977 19.351 6.43852 20.0169C7.57185 20.7748 9.42768 20.7748 10.561 20.0169C11.5598 19.351 11.5598 18.2602 10.561 17.5944C9.43477 16.8435 7.57185 16.8435 6.43852 17.5944Z" stroke="#2F648E" stroke-width="1.5" stroke-linecap="round" stroke-linejoin="round"/>
<path d="M8.32 7.73154C8.23513 7.73154 8.15374 7.70076 8.09373 7.64596C8.03371 7.59117 8 7.51685 8 7.43936V1.64081C8 1.56332 8.03371 1.489 8.09373 1.43421C8.15374 1.37942 8.23513 1.34863 8.32 1.34863C8.40487 1.34863 8.48626 1.37942 8.54627 1.43421C8.60629 1.489 8.64 1.56332 8.64 1.64081V7.43936C8.64 7.51685 8.60629 7.59117 8.54627 7.64596C8.48626 7.70076 8.40487 7.73154 8.32 7.73154Z" fill="#2F648E" stroke="#2F648E" stroke-width="0.5"/>
<path d="M9.209 4.98184C8.7866 4.98184 8.4052 4.79595 8.0728 4.42726C8.02576 4.37489 8.00004 4.30927 8 4.24154V1.65343C8.00001 1.59325 8.02037 1.53454 8.05831 1.48532C8.09625 1.4361 8.1499 1.39878 8.21195 1.37846C8.27399 1.35814 8.3414 1.35581 8.40495 1.37178C8.4685 1.38776 8.52509 1.42126 8.567 1.46772C9.067 2.02285 9.4894 1.82746 10.2534 1.40362C10.6248 1.19782 11.008 0.985997 11.4212 0.927744C11.9274 0.857623 12.38 1.03932 12.7662 1.46772C12.8134 1.52002 12.8392 1.58567 12.8392 1.65343V4.24154C12.8392 4.30177 12.8189 4.36054 12.7809 4.4098C12.743 4.45907 12.6893 4.49642 12.6272 4.51675C12.5651 4.53708 12.4977 4.53939 12.4341 4.52337C12.3705 4.50735 12.3139 4.47378 12.272 4.42726C11.772 3.87213 11.3496 4.06752 10.5856 4.49117C10.2146 4.69697 9.831 4.90989 9.4178 4.96723C9.3487 4.97684 9.2789 4.98172 9.209 4.98184ZM8.64 4.13198C9.1094 4.59124 9.5268 4.39494 10.2534 3.99192C10.6244 3.78612 11.008 3.5732 11.4212 3.51586C11.6867 3.47643 11.9591 3.51478 12.1992 3.62542V1.76281C11.7296 1.30337 11.3124 1.49986 10.5856 1.90288C10.2148 2.10868 9.831 2.3216 9.4178 2.37875C9.15237 2.41829 8.88004 2.37992 8.64 2.26919V4.13198Z" fill="#2F648E" stroke="#2F648E" stroke-width="0.5"/>
</svg>
