<svg width="20" height="20" viewBox="0 0 20 20" fill="none" xmlns="http://www.w3.org/2000/svg">
<path d="M6.66602 1.6665V4.1665" stroke="#2F648E" stroke-width="1.5" stroke-miterlimit="10" stroke-linecap="round" stroke-linejoin="round"/>
<path d="M13.334 1.6665V4.1665" stroke="#2F648E" stroke-width="1.5" stroke-miterlimit="10" stroke-linecap="round" stroke-linejoin="round"/>
<path d="M17.5 7.08317V11.3582C16.7583 10.7665 15.8167 10.4165 14.7917 10.4165C13.7667 10.4165 12.8083 10.7748 12.0583 11.3831C11.05 12.1748 10.4167 13.4165 10.4167 14.7915C10.4167 15.6082 10.65 16.3915 11.05 17.0415C11.3583 17.5498 11.7583 17.9915 12.2333 18.3332H6.66667C3.75 18.3332 2.5 16.6665 2.5 14.1665V7.08317C2.5 4.58317 3.75 2.9165 6.66667 2.9165H13.3333C16.25 2.9165 17.5 4.58317 17.5 7.08317Z" stroke="#2F648E" stroke-width="1.5" stroke-miterlimit="10" stroke-linecap="round" stroke-linejoin="round"/>
<path d="M5.83398 9.1665H10.834" stroke="#2F648E" stroke-width="1.5" stroke-miterlimit="10" stroke-linecap="round" stroke-linejoin="round"/>
<path d="M5.83398 13.3335H8.01731" stroke="#2F648E" stroke-width="1.5" stroke-miterlimit="10" stroke-linecap="round" stroke-linejoin="round"/>
<path d="M19.166 14.7915C19.166 15.6082 18.9327 16.3915 18.5327 17.0415C18.2993 17.4415 18.0077 17.7915 17.666 18.0748C16.8994 18.7582 15.8993 19.1665 14.791 19.1665C13.8327 19.1665 12.9493 18.8582 12.2327 18.3332C11.7577 17.9915 11.3577 17.5498 11.0494 17.0415C10.6494 16.3915 10.416 15.6082 10.416 14.7915C10.416 13.4165 11.0493 12.1748 12.0577 11.3831C12.8077 10.7748 13.766 10.4165 14.791 10.4165C15.816 10.4165 16.7577 10.7665 17.4993 11.3582C18.516 12.1582 19.166 13.3998 19.166 14.7915Z" stroke="#2F648E" stroke-width="1.5" stroke-miterlimit="10" stroke-linecap="round" stroke-linejoin="round"/>
<path d="M14.7923 16.8752C14.7923 15.7252 15.7257 14.7918 16.8757 14.7918C15.7257 14.7918 14.7923 13.8585 14.7923 12.7085C14.7923 13.8585 13.859 14.7918 12.709 14.7918C13.859 14.7918 14.7923 15.7252 14.7923 16.8752Z" stroke="#2F648E" stroke-width="1.5" stroke-linecap="round" stroke-linejoin="round"/>
</svg>
