<svg width="20" height="20" viewBox="0 0 20 20" fill="none" xmlns="http://www.w3.org/2000/svg">
<path d="M7.49935 1.6665H12.4993C16.666 1.6665 18.3327 3.33317 18.3327 7.49984V12.4998C18.3327 16.6665 16.666 18.3332 12.4993 18.3332H7.49935C3.33268 18.3332 1.66602 16.6665 1.66602 12.4998V7.49984C1.66602 3.33317 3.33268 1.6665 7.49935 1.6665Z" stroke="#2F648E" stroke-width="1.5" stroke-linecap="round" stroke-linejoin="round"/>
<path d="M7.14258 12.7249L12.5926 7.2749" stroke="#2F648E" stroke-width="1.5" stroke-linecap="round" stroke-linejoin="round"/>
<path d="M7.48399 8.64179C8.05009 8.64179 8.50898 8.1829 8.50898 7.61681C8.50898 7.05071 8.05009 6.5918 7.48399 6.5918C6.9179 6.5918 6.45898 7.05071 6.45898 7.61681C6.45898 8.1829 6.9179 8.64179 7.48399 8.64179Z" stroke="#2F648E" stroke-width="1.5" stroke-linecap="round" stroke-linejoin="round"/>
<path d="M12.9332 13.4084C13.4993 13.4084 13.9582 12.9495 13.9582 12.3834C13.9582 11.8173 13.4993 11.3584 12.9332 11.3584C12.3671 11.3584 11.9082 11.8173 11.9082 12.3834C11.9082 12.9495 12.3671 13.4084 12.9332 13.4084Z" stroke="#2F648E" stroke-width="1.5" stroke-linecap="round" stroke-linejoin="round"/>
</svg>
