<svg width="20" height="20" viewBox="0 0 20 20" fill="none" xmlns="http://www.w3.org/2000/svg">
<path d="M14.168 17.5H5.83463C2.5013 17.5 1.66797 16.6667 1.66797 13.3333V6.66667C1.66797 3.33333 2.5013 2.5 5.83463 2.5H14.168C17.5013 2.5 18.3346 3.33333 18.3346 6.66667V13.3333C18.3346 16.6667 17.5013 17.5 14.168 17.5Z" stroke="#2F648E" stroke-width="1.5" stroke-linecap="round" stroke-linejoin="round"/>
<path d="M11.668 6.66699H15.8346" stroke="#2F648E" stroke-width="1.5" stroke-linecap="round" stroke-linejoin="round"/>
<path d="M12.5 10H15.8333" stroke="#2F648E" stroke-width="1.5" stroke-linecap="round" stroke-linejoin="round"/>
<path d="M14.168 13.333H15.8346" stroke="#2F648E" stroke-width="1.5" stroke-linecap="round" stroke-linejoin="round"/>
<path d="M7.08451 9.40827C7.91753 9.40827 8.59284 8.73296 8.59284 7.89993C8.59284 7.0669 7.91753 6.3916 7.08451 6.3916C6.25148 6.3916 5.57617 7.0669 5.57617 7.89993C5.57617 8.73296 6.25148 9.40827 7.08451 9.40827Z" stroke="#2F648E" stroke-width="1.5" stroke-linecap="round" stroke-linejoin="round"/>
<path d="M10.0013 13.6085C9.88464 12.4001 8.9263 11.4501 7.71797 11.3418C7.3013 11.3001 6.8763 11.3001 6.4513 11.3418C5.24297 11.4585 4.28464 12.4001 4.16797 13.6085" stroke="#2F648E" stroke-width="1.5" stroke-linecap="round" stroke-linejoin="round"/>
</svg>
