<svg width="18" height="20" viewBox="0 0 18 20" fill="none" xmlns="http://www.w3.org/2000/svg">
<path fill-rule="evenodd" clip-rule="evenodd" d="M14.0642 10.2199H17.3254C17.4987 10.2199 17.6391 10.3604 17.6391 10.5336V12.2139C17.6391 12.3437 17.5592 12.4601 17.4381 12.5067C17.4381 12.5067 16.2111 12.979 16.2111 12.9789C16.0395 13.6339 15.778 14.2614 15.4369 14.8464L15.9699 16.0498C16.0224 16.1684 15.9966 16.307 15.9049 16.3987L14.3125 17.9912C14.2208 18.0828 14.0821 18.1087 13.9636 18.0562C13.9636 18.0562 12.7607 17.5234 12.7608 17.5234C12.1771 17.866 11.548 18.1261 10.8927 18.2974L10.4204 19.5243C10.3738 19.6455 10.2574 19.7254 10.1276 19.7254H7.87509C7.74529 19.7254 7.6289 19.6455 7.58231 19.5243C7.58231 19.5243 7.11007 18.2974 7.11011 18.2974C6.45325 18.1259 5.82545 17.8643 5.24035 17.5231L4.0369 18.0562C3.91835 18.1087 3.77968 18.0828 3.688 17.9912L2.09556 16.3987C2.00376 16.3069 1.978 16.168 2.03074 16.0494C2.03074 16.0494 2.56545 14.8468 2.56549 14.8468C2.22294 14.2633 1.96282 13.6343 1.78988 12.9791L0.562348 12.5067C0.44125 12.4601 0.361328 12.3437 0.361328 12.2139V10.5336C0.361328 10.3604 0.50176 10.2199 0.675054 10.2199H3.93623C4.04376 7.51563 6.26956 5.35677 9.00023 5.35677C11.7309 5.35677 13.9567 7.51563 14.0642 10.2199ZM3.94952 10.8474H0.988779V11.9985L2.16694 12.4519C2.26321 12.489 2.33513 12.571 2.35925 12.6713C2.52843 13.3739 2.80588 14.0462 3.18537 14.6599C3.23992 14.7481 3.24733 14.8575 3.20521 14.9523L2.6916 16.1074L3.97952 17.3953L5.13478 16.8836C5.22905 16.8418 5.3378 16.8491 5.42572 16.9029C6.04164 17.2803 6.71176 17.5602 7.41658 17.7272C7.51737 17.751 7.59988 17.8231 7.63705 17.9198L8.09051 19.0979H9.91223L10.3657 17.9198C10.4029 17.8232 10.4853 17.7512 10.5859 17.7272C11.2882 17.5603 11.9602 17.283 12.5736 16.9036C12.6617 16.8492 12.771 16.8417 12.8657 16.8836L14.0209 17.3953L15.3091 16.1072L14.7974 14.9519C14.7556 14.8577 14.7628 14.7489 14.8167 14.661C15.1941 14.045 15.474 13.3749 15.641 12.6722C15.6649 12.5715 15.7369 12.4891 15.8335 12.4519L17.0117 11.9985V10.8474H14.0509C13.8363 13.4489 11.6573 15.4929 9.00023 15.4929C6.34321 15.4929 4.16419 13.4489 3.94952 10.8474ZM12.4856 13.1769C13.0838 12.4203 13.4409 11.4643 13.4409 10.4248C13.4409 7.9721 11.453 5.98422 9.00023 5.98422C6.54749 5.98422 4.5596 7.9721 4.5596 10.4248C4.5596 11.4643 4.91666 12.4203 5.51486 13.1769C5.84325 12.0606 6.69313 11.1673 7.78231 10.7795C7.31164 10.4142 7.00749 9.84343 7.00749 9.20477C7.00749 8.10841 7.90388 7.21202 9.00023 7.21202C10.0966 7.21202 10.993 8.10841 10.993 9.20477C10.993 9.84343 10.6888 10.4142 10.2182 10.7795C11.3073 11.1673 12.1572 12.0606 12.4856 13.1769ZM6.03239 13.7283C6.81886 14.4353 7.85925 14.8654 9.00023 14.8654C10.1412 14.8654 11.1816 14.4353 11.9681 13.7283C11.7402 12.2941 10.4978 11.1976 9.00023 11.1976C7.50262 11.1976 6.26027 12.2941 6.03239 13.7283ZM9.00023 10.5701C9.75137 10.5701 10.3655 9.95594 10.3655 9.20477C10.3655 8.45363 9.75137 7.83947 9.00023 7.83947C8.24909 7.83947 7.63494 8.45363 7.63494 9.20477C7.63494 9.95594 8.24909 10.5701 9.00023 10.5701ZM9.00023 0.274414C9.77611 0.274414 10.406 0.904336 10.406 1.68018C10.406 2.45606 9.77611 3.08594 9.00023 3.08594C8.22435 3.08594 7.59447 2.45606 7.59447 1.68018C7.59447 0.904336 8.22435 0.274414 9.00023 0.274414ZM9.00023 0.901865C8.57066 0.901865 8.22192 1.25061 8.22192 1.68018C8.22192 2.10975 8.57066 2.45849 9.00023 2.45849C9.4298 2.45849 9.77854 2.10975 9.77854 1.68018C9.77854 1.25061 9.4298 0.901865 9.00023 0.901865ZM8.68651 3.59179C8.68651 3.41865 8.82709 3.27806 9.00023 3.27806C9.17337 3.27806 9.31396 3.41865 9.31396 3.59179V4.85096C9.31396 5.0241 9.17337 5.16469 9.00023 5.16469C8.82709 5.16469 8.68651 5.0241 8.68651 4.85096V3.59179ZM16.1777 3.24739C16.7263 3.79602 16.7263 4.68685 16.1777 5.23547C15.6291 5.7841 14.7382 5.7841 14.1896 5.23547C13.641 4.68685 13.641 3.79602 14.1896 3.24739C14.7382 2.69877 15.6291 2.69877 16.1777 3.24739ZM15.734 3.69108C15.4302 3.38732 14.937 3.38732 14.6333 3.69108C14.3295 3.99485 14.3295 4.48806 14.6333 4.79179C14.937 5.09555 15.4302 5.09555 15.734 4.79179C16.0378 4.48806 16.0378 3.99485 15.734 3.69108ZM13.6101 5.37132C13.7325 5.24885 13.9313 5.24885 14.0538 5.37132C14.1762 5.49375 14.1762 5.69253 14.0538 5.81496L13.1634 6.70535C13.041 6.82779 12.8422 6.82779 12.7197 6.70535C12.5973 6.58292 12.5973 6.3841 12.7197 6.26167L13.6101 5.37132ZM1.82278 3.24739C2.37141 2.69877 3.26223 2.69877 3.81086 3.24739C4.35949 3.79602 4.35949 4.68685 3.81086 5.23547C3.26223 5.7841 2.37141 5.7841 1.82278 5.23547C1.27419 4.68685 1.27419 3.79602 1.82278 3.24739ZM2.26647 3.69108C1.9627 3.99485 1.9627 4.48806 2.26647 4.79179C2.57023 5.09555 3.06345 5.09555 3.36717 4.79179C3.67094 4.48806 3.67094 3.99485 3.36717 3.69108C3.06345 3.38732 2.57023 3.38732 2.26647 3.69108ZM3.9467 5.81496C3.82427 5.69253 3.82427 5.49375 3.9467 5.37132C4.06913 5.24885 4.26792 5.24885 4.39035 5.37132L5.28074 6.26167C5.40317 6.3841 5.40317 6.58292 5.28074 6.70535C5.15831 6.82779 4.95949 6.82779 4.83705 6.70535L3.9467 5.81496Z" fill="#2F648E" stroke="#2F648E" stroke-width="0.5"/>
</svg>
