<svg width="20" height="20" viewBox="0 0 20 20" fill="none" xmlns="http://www.w3.org/2000/svg">
<path d="M15.1161 18.0166C14.3828 18.2333 13.5161 18.3333 12.4995 18.3333H7.49948C6.48281 18.3333 5.61615 18.2333 4.88281 18.0166C5.06615 15.85 7.29115 14.1416 9.99948 14.1416C12.7078 14.1416 14.9328 15.85 15.1161 18.0166Z" stroke="#2F648E" stroke-width="1.5" stroke-linecap="round" stroke-linejoin="round"/>
<path d="M12.4993 1.6665H7.49935C3.33268 1.6665 1.66602 3.33317 1.66602 7.49984V12.4998C1.66602 15.6498 2.61602 17.3748 4.88268 18.0165C5.06602 15.8498 7.29102 14.1415 9.99935 14.1415C12.7077 14.1415 14.9327 15.8498 15.116 18.0165C17.3827 17.3748 18.3327 15.6498 18.3327 12.4998V7.49984C18.3327 3.33317 16.666 1.6665 12.4993 1.6665ZM9.99935 11.8082C8.34935 11.8082 7.01601 10.4665 7.01601 8.81652C7.01601 7.16652 8.34935 5.83317 9.99935 5.83317C11.6493 5.83317 12.9827 7.16652 12.9827 8.81652C12.9827 10.4665 11.6493 11.8082 9.99935 11.8082Z" stroke="#2F648E" stroke-width="1.5" stroke-linecap="round" stroke-linejoin="round"/>
<path d="M12.9842 8.81684C12.9842 10.4668 11.6509 11.8085 10.0009 11.8085C8.35091 11.8085 7.01758 10.4668 7.01758 8.81684C7.01758 7.16684 8.35091 5.8335 10.0009 5.8335C11.6509 5.8335 12.9842 7.16684 12.9842 8.81684Z" stroke="#2F648E" stroke-width="1.5" stroke-linecap="round" stroke-linejoin="round"/>
</svg>
