<svg width="75" height="30" viewBox="0 0 75 30" fill="none" xmlns="http://www.w3.org/2000/svg">
<g filter="url(#filter0_di_3_10582)">
<path d="M69 -1.47368C57 5.45452 57.0501 26 38.0167 26C18.9834 26 17.1734 3.97501 7.84603 -1.47368C-8.77326 -11.182 21.3539 -32 38.0167 -32C54.6795 -32 81 -8.40189 69 -1.47368Z" fill="#2FBBA4"/>
<path d="M38.0166 -31.5C42.0752 -31.5 46.7651 -30.0594 51.3506 -27.7578C55.9299 -25.4593 60.3677 -22.3213 63.9141 -18.9717C67.4702 -15.6128 70.0862 -12.0818 71.0889 -9.01074C71.5883 -7.48111 71.677 -6.09998 71.3193 -4.91895C70.9872 -3.82233 70.2554 -2.84795 69.0068 -2.06152L68.75 -1.90625C65.6568 -0.120321 63.3592 2.53222 61.3604 5.45996C60.3606 6.92426 59.4294 8.46544 58.5117 10.0078C57.5916 11.5542 56.6862 13.0997 55.7256 14.5908C53.8044 17.5731 51.6923 20.295 48.9102 22.2744C46.1393 24.2458 42.6757 25.5 38.0166 25.5C28.7533 25.4999 23.6744 20.1681 19.7119 14.0352C18.7203 12.5003 17.8023 10.9208 16.9062 9.36426C16.0123 7.81138 15.1379 6.27726 14.2422 4.85156C12.4569 2.01008 10.5413 -0.478202 8.09863 -1.90527C6.08174 -3.08346 4.81659 -4.40545 4.13672 -5.79297C3.45954 -7.17504 3.34095 -8.66614 3.69336 -10.2295C4.40523 -13.387 7.03313 -16.8113 10.7744 -19.9971C14.5004 -23.1698 19.2654 -26.0497 24.1328 -28.1357C29.0054 -30.224 33.9428 -31.5 38.0166 -31.5Z" stroke="#2FBBA4"/>
</g>
<path d="M43.25 7.5L37 13.75L30.75 7.5" stroke="white" stroke-width="1.5" stroke-linecap="round" stroke-linejoin="round"/>
<defs>
<filter id="filter0_di_3_10582" x="0.6" y="-35" width="75.4365" height="64.4" filterUnits="userSpaceOnUse" color-interpolation-filters="sRGB">
<feFlood flood-opacity="0" result="BackgroundImageFix"/>
<feColorMatrix in="SourceAlpha" type="matrix" values="0 0 0 0 0 0 0 0 0 0 0 0 0 0 0 0 0 0 127 0" result="hardAlpha"/>
<feMorphology radius="1" operator="dilate" in="SourceAlpha" result="effect1_dropShadow_3_10582"/>
<feOffset dy="1"/>
<feGaussianBlur stdDeviation="0.7"/>
<feComposite in2="hardAlpha" operator="out"/>
<feColorMatrix type="matrix" values="0 0 0 0 0.184314 0 0 0 0 0.733333 0 0 0 0 0.643137 0 0 0 0.1 0"/>
<feBlend mode="normal" in2="BackgroundImageFix" result="effect1_dropShadow_3_10582"/>
<feBlend mode="normal" in="SourceGraphic" in2="effect1_dropShadow_3_10582" result="shape"/>
<feColorMatrix in="SourceAlpha" type="matrix" values="0 0 0 0 0 0 0 0 0 0 0 0 0 0 0 0 0 0 127 0" result="hardAlpha"/>
<feOffset dx="4" dy="-3"/>
<feGaussianBlur stdDeviation="2"/>
<feComposite in2="hardAlpha" operator="arithmetic" k2="-1" k3="1"/>
<feColorMatrix type="matrix" values="0 0 0 0 0 0 0 0 0 0 0 0 0 0 0 0 0 0 0.25 0"/>
<feBlend mode="normal" in2="shape" result="effect2_innerShadow_3_10582"/>
</filter>
</defs>
</svg>
