<svg width="88" height="115" viewBox="0 0 88 115" fill="none" xmlns="http://www.w3.org/2000/svg">
<g clip-path="url(#clip0_946_4541)">
<path d="M85.9954 3.06949V112.417C85.9954 113.18 85.3761 113.781 84.6102 113.781H28.2739C27.5079 113.781 26.8887 113.18 26.8887 112.417V3.08573C26.8887 2.32231 27.5079 1.70508 28.2739 1.70508H84.6102C85.3761 1.70508 85.9954 2.32231 85.9954 3.06949Z" fill="url(#paint0_linear_946_4541)"/>
<path d="M84.3656 5.58789V101.827H28.502V5.58789H84.3656Z" fill="url(#paint1_linear_946_4541)"/>
<path d="M61.1271 108.454H51.7567C51.2352 108.454 50.8115 108.032 50.8115 107.512C50.8115 107.008 51.2352 106.586 51.7567 106.586H61.1271C61.6486 106.586 62.0723 107.008 62.0723 107.512C62.0723 108.032 61.6486 108.454 61.1271 108.454Z" fill="#3F85D1"/>
<path d="M57.1182 3.88276C57.1182 4.25635 56.8086 4.56496 56.4338 4.56496C56.059 4.56496 55.7656 4.25635 55.7656 3.88276C55.7656 3.50917 56.059 3.2168 56.4338 3.2168C56.8086 3.2168 57.1182 3.50917 57.1182 3.88276Z" fill="#3F85D1"/>
<path d="M49.3288 31.0411C50.3391 30.1315 51.5125 29.4493 52.7673 29.0432L53.0117 30.7812L58.6177 26.4281L52.0339 23.748L52.2784 25.5023C50.3228 26.3144 48.5954 27.5651 47.2917 29.1407C45.6458 31.0736 44.7006 33.5101 44.4888 35.9465C44.2769 38.3667 44.8473 40.8194 46.0369 42.8497C47.2102 44.8801 49.0191 46.4719 51.0562 47.4465C49.1658 46.212 47.6828 44.4416 46.868 42.4274C46.0532 40.4296 45.8576 38.2205 46.3302 36.2064C46.7865 34.1923 47.8458 32.3731 49.3288 31.0411Z" fill="url(#paint2_linear_946_4541)"/>
<path d="M66.7986 32.4527C65.5601 30.3412 63.6535 28.7169 61.5023 27.791C63.5068 28.993 65.1038 30.796 65.9675 32.8588C66.8475 34.9217 67.0431 37.2119 66.5216 39.3073C66.0327 41.3863 64.892 43.2705 63.3275 44.5862C62.3172 45.4308 61.1601 46.0643 59.9542 46.4379L59.7097 44.7649L54.1201 49.1505L60.7364 51.7818L60.4594 49.8976C62.3335 49.1667 63.9957 48.0135 65.2994 46.5516C67.0594 44.6024 68.1186 42.1173 68.3631 39.5996C68.6401 37.082 68.0372 34.5318 66.7986 32.4527Z" fill="url(#paint3_linear_946_4541)"/>
<path fill-rule="evenodd" clip-rule="evenodd" d="M50.3232 36.5794H51.2684C51.3987 36.0434 51.6106 35.5236 51.8713 35.0688L51.1869 34.3866C51.1054 34.3054 51.1054 34.1592 51.1869 34.078L52.6698 32.6161C52.7513 32.5349 52.8817 32.5349 52.9632 32.6161L53.6313 33.2821C54.0876 32.9897 54.5928 32.7786 55.1306 32.6486V31.674C55.1306 31.5603 55.2284 31.4629 55.3424 31.4629H57.4284C57.5424 31.4629 57.6402 31.5603 57.6402 31.674V32.6161C58.178 32.7298 58.6832 32.941 59.1395 33.2171L59.8402 32.5349C59.9217 32.4537 60.0521 32.4537 60.1335 32.5349L61.6002 33.9968C61.6817 34.078 61.6817 34.2242 61.6002 34.3054L60.9321 34.9714C61.2254 35.4262 61.4373 35.9297 61.5839 36.4657H62.5454C62.6595 36.4657 62.7573 36.5469 62.7573 36.6769V38.7397C62.7573 38.8534 62.6595 38.9509 62.5454 38.9509H61.6002C61.4861 39.4869 61.2743 40.0067 60.9973 40.4615L61.6817 41.1437C61.7632 41.2249 61.7632 41.3711 61.6817 41.4523L60.215 42.9142C60.1335 42.9954 60.0032 42.9954 59.9217 42.9142L59.2536 42.2482C58.7973 42.5406 58.2921 42.7517 57.7543 42.8817V43.8563C57.7543 43.97 57.6565 44.0674 57.5424 44.0674H55.4565C55.3424 44.0674 55.2447 43.97 55.2447 43.8563V42.9142C54.7069 42.7842 54.2017 42.5893 53.7291 42.3132L53.0447 42.9954C52.9632 43.0766 52.8328 43.0766 52.7513 42.9954L51.2684 41.5335C51.1869 41.4523 51.1869 41.3061 51.2684 41.2249L51.9365 40.5589C51.6595 40.1041 51.4313 39.6006 51.301 39.0646H50.3232C50.2091 39.0646 50.1113 38.9834 50.1113 38.8534V36.7906C50.1113 36.6769 50.2091 36.5794 50.3232 36.5794ZM57.4447 40.5265C58.2758 40.2503 58.9439 39.6006 59.221 38.7722C60.0195 36.3683 57.8195 34.1917 55.4239 35.0039C54.5928 35.28 53.941 35.9459 53.6639 36.7743C52.8654 39.1458 55.0491 41.3224 57.4447 40.5265Z" fill="url(#paint4_linear_946_4541)"/>
<path d="M76.2507 61.2364H36.6181C36.2107 61.2364 35.8848 60.8953 35.8848 60.4893V60.4405C35.8848 60.0345 36.2107 59.6934 36.6181 59.6934H76.2507C76.6581 59.6934 77.0003 60.0345 77.0003 60.4405V60.4893C77.0003 60.8953 76.6581 61.2364 76.2507 61.2364Z" fill="#D1D6E8"/>
<path d="M64.7618 61.2364H36.6507C36.227 61.2364 35.8848 60.8953 35.8848 60.473C35.8848 60.0507 36.227 59.6934 36.6507 59.6934H64.7618C65.1855 59.6934 65.5277 60.0507 65.5277 60.473C65.5277 60.8953 65.1855 61.2364 64.7618 61.2364Z" fill="url(#paint5_linear_946_4541)"/>
<path d="M67.4489 78.9753H45.0089C42.7926 78.9753 41 77.1886 41 74.9958C41 72.7867 42.7926 71 45.0089 71H67.4489C69.6489 71 71.4415 72.7867 71.4415 74.9958C71.4415 77.1886 69.6489 78.9753 67.4489 78.9753Z" fill="url(#paint6_linear_946_4541)"/>
<path d="M48.5621 73.3636H49.331V75.7251C49.331 75.9903 49.2676 76.2223 49.141 76.4212C49.0155 76.62 48.8397 76.7751 48.6136 76.8864C48.3875 76.9964 48.1242 77.0515 47.8235 77.0515C47.5217 77.0515 47.2577 76.9964 47.0316 76.8864C46.8055 76.7751 46.6297 76.62 46.5043 76.4212C46.3788 76.2223 46.3161 75.9903 46.3161 75.7251V73.3636H47.0849V75.6594C47.0849 75.7979 47.1151 75.921 47.1754 76.0288C47.237 76.1365 47.3234 76.2211 47.4347 76.2827C47.5459 76.3442 47.6755 76.375 47.8235 76.375C47.9727 76.375 48.1023 76.3442 48.2124 76.2827C48.3236 76.2211 48.4094 76.1365 48.4698 76.0288C48.5314 75.921 48.5621 75.7979 48.5621 75.6594V73.3636ZM49.9635 77V73.3636H51.3982C51.674 73.3636 51.9089 73.4163 52.1031 73.5217C52.2972 73.6258 52.4452 73.7708 52.547 73.9567C52.6499 74.1413 52.7014 74.3544 52.7014 74.5959C52.7014 74.8374 52.6494 75.0504 52.5452 75.2351C52.441 75.4197 52.2901 75.5636 52.0924 75.6665C51.8959 75.7695 51.658 75.821 51.3786 75.821H50.4642V75.2049H51.2544C51.4023 75.2049 51.5242 75.1795 51.6201 75.1286C51.7172 75.0765 51.7894 75.0049 51.8367 74.9137C51.8853 74.8214 51.9095 74.7154 51.9095 74.5959C51.9095 74.4751 51.8853 74.3698 51.8367 74.2798C51.7894 74.1887 51.7172 74.1183 51.6201 74.0685C51.5231 74.0176 51.3999 73.9922 51.2508 73.9922H50.7323V77H49.9635ZM54.4899 77H53.2008V73.3636H54.5005C54.8663 73.3636 55.1812 73.4364 55.4451 73.582C55.7091 73.7264 55.9121 73.9342 56.0542 74.2053C56.1974 74.4763 56.269 74.8007 56.269 75.1783C56.269 75.5571 56.1974 75.8826 56.0542 76.1548C55.9121 76.4271 55.7079 76.636 55.4416 76.7816C55.1764 76.9272 54.8592 77 54.4899 77ZM53.9696 76.3413H54.4579C54.6852 76.3413 54.8764 76.301 55.0314 76.2205C55.1877 76.1388 55.3049 76.0128 55.383 75.8423C55.4623 75.6707 55.502 75.4493 55.502 75.1783C55.502 74.9096 55.4623 74.69 55.383 74.5195C55.3049 74.3491 55.1883 74.2236 55.0332 74.1431C54.8781 74.0626 54.687 74.0224 54.4597 74.0224H53.9696V76.3413ZM57.2602 77H56.4363L57.6917 73.3636H58.6824L59.936 77H59.1121L58.2013 74.1946H58.1729L57.2602 77ZM57.2087 75.5707H59.1547V76.1708H57.2087V75.5707ZM59.7908 73.9975V73.3636H62.7773V73.9975H61.6641V77H60.9041V73.9975H59.7908ZM63.2692 77V73.3636H65.7195V73.9975H64.038V74.864H65.5934V75.4979H64.038V76.3661H65.7266V77H63.2692Z" fill="white"/>
<path d="M18.0237 46.8274C17.5185 47.2172 17.3229 47.8994 17.4533 48.5329C18.0074 51.3267 20.2074 61.9496 22.277 61.6085C24.7215 61.2186 21.6577 51.749 20.68 49.4912C19.7348 47.3147 19.2296 45.8528 18.0237 46.8274Z" fill="#F2BC97"/>
<path d="M21.446 60.9764C21.2015 60.4241 21.3156 59.7907 21.6415 59.2709C23.2712 56.7695 29.2193 47.7222 30.523 47.9333C32.0223 48.1932 23.923 61.2525 23.2223 61.6586C22.6193 61.9997 21.8208 61.886 21.446 60.9764Z" fill="#F2BC97"/>
<path d="M19.0996 46.3085L19.3929 51.0677L19.8492 58.7506C19.8492 58.7506 21.1204 62.3565 22.6033 62.1941C23.6626 62.0804 26.8729 56.8015 28.6004 53.8453C28.6004 53.829 28.6167 53.829 28.6167 53.8128C29.3011 52.6595 29.7411 51.8636 29.7411 51.8636L27.4596 50.2881L23.0596 55.9243C20.3707 47.4618 19.0996 46.3085 19.0996 46.3085Z" fill="url(#paint7_linear_946_4541)"/>
<path style="mix-blend-mode:multiply" opacity="0.5" d="M19.3926 51.0674L19.8489 58.7503C19.8489 58.7503 21.12 62.3562 22.603 62.1938C23.6622 62.0801 26.8726 56.8012 28.6 53.8449C26.8237 56.1514 23.5644 60.4558 22.3748 60.4233C20.9733 60.3908 19.9629 48.6797 19.9629 48.6797L19.3926 51.0674Z" fill="url(#paint8_linear_946_4541)"/>
<path fill-rule="evenodd" clip-rule="evenodd" d="M11.8154 41.2087L11.8317 40.9163C11.8317 40.9163 10.9191 36.482 12.8583 34.143C14.7976 31.804 18.7413 35.7673 18.7413 35.7673C18.7413 35.7673 18.725 35.7835 18.7087 35.816C18.8391 36.2058 19.3117 36.7743 19.2954 37.1804C19.2791 37.5702 18.7739 39.1945 18.7576 40.1366C18.725 41.0625 18.0894 42.4106 17.3887 43.1416C17.0628 43.4827 16.4435 43.5801 15.8731 43.5964C15.9057 43.5964 15.808 43.5964 15.808 43.5964C15.6613 43.5964 15.5961 43.5639 15.4331 43.5314V43.5801C15.4331 43.5801 15.4331 43.6613 15.4494 43.6613L15.6776 44.506C15.6776 44.506 15.2213 45.2856 14.2924 45.2694C12.5161 45.2207 11.6035 43.97 11.6035 43.97L11.8154 41.2087Z" fill="#F2BC97"/>
<path d="M5.6709 59.06C5.6709 59.6447 5.6709 60.2241 5.6709 60.798C5.68719 65.0212 5.81756 68.887 6.19238 68.9195C9.90794 69.1306 17.8279 69.8291 19.8976 67.8962C20.9079 63.9491 20.1094 54.4957 20.0442 49.1356C20.0116 47.0565 18.7079 45.1723 16.7361 44.5388C16.1168 44.3439 15.6768 44.3276 15.6116 44.3276C15.3346 46.0656 11.2279 43.9865 11.6353 43.7754C7.52867 44.2627 5.41016 45.221 5.81756 51.1172C5.75238 52.644 5.68719 55.8114 5.6709 59.06Z" fill="url(#paint9_linear_946_4541)"/>
<path style="mix-blend-mode:multiply" opacity="0.5" d="M9.15849 48.4844L8.47405 55.615L16.2311 54.2344L7.18665 57.1256L6.82812 55.1115L9.15849 48.4844Z" fill="url(#paint10_linear_946_4541)"/>
<path style="mix-blend-mode:multiply" opacity="0.5" d="M5.6709 59.06C5.6709 59.6447 5.6709 60.2241 5.6709 60.798C10.3805 59.9046 16.7035 56.5586 16.7035 56.5586L6.17608 58.8001C6.17608 58.8001 5.98053 58.9138 5.6709 59.06Z" fill="url(#paint11_linear_946_4541)"/>
<path d="M7.23509 106.879L6.79509 108.682L4.18768 108.568L4.04102 107.074L7.23509 106.879Z" fill="#F2BC97"/>
<path d="M3.16182 113.945H7.31737C7.627 113.945 7.88774 113.685 7.88774 113.36C7.90404 112.483 7.74108 111.378 7.36626 110.664C6.89367 109.786 6.86108 108.52 6.86108 108.52H4.13959C4.07441 109.185 3.92774 109.916 3.61811 110.339C3.17811 110.94 2.8033 112.369 2.59145 113.23C2.50996 113.604 2.787 113.945 3.16182 113.945Z" fill="url(#paint12_linear_946_4541)"/>
<path d="M22.4239 108.697L22.2284 107.251L18.9365 107.219L19.2787 108.681L22.4239 108.697Z" fill="#F2BC97"/>
<path d="M4.25354 107.349H6.71428H7.43131L13.2817 78.6798L18.8713 107.738H19.2461H22.1306H22.6032L19.8817 67.8945C17.7143 68.8204 8.24613 69.1615 6.04613 68.6742L3.76465 107.349H4.25354Z" fill="url(#paint13_linear_946_4541)"/>
<path d="M7.23591 45.4315C6.61665 45.5614 6.12776 46.0812 5.9485 46.6984C5.18258 49.4435 2.73813 58.6857 4.74258 59.3192C7.08925 60.0664 8.76776 51.7662 8.94702 49.3136C9.09369 47.2669 8.76776 45.1391 7.23591 45.4315Z" fill="#F2BC97"/>
<path d="M4.49792 58.2319C4.67718 57.6634 5.18237 57.241 5.76903 57.0624C8.63718 56.234 19.0831 53.2778 19.9142 54.2848C20.892 55.4543 6.02978 60.4084 5.39422 59.9049C4.90533 59.5151 4.1883 59.1577 4.49792 58.2319Z" fill="#F2BC97"/>
<path d="M5.5567 47.3004C5.5567 47.3004 4.33448 52.2058 3.99226 54.6098C3.63374 57.0137 3.47078 59.3527 4.79078 60.0674C6.11078 60.7821 16.8174 56.5427 16.8174 56.5427L16.3286 54.155L7.65893 56.3153C7.65893 56.3153 8.94633 51.5236 9.14189 48.8922C9.32115 46.2771 8.70189 45.3675 7.773 45.2051C6.04559 44.8965 5.5567 47.3004 5.5567 47.3004Z" fill="url(#paint14_linear_946_4541)"/>
<path d="M11.766 35.9447C11.842 35.6848 11.9289 35.4304 12.0267 35.1813C12.3689 34.2717 12.9067 33.2971 13.8682 33.1022C14.6178 32.956 15.3674 33.3459 16.1008 33.5895C17.2741 33.9631 18.5778 33.9469 19.7349 33.5245C20.24 33.3459 20.7289 33.086 21.2667 33.1347C21.9674 33.1997 22.5378 33.8007 22.7823 34.4666C23.1408 35.5062 22.8474 36.7569 22.0489 37.5203C21.2667 38.2837 20.0119 38.5274 18.9852 38.1375C18.2682 37.8776 17.486 37.6015 16.72 37.5365C16.3452 37.5041 15.8889 37.5365 15.5793 37.7802C15.286 38.0238 15.1393 38.3812 14.9926 38.7385C14.8623 39.0634 14.7482 39.5994 14.4223 39.7943C14.0963 39.973 14.08 39.4207 14.08 39.242C14.0909 38.8739 14.1018 38.5057 14.1126 38.1375C14.1289 37.9426 14.2104 37.4878 13.9986 37.3579C13.966 37.3416 13.9171 37.3254 13.8845 37.3254C13.5423 37.3254 13.2163 37.5528 13.0045 37.8289C12.5156 38.4624 12.8578 39.3233 12.76 40.0704C12.6786 40.574 12.4341 41.5648 11.7334 41.4836C11.4074 41.4348 11.3586 40.9638 11.3423 40.7039C11.2771 40.2654 11.1956 39.8268 11.1793 39.372C11.1467 38.9172 11.2282 38.4786 11.2934 38.0401C11.402 37.3254 11.5595 36.6269 11.766 35.9447Z" fill="url(#paint15_linear_946_4541)"/>
<path d="M29.1053 46.2753C29.1053 46.2753 28.3394 45.9504 28.2579 46.4864C28.1927 47.0387 28.5513 48.5655 28.5513 48.5655" fill="#F2BC97"/>
<path d="M32.6905 44.2625L30.2787 49.4927C30.2298 49.5902 30.1483 49.6389 30.0342 49.6227L27.7364 49.3303C27.5898 49.2978 27.492 49.1354 27.5735 49.0055L30.0016 43.8727C30.0505 43.7915 30.132 43.7265 30.2298 43.7427L32.5113 43.9377C32.6579 43.9539 32.7557 44.1163 32.6905 44.2625Z" fill="#1C2E48"/>
<path d="M32.7555 44.4076L30.3436 49.6378C30.2947 49.7353 30.197 49.784 30.0992 49.7678L27.8014 49.4754C27.6547 49.4429 27.557 49.2805 27.6221 49.1506L30.0666 44.0178C30.1155 43.9203 30.197 43.8716 30.2947 43.8878L32.5762 44.0828C32.7229 44.099 32.8207 44.2614 32.7555 44.4076Z" fill="url(#paint16_linear_946_4541)"/>
<path d="M31.5172 47.6247C31.5498 47.3486 31.4683 47.0075 30.9794 46.8775C30.3765 46.7151 29.692 46.8451 29.6268 47.2999C29.5454 47.9821 29.692 48.8917 30.3602 49.0541C30.7676 49.1678 31.4031 48.6155 31.5172 47.6247Z" fill="#F2BC97"/>
<path d="M22.4235 108.697C22.4235 108.697 23.4176 109.915 25.6339 111.475C27.8665 113.034 28.4205 112.644 28.4857 113.261C28.5672 113.862 19.5228 113.7 19.5228 113.7L19.2783 108.681C19.2783 108.681 22.4072 108.567 22.4235 108.697Z" fill="url(#paint17_linear_946_4541)"/>
<path d="M18.4639 54.7059C18.5454 55.5505 20.175 55.2257 20.7291 55.0957C21.6417 54.8846 22.5217 54.0399 22.4402 53.7151C22.3587 53.3902 20.338 53.9912 20.2565 53.9262C20.175 53.8613 20.615 53.4877 20.5172 53.1953C20.4032 52.8867 19.5721 53.2603 19.0995 53.5851C18.6269 53.8938 18.415 54.1699 18.4639 54.7059Z" fill="#F2BC97"/>
</g>
<defs>
<linearGradient id="paint0_linear_946_4541" x1="16751.6" y1="8127.88" x2="38186.4" y2="8127.88" gradientUnits="userSpaceOnUse">
<stop offset="0.03" stop-color="#214F95"/>
<stop offset="1" stop-color="#0E408C"/>
</linearGradient>
<linearGradient id="paint1_linear_946_4541" x1="5245.4" y1="-27495.9" x2="5245.4" y2="-59795.4" gradientUnits="userSpaceOnUse">
<stop stop-color="#DCDCF4"/>
<stop offset="1" stop-color="#F9FBFC"/>
</linearGradient>
<linearGradient id="paint2_linear_946_4541" x1="5582.84" y1="4955.34" x2="6815.54" y2="4955.34" gradientUnits="userSpaceOnUse">
<stop offset="0.04" stop-color="#7B8BFF"/>
<stop offset="1" stop-color="#6F80FF"/>
</linearGradient>
<linearGradient id="paint3_linear_946_4541" x1="6494.44" y1="5619.93" x2="7750.85" y2="5619.93" gradientUnits="userSpaceOnUse">
<stop offset="0.04" stop-color="#7B8BFF"/>
<stop offset="1" stop-color="#6F80FF"/>
</linearGradient>
<linearGradient id="paint4_linear_946_4541" x1="5431.17" y1="3254.56" x2="6412.53" y2="3254.56" gradientUnits="userSpaceOnUse">
<stop offset="0.03" stop-color="#214F95"/>
<stop offset="1" stop-color="#0E408C"/>
</linearGradient>
<linearGradient id="paint5_linear_946_4541" x1="10061.5" y1="717.779" x2="15453.8" y2="717.779" gradientUnits="userSpaceOnUse">
<stop offset="0.03" stop-color="#214F95"/>
<stop offset="1" stop-color="#0E408C"/>
</linearGradient>
<linearGradient id="paint6_linear_946_4541" x1="11330.7" y1="4051.63" x2="17016.7" y2="4051.63" gradientUnits="userSpaceOnUse">
<stop offset="0.04" stop-color="#7B8BFF"/>
<stop offset="1" stop-color="#6F80FF"/>
</linearGradient>
<linearGradient id="paint7_linear_946_4541" x1="2522.82" y1="5565.54" x2="3217.94" y2="5565.54" gradientUnits="userSpaceOnUse">
<stop offset="0.04" stop-color="#7B8BFF"/>
<stop offset="1" stop-color="#6F80FF"/>
</linearGradient>
<linearGradient id="paint8_linear_946_4541" x1="2205.29" y1="4941.67" x2="2726.4" y2="4941.67" gradientUnits="userSpaceOnUse">
<stop offset="0.04" stop-color="#7B8BFF"/>
<stop offset="1" stop-color="#6F80FF"/>
</linearGradient>
<linearGradient id="paint9_linear_946_4541" x1="2256.43" y1="8477.3" x2="3588.25" y2="8477.3" gradientUnits="userSpaceOnUse">
<stop offset="0.04" stop-color="#7B8BFF"/>
<stop offset="1" stop-color="#6F80FF"/>
</linearGradient>
<linearGradient id="paint10_linear_946_4541" x1="1510.02" y1="3165.05" x2="2052.45" y2="3165.05" gradientUnits="userSpaceOnUse">
<stop offset="0.04" stop-color="#7B8BFF"/>
<stop offset="1" stop-color="#6F80FF"/>
</linearGradient>
<linearGradient id="paint11_linear_946_4541" x1="1689.98" y1="1796.16" x2="2436.24" y2="1796.16" gradientUnits="userSpaceOnUse">
<stop offset="0.04" stop-color="#7B8BFF"/>
<stop offset="1" stop-color="#6F80FF"/>
</linearGradient>
<linearGradient id="paint12_linear_946_4541" x1="-703.258" y1="-3846.68" x2="-876.483" y2="-3846.68" gradientUnits="userSpaceOnUse">
<stop offset="0.04" stop-color="#7B8BFF"/>
<stop offset="1" stop-color="#6F80FF"/>
</linearGradient>
<linearGradient id="paint13_linear_946_4541" x1="8207.11" y1="-5013.63" x2="8207.11" y2="-9208.28" gradientUnits="userSpaceOnUse">
<stop offset="0.03" stop-color="#214F95"/>
<stop offset="1" stop-color="#0E408C"/>
</linearGradient>
<linearGradient id="paint14_linear_946_4541" x1="1847.61" y1="5138.65" x2="2897.59" y2="5138.65" gradientUnits="userSpaceOnUse">
<stop offset="0.04" stop-color="#7B8BFF"/>
<stop offset="1" stop-color="#6F80FF"/>
</linearGradient>
<linearGradient id="paint15_linear_946_4541" x1="2205.61" y1="2267.17" x2="3054.58" y2="2267.17" gradientUnits="userSpaceOnUse">
<stop offset="0.03" stop-color="#214F95"/>
<stop offset="1" stop-color="#0E408C"/>
</linearGradient>
<linearGradient id="paint16_linear_946_4541" x1="1514.03" y1="1999.25" x2="1678.27" y2="1999.25" gradientUnits="userSpaceOnUse">
<stop offset="0.03" stop-color="#214F95"/>
<stop offset="1" stop-color="#0E408C"/>
</linearGradient>
<linearGradient id="paint17_linear_946_4541" x1="-2147.22" y1="-3601.64" x2="-2667.47" y2="-3601.64" gradientUnits="userSpaceOnUse">
<stop offset="0.04" stop-color="#7B8BFF"/>
<stop offset="1" stop-color="#6F80FF"/>
</linearGradient>
<clipPath id="clip0_946_4541">
<rect width="88" height="115" fill="white"/>
</clipPath>
</defs>
</svg>
