<svg width="20" height="20" viewBox="0 0 20 20" fill="none" xmlns="http://www.w3.org/2000/svg">
<path d="M13.3337 1.66669H6.66699C3.33366 1.66669 1.66699 3.33335 1.66699 6.66669V17.5C1.66699 17.9584 2.04199 18.3334 2.50033 18.3334H13.3337C16.667 18.3334 18.3337 16.6667 18.3337 13.3334V6.66669C18.3337 3.33335 16.667 1.66669 13.3337 1.66669Z" stroke="#2F648E" stroke-width="1.5" stroke-linecap="round" stroke-linejoin="round"/>
<path d="M10.7583 6.53334L6.43332 10.8583C6.26666 11.025 6.10833 11.35 6.07499 11.5833L5.84166 13.2333C5.75833 13.8333 6.17499 14.25 6.77499 14.1667L8.42498 13.9333C8.65831 13.9 8.98333 13.7417 9.15 13.575L13.475 9.25C14.2167 8.50834 14.575 7.64167 13.475 6.54167C12.375 5.43334 11.5083 5.78334 10.7583 6.53334Z" stroke="#2F648E" stroke-width="1.5" stroke-miterlimit="10" stroke-linecap="round" stroke-linejoin="round"/>
<path d="M10.1416 7.15002C10.5083 8.45836 11.5333 9.49169 12.8499 9.85836" stroke="#2F648E" stroke-width="1.5" stroke-miterlimit="10" stroke-linecap="round" stroke-linejoin="round"/>
</svg>
