<svg width="20" height="20" viewBox="0 0 20 20" fill="none" xmlns="http://www.w3.org/2000/svg">
<path d="M17.5 5.55501C17.3529 5.6312 17.1815 5.64585 17.0236 5.59575C16.8657 5.54565 16.7341 5.43489 16.6578 5.28782C16.0612 4.1093 15.1583 3.11321 14.0437 2.40423C13.9743 2.36042 13.9141 2.30336 13.8667 2.23631C13.8193 2.16925 13.7856 2.09352 13.7675 2.01343C13.7493 1.93334 13.7471 1.85046 13.761 1.76953C13.7749 1.68859 13.8046 1.61119 13.8484 1.54173C13.8922 1.47227 13.9493 1.41212 14.0164 1.36472C14.0834 1.31731 14.1591 1.28358 14.2392 1.26544C14.3193 1.24731 14.4022 1.24512 14.4831 1.25902C14.5641 1.27291 14.6415 1.30261 14.7109 1.34642C16.0098 2.17809 17.0645 3.33983 17.7672 4.71282C17.8434 4.85995 17.858 5.0313 17.8079 5.18922C17.7578 5.34715 17.6471 5.47871 17.5 5.55501ZM2.78984 5.62532C2.90434 5.62528 3.01663 5.59377 3.11445 5.53426C3.21227 5.47474 3.29185 5.38949 3.34453 5.28782C3.94109 4.1093 4.84407 3.11321 5.95859 2.40423C6.09886 2.31576 6.19825 2.17518 6.23487 2.01343C6.2715 1.85168 6.24238 1.682 6.1539 1.54173C6.06543 1.40146 5.92485 1.30207 5.7631 1.26544C5.60135 1.22882 5.43168 1.25794 5.2914 1.34642C3.9925 2.17809 2.93779 3.33983 2.23515 4.71282C2.18581 4.80807 2.16181 4.91442 2.16546 5.02163C2.16912 5.12884 2.20031 5.23331 2.25603 5.32497C2.31175 5.41664 2.39013 5.49242 2.48362 5.54502C2.57711 5.59762 2.68257 5.62528 2.78984 5.62532ZM17.3289 13.7456C17.4396 13.9355 17.4983 14.1512 17.4991 14.371C17.4998 14.5908 17.4426 14.8069 17.3332 14.9976C17.2238 15.1882 17.066 15.3466 16.8758 15.4568C16.6857 15.567 16.4698 15.6252 16.25 15.6253H13.0625C12.919 16.3318 12.5358 16.9669 11.9777 17.4231C11.4195 17.8792 10.7208 18.1285 9.99999 18.1285C9.27915 18.1285 8.58047 17.8792 8.02233 17.4231C7.4642 16.9669 7.08094 16.3318 6.9375 15.6253H3.74999C3.53032 15.6249 3.31465 15.5666 3.12469 15.4563C2.93473 15.3459 2.7772 15.1875 2.66796 14.9969C2.55873 14.8063 2.50165 14.5903 2.50247 14.3706C2.50329 14.151 2.56199 13.9354 2.67265 13.7456C3.37656 12.5308 3.74999 10.8034 3.74999 8.75032C3.74999 7.09272 4.40847 5.50301 5.58058 4.33091C6.75268 3.1588 8.34239 2.50032 9.99999 2.50032C11.6576 2.50032 13.2473 3.1588 14.4194 4.33091C15.5915 5.50301 16.25 7.09272 16.25 8.75032C16.25 10.8027 16.6234 12.53 17.3289 13.7456ZM11.7672 15.6253H8.23281C8.36229 15.9905 8.60172 16.3066 8.91817 16.5301C9.23462 16.7537 9.61255 16.8737 9.99999 16.8737C10.3874 16.8737 10.7654 16.7537 11.0818 16.5301C11.3983 16.3066 11.6377 15.9905 11.7672 15.6253Z" fill="white"/>
</svg>
