<svg width="24" height="25" viewBox="0 0 24 25" fill="none" xmlns="http://www.w3.org/2000/svg">
<path d="M3 10.5H21V6.5C21 5.96957 20.7893 5.46086 20.4142 5.08579C20.0391 4.71071 19.5304 4.5 19 4.5H5C4.46957 4.5 3.96086 4.71071 3.58579 5.08579C3.21071 5.46086 3 5.96957 3 6.5V20.5C3 21.0304 3.21071 21.5391 3.58579 21.9142C3.96086 22.2893 4.46957 22.5 5 22.5H12M8 2.5V6.5M16 2.5V6.5M21.29 15.2C20.9493 14.8609 20.5156 14.6305 20.0439 14.538C19.5722 14.4454 19.0836 14.4948 18.64 14.68C18.34 14.8 18.07 14.98 17.84 15.21L17.5 15.55L17.15 15.21C16.8104 14.8693 16.3772 14.637 15.9055 14.5426C15.4337 14.4483 14.9446 14.4961 14.5 14.68C14.2 14.8 13.94 14.98 13.71 15.21C12.76 16.15 12.71 17.74 13.91 18.95L17.5 22.5L21.1 18.95C22.3 17.74 22.24 16.15 21.29 15.21V15.2Z" stroke="white" stroke-width="2" stroke-linecap="round" stroke-linejoin="round"/>
</svg>
