<svg width="24" height="25" viewBox="0 0 24 25" fill="none" xmlns="http://www.w3.org/2000/svg">
<path d="M16 2.5V6.5M21 9V6.5C21 5.96957 20.7893 5.46086 20.4142 5.08579C20.0391 4.71071 19.5304 4.5 19 4.5H5C4.46957 4.5 3.96086 4.71071 3.58579 5.08579C3.21071 5.46086 3 5.96957 3 6.5V20.5C3 21.0304 3.21071 21.5391 3.58579 21.9142C3.96086 22.2893 4.46957 22.5 5 22.5H9.3M3 10.5H7M8 2.5V6.5" stroke="white" stroke-width="2" stroke-linecap="round" stroke-linejoin="round"/>
<path d="M18 12.5V22.5M20.5 14H16.75C16.2859 14 15.8408 14.1844 15.5126 14.5126C15.1844 14.8408 15 15.2859 15 15.75C15 16.2141 15.1844 16.6592 15.5126 16.9874C15.8408 17.3156 16.2859 17.5 16.75 17.5H19.25C19.7141 17.5 20.1592 17.6844 20.4874 18.0126C20.8156 18.3408 21 18.7859 21 19.25C21 19.7141 20.8156 20.1592 20.4874 20.4874C20.1592 20.8156 19.7141 21 19.25 21H15" stroke="white" stroke-width="2" stroke-linecap="round" stroke-linejoin="round"/>
</svg>
