<svg width="24" height="25" viewBox="0 0 24 25" fill="none" xmlns="http://www.w3.org/2000/svg">
<path d="M15.228 17.352L14.305 16.969M15.228 19.648L14.305 20.031M16 2.5V6.5M16.47 14.805L16.852 15.728M16.852 21.272L16.469 22.196M19.148 15.728L19.531 14.805M19.53 22.196L19.148 21.272M20.772 17.352L21.696 16.969M20.772 19.648L21.696 20.031M21 11.5V6.5C21 5.96957 20.7893 5.46086 20.4142 5.08579C20.0391 4.71071 19.5304 4.5 19 4.5H5C4.46957 4.5 3.96086 4.71071 3.58579 5.08579C3.21071 5.46086 3 5.96957 3 6.5V20.5C3 21.0304 3.21071 21.5391 3.58579 21.9142C3.96086 22.2893 4.46957 22.5 5 22.5H11M3 10.5H21M8 2.5V6.5M21 18.5C21 20.1569 19.6569 21.5 18 21.5C16.3431 21.5 15 20.1569 15 18.5C15 16.8431 16.3431 15.5 18 15.5C19.6569 15.5 21 16.8431 21 18.5Z" stroke="white" stroke-width="2" stroke-linecap="round" stroke-linejoin="round"/>
</svg>
