<svg width="24" height="25" viewBox="0 0 24 25" fill="none" xmlns="http://www.w3.org/2000/svg">
<path d="M8 2.5V6.5M16 2.5V6.5M21 13.5V6.5C21 5.96957 20.7893 5.46086 20.4142 5.08579C20.0391 4.71071 19.5304 4.5 19 4.5H5C4.46957 4.5 3.96086 4.71071 3.58579 5.08579C3.21071 5.46086 3 5.96957 3 6.5V20.5C3 21.0304 3.21071 21.5391 3.58579 21.9142C3.96086 22.2893 4.46957 22.5 5 22.5H13M3 10.5H21M17 22.5L22 17.5M17 17.5L22 22.5" stroke="white" stroke-width="2" stroke-linecap="round" stroke-linejoin="round"/>
<path d="M11.8 13.5V19.5M13.3 14.4H11.05C10.7715 14.4 10.5045 14.5106 10.3075 14.7075C10.1106 14.9045 10 15.1715 10 15.45C10 15.7285 10.1106 15.9955 10.3075 16.1925C10.5045 16.3894 10.7715 16.5 11.05 16.5H12.55C12.8285 16.5 13.0955 16.6106 13.2925 16.8075C13.4894 17.0045 13.6 17.2715 13.6 17.55C13.6 17.8285 13.4894 18.0955 13.2925 18.2925C13.0955 18.4894 12.8285 18.6 12.55 18.6H10" stroke="white" stroke-width="1.2" stroke-linecap="round" stroke-linejoin="round"/>
</svg>
