<svg width="24" height="25" viewBox="0 0 24 25" fill="none" xmlns="http://www.w3.org/2000/svg">
<path d="M16 2.5V6.5M21 9V6.5C21 5.96957 20.7893 5.46086 20.4142 5.08579C20.0391 4.71071 19.5304 4.5 19 4.5H5C4.46957 4.5 3.96086 4.71071 3.58579 5.08579C3.21071 5.46086 3 5.96957 3 6.5V20.5C3 21.0304 3.21071 21.5391 3.58579 21.9142C3.96086 22.2893 4.46957 22.5 5 22.5H9.3M3 10.5H7M8 2.5V6.5" stroke="white" stroke-width="2" stroke-linecap="round" stroke-linejoin="round"/>
<path d="M16.1842 12.0625V13.1151M18.2895 12.0625V13.1151M19.3421 15.2204C19.4817 15.2204 19.6156 15.2758 19.7143 15.3745C19.813 15.4733 19.8684 15.6071 19.8684 15.7467V19.9572C19.8684 20.5156 19.6466 21.0511 19.2518 21.4459C18.857 21.8407 18.3215 22.0625 17.7632 22.0625H14.6053C14.0469 22.0625 13.5114 21.8407 13.1166 21.4459C12.7218 21.0511 12.5 20.5156 12.5 19.9572V15.7467C12.5 15.6071 12.5555 15.4733 12.6542 15.3745C12.7529 15.2758 12.8867 15.2204 13.0263 15.2204H20.3947C20.9531 15.2204 21.4886 15.4422 21.8834 15.837C22.2782 16.2318 22.5 16.7673 22.5 17.3257C22.5 17.884 22.2782 18.4195 21.8834 18.8143C21.4886 19.2091 20.9531 19.4309 20.3947 19.4309H19.8684M14.0789 12.0625V13.1151" stroke="white" stroke-width="2" stroke-linecap="round" stroke-linejoin="round"/>
</svg>
