<svg width="390" height="74" viewBox="0 0 390 74" fill="none" xmlns="http://www.w3.org/2000/svg">
<mask id="path-1-inside-1_4877_12519" fill="white">
<path d="M380.146 14.0545C385.739 14.6099 390 19.3148 390 24.9354V47.6089C390 59.6363 390 65.65 386.264 69.3864C382.527 73.1229 376.513 73.1229 364.486 73.1229H25.514C13.4866 73.1229 7.47288 73.1229 3.73644 69.3864C0 65.65 0 59.6363 0 47.6089V24.9354C0 19.3148 4.26144 14.6099 9.85449 14.0545L149.547 0.183321C156.656 -0.522643 162.196 7.66002 162.196 14.8045C162.196 32.9215 176.883 47.6092 195 47.6092C213.117 47.6092 227.804 32.9215 227.804 14.8045C227.804 7.65998 233.343 -0.522626 240.452 0.183337L380.146 14.0545Z"/>
</mask>
<path d="M380.146 14.0545C385.739 14.6099 390 19.3148 390 24.9354V47.6089C390 59.6363 390 65.65 386.264 69.3864C382.527 73.1229 376.513 73.1229 364.486 73.1229H25.514C13.4866 73.1229 7.47288 73.1229 3.73644 69.3864C0 65.65 0 59.6363 0 47.6089V24.9354C0 19.3148 4.26144 14.6099 9.85449 14.0545L149.547 0.183321C156.656 -0.522643 162.196 7.66002 162.196 14.8045C162.196 32.9215 176.883 47.6092 195 47.6092C213.117 47.6092 227.804 32.9215 227.804 14.8045C227.804 7.65998 233.343 -0.522626 240.452 0.183337L380.146 14.0545Z" fill="white"/>
<path d="M380.146 14.0545L380.244 13.0594L380.146 14.0545ZM9.85449 14.0545L9.75568 13.0594H9.75568L9.85449 14.0545ZM195 47.6092V48.6092V47.6092ZM3.73644 69.3864L3.02933 70.0935L3.73644 69.3864ZM386.264 69.3864L386.971 70.0935L386.264 69.3864ZM380.146 14.0545L380.047 15.0496C385.128 15.5542 389 19.8289 389 24.9354H390H391C391 18.8007 386.349 13.6656 380.244 13.0594L380.146 14.0545ZM390 24.9354H389V47.6089H390H391V24.9354H390ZM364.486 73.1229V72.1229H25.514V73.1229V74.1229H364.486V73.1229ZM0 47.6089H1V24.9354H0H-1V47.6089H0ZM0 24.9354H1C1 19.8289 4.87168 15.5542 9.95331 15.0496L9.85449 14.0545L9.75568 13.0594C3.6512 13.6656 -1 18.8007 -1 24.9354H0ZM9.85449 14.0545L9.9533 15.0496L149.646 1.17843L149.547 0.183321L149.448 -0.811785L9.75568 13.0594L9.85449 14.0545ZM162.196 14.8045H161.196C161.196 33.4738 176.331 48.6092 195 48.6092V47.6092V46.6092C177.435 46.6092 163.196 32.3693 163.196 14.8045H162.196ZM195 47.6092V48.6092C213.669 48.6092 228.804 33.4738 228.804 14.8045H227.804H226.804C226.804 32.3693 212.565 46.6092 195 46.6092V47.6092ZM240.452 0.183337L240.354 1.17844L380.047 15.0496L380.146 14.0545L380.244 13.0594L240.551 -0.811769L240.452 0.183337ZM227.804 14.8045L228.804 14.8045C228.804 11.4688 230.105 7.85487 232.244 5.17353C234.381 2.49346 237.241 0.869419 240.354 1.17844L240.452 0.183337L240.551 -0.811769C236.554 -1.20871 233.09 0.905575 230.68 3.92645C228.272 6.94606 226.804 10.9957 226.804 14.8045L227.804 14.8045ZM149.547 0.183321L149.646 1.17843C152.758 0.869402 155.618 2.49347 157.756 5.17357C159.895 7.85493 161.196 11.4689 161.196 14.8045L162.196 14.8045L163.196 14.8045C163.196 10.9957 161.728 6.94604 159.319 3.92643C156.91 0.905564 153.446 -1.20872 149.448 -0.811785L149.547 0.183321ZM25.514 73.1229V72.1229C19.472 72.1229 15.0411 72.1208 11.6494 71.6647C8.28634 71.2126 6.095 70.3308 4.44355 68.6793L3.73644 69.3864L3.02933 70.0935C5.11432 72.1785 7.79806 73.1649 11.3829 73.6469C14.9389 74.125 19.5286 74.1229 25.514 74.1229V73.1229ZM0 47.6089H-1C-1 53.5943 -1.00212 58.184 -0.524028 61.74C-0.0420638 65.3248 0.944345 68.0086 3.02933 70.0935L3.73644 69.3864L4.44355 68.6793C2.7921 67.0279 1.91028 64.8365 1.45814 61.4735C1.00212 58.0817 1 53.6508 1 47.6089H0ZM390 47.6089H389C389 53.6508 388.998 58.0817 388.542 61.4735C388.09 64.8365 387.208 67.0279 385.556 68.6793L386.264 69.3864L386.971 70.0935C389.056 68.0086 390.042 65.3248 390.524 61.74C391.002 58.184 391 53.5943 391 47.6089H390ZM364.486 73.1229V74.1229C370.471 74.1229 375.061 74.125 378.617 73.6469C382.202 73.1649 384.886 72.1785 386.971 70.0935L386.264 69.3864L385.556 68.6793C383.905 70.3308 381.714 71.2126 378.351 71.6647C374.959 72.1208 370.528 72.1229 364.486 72.1229V73.1229Z" fill="#EAECF0" mask="url(#path-1-inside-1_4877_12519)"/>
</svg>
