<svg width="20" height="20" viewBox="0 0 20 20" fill="none" xmlns="http://www.w3.org/2000/svg">
<path d="M3.33333 11.6673C2.41286 11.6673 1.66667 10.9211 1.66667 10.0007C1.66667 9.08018 2.41286 8.33398 3.33333 8.33398C4.25381 8.33398 5 9.08018 5 10.0007C5 10.9211 4.25381 11.6673 3.33333 11.6673Z" stroke="#2F648E" stroke-width="1.25" stroke-linecap="round" stroke-linejoin="round"/>
<path d="M3.33333 4.99935C2.41286 4.99935 1.66667 4.25316 1.66667 3.33268C1.66667 2.41221 2.41286 1.66602 3.33333 1.66602C4.25381 1.66602 5 2.41221 5 3.33268C5 4.25316 4.25381 4.99935 3.33333 4.99935Z" stroke="#2F648E" stroke-width="1.25" stroke-linecap="round" stroke-linejoin="round"/>
<path d="M3.33333 18.3333C2.41286 18.3333 1.66667 17.5871 1.66667 16.6667C1.66667 15.7462 2.41286 15 3.33333 15C4.25381 15 5 15.7462 5 16.6667C5 17.5871 4.25381 18.3333 3.33333 18.3333Z" stroke="#2F648E" stroke-width="1.25" stroke-linecap="round" stroke-linejoin="round"/>
<path d="M16.6667 11.6673C15.7462 11.6673 15 10.9211 15 10.0007C15 9.08018 15.7462 8.33398 16.6667 8.33398C17.5871 8.33398 18.3333 9.08018 18.3333 10.0007C18.3333 10.9211 17.5871 11.6673 16.6667 11.6673Z" stroke="#2F648E" stroke-width="1.25" stroke-linecap="round" stroke-linejoin="round"/>
<path d="M15 10H5" stroke="#2F648E" stroke-width="1.25" stroke-linecap="round" stroke-linejoin="round"/>
<path d="M5 3.33398H8.33333C9.99999 3.33398 10.8333 4.16732 10.8333 5.83398V14.1673C10.8333 15.834 9.99999 16.6673 8.33333 16.6673H5" stroke="#2F648E" stroke-width="1.25" stroke-linecap="round" stroke-linejoin="round"/>
</svg>
