<svg width="20" height="20" viewBox="0 0 20 20" fill="none" xmlns="http://www.w3.org/2000/svg">
<path d="M18.3333 6.89102V3.52435C18.3333 2.19935 17.8 1.66602 16.475 1.66602H13.1083C11.7833 1.66602 11.25 2.19935 11.25 3.52435V6.89102C11.25 8.21602 11.7833 8.74935 13.1083 8.74935H16.475C17.8 8.74935 18.3333 8.21602 18.3333 6.89102Z" stroke="#2F648E" stroke-width="1.25" stroke-linecap="round" stroke-linejoin="round"/>
<path d="M8.74996 7.09935V3.31602C8.74996 2.14102 8.21663 1.66602 6.89163 1.66602H3.52496C2.19996 1.66602 1.66663 2.14102 1.66663 3.31602V7.09102C1.66663 8.27435 2.19996 8.74102 3.52496 8.74102H6.89163C8.21663 8.74935 8.74996 8.27435 8.74996 7.09935Z" stroke="#2F648E" stroke-width="1.25" stroke-linecap="round" stroke-linejoin="round"/>
<path d="M8.74996 16.475V13.1083C8.74996 11.7833 8.21663 11.25 6.89163 11.25H3.52496C2.19996 11.25 1.66663 11.7833 1.66663 13.1083V16.475C1.66663 17.8 2.19996 18.3333 3.52496 18.3333H6.89163C8.21663 18.3333 8.74996 17.8 8.74996 16.475Z" stroke="#2F648E" stroke-width="1.25" stroke-linecap="round" stroke-linejoin="round"/>
<path d="M12.5 12.916H17.5" stroke="#2F648E" stroke-width="1.25" stroke-linecap="round"/>
<path d="M12.5 16.25H17.5" stroke="#2F648E" stroke-width="1.25" stroke-linecap="round"/>
</svg>
