<svg width="22" height="22" viewBox="0 0 22 22" fill="none" xmlns="http://www.w3.org/2000/svg">
<path d="M9 11H11.9M11.9 11C13.1 11 14 11.8571 14 13C14 14.1429 13.1 15 11.9 15H9V7H11.9C13.1 7 14 7.85714 14 9C14 10.1429 13.1 11 11.9 11Z" stroke="#2F648E" stroke-width="1.5" stroke-miterlimit="10" stroke-linecap="round" stroke-linejoin="round"/>
<path d="M11 21C16.5228 21 21 16.5228 21 11C21 5.47715 16.5228 1 11 1C5.47715 1 1 5.47715 1 11C1 16.5228 5.47715 21 11 21Z" stroke="#2F648E" stroke-width="1.5" stroke-miterlimit="10"/>
</svg>
