<svg width="20" height="20" viewBox="0 0 20 20" fill="none" xmlns="http://www.w3.org/2000/svg">
<path d="M16.2833 5.44935L13.725 2.89102C12.9417 2.10768 11.8833 1.66602 10.775 1.66602H6.66667C4.16667 1.66602 2.5 3.33268 2.5 5.83268V14.166C2.5 16.666 4.16667 18.3327 6.66667 18.3327H13.3333C15.8333 18.3327 17.5 16.666 17.5 14.166V8.39102C17.5 7.28268 17.0583 6.22435 16.2833 5.44935Z" stroke="#2F648E" stroke-width="1.25" stroke-linecap="round" stroke-linejoin="round"/>
<path d="M8.33331 15.416H11.6666C13.0416 15.416 14.1666 14.291 14.1666 12.916V10.416C14.1666 9.04102 13.0416 7.91602 11.6666 7.91602H8.33331C6.95831 7.91602 5.83331 9.04102 5.83331 10.416V12.916C5.83331 14.291 6.95831 15.416 8.33331 15.416Z" stroke="#2F648E" stroke-width="1.25" stroke-linecap="round" stroke-linejoin="round"/>
<path d="M10 7.91602V15.416" stroke="#2F648E" stroke-width="1.25" stroke-linecap="round" stroke-linejoin="round"/>
<path d="M6.25 11.666H13.75" stroke="#2F648E" stroke-width="1.25" stroke-linecap="round" stroke-linejoin="round"/>
</svg>
