<svg width="20" height="20" viewBox="0 0 20 20" fill="none" xmlns="http://www.w3.org/2000/svg">
<path d="M9.99998 9.99935C12.3012 9.99935 14.1666 8.13387 14.1666 5.83268C14.1666 3.5315 12.3012 1.66602 9.99998 1.66602C7.69879 1.66602 5.83331 3.5315 5.83331 5.83268C5.83331 8.13387 7.69879 9.99935 9.99998 9.99935Z" stroke="#2F648E" stroke-width="1.25" stroke-linecap="round" stroke-linejoin="round"/>
<path d="M2.84167 18.3333C2.84167 15.1083 6.05 12.5 10 12.5C10.8 12.5 11.575 12.6083 12.3 12.8083" stroke="#2F648E" stroke-width="1.25" stroke-linecap="round" stroke-linejoin="round"/>
<path d="M18.3334 14.9993C18.3334 15.6243 18.1584 16.216 17.85 16.716C17.675 17.016 17.45 17.2827 17.1917 17.4993C16.6084 18.0243 15.8417 18.3327 15 18.3327C13.7834 18.3327 12.725 17.6827 12.15 16.716C11.8417 16.216 11.6667 15.6243 11.6667 14.9993C11.6667 13.9493 12.15 13.0077 12.9167 12.3994C13.4917 11.941 14.2167 11.666 15 11.666C16.8417 11.666 18.3334 13.1577 18.3334 14.9993Z" stroke="#2F648E" stroke-width="1.25" stroke-miterlimit="10" stroke-linecap="round" stroke-linejoin="round"/>
<path d="M13.7 15.0002L14.525 15.8252L16.3 14.1836" stroke="#2F648E" stroke-width="1.25" stroke-linecap="round" stroke-linejoin="round"/>
</svg>
