<svg width="20" height="18" viewBox="0 0 20 18" fill="none" xmlns="http://www.w3.org/2000/svg">
<path d="M18.7979 7.59805C18.7161 7.58477 18.6332 7.57864 18.5504 7.57972H4.44077L4.74844 7.43662C5.04917 7.29428 5.32275 7.10056 5.55694 6.86422L9.51363 2.90754C10.0347 2.41009 10.1223 1.60985 9.72112 1.01148C9.25422 0.373835 8.35882 0.235387 7.72114 0.702292C7.66962 0.740035 7.62065 0.781175 7.57464 0.825447L0.419694 7.98039C-0.139465 8.53893 -0.139957 9.44497 0.418576 10.0041C0.418933 10.0045 0.419336 10.0049 0.419694 10.0052L7.57464 17.1602C8.13425 17.7182 9.04029 17.717 9.59837 17.1574C9.64228 17.1133 9.68329 17.0665 9.72112 17.0171C10.1223 16.4187 10.0347 15.6185 9.51363 15.121L5.5641 11.1572C5.35415 10.947 5.11276 10.7708 4.84861 10.6349L4.41931 10.4417H18.4716C19.2026 10.4688 19.844 9.9582 19.9813 9.23966C20.1078 8.45955 19.578 7.7246 18.7979 7.59805Z" fill="black"/>
</svg>
