<svg width="30" height="30" viewBox="0 0 30 30" fill="none" xmlns="http://www.w3.org/2000/svg">
<g clip-path="url(#clip0_1549_5851)">
<g filter="url(#filter0_di_1549_5851)">
<path d="M23.1249 15C18.6399 14.9945 15.0054 11.3601 14.9999 6.87502C14.9999 6.66379 15.0162 6.45754 15.0312 6.25H5.62492C5.27975 6.25029 5.0002 6.53037 5.00049 6.87561C5.00055 6.91398 5.00412 6.9523 5.01115 6.99004L6.88615 16.9901C6.94147 17.2855 7.19928 17.4998 7.49992 17.5001H24.6674C26.2436 17.5002 27.5732 16.3266 27.7687 14.7626L27.9387 13.4051C26.5471 14.4401 24.8592 14.9993 23.1249 15Z" fill="#2F648E"/>
</g>
<g filter="url(#filter1_di_1549_5851)">
<path d="M23.125 30C24.8509 30 26.25 28.6009 26.25 26.875C26.25 25.1491 24.8509 23.75 23.125 23.75C21.3991 23.75 20 25.1491 20 26.875C20 28.6009 21.3991 30 23.125 30Z" fill="#2F648E"/>
</g>
<g filter="url(#filter2_di_1549_5851)">
<path d="M10.625 30C12.3509 30 13.75 28.6009 13.75 26.875C13.75 25.1491 12.3509 23.75 10.625 23.75C8.8991 23.75 7.5 25.1491 7.5 26.875C7.5 28.6009 8.8991 30 10.625 30Z" fill="#2F648E"/>
</g>
<g filter="url(#filter3_di_1549_5851)">
<path d="M25.625 22.5H11.1987C9.11508 22.4957 7.32199 21.0261 6.90873 18.9838L3.8625 3.75004H0.62502C0.279844 3.75004 0 3.4702 0 3.12502C0 2.77984 0.279844 2.5 0.62502 2.5H4.37502C4.67209 2.49994 4.92809 2.70895 4.9875 2.99998L8.13498 18.7375C8.43 20.1963 9.71045 21.2463 11.1987 21.25H25.625C25.9702 21.25 26.25 21.5298 26.25 21.875C26.25 22.2202 25.9702 22.5 25.625 22.5Z" fill="#2F648E"/>
</g>
<g filter="url(#filter4_di_1549_5851)">
<path d="M23.125 13.75C26.9219 13.75 30 10.6719 30 6.87498C30 3.07803 26.9219 0 23.125 0C19.328 0 16.25 3.07803 16.25 6.87498C16.25 10.6719 19.328 13.75 23.125 13.75Z" fill="#2FBBA4"/>
</g>
<path d="M21.8748 9.99924C21.7089 9.99953 21.5497 9.93391 21.4323 9.81672L18.9323 7.3167C18.6925 7.06844 18.6994 6.67275 18.9476 6.43293C19.1898 6.19902 19.5738 6.19902 19.816 6.43293L21.8747 8.49045L26.4322 3.93297C26.672 3.68471 27.0677 3.67785 27.316 3.91762C27.5643 4.15738 27.5711 4.55307 27.3313 4.80139C27.3263 4.8066 27.3212 4.8117 27.316 4.81674L22.316 9.81672C22.1989 9.93355 22.0403 9.99918 21.8748 9.99924Z" fill="#FAFAFA"/>
</g>
<defs>
<filter id="filter0_di_1549_5851" x="1.45587" y="1.81923" width="32.3903" height="20.7023" filterUnits="userSpaceOnUse" color-interpolation-filters="sRGB">
<feFlood flood-opacity="0" result="BackgroundImageFix"/>
<feColorMatrix in="SourceAlpha" type="matrix" values="0 0 0 0 0 0 0 0 0 0 0 0 0 0 0 0 0 0 127 0" result="hardAlpha"/>
<feMorphology radius="1.47692" operator="dilate" in="SourceAlpha" result="effect1_dropShadow_1549_5851"/>
<feOffset dy="1.47692"/>
<feGaussianBlur stdDeviation="1.03385"/>
<feComposite in2="hardAlpha" operator="out"/>
<feColorMatrix type="matrix" values="0 0 0 0 0.184314 0 0 0 0 0.733333 0 0 0 0 0.643137 0 0 0 0.1 0"/>
<feBlend mode="normal" in2="BackgroundImageFix" result="effect1_dropShadow_1549_5851"/>
<feBlend mode="normal" in="SourceGraphic" in2="effect1_dropShadow_1549_5851" result="shape"/>
<feColorMatrix in="SourceAlpha" type="matrix" values="0 0 0 0 0 0 0 0 0 0 0 0 0 0 0 0 0 0 127 0" result="hardAlpha"/>
<feOffset dx="5.90769" dy="-4.43077"/>
<feGaussianBlur stdDeviation="2.95385"/>
<feComposite in2="hardAlpha" operator="arithmetic" k2="-1" k3="1"/>
<feColorMatrix type="matrix" values="0 0 0 0 0 0 0 0 0 0 0 0 0 0 0 0 0 0 0.25 0"/>
<feBlend mode="normal" in2="shape" result="effect2_innerShadow_1549_5851"/>
</filter>
<filter id="filter1_di_1549_5851" x="16.4554" y="19.3192" width="15.7023" height="15.7023" filterUnits="userSpaceOnUse" color-interpolation-filters="sRGB">
<feFlood flood-opacity="0" result="BackgroundImageFix"/>
<feColorMatrix in="SourceAlpha" type="matrix" values="0 0 0 0 0 0 0 0 0 0 0 0 0 0 0 0 0 0 127 0" result="hardAlpha"/>
<feMorphology radius="1.47692" operator="dilate" in="SourceAlpha" result="effect1_dropShadow_1549_5851"/>
<feOffset dy="1.47692"/>
<feGaussianBlur stdDeviation="1.03385"/>
<feComposite in2="hardAlpha" operator="out"/>
<feColorMatrix type="matrix" values="0 0 0 0 0.184314 0 0 0 0 0.733333 0 0 0 0 0.643137 0 0 0 0.1 0"/>
<feBlend mode="normal" in2="BackgroundImageFix" result="effect1_dropShadow_1549_5851"/>
<feBlend mode="normal" in="SourceGraphic" in2="effect1_dropShadow_1549_5851" result="shape"/>
<feColorMatrix in="SourceAlpha" type="matrix" values="0 0 0 0 0 0 0 0 0 0 0 0 0 0 0 0 0 0 127 0" result="hardAlpha"/>
<feOffset dx="5.90769" dy="-4.43077"/>
<feGaussianBlur stdDeviation="2.95385"/>
<feComposite in2="hardAlpha" operator="arithmetic" k2="-1" k3="1"/>
<feColorMatrix type="matrix" values="0 0 0 0 0 0 0 0 0 0 0 0 0 0 0 0 0 0 0.25 0"/>
<feBlend mode="normal" in2="shape" result="effect2_innerShadow_1549_5851"/>
</filter>
<filter id="filter2_di_1549_5851" x="3.95538" y="19.3192" width="15.7023" height="15.7023" filterUnits="userSpaceOnUse" color-interpolation-filters="sRGB">
<feFlood flood-opacity="0" result="BackgroundImageFix"/>
<feColorMatrix in="SourceAlpha" type="matrix" values="0 0 0 0 0 0 0 0 0 0 0 0 0 0 0 0 0 0 127 0" result="hardAlpha"/>
<feMorphology radius="1.47692" operator="dilate" in="SourceAlpha" result="effect1_dropShadow_1549_5851"/>
<feOffset dy="1.47692"/>
<feGaussianBlur stdDeviation="1.03385"/>
<feComposite in2="hardAlpha" operator="out"/>
<feColorMatrix type="matrix" values="0 0 0 0 0.184314 0 0 0 0 0.733333 0 0 0 0 0.643137 0 0 0 0.1 0"/>
<feBlend mode="normal" in2="BackgroundImageFix" result="effect1_dropShadow_1549_5851"/>
<feBlend mode="normal" in="SourceGraphic" in2="effect1_dropShadow_1549_5851" result="shape"/>
<feColorMatrix in="SourceAlpha" type="matrix" values="0 0 0 0 0 0 0 0 0 0 0 0 0 0 0 0 0 0 127 0" result="hardAlpha"/>
<feOffset dx="5.90769" dy="-4.43077"/>
<feGaussianBlur stdDeviation="2.95385"/>
<feComposite in2="hardAlpha" operator="arithmetic" k2="-1" k3="1"/>
<feColorMatrix type="matrix" values="0 0 0 0 0 0 0 0 0 0 0 0 0 0 0 0 0 0 0.25 0"/>
<feBlend mode="normal" in2="shape" result="effect2_innerShadow_1549_5851"/>
</filter>
<filter id="filter3_di_1549_5851" x="-3.54462" y="-1.93077" width="35.7023" height="29.4523" filterUnits="userSpaceOnUse" color-interpolation-filters="sRGB">
<feFlood flood-opacity="0" result="BackgroundImageFix"/>
<feColorMatrix in="SourceAlpha" type="matrix" values="0 0 0 0 0 0 0 0 0 0 0 0 0 0 0 0 0 0 127 0" result="hardAlpha"/>
<feMorphology radius="1.47692" operator="dilate" in="SourceAlpha" result="effect1_dropShadow_1549_5851"/>
<feOffset dy="1.47692"/>
<feGaussianBlur stdDeviation="1.03385"/>
<feComposite in2="hardAlpha" operator="out"/>
<feColorMatrix type="matrix" values="0 0 0 0 0.184314 0 0 0 0 0.733333 0 0 0 0 0.643137 0 0 0 0.1 0"/>
<feBlend mode="normal" in2="BackgroundImageFix" result="effect1_dropShadow_1549_5851"/>
<feBlend mode="normal" in="SourceGraphic" in2="effect1_dropShadow_1549_5851" result="shape"/>
<feColorMatrix in="SourceAlpha" type="matrix" values="0 0 0 0 0 0 0 0 0 0 0 0 0 0 0 0 0 0 127 0" result="hardAlpha"/>
<feOffset dx="5.90769" dy="-4.43077"/>
<feGaussianBlur stdDeviation="2.95385"/>
<feComposite in2="hardAlpha" operator="arithmetic" k2="-1" k3="1"/>
<feColorMatrix type="matrix" values="0 0 0 0 0 0 0 0 0 0 0 0 0 0 0 0 0 0 0.25 0"/>
<feBlend mode="normal" in2="shape" result="effect2_innerShadow_1549_5851"/>
</filter>
<filter id="filter4_di_1549_5851" x="14.0952" y="-2.69344" width="19.496" height="19.496" filterUnits="userSpaceOnUse" color-interpolation-filters="sRGB">
<feFlood flood-opacity="0" result="BackgroundImageFix"/>
<feColorMatrix in="SourceAlpha" type="matrix" values="0 0 0 0 0 0 0 0 0 0 0 0 0 0 0 0 0 0 127 0" result="hardAlpha"/>
<feMorphology radius="0.897813" operator="dilate" in="SourceAlpha" result="effect1_dropShadow_1549_5851"/>
<feOffset dy="0.897813"/>
<feGaussianBlur stdDeviation="0.628469"/>
<feComposite in2="hardAlpha" operator="out"/>
<feColorMatrix type="matrix" values="0 0 0 0 0.184314 0 0 0 0 0.733333 0 0 0 0 0.643137 0 0 0 0.1 0"/>
<feBlend mode="normal" in2="BackgroundImageFix" result="effect1_dropShadow_1549_5851"/>
<feBlend mode="normal" in="SourceGraphic" in2="effect1_dropShadow_1549_5851" result="shape"/>
<feColorMatrix in="SourceAlpha" type="matrix" values="0 0 0 0 0 0 0 0 0 0 0 0 0 0 0 0 0 0 127 0" result="hardAlpha"/>
<feOffset dx="3.59125" dy="-2.69344"/>
<feGaussianBlur stdDeviation="1.79563"/>
<feComposite in2="hardAlpha" operator="arithmetic" k2="-1" k3="1"/>
<feColorMatrix type="matrix" values="0 0 0 0 0 0 0 0 0 0 0 0 0 0 0 0 0 0 0.25 0"/>
<feBlend mode="normal" in2="shape" result="effect2_innerShadow_1549_5851"/>
</filter>
<clipPath id="clip0_1549_5851">
<rect width="30" height="30" fill="white"/>
</clipPath>
</defs>
</svg>
