<svg width="20" height="20" viewBox="0 0 20 20" fill="none" xmlns="http://www.w3.org/2000/svg">
<path d="M14.1666 17.5H5.83329C2.49996 17.5 1.66663 16.6667 1.66663 13.3333V6.66667C1.66663 3.33333 2.49996 2.5 5.83329 2.5H14.1666C17.5 2.5 18.3333 3.33333 18.3333 6.66667V13.3333C18.3333 16.6667 17.5 17.5 14.1666 17.5Z" stroke="#2F648E" stroke-width="1.5" stroke-linecap="round" stroke-linejoin="round"/>
<path d="M11.6666 6.66797H15.8333" stroke="#2F648E" stroke-width="1.5" stroke-linecap="round" stroke-linejoin="round"/>
<path d="M12.5 10H15.8333" stroke="#2F648E" stroke-width="1.5" stroke-linecap="round" stroke-linejoin="round"/>
<path d="M14.1666 13.332H15.8333" stroke="#2F648E" stroke-width="1.5" stroke-linecap="round" stroke-linejoin="round"/>
<path d="M7.08328 9.40729C7.91631 9.40729 8.59162 8.73199 8.59162 7.89896C8.59162 7.06593 7.91631 6.39062 7.08328 6.39062C6.25026 6.39062 5.57495 7.06593 5.57495 7.89896C5.57495 8.73199 6.25026 9.40729 7.08328 9.40729Z" stroke="#2F648E" stroke-width="1.5" stroke-linecap="round" stroke-linejoin="round"/>
<path d="M9.99996 13.6065C9.88329 12.3982 8.92496 11.4482 7.71663 11.3398C7.29996 11.2982 6.87496 11.2982 6.44996 11.3398C5.24163 11.4565 4.28329 12.3982 4.16663 13.6065" stroke="#2F648E" stroke-width="1.5" stroke-linecap="round" stroke-linejoin="round"/>
</svg>
