<svg width="18" height="16" viewBox="0 0 18 16" fill="none" xmlns="http://www.w3.org/2000/svg">
<path d="M5.342 8.67999C5.59171 8.39354 5.3883 7.94629 5.00827 7.94629H3.87049C3.86308 7.83371 3.85893 7.72026 3.85893 7.60585C3.85893 4.77102 6.1652 2.46475 9 2.46475C10.3623 2.46475 11.6023 2.99754 12.5232 3.86545L14.1276 1.98852C12.7232 0.703738 10.9157 0 9 0C6.96841 0 5.05843 0.791165 3.62187 2.22769C2.18535 3.66425 1.39418 5.57423 1.39418 7.60582C1.39418 7.71973 1.39703 7.83318 1.40198 7.94625H0.443617C0.0635951 7.94625 -0.139851 8.39351 0.10989 8.67995L2.27183 11.1598L2.72593 11.6807L4.35631 9.81054L5.342 8.67999Z" fill="white"/>
<path d="M17.8914 7.23511L16.2788 5.38547L15.2753 4.23438L13.8425 5.87786L12.6593 7.23511C12.4096 7.52155 12.613 7.96881 12.993 7.96881H14.1295C13.9435 10.6358 11.7146 12.7489 9.00124 12.7489C7.81678 12.7489 6.72473 12.346 5.8545 11.6704L4.25 13.5475C5.59415 14.6269 7.25249 15.2136 9.00128 15.2136C11.0329 15.2136 12.9428 14.4225 14.3794 12.986C15.7305 11.6348 16.5105 9.86484 16.5985 7.96884H17.5577C17.9376 7.96881 18.1411 7.52155 17.8914 7.23511Z" fill="white"/>
</svg>
