<svg width="21" height="21" viewBox="0 0 21 21" fill="none" xmlns="http://www.w3.org/2000/svg">
<path d="M8.00004 8.57918C8.92052 8.57918 9.66671 7.83299 9.66671 6.91252C9.66671 5.99204 8.92052 5.24585 8.00004 5.24585C7.07957 5.24585 6.33337 5.99204 6.33337 6.91252C6.33337 7.83299 7.07957 8.57918 8.00004 8.57918Z" stroke="#2F648E" stroke-width="1.5" stroke-linecap="round" stroke-linejoin="round"/>
<path d="M11.3333 1.9126H7.99996C3.83329 1.9126 2.16663 3.57926 2.16663 7.74593V12.7459C2.16663 16.9126 3.83329 18.5793 7.99996 18.5793H13C17.1666 18.5793 18.8333 16.9126 18.8333 12.7459V8.57926" stroke="#2F648E" stroke-width="1.5" stroke-linecap="round" stroke-linejoin="round"/>
<path d="M15.5 6.9126V1.9126L17.1667 3.57926" stroke="#2F648E" stroke-width="1.5" stroke-linecap="round" stroke-linejoin="round"/>
<path d="M15.4999 1.9126L13.8333 3.57926" stroke="#2F648E" stroke-width="1.5" stroke-linecap="round" stroke-linejoin="round"/>
<path d="M2.72498 16.0374L6.83331 13.2791C7.49164 12.8374 8.44164 12.8874 9.03331 13.3957L9.30831 13.6374C9.95831 14.1957 11.0083 14.1957 11.6583 13.6374L15.125 10.6624C15.775 10.1041 16.825 10.1041 17.475 10.6624L18.8333 11.8291" stroke="#2F648E" stroke-width="1.5" stroke-linecap="round" stroke-linejoin="round"/>
</svg>
