<svg width="16" height="16" viewBox="0 0 16 16" fill="none" xmlns="http://www.w3.org/2000/svg">
<path d="M14 3.98641C11.78 3.76641 9.54667 3.65308 7.32 3.65308C6 3.65308 4.68 3.71974 3.36 3.85308L2 3.98641" stroke="#DD4646" stroke-width="1.5" stroke-linecap="round" stroke-linejoin="round"/>
<path d="M5.66553 3.3113L5.81219 2.43797C5.91886 1.80463 5.99886 1.3313 7.12553 1.3313H8.87219C9.99886 1.3313 10.0855 1.8313 10.1855 2.44463L10.3322 3.3113" stroke="#DD4646" stroke-width="1.5" stroke-linecap="round" stroke-linejoin="round"/>
<path d="M12.5679 6.09375L12.1346 12.8071C12.0612 13.8537 12.0012 14.6671 10.1412 14.6671H5.86124C4.00124 14.6671 3.94124 13.8537 3.8679 12.8071L3.43457 6.09375" stroke="#DD4646" stroke-width="1.5" stroke-linecap="round" stroke-linejoin="round"/>
<path d="M6.8877 11H9.1077" stroke="#DD4646" stroke-width="1.5" stroke-linecap="round" stroke-linejoin="round"/>
<path d="M6.33447 8.3313H9.66781" stroke="#DD4646" stroke-width="1.5" stroke-linecap="round" stroke-linejoin="round"/>
</svg>
