<svg width="20" height="20" viewBox="0 0 20 20" fill="none" xmlns="http://www.w3.org/2000/svg">
<path d="M10.1167 12.5589V10.9255C10.1167 8.82553 11.8167 7.11719 13.925 7.11719H15.5583" stroke="#2F648E" stroke-width="1.5" stroke-linecap="round" stroke-linejoin="round"/>
<path d="M4.68359 7.125H6.31695C8.41695 7.125 10.1253 8.82499 10.1253 10.9333V11.475V14.375" stroke="#2F648E" stroke-width="1.5" stroke-linecap="round" stroke-linejoin="round"/>
<path d="M5.95019 5.625L4.4502 7.125L5.95019 8.62501" stroke="#2F648E" stroke-width="1.5" stroke-linecap="round" stroke-linejoin="round"/>
<path d="M14.0503 5.625L15.5503 7.125L14.0503 8.62501" stroke="#2F648E" stroke-width="1.5" stroke-linecap="round" stroke-linejoin="round"/>
<path d="M7.49984 18.3346H12.4998C16.6665 18.3346 18.3332 16.668 18.3332 12.5013V7.5013C18.3332 3.33464 16.6665 1.66797 12.4998 1.66797H7.49984C3.33317 1.66797 1.6665 3.33464 1.6665 7.5013V12.5013C1.6665 16.668 3.33317 18.3346 7.49984 18.3346Z" stroke="#2F648E" stroke-width="1.5" stroke-linecap="round" stroke-linejoin="round"/>
</svg>
