<svg width="20" height="20" viewBox="0 0 20 20" fill="none" xmlns="http://www.w3.org/2000/svg">
<path d="M1.66345 7.08203H9.58012" stroke="#2F648E" stroke-width="1.5" stroke-miterlimit="10" stroke-linecap="round" stroke-linejoin="round"/>
<path d="M4.99677 13.75H6.66343" stroke="#2F648E" stroke-width="1.5" stroke-miterlimit="10" stroke-linecap="round" stroke-linejoin="round"/>
<path d="M8.74677 13.75H12.0801" stroke="#2F648E" stroke-width="1.5" stroke-miterlimit="10" stroke-linecap="round" stroke-linejoin="round"/>
<path d="M18.3301 10.0263V13.4263C18.3301 16.3513 17.5885 17.0846 14.6301 17.0846H5.36345C2.40512 17.0846 1.66345 16.3513 1.66345 13.4263V6.5763C1.66345 3.6513 2.40512 2.91797 5.36345 2.91797H12.0801" stroke="#2F648E" stroke-width="1.5" stroke-linecap="round" stroke-linejoin="round"/>
<path d="M15.8968 3.44208L12.8051 6.53375C12.6885 6.65042 12.5718 6.88375 12.5468 7.05042L12.3801 8.23375C12.3218 8.65875 12.6218 8.95875 13.0468 8.90042L14.2301 8.73375C14.3968 8.70875 14.6301 8.59208 14.7468 8.47542L17.8385 5.38375C18.3718 4.85042 18.6218 4.23375 17.8385 3.45042C17.0468 2.65875 16.4301 2.90875 15.8968 3.44208Z" stroke="#2F648E" stroke-width="1.5" stroke-miterlimit="10" stroke-linecap="round" stroke-linejoin="round"/>
<path d="M15.4551 3.88281C15.7217 4.82448 16.4551 5.55781 17.3884 5.81615" stroke="#2F648E" stroke-width="1.5" stroke-miterlimit="10" stroke-linecap="round" stroke-linejoin="round"/>
</svg>
