<svg width="20" height="20" viewBox="0 0 20 20" fill="none" xmlns="http://www.w3.org/2000/svg">
<path d="M6.66675 1.66797V4.16797" stroke="#2F648E" stroke-width="1.5" stroke-miterlimit="10" stroke-linecap="round" stroke-linejoin="round"/>
<path d="M13.3333 1.66797V4.16797" stroke="#2F648E" stroke-width="1.5" stroke-miterlimit="10" stroke-linecap="round" stroke-linejoin="round"/>
<path d="M17.5 7.08464V11.3596C16.7583 10.768 15.8167 10.418 14.7917 10.418C13.7667 10.418 12.8083 10.7763 12.0583 11.3846C11.05 12.1763 10.4167 13.418 10.4167 14.793C10.4167 15.6096 10.65 16.393 11.05 17.043C11.3583 17.5513 11.7583 17.993 12.2333 18.3346H6.66667C3.75 18.3346 2.5 16.668 2.5 14.168V7.08464C2.5 4.58464 3.75 2.91797 6.66667 2.91797H13.3333C16.25 2.91797 17.5 4.58464 17.5 7.08464Z" stroke="#2F648E" stroke-width="1.5" stroke-miterlimit="10" stroke-linecap="round" stroke-linejoin="round"/>
<path d="M5.83325 9.16797H10.8333" stroke="#2F648E" stroke-width="1.5" stroke-miterlimit="10" stroke-linecap="round" stroke-linejoin="round"/>
<path d="M5.83325 13.332H8.01658" stroke="#2F648E" stroke-width="1.5" stroke-miterlimit="10" stroke-linecap="round" stroke-linejoin="round"/>
<path d="M19.1667 14.793C19.1667 15.6096 18.9334 16.393 18.5334 17.043C18.3001 17.443 18.0084 17.793 17.6668 18.0763C16.9001 18.7596 15.9001 19.168 14.7917 19.168C13.8334 19.168 12.9501 18.8596 12.2334 18.3346C11.7584 17.993 11.3584 17.5513 11.0501 17.043C10.6501 16.393 10.4167 15.6096 10.4167 14.793C10.4167 13.418 11.0501 12.1763 12.0584 11.3846C12.8084 10.7763 13.7667 10.418 14.7917 10.418C15.8167 10.418 16.7584 10.768 17.5001 11.3596C18.5167 12.1596 19.1667 13.4013 19.1667 14.793Z" stroke="#2F648E" stroke-width="1.5" stroke-miterlimit="10" stroke-linecap="round" stroke-linejoin="round"/>
<path d="M14.7916 16.8737C14.7916 15.7237 15.7249 14.7904 16.8749 14.7904C15.7249 14.7904 14.7916 13.857 14.7916 12.707C14.7916 13.857 13.8583 14.7904 12.7083 14.7904C13.8583 14.7904 14.7916 15.7237 14.7916 16.8737Z" stroke="#2F648E" stroke-width="1.5" stroke-linecap="round" stroke-linejoin="round"/>
</svg>
