<svg width="1062" height="1058" viewBox="0 0 1062 1058" fill="none" xmlns="http://www.w3.org/2000/svg">
<g filter="url(#filter0_di_2034_6567)">
<path d="M830.381 704.635C826.426 700.68 819.834 700.68 815.879 704.635C786.214 734.3 756.99 763.525 727.106 793.409C723.15 797.364 723.15 803.956 727.106 807.911L890.149 970.955C904.432 985.238 923.11 992.269 941.787 992.269C960.465 992.269 979.142 985.238 993.425 970.955C1007.71 956.672 1014.74 937.995 1014.74 919.317C1014.74 900.639 1007.71 881.962 993.425 867.679L830.381 704.635Z" fill="#2FBBA4"/>
</g>
<g filter="url(#filter1_di_2034_6567)">
<path d="M830.381 704.635C826.426 700.68 819.834 700.68 815.879 704.635C786.214 734.3 756.99 763.525 727.106 793.409C723.15 797.364 723.15 803.956 727.106 807.911L745.344 826.149L848.619 722.873L830.381 704.635Z" fill="#2F648E"/>
</g>
<g filter="url(#filter2_di_2034_6567)">
<path d="M688.212 651.459C684.256 647.504 677.664 647.504 673.709 651.459C669.754 655.414 669.754 662.006 673.709 665.962L717.656 709.909C721.611 713.864 728.204 713.864 732.159 709.909C736.114 705.954 736.114 699.361 732.159 695.406L688.212 651.459Z" fill="#2F648E"/>
</g>
<g filter="url(#filter3_di_2034_6567)">
<path d="M697.88 528.407C693.925 524.452 687.333 524.452 683.378 528.407C639.211 572.574 595.044 616.741 550.657 661.128C546.702 665.083 546.702 671.675 550.657 675.63L590.869 715.842C597.461 722.434 606.031 725.73 614.6 725.73C623.17 725.73 631.74 722.434 638.332 715.842L738.311 615.862C744.904 609.27 748.2 600.7 748.2 592.131C748.2 583.561 744.904 574.991 738.311 568.399L697.88 528.407Z" fill="#2F648E"/>
</g>
<g filter="url(#filter4_di_2034_6567)">
<path d="M738.751 409.75C739.19 404.037 735.016 398.983 729.302 398.544C727.105 398.324 725.127 398.764 723.37 399.862C708.867 337.897 657.888 159.911 654.592 156.395C652.615 154.198 650.417 151.781 648 149.144C646.023 146.947 643.825 144.749 641.628 142.552C641.408 142.332 641.188 142.112 641.188 141.893C575.268 75.972 488.912 43.0117 402.556 43.0117C316.2 43.0117 229.844 75.972 164.143 141.893C98.4418 207.813 65.2617 294.169 65.2617 380.306C65.2617 466.662 98.222 553.018 164.143 618.938C230.063 684.859 316.419 717.819 402.556 717.819C488.692 717.819 575.268 684.859 640.969 618.938C669.534 590.373 691.947 557.632 708.208 522.914C725.347 487.097 735.455 448.643 738.751 409.75Z" fill="#2F648E"/>
</g>
<path d="M664.041 421.176C664.92 415.463 660.965 410.409 655.472 409.53C654.153 409.311 652.835 409.311 651.516 409.75C638.992 356.794 591.529 195.288 588.013 191.992C536.375 141.233 468.916 115.964 401.457 116.184C334.218 116.403 266.979 142.332 215.561 193.53C163.923 245.168 137.995 312.847 137.995 380.525C137.995 448.204 163.923 515.882 215.561 567.52C267.199 619.158 334.878 645.087 402.556 645.087C470.235 645.087 537.913 619.158 589.551 567.52C609.767 547.305 626.027 524.452 638.332 500.281C651.297 475.231 659.866 448.424 664.041 421.176Z" fill="#EFEFEF"/>
<g filter="url(#filter5_di_2034_6567)">
<path d="M252.696 598.504C297.742 629.486 350.258 645.088 402.555 645.088C456.171 645.088 510.006 628.827 555.711 596.306V525.332C555.711 492.371 542.307 462.487 520.553 440.733C499.898 420.078 471.772 406.894 440.789 405.576V383.163C440.789 380.526 438.592 378.329 435.955 378.329C414.641 378.329 393.766 378.329 372.671 378.329C370.035 378.329 367.837 380.526 367.837 383.163V405.576C336.854 406.894 308.728 420.078 288.073 440.733C266.319 462.487 252.916 492.371 252.916 525.332V598.504H252.696Z" fill="#2FBBA4"/>
</g>
<path d="M333.339 635.858C338.833 637.396 344.326 638.715 349.82 639.813V538.955C349.82 534.34 346.084 530.825 341.689 530.825C337.075 530.825 333.559 534.56 333.559 538.955V635.858H333.339Z" fill="#EFEFEF"/>
<path d="M461.665 638.495C467.158 637.177 472.651 635.858 478.145 634.1V538.955C478.145 534.34 474.409 530.825 470.014 530.825C465.4 530.825 461.884 534.56 461.884 538.955V638.495H461.665Z" fill="#EFEFEF"/>
<g filter="url(#filter6_di_2034_6567)">
<path d="M645.364 767.7L790.169 622.894C795.882 617.181 803.353 614.324 810.824 614.324C818.296 614.324 825.766 617.181 831.48 622.894L858.287 649.702C864 655.415 866.857 662.886 866.857 670.357C866.857 677.828 864 685.299 858.287 691.012L713.482 835.818C707.769 841.531 700.298 844.387 692.826 844.387C685.355 844.387 677.884 841.531 672.171 835.818L645.364 809.01C639.651 803.297 636.794 795.826 636.794 788.355C636.794 780.884 639.651 773.413 645.364 767.7Z" fill="#2FBBA4"/>
</g>
<g filter="url(#filter7_di_2034_6567)">
<path d="M673.49 150.242C712.383 150.242 747.54 166.063 772.81 191.333C798.299 216.822 813.901 251.98 813.901 290.653C813.901 329.546 798.08 364.704 772.81 389.974C747.321 415.463 712.163 431.064 673.49 431.064C634.596 431.064 599.439 415.243 574.169 389.974C548.68 364.484 533.079 329.327 533.079 290.653C533.079 251.76 548.9 216.602 574.169 191.333C599.439 165.843 634.596 150.242 673.49 150.242Z" fill="#2FBBA4"/>
</g>
<path d="M732.159 246.487C736.114 242.531 736.114 235.939 732.159 231.984C728.203 228.029 721.611 228.029 717.656 231.984L614.38 335.26C610.425 339.215 610.425 345.807 614.38 349.762C618.336 353.717 624.928 353.717 628.883 349.762L732.159 246.487Z" fill="white"/>
<path d="M629.103 231.984C625.147 228.029 618.555 228.029 614.6 231.984C610.645 235.939 610.645 242.531 614.6 246.487L717.876 349.762C721.831 353.717 728.423 353.717 732.378 349.762C736.334 345.807 736.334 339.215 732.378 335.26L629.103 231.984Z" fill="white"/>
<path d="M372.672 377.889C370.035 377.889 367.837 380.086 367.837 382.723V405.136C349.819 405.795 332.9 410.629 317.738 418.54C318.836 421.177 319.496 422.934 319.715 423.374C328.285 438.316 340.81 450.621 355.532 459.191C369.815 467.541 386.515 472.375 404.314 472.375C422.112 472.375 438.812 467.541 453.095 459.191C468.037 450.621 480.342 438.096 488.912 423.374C489.131 423.154 489.791 421.396 491.109 418.54C475.947 410.629 458.808 405.795 440.79 405.136V382.723C440.79 380.086 438.592 377.889 435.736 377.889C414.861 377.889 393.766 377.889 372.672 377.889Z" fill="#D3D3D3"/>
<path d="M372.672 377.889C370.035 377.889 367.838 380.086 367.838 382.723V394.149C379.264 399.203 391.789 401.84 404.534 401.84C417.278 401.84 429.803 399.203 441.23 394.149V382.723C441.23 380.086 439.032 377.889 436.176 377.889C414.861 377.889 393.767 377.889 372.672 377.889Z" fill="#C6C6C6"/>
<path d="M404.313 190.235C427.166 190.235 448.041 199.683 463.203 214.845C478.364 230.007 487.813 250.882 487.813 273.734V311.309C487.813 334.162 478.364 355.037 463.203 370.198C448.041 385.36 427.166 394.809 404.313 394.809C381.461 394.809 360.586 385.36 345.424 370.198C330.263 355.037 320.814 334.162 320.814 311.309V273.734C320.814 250.882 330.263 230.007 345.424 214.845C360.586 199.683 381.461 190.235 404.313 190.235Z" fill="#D3D3D3"/>
<g filter="url(#filter8_di_2034_6567)">
<path d="M404.313 190.235C427.166 190.235 448.041 199.683 463.203 214.845C477.705 229.348 486.934 248.904 487.593 270.658C470.454 274.613 451.557 278.129 437.054 279.008C416.838 280.107 403.654 275.932 407.829 261.869C409.367 257.034 398.82 255.277 383.878 255.057C366.079 254.837 342.348 257.254 321.913 260.331C324.769 242.752 333.339 227.15 345.205 215.065C360.586 199.683 381.461 190.235 404.313 190.235Z" fill="#2F648E"/>
</g>
<defs>
<filter id="filter0_di_2034_6567" x="677.271" y="643.084" width="415.582" height="415.582" filterUnits="userSpaceOnUse" color-interpolation-filters="sRGB">
<feFlood flood-opacity="0" result="BackgroundImageFix"/>
<feColorMatrix in="SourceAlpha" type="matrix" values="0 0 0 0 0 0 0 0 0 0 0 0 0 0 0 0 0 0 127 0" result="hardAlpha"/>
<feMorphology radius="19.5284" operator="dilate" in="SourceAlpha" result="effect1_dropShadow_2034_6567"/>
<feOffset dy="19.5284"/>
<feGaussianBlur stdDeviation="13.6699"/>
<feComposite in2="hardAlpha" operator="out"/>
<feColorMatrix type="matrix" values="0 0 0 0 0.184314 0 0 0 0 0.733333 0 0 0 0 0.643137 0 0 0 0.1 0"/>
<feBlend mode="normal" in2="BackgroundImageFix" result="effect1_dropShadow_2034_6567"/>
<feBlend mode="normal" in="SourceGraphic" in2="effect1_dropShadow_2034_6567" result="shape"/>
<feColorMatrix in="SourceAlpha" type="matrix" values="0 0 0 0 0 0 0 0 0 0 0 0 0 0 0 0 0 0 127 0" result="hardAlpha"/>
<feOffset dx="78.1135" dy="-58.5851"/>
<feGaussianBlur stdDeviation="39.0567"/>
<feComposite in2="hardAlpha" operator="arithmetic" k2="-1" k3="1"/>
<feColorMatrix type="matrix" values="0 0 0 0 0 0 0 0 0 0 0 0 0 0 0 0 0 0 0.25 0"/>
<feBlend mode="normal" in2="shape" result="effect2_innerShadow_2034_6567"/>
</filter>
<filter id="filter1_di_2034_6567" x="650.806" y="610.003" width="320.035" height="320.035" filterUnits="userSpaceOnUse" color-interpolation-filters="sRGB">
<feFlood flood-opacity="0" result="BackgroundImageFix"/>
<feColorMatrix in="SourceAlpha" type="matrix" values="0 0 0 0 0 0 0 0 0 0 0 0 0 0 0 0 0 0 127 0" result="hardAlpha"/>
<feMorphology radius="30.5554" operator="dilate" in="SourceAlpha" result="effect1_dropShadow_2034_6567"/>
<feOffset dy="30.5554"/>
<feGaussianBlur stdDeviation="21.3888"/>
<feComposite in2="hardAlpha" operator="out"/>
<feColorMatrix type="matrix" values="0 0 0 0 0.184314 0 0 0 0 0.733333 0 0 0 0 0.643137 0 0 0 0.1 0"/>
<feBlend mode="normal" in2="BackgroundImageFix" result="effect1_dropShadow_2034_6567"/>
<feBlend mode="normal" in="SourceGraphic" in2="effect1_dropShadow_2034_6567" result="shape"/>
<feColorMatrix in="SourceAlpha" type="matrix" values="0 0 0 0 0 0 0 0 0 0 0 0 0 0 0 0 0 0 127 0" result="hardAlpha"/>
<feOffset dx="122.222" dy="-91.6663"/>
<feGaussianBlur stdDeviation="61.1108"/>
<feComposite in2="hardAlpha" operator="arithmetic" k2="-1" k3="1"/>
<feColorMatrix type="matrix" values="0 0 0 0 0 0 0 0 0 0 0 0 0 0 0 0 0 0 0.25 0"/>
<feBlend mode="normal" in2="shape" result="effect2_innerShadow_2034_6567"/>
</filter>
<filter id="filter2_di_2034_6567" x="597.41" y="556.826" width="259.937" height="259.937" filterUnits="userSpaceOnUse" color-interpolation-filters="sRGB">
<feFlood flood-opacity="0" result="BackgroundImageFix"/>
<feColorMatrix in="SourceAlpha" type="matrix" values="0 0 0 0 0 0 0 0 0 0 0 0 0 0 0 0 0 0 127 0" result="hardAlpha"/>
<feMorphology radius="30.5554" operator="dilate" in="SourceAlpha" result="effect1_dropShadow_2034_6567"/>
<feOffset dy="30.5554"/>
<feGaussianBlur stdDeviation="21.3888"/>
<feComposite in2="hardAlpha" operator="out"/>
<feColorMatrix type="matrix" values="0 0 0 0 0.184314 0 0 0 0 0.733333 0 0 0 0 0.643137 0 0 0 0.1 0"/>
<feBlend mode="normal" in2="BackgroundImageFix" result="effect1_dropShadow_2034_6567"/>
<feBlend mode="normal" in="SourceGraphic" in2="effect1_dropShadow_2034_6567" result="shape"/>
<feColorMatrix in="SourceAlpha" type="matrix" values="0 0 0 0 0 0 0 0 0 0 0 0 0 0 0 0 0 0 127 0" result="hardAlpha"/>
<feOffset dx="122.222" dy="-91.6663"/>
<feGaussianBlur stdDeviation="61.1108"/>
<feComposite in2="hardAlpha" operator="arithmetic" k2="-1" k3="1"/>
<feColorMatrix type="matrix" values="0 0 0 0 0 0 0 0 0 0 0 0 0 0 0 0 0 0 0.25 0"/>
<feBlend mode="normal" in2="shape" result="effect2_innerShadow_2034_6567"/>
</filter>
<filter id="filter3_di_2034_6567" x="474.358" y="433.775" width="396.063" height="395.844" filterUnits="userSpaceOnUse" color-interpolation-filters="sRGB">
<feFlood flood-opacity="0" result="BackgroundImageFix"/>
<feColorMatrix in="SourceAlpha" type="matrix" values="0 0 0 0 0 0 0 0 0 0 0 0 0 0 0 0 0 0 127 0" result="hardAlpha"/>
<feMorphology radius="30.5554" operator="dilate" in="SourceAlpha" result="effect1_dropShadow_2034_6567"/>
<feOffset dy="30.5554"/>
<feGaussianBlur stdDeviation="21.3888"/>
<feComposite in2="hardAlpha" operator="out"/>
<feColorMatrix type="matrix" values="0 0 0 0 0.184314 0 0 0 0 0.733333 0 0 0 0 0.643137 0 0 0 0.1 0"/>
<feBlend mode="normal" in2="BackgroundImageFix" result="effect1_dropShadow_2034_6567"/>
<feBlend mode="normal" in="SourceGraphic" in2="effect1_dropShadow_2034_6567" result="shape"/>
<feColorMatrix in="SourceAlpha" type="matrix" values="0 0 0 0 0 0 0 0 0 0 0 0 0 0 0 0 0 0 127 0" result="hardAlpha"/>
<feOffset dx="122.222" dy="-91.6663"/>
<feGaussianBlur stdDeviation="61.1108"/>
<feComposite in2="hardAlpha" operator="arithmetic" k2="-1" k3="1"/>
<feColorMatrix type="matrix" values="0 0 0 0 0 0 0 0 0 0 0 0 0 0 0 0 0 0 0.25 0"/>
<feBlend mode="normal" in2="shape" result="effect2_innerShadow_2034_6567"/>
</filter>
<filter id="filter4_di_2034_6567" x="-8.07128" y="-48.6545" width="869.076" height="870.362" filterUnits="userSpaceOnUse" color-interpolation-filters="sRGB">
<feFlood flood-opacity="0" result="BackgroundImageFix"/>
<feColorMatrix in="SourceAlpha" type="matrix" values="0 0 0 0 0 0 0 0 0 0 0 0 0 0 0 0 0 0 127 0" result="hardAlpha"/>
<feMorphology radius="30.5554" operator="dilate" in="SourceAlpha" result="effect1_dropShadow_2034_6567"/>
<feOffset dy="30.5554"/>
<feGaussianBlur stdDeviation="21.3888"/>
<feComposite in2="hardAlpha" operator="out"/>
<feColorMatrix type="matrix" values="0 0 0 0 0.184314 0 0 0 0 0.733333 0 0 0 0 0.643137 0 0 0 0.1 0"/>
<feBlend mode="normal" in2="BackgroundImageFix" result="effect1_dropShadow_2034_6567"/>
<feBlend mode="normal" in="SourceGraphic" in2="effect1_dropShadow_2034_6567" result="shape"/>
<feColorMatrix in="SourceAlpha" type="matrix" values="0 0 0 0 0 0 0 0 0 0 0 0 0 0 0 0 0 0 127 0" result="hardAlpha"/>
<feOffset dx="122.222" dy="-91.6663"/>
<feGaussianBlur stdDeviation="61.1108"/>
<feComposite in2="hardAlpha" operator="arithmetic" k2="-1" k3="1"/>
<feColorMatrix type="matrix" values="0 0 0 0 0 0 0 0 0 0 0 0 0 0 0 0 0 0 0.25 0"/>
<feBlend mode="normal" in2="shape" result="effect2_innerShadow_2034_6567"/>
</filter>
<filter id="filter5_di_2034_6567" x="204.158" y="317.656" width="432.449" height="396.193" filterUnits="userSpaceOnUse" color-interpolation-filters="sRGB">
<feFlood flood-opacity="0" result="BackgroundImageFix"/>
<feColorMatrix in="SourceAlpha" type="matrix" values="0 0 0 0 0 0 0 0 0 0 0 0 0 0 0 0 0 0 127 0" result="hardAlpha"/>
<feMorphology radius="20.2241" operator="dilate" in="SourceAlpha" result="effect1_dropShadow_2034_6567"/>
<feOffset dy="20.2241"/>
<feGaussianBlur stdDeviation="14.1569"/>
<feComposite in2="hardAlpha" operator="out"/>
<feColorMatrix type="matrix" values="0 0 0 0 0.184314 0 0 0 0 0.733333 0 0 0 0 0.643137 0 0 0 0.1 0"/>
<feBlend mode="normal" in2="BackgroundImageFix" result="effect1_dropShadow_2034_6567"/>
<feBlend mode="normal" in="SourceGraphic" in2="effect1_dropShadow_2034_6567" result="shape"/>
<feColorMatrix in="SourceAlpha" type="matrix" values="0 0 0 0 0 0 0 0 0 0 0 0 0 0 0 0 0 0 127 0" result="hardAlpha"/>
<feOffset dx="80.8963" dy="-60.6722"/>
<feGaussianBlur stdDeviation="40.4481"/>
<feComposite in2="hardAlpha" operator="arithmetic" k2="-1" k3="1"/>
<feColorMatrix type="matrix" values="0 0 0 0 0 0 0 0 0 0 0 0 0 0 0 0 0 0 0.25 0"/>
<feBlend mode="normal" in2="shape" result="effect2_innerShadow_2034_6567"/>
</filter>
<filter id="filter6_di_2034_6567" x="589.926" y="555.739" width="355.045" height="355.045" filterUnits="userSpaceOnUse" color-interpolation-filters="sRGB">
<feFlood flood-opacity="0" result="BackgroundImageFix"/>
<feColorMatrix in="SourceAlpha" type="matrix" values="0 0 0 0 0 0 0 0 0 0 0 0 0 0 0 0 0 0 127 0" result="hardAlpha"/>
<feMorphology radius="19.5284" operator="dilate" in="SourceAlpha" result="effect1_dropShadow_2034_6567"/>
<feOffset dy="19.5284"/>
<feGaussianBlur stdDeviation="13.6699"/>
<feComposite in2="hardAlpha" operator="out"/>
<feColorMatrix type="matrix" values="0 0 0 0 0.184314 0 0 0 0 0.733333 0 0 0 0 0.643137 0 0 0 0.1 0"/>
<feBlend mode="normal" in2="BackgroundImageFix" result="effect1_dropShadow_2034_6567"/>
<feBlend mode="normal" in="SourceGraphic" in2="effect1_dropShadow_2034_6567" result="shape"/>
<feColorMatrix in="SourceAlpha" type="matrix" values="0 0 0 0 0 0 0 0 0 0 0 0 0 0 0 0 0 0 127 0" result="hardAlpha"/>
<feOffset dx="78.1135" dy="-58.5851"/>
<feGaussianBlur stdDeviation="39.0567"/>
<feComposite in2="hardAlpha" operator="arithmetic" k2="-1" k3="1"/>
<feColorMatrix type="matrix" values="0 0 0 0 0 0 0 0 0 0 0 0 0 0 0 0 0 0 0.25 0"/>
<feBlend mode="normal" in2="shape" result="effect2_innerShadow_2034_6567"/>
</filter>
<filter id="filter7_di_2034_6567" x="486.211" y="91.6571" width="405.803" height="405.803" filterUnits="userSpaceOnUse" color-interpolation-filters="sRGB">
<feFlood flood-opacity="0" result="BackgroundImageFix"/>
<feColorMatrix in="SourceAlpha" type="matrix" values="0 0 0 0 0 0 0 0 0 0 0 0 0 0 0 0 0 0 127 0" result="hardAlpha"/>
<feMorphology radius="19.5284" operator="dilate" in="SourceAlpha" result="effect1_dropShadow_2034_6567"/>
<feOffset dy="19.5284"/>
<feGaussianBlur stdDeviation="13.6699"/>
<feComposite in2="hardAlpha" operator="out"/>
<feColorMatrix type="matrix" values="0 0 0 0 0.184314 0 0 0 0 0.733333 0 0 0 0 0.643137 0 0 0 0.1 0"/>
<feBlend mode="normal" in2="BackgroundImageFix" result="effect1_dropShadow_2034_6567"/>
<feBlend mode="normal" in="SourceGraphic" in2="effect1_dropShadow_2034_6567" result="shape"/>
<feColorMatrix in="SourceAlpha" type="matrix" values="0 0 0 0 0 0 0 0 0 0 0 0 0 0 0 0 0 0 127 0" result="hardAlpha"/>
<feOffset dx="78.1135" dy="-58.5851"/>
<feGaussianBlur stdDeviation="39.0567"/>
<feComposite in2="hardAlpha" operator="arithmetic" k2="-1" k3="1"/>
<feColorMatrix type="matrix" values="0 0 0 0 0 0 0 0 0 0 0 0 0 0 0 0 0 0 0.25 0"/>
<feBlend mode="normal" in2="shape" result="effect2_innerShadow_2034_6567"/>
</filter>
<filter id="filter8_di_2034_6567" x="248.58" y="98.5686" width="361.235" height="284.495" filterUnits="userSpaceOnUse" color-interpolation-filters="sRGB">
<feFlood flood-opacity="0" result="BackgroundImageFix"/>
<feColorMatrix in="SourceAlpha" type="matrix" values="0 0 0 0 0 0 0 0 0 0 0 0 0 0 0 0 0 0 127 0" result="hardAlpha"/>
<feMorphology radius="30.5554" operator="dilate" in="SourceAlpha" result="effect1_dropShadow_2034_6567"/>
<feOffset dy="30.5554"/>
<feGaussianBlur stdDeviation="21.3888"/>
<feComposite in2="hardAlpha" operator="out"/>
<feColorMatrix type="matrix" values="0 0 0 0 0.184314 0 0 0 0 0.733333 0 0 0 0 0.643137 0 0 0 0.1 0"/>
<feBlend mode="normal" in2="BackgroundImageFix" result="effect1_dropShadow_2034_6567"/>
<feBlend mode="normal" in="SourceGraphic" in2="effect1_dropShadow_2034_6567" result="shape"/>
<feColorMatrix in="SourceAlpha" type="matrix" values="0 0 0 0 0 0 0 0 0 0 0 0 0 0 0 0 0 0 127 0" result="hardAlpha"/>
<feOffset dx="122.222" dy="-91.6663"/>
<feGaussianBlur stdDeviation="61.1108"/>
<feComposite in2="hardAlpha" operator="arithmetic" k2="-1" k3="1"/>
<feColorMatrix type="matrix" values="0 0 0 0 0 0 0 0 0 0 0 0 0 0 0 0 0 0 0.25 0"/>
<feBlend mode="normal" in2="shape" result="effect2_innerShadow_2034_6567"/>
</filter>
</defs>
</svg>
