<svg width="24" height="24" viewBox="0 0 24 24" fill="none" xmlns="http://www.w3.org/2000/svg">
<path d="M11.9995 5.99949V11.9995L15.6435 13.8215M15.9995 18.9995H21.9995M18.9995 15.9995V21.9995M21.9195 13.2665C22.1837 11.1972 21.7941 9.09707 20.8054 7.26019C19.8166 5.42331 18.2781 3.94165 16.4053 3.02265C14.5326 2.10365 12.4193 1.79335 10.3614 2.13517C8.30351 2.477 6.40403 3.45385 4.92894 4.92894C3.45385 6.40403 2.477 8.30351 2.13517 10.3614C1.79335 12.4193 2.10365 14.5326 3.02265 16.4053C3.94165 18.2781 5.42331 19.8166 7.26019 20.8054C9.09707 21.7941 11.1972 22.1837 13.2665 21.9195" stroke="white" stroke-width="2" stroke-linecap="round" stroke-linejoin="round"/>
</svg>
