<svg width="300" height="300" viewBox="0 0 300 300" fill="none" xmlns="http://www.w3.org/2000/svg">
<path d="M234.573 229.215C230.1 233.924 225.867 236.961 222.523 239.36C183.215 267.565 136.702 259.343 126.817 257.335C112.219 254.371 84.0029 248.64 63.6029 224.65C32.7394 188.355 37.5453 131.173 61.4852 93.4272C65.8641 86.5228 88.995 48.2016 136.009 42.056C164.461 38.3368 197.627 45.838 221.645 65.9603C272.06 108.199 268.471 193.528 234.573 229.215Z" fill="#E6F5FF"/>
<path d="M240.745 72.9995H239.798C239.335 72.9995 238.747 73.2231 238.747 73.8381V85.5537C238.747 86.1686 239.335 86.6897 239.798 86.6897H240.745C241.208 86.6897 241.107 86.1686 241.107 85.5537V73.8381C241.107 73.2231 241.208 72.9995 240.745 72.9995Z" fill="#2F648E"/>
<path d="M254.738 72.9995H253.79C253.327 72.9995 252.437 73.2231 252.437 73.8381V85.5537C252.437 86.1686 253.327 86.6897 253.79 86.6897H254.738C255.2 86.6897 255.269 86.1686 255.269 85.5537V73.8381C255.269 73.2231 255.2 72.9995 254.738 72.9995Z" fill="#2F648E"/>
<path d="M257.866 78.3055C257.866 78.9094 257.489 79.3727 256.845 79.3727H236.716C236.072 79.3727 235.442 78.9095 235.442 78.3055V78.0927C235.442 77.4889 236.072 77.0122 236.716 77.0122H256.845C257.489 77.0122 257.866 77.4888 257.866 78.0927V78.3055Z" fill="#2F648E"/>
<path d="M257.197 83.8574H239.379C237.537 83.8574 235.442 85.8901 235.442 88.3299V236.102H259.365C260.009 236.102 259.99 235.395 259.99 234.542V88.3299C259.99 85.8902 259.039 83.8574 257.197 83.8574Z" fill="#2F648E"/>
<path d="M246.772 103.685H118.604V111.474H246.772V103.685Z" fill="#2F648E"/>
<path d="M246.772 183.465H118.604V191.727H246.772V183.465Z" fill="#2F648E"/>
<path d="M248.896 205.889H118.604V214.15H248.896V205.889Z" fill="#7D97F4"/>
<path d="M256.791 237.282H108.926C107.883 237.282 107.038 236.436 107.038 235.393V229.021H259.99V234.083C259.99 235.85 258.558 237.282 256.791 237.282Z" fill="#7D97F4"/>
<path d="M246.772 145.463H118.604V153.253H246.772V145.463Z" fill="#2F648E"/>
<path d="M245.12 169.775H120.256V172.135H245.12V169.775Z" fill="#2F648E"/>
<path d="M128.642 83.8574H110.824C108.983 83.8574 107.038 85.8769 107.038 88.2997V233.495C107.038 234.342 108.012 235.158 108.656 235.158H131.586V88.2997C131.586 85.8769 130.484 83.8574 128.642 83.8574Z" fill="#7D97F4"/>
<path d="M112.191 72.9995H111.243C110.781 72.9995 110.342 73.2231 110.342 73.8381V85.5537C110.342 86.1686 110.781 86.6897 111.243 86.6897H112.191C112.654 86.6897 112.467 86.1686 112.467 85.5537V73.8381C112.467 73.2231 112.654 72.9995 112.191 72.9995Z" fill="#7D97F4"/>
<path d="M126.183 72.9995H125.236C124.773 72.9995 124.033 73.2231 124.033 73.8381V85.5537C124.033 86.1686 124.773 86.6897 125.236 86.6897H126.183C126.646 86.6897 126.393 86.1686 126.393 85.5537V73.8381C126.393 73.2231 126.646 72.9995 126.183 72.9995Z" fill="#7D97F4"/>
<path d="M129.461 78.3055C129.461 78.9094 128.977 79.3727 128.333 79.3727H108.204C107.56 79.3727 107.038 78.9095 107.038 78.3055V78.0927C107.038 77.4889 107.56 77.0122 108.204 77.0122H128.333C128.977 77.0122 129.461 77.4888 129.461 78.0927V78.3055Z" fill="#7D97F4"/>
<path d="M206.471 94.3926H188.652C186.811 94.3926 184.812 96.2176 184.812 98.4981V235.172C184.812 235.97 185.84 236.724 186.484 236.724H209.596V98.4981C209.596 96.2176 208.312 94.3926 206.471 94.3926Z" fill="#2F648E"/>
<path d="M190.019 83.063H189.071C188.608 83.063 187.408 83.6376 187.408 84.2526V95.9682C187.408 96.5831 188.608 96.9892 189.071 96.9892H190.019C190.481 96.9892 190.476 96.5831 190.476 95.9682V84.2526C190.476 83.6376 190.481 83.063 190.019 83.063Z" fill="#2F648E"/>
<path d="M204.011 83.063H203.064C202.601 83.063 201.806 83.6376 201.806 84.2526V95.9682C201.806 96.5831 202.601 96.9892 203.064 96.9892H204.011C204.474 96.9892 204.166 96.5831 204.166 95.9682V84.2526C204.166 83.6376 204.474 83.063 204.011 83.063Z" fill="#2F648E"/>
<path d="M207.235 88.71C207.235 89.314 206.66 89.908 206.016 89.908H185.887C185.243 89.908 184.812 89.3139 184.812 88.71V88.4973C184.812 87.8934 185.243 87.3115 185.887 87.3115H206.016C206.66 87.3115 207.235 87.8933 207.235 88.4973V88.71Z" fill="#2F648E"/>
<path d="M54.2109 41.6295C53.8372 40.4761 55.1821 39.5283 56.154 40.2532C66.0233 47.6137 90.2997 70.2551 89.9416 114.686C89.4924 170.431 103.227 189.192 118.875 199.809C118.875 199.809 98.6411 196.28 84.0084 177.322C48.082 130.776 60.8553 62.1375 54.2109 41.6295Z" fill="#2FBBA4"/>
<path d="M62.9493 58.0316C64.7606 64.0258 66.4529 70.0526 67.9223 76.1326C69.4233 82.2037 70.7398 88.3177 71.8637 94.464C72.9639 100.614 73.9486 106.784 74.6698 112.986C75.4188 119.185 75.9007 125.409 76.3627 131.659C76.8593 137.904 77.3242 144.198 78.4346 150.463C79.5371 156.716 81.4037 162.938 84.3519 168.634C85.0883 170.053 85.8535 171.465 86.6943 172.817C87.5103 174.186 88.3871 175.519 89.2875 176.835C91.1017 179.46 93.0933 181.969 95.2619 184.319C99.6118 189.008 104.672 193.031 110.116 196.303C110.688 196.648 111.432 196.463 111.777 195.89C112.115 195.327 111.942 194.6 111.394 194.248L111.39 194.245C110.088 193.412 108.798 192.564 107.55 191.662C106.919 191.221 106.308 190.753 105.689 190.297C105.088 189.817 104.469 189.361 103.883 188.864C101.508 186.914 99.2729 184.8 97.2051 182.531C93.0517 178.019 89.5512 172.863 86.7253 167.426C85.3426 164.691 84.1639 161.858 83.2071 158.945C82.2526 156.031 81.5204 153.039 80.9584 150.003C79.8335 143.927 79.322 137.701 78.7806 131.461C78.2309 125.22 77.6355 118.952 76.7834 112.718C76.3657 109.6 75.892 106.49 75.363 103.39C75.1074 101.839 74.8217 100.293 74.539 98.7467C74.2413 97.2031 73.9352 95.6613 73.6166 94.1223C72.3307 87.9684 70.8577 81.8568 69.1937 75.8002C67.5007 69.7516 65.6476 63.7501 63.5666 57.83C63.507 57.6607 63.3217 57.5718 63.1525 57.6313C62.9881 57.6892 62.8997 57.8665 62.9493 58.0316Z" fill="white"/>
<path d="M87.4957 211.217C86.8701 213.362 84.2576 214.17 82.5115 212.777C72.8763 205.089 47.6 180.889 47.2189 138.337C46.8972 102.405 43.308 82.9514 41.0667 74.2331C40.5928 72.3895 42.7478 71.0125 44.224 72.2142C60.5104 85.4731 110.162 133.506 87.4957 211.217Z" fill="#2FBBA4"/>
<path d="M84.478 211.427C84.4339 211.461 84.3861 211.49 84.3344 211.516C83.9021 211.728 83.3794 211.55 83.167 211.117C82.9262 210.627 59.0577 161.535 56.3533 111.593C56.3275 111.113 56.6961 110.702 57.1772 110.675C57.6583 110.649 58.0692 111.018 58.0955 111.499C60.78 161.077 84.4935 209.861 84.7326 210.348C84.9197 210.729 84.8038 211.18 84.478 211.427Z" fill="white"/>
<path d="M77.8125 247.105H99.1193V41.0181H77.8125V247.105Z" fill="#2F648E"/>
<path d="M87.8662 247.105H186.669V46.1748H87.8662V247.105Z" fill="#08A4BB"/>
<path d="M87.8662 60.5858H186.669V46.1748H87.8662V60.5858Z" fill="#2F648E"/>
<path d="M87.8662 155.146H186.669V152.234H87.8662V155.146Z" fill="#2F648E"/>
<path d="M87.8662 109.557H186.669V106.375H87.8662V109.557Z" fill="#2F648E"/>
<path d="M162.027 143.721H175.954V117.622H162.027V143.721Z" fill="#2F648E"/>
<path d="M162.854 142.695H175.126V118.868H162.854V142.695Z" fill="#91B3FA"/>
<path d="M168.633 143.374H169.51V118.127H168.633V143.374Z" fill="#2F648E"/>
<path d="M162.668 130.928H175.328V130.124H162.668V130.928Z" fill="#2F648E"/>
<path d="M162.668 124.591H175.328V124.134H162.668V124.591Z" fill="#2F648E"/>
<path d="M162.668 137.386H175.328V136.929H162.668V137.386Z" fill="#2F648E"/>
<path d="M162.027 144.553H175.688V143.801H162.027V144.553Z" fill="#2F648E"/>
<path d="M161.76 144.203H176.319V142.914H161.76V144.203Z" fill="white"/>
<path d="M161.724 117.622H176.283V116.333H161.724V117.622Z" fill="white"/>
<path d="M131.354 143.721H145.281V117.622H131.354V143.721Z" fill="#2F648E"/>
<path d="M132.181 142.695H144.454V118.868H132.181V142.695Z" fill="#91B3FA"/>
<path d="M137.96 143.374H138.837V118.127H137.96V143.374Z" fill="#2F648E"/>
<path d="M131.996 130.928H144.655V130.124H131.996V130.928Z" fill="#2F648E"/>
<path d="M131.996 124.591H144.655V124.134H131.996V124.591Z" fill="#2F648E"/>
<path d="M131.996 137.386H144.655V136.929H131.996V137.386Z" fill="#2F648E"/>
<path d="M131.354 144.553H145.015V143.801H131.354V144.553Z" fill="#2F648E"/>
<path d="M131.087 144.203H145.646V142.914H131.087V144.203Z" fill="white"/>
<path d="M131.051 117.622H145.61V116.333H131.051V117.622Z" fill="white"/>
<path d="M101.433 143.769H115.36V117.669H101.433V143.769Z" fill="#2F648E"/>
<path d="M102.26 142.743H114.533V118.916H102.26V142.743Z" fill="#91B3FA"/>
<path d="M108.039 143.423H108.916V118.175H108.039V143.423Z" fill="#2F648E"/>
<path d="M102.075 130.976H114.734V130.171H102.075V130.976Z" fill="#2F648E"/>
<path d="M102.075 124.639H114.734V124.182H102.075V124.639Z" fill="#2F648E"/>
<path d="M102.075 137.434H114.734V136.977H102.075V137.434Z" fill="#2F648E"/>
<path d="M101.433 144.601H115.094V143.849H101.433V144.601Z" fill="url(#paint0_linear_941_13681)"/>
<path d="M101.167 144.251H115.726V142.962H101.167V144.251Z" fill="white"/>
<path d="M101.13 117.669H115.689V116.381H101.13V117.669Z" fill="white"/>
<path d="M87.8662 211.878H186.669V201.464H87.8662V211.878Z" fill="url(#paint1_linear_941_13681)"/>
<path d="M162.026 192.95H175.953V166.851H162.026V192.95Z" fill="#2F648E"/>
<path d="M162.854 191.925H175.126V168.097H162.854V191.925Z" fill="#91B3FA"/>
<path d="M168.632 192.604H169.51V167.357H168.632V192.604Z" fill="#2F648E"/>
<path d="M162.668 180.157H175.327V179.353H162.668V180.157Z" fill="#2F648E"/>
<path d="M162.668 173.821H175.327V173.364H162.668V173.821Z" fill="#2F648E"/>
<path d="M162.668 186.615H175.327V186.158H162.668V186.615Z" fill="#2F648E"/>
<path d="M162.026 193.783H175.687V193.031H162.026V193.783Z" fill="#2F648E"/>
<path d="M161.76 193.433H176.319V192.144H161.76V193.433Z" fill="white"/>
<path d="M161.724 166.851H176.283V165.562H161.724V166.851Z" fill="white"/>
<path d="M162.515 241.637H176.442V215.538H162.515V241.637Z" fill="#2F648E"/>
<path d="M163.342 240.612H175.614V216.784H163.342V240.612Z" fill="#91B3FA"/>
<path d="M169.121 241.291H169.998V216.044H169.121V241.291Z" fill="#2F648E"/>
<path d="M163.156 228.845H175.816V228.041H163.156V228.845Z" fill="#2F648E"/>
<path d="M163.156 222.508H175.816V222.051H163.156V222.508Z" fill="#2F648E"/>
<path d="M163.156 235.303H175.816V234.846H163.156V235.303Z" fill="#2F648E"/>
<path d="M162.515 242.47H176.176V241.718H162.515V242.47Z" fill="#2F648E"/>
<path d="M162.248 242.12H176.807V240.831H162.248V242.12Z" fill="white"/>
<path d="M162.212 215.538H176.771V214.249H162.212V215.538Z" fill="white"/>
<path d="M99.7407 241.72H113.668V215.621H99.7407V241.72Z" fill="#2F648E"/>
<path d="M100.568 240.695H112.84V216.867H100.568V240.695Z" fill="#91B3FA"/>
<path d="M106.347 241.374H107.224V216.126H106.347V241.374Z" fill="#2F648E"/>
<path d="M100.382 228.927H113.042V228.123H100.382V228.927Z" fill="#2F648E"/>
<path d="M100.382 222.591H113.042V222.134H100.382V222.591Z" fill="#2F648E"/>
<path d="M100.382 235.385H113.042V234.928H100.382V235.385Z" fill="#2F648E"/>
<path d="M99.7407 242.552H113.402V241.8H99.7407V242.552Z" fill="#2F648E"/>
<path d="M99.4742 242.203H114.033V240.914H99.4742V242.203Z" fill="white"/>
<path d="M99.4381 215.621H113.997V214.332H99.4381V215.621Z" fill="white"/>
<path d="M131.354 192.95H145.281V166.851H131.354V192.95Z" fill="#2F648E"/>
<path d="M132.181 191.925H144.454V168.097H132.181V191.925Z" fill="#91B3FA"/>
<path d="M137.96 192.604H138.837V167.357H137.96V192.604Z" fill="#2F648E"/>
<path d="M131.996 180.157H144.655V179.353H131.996V180.157Z" fill="#2F648E"/>
<path d="M131.996 173.821H144.655V173.364H131.996V173.821Z" fill="#2F648E"/>
<path d="M131.996 186.615H144.655V186.158H131.996V186.615Z" fill="#2F648E"/>
<path d="M131.354 193.783H145.015V193.031H131.354V193.783Z" fill="#2F648E"/>
<path d="M131.087 193.433H145.646V192.144H131.087V193.433Z" fill="white"/>
<path d="M131.051 166.851H145.61V165.562H131.051V166.851Z" fill="white"/>
<path d="M101.433 192.998H115.36V166.899H101.433V192.998Z" fill="#2F648E"/>
<path d="M102.26 191.973H114.533V168.145H102.26V191.973Z" fill="#91B3FA"/>
<path d="M108.039 192.652H108.916V167.404H108.039V192.652Z" fill="#2F648E"/>
<path d="M102.075 180.205H114.734V179.401H102.075V180.205Z" fill="#2F648E"/>
<path d="M102.075 173.869H114.734V173.412H102.075V173.869Z" fill="#2F648E"/>
<path d="M102.075 186.663H114.734V186.206H102.075V186.663Z" fill="#2F648E"/>
<path d="M101.433 193.831H115.094V193.079H101.433V193.831Z" fill="#2F648E"/>
<path d="M101.167 193.48H115.726V192.192H101.167V193.48Z" fill="white"/>
<path d="M101.13 166.899H115.689V165.61H101.13V166.899Z" fill="white"/>
<path d="M161.242 100.834H176.266V72.6777C171.191 68.0095 165.806 68.0204 161.242 72.6777V100.834Z" fill="#2F648E"/>
<path d="M162.134 99.7283H175.374V74.0224C171.244 69.6036 166.16 69.7558 162.134 74.0224V99.7283Z" fill="#91B3FA"/>
<path d="M168.368 100.461H169.315V70.3867H168.368V100.461Z" fill="#2F648E"/>
<path d="M161.934 86.5595H175.591V85.6919H161.934V86.5595Z" fill="#2F648E"/>
<path d="M161.934 79.2504H175.591V78.7573H161.934V79.2504Z" fill="#2F648E"/>
<path d="M161.934 93.7636H175.591V93.2705H161.934V93.7636Z" fill="#2F648E"/>
<path d="M161.242 101.733H175.98V100.921H161.242V101.733Z" fill="#2F648E"/>
<path d="M160.954 101.355H176.661V99.9647H160.954V101.355Z" fill="white"/>
<path d="M131.092 100.746H146.117V72.5888C141.042 67.9207 135.656 67.9315 131.092 72.5888V100.746Z" fill="#2F648E"/>
<path d="M131.984 99.6394H145.224V73.9336C141.095 69.5148 136.011 69.6669 131.984 73.9336V99.6394Z" fill="#91B3FA"/>
<path d="M138.219 100.372H139.165V70.2979H138.219V100.372Z" fill="#2F648E"/>
<path d="M131.784 86.4711H145.442V85.6035H131.784V86.4711Z" fill="#2F648E"/>
<path d="M131.784 79.1621H145.442V78.6689H131.784V79.1621Z" fill="#2F648E"/>
<path d="M131.784 93.6748H145.442V93.1816H131.784V93.6748Z" fill="#2F648E"/>
<path d="M131.092 101.644H145.83V100.833H131.092V101.644Z" fill="#2F648E"/>
<path d="M130.804 101.266H146.511V99.8759H130.804V101.266Z" fill="white"/>
<path d="M100.941 100.813H115.966V72.6567C110.891 67.9886 105.505 67.9994 100.941 72.6567L100.941 100.813Z" fill="#2F648E"/>
<path d="M101.833 99.7073H115.073V74.0014C110.944 69.5826 105.86 69.7348 101.833 74.0014V99.7073Z" fill="#91B3FA"/>
<path d="M108.067 100.44H109.014V70.3657H108.067V100.44Z" fill="#2F648E"/>
<path d="M101.633 86.5384H115.291V85.6709H101.633V86.5384Z" fill="#2F648E"/>
<path d="M101.633 79.2295H115.291V78.7363H101.633V79.2295Z" fill="#2F648E"/>
<path d="M101.633 93.7427H115.291V93.2495H101.633V93.7427Z" fill="#2F648E"/>
<path d="M100.941 101.712H115.679V100.9H100.941V101.712Z" fill="url(#paint2_linear_941_13681)"/>
<path d="M100.654 101.334H116.36V99.9437H100.654V101.334Z" fill="white"/>
<path d="M88.6641 211.337H186.238V202.057H88.6641V211.337Z" fill="#2FBBA4"/>
<path d="M131.051 247.105H147.857V213.049H131.051V247.105Z" fill="white"/>
<path d="M140.019 219.836H147.106V214.25H140.019V219.836Z" fill="#08A4BB"/>
<path d="M132.15 219.836H138.697V214.25H132.15V219.836Z" fill="#08A4BB"/>
<path d="M132.15 246.505H147.106V220.557H132.15V246.505Z" fill="#2F648E"/>
<path d="M135.424 235.993H143.803V223.639H135.424V235.993Z" fill="white"/>
<path d="M135.964 235.618H143.262V224.131H135.964V235.618Z" fill="#91B3FA"/>
<path d="M139.208 235.873H139.718V223.86H139.208V235.873Z" fill="white"/>
<path d="M135.604 227.734H143.562V227.224H135.604V227.734Z" fill="white"/>
<path d="M135.634 232.119H143.592V231.609H135.634V232.119Z" fill="white"/>
<path d="M186.649 49.2615L194.622 41.6938L90.8363 41.0181L87.8662 49.2615H186.649Z" fill="#2F648E"/>
<path d="M87.8664 49.2615L90.8365 41.0181H87.2002L86.8999 48.9545V60.4753L87.8664 60.5857V49.2615Z" fill="#2FBBA4"/>
<path opacity="0.51" d="M192.335 43.8637L90.0261 43.2661L89.3511 45.1395L190.53 45.577L192.335 43.8637Z" fill="#2FBBA4"/>
<path opacity="0.3" d="M87.8663 52.2275L186.669 52.2275V50.8015L87.8663 50.8015V52.2275Z" fill="#2FBBA4"/>
<path d="M87.8662 61.9581H186.669V60.5854H87.8662V61.9581Z" fill="#2F648E"/>
<path opacity="0.96" d="M194.622 41.6938L90.8362 41.0181L90.5928 41.6938L193.906 42.3733L194.622 41.6938Z" fill="white"/>
<path d="M135.378 110.75C135.214 108.212 133.681 105.964 131.384 104.873L101.62 90.7375C99.7142 89.8323 97.5021 89.8323 95.596 90.7375L65.8326 104.873C63.5354 105.964 62.0027 108.212 61.8385 110.75C59.0467 153.905 86.7167 169.628 95.7873 173.6C97.5862 174.388 99.63 174.388 101.429 173.6C110.5 169.628 138.17 153.905 135.378 110.75Z" fill="#FDB913"/>
<path d="M89.6054 96.9836C89.3383 96.9836 89.0823 96.8332 88.9603 96.5761C88.7912 96.2201 88.9427 95.7945 89.2987 95.6255L96.3312 92.2855C96.6877 92.1164 97.113 92.2679 97.2819 92.6238C97.451 92.9799 97.2995 93.4055 96.9435 93.5745L89.911 96.9145C89.8121 96.9615 89.708 96.9836 89.6054 96.9836Z" fill="#08A4BB"/>
<path d="M64.1147 120.276C63.7318 120.276 63.415 119.973 63.4021 119.587C63.3074 116.771 63.3571 113.835 63.5495 110.861C63.6732 108.948 64.8299 107.247 66.5683 106.421L86.5905 96.912C86.9465 96.7427 87.372 96.8945 87.5411 97.2504C87.7102 97.6065 87.5587 98.0321 87.2028 98.2011L67.1806 107.711C65.9095 108.314 65.0638 109.557 64.9735 110.953C64.7841 113.881 64.7352 116.769 64.8282 119.539C64.8415 119.933 64.533 120.263 64.1391 120.276C64.1309 120.276 64.1228 120.276 64.1147 120.276Z" fill="#08A4BB"/>
<path d="M128.181 112.434C128.148 111.791 127.765 111.217 127.183 110.94L99.3591 97.7258C98.884 97.5002 98.3327 97.5002 97.8576 97.7258L70.034 110.94C69.4521 111.217 69.069 111.791 69.0362 112.434C68.2134 128.532 71.9317 141.964 80.0957 152.374C86.3199 160.311 93.6012 164.564 97.8678 166.549C98.3379 166.767 98.8788 166.768 99.3489 166.549C103.616 164.565 110.897 160.311 117.121 152.374C125.285 141.964 129.003 128.532 128.181 112.434Z" fill="#7D97F4"/>
<path opacity="0.15" d="M84.3628 149.96C84.3628 150.204 84.7307 150.446 85.4454 150.671C86.1602 150.897 87.2078 151.101 88.5284 151.274C89.8491 151.446 91.417 151.583 93.1425 151.677C94.8681 151.77 96.7175 151.818 98.5852 151.818C100.453 151.818 102.302 151.77 104.028 151.677C105.753 151.583 107.321 151.446 108.642 151.274C109.963 151.101 111.01 150.897 111.725 150.671C112.44 150.446 112.808 150.204 112.808 149.96C112.808 149.468 111.309 148.995 108.642 148.647C105.975 148.298 102.357 148.103 98.5852 148.103C94.8132 148.103 91.1957 148.298 88.5284 148.647C85.8612 148.995 84.3628 149.468 84.3628 149.96Z" fill="#45413C"/>
<path d="M114.625 117.62L109.811 112.806C109.579 112.575 109.264 112.445 108.937 112.445C108.609 112.445 108.295 112.575 108.063 112.806L98.5847 122.285L89.1064 112.806C88.8743 112.575 88.5601 112.445 88.2325 112.445C87.9049 112.445 87.5907 112.575 87.3586 112.806L82.5445 117.62C82.3134 117.852 82.1836 118.167 82.1836 118.494C82.1836 118.822 82.3134 119.136 82.5445 119.368L92.0228 128.846L82.5445 138.325C82.3134 138.557 82.1836 138.871 82.1836 139.199C82.1836 139.526 82.3134 139.84 82.5445 140.073L87.3586 144.887C87.5907 145.118 87.9049 145.248 88.2325 145.248C88.5601 145.248 88.8743 145.118 89.1064 144.887L98.5847 135.408L108.063 144.887C108.295 145.118 108.609 145.248 108.937 145.248C109.264 145.248 109.579 145.118 109.811 144.887L114.625 140.073C114.856 139.84 114.986 139.526 114.986 139.199C114.986 138.871 114.856 138.557 114.625 138.325L105.147 128.846L114.625 119.368C114.856 119.136 114.986 118.822 114.986 118.494C114.986 118.167 114.856 117.852 114.625 117.62Z" fill="#FF6242"/>
<path d="M83.6032 120.457L87.3286 116.731C87.4429 116.616 87.579 116.524 87.729 116.461C87.879 116.399 88.04 116.366 88.2025 116.366C88.3651 116.366 88.5261 116.399 88.6761 116.461C88.8261 116.524 88.9622 116.616 89.0765 116.731L98.5847 126.2L108.063 116.731C108.177 116.616 108.313 116.524 108.463 116.461C108.613 116.399 108.774 116.366 108.937 116.366C109.099 116.366 109.26 116.399 109.41 116.461C109.56 116.524 109.697 116.616 109.811 116.731L113.566 120.457L114.655 119.368C114.886 119.136 115.016 118.822 115.016 118.494C115.016 118.167 114.886 117.852 114.655 117.62L109.811 112.806C109.579 112.575 109.264 112.445 108.937 112.445C108.609 112.445 108.295 112.575 108.063 112.806L98.5847 122.285L89.1064 112.806C88.8743 112.575 88.5601 112.445 88.2325 112.445C87.9049 112.445 87.5907 112.575 87.3586 112.806L82.5445 117.62C82.3134 117.852 82.1836 118.167 82.1836 118.494C82.1836 118.822 82.3134 119.136 82.5445 119.368L83.6032 120.457Z" fill="#FF866E"/>
<path d="M114.625 117.62L109.811 112.806C109.579 112.575 109.264 112.445 108.937 112.445C108.609 112.445 108.295 112.575 108.063 112.806L98.5847 122.285L89.1064 112.806C88.8743 112.575 88.5601 112.445 88.2325 112.445C87.9049 112.445 87.5907 112.575 87.3586 112.806L82.5445 117.62C82.3134 117.852 82.1836 118.167 82.1836 118.494C82.1836 118.822 82.3134 119.136 82.5445 119.368L92.0228 128.846L82.5445 138.325C82.3134 138.557 82.1836 138.871 82.1836 139.199C82.1836 139.526 82.3134 139.84 82.5445 140.073L87.3586 144.887C87.5907 145.118 87.9049 145.248 88.2325 145.248C88.5601 145.248 88.8743 145.118 89.1064 144.887L98.5847 135.408L108.063 144.887C108.295 145.118 108.609 145.248 108.937 145.248C109.264 145.248 109.579 145.118 109.811 144.887L114.625 140.073C114.856 139.84 114.986 139.526 114.986 139.199C114.986 138.871 114.856 138.557 114.625 138.325L105.147 128.846L114.625 119.368C114.856 119.136 114.986 118.822 114.986 118.494C114.986 118.167 114.856 117.852 114.625 117.62Z" stroke="#45413C" stroke-width="0.998766" stroke-linecap="round" stroke-linejoin="round"/>
<path d="M64.1387 251.117C64.1387 251.117 63.7643 253.236 63.5807 255.335C63.509 256.155 64.1413 256.867 64.9638 256.901C67.7582 257.018 73.7355 257.244 75.8804 257.148C76.2028 257.134 76.4136 256.804 76.2943 256.504C76.1943 256.253 76.0014 256.049 75.7557 255.936L65.8822 251.399L64.1387 251.117Z" fill="#2F648E"/>
<path d="M63.832 249.871L64.1328 252.407C64.1328 252.407 65.8625 253.212 67.0436 252.305L66.3273 249.479L63.832 249.871Z" fill="url(#paint3_linear_941_13681)"/>
<path d="M64.0583 202.202C63.9283 202.864 63.3607 235.245 66.822 249.755C66.8784 249.992 66.7584 250.236 66.5331 250.328C66.0022 250.545 64.9615 250.859 63.7142 250.901C63.328 250.914 62.9817 250.663 62.8727 250.292C61.8832 246.926 57.1423 230.057 56.5239 213.944C55.8329 195.938 56.5239 213.331 56.5239 213.331L56.9292 202.201L64.0583 202.202Z" fill="#2F648E"/>
<path d="M52.7814 252.223C52.7814 252.223 52.1853 253.293 51.6084 256.136C51.5042 256.65 51.863 257.141 52.3845 257.193C53.3071 257.284 54.7276 257.4 55.8655 257.392C56.39 257.389 56.7994 256.932 56.7362 256.411C56.6101 255.373 56.2175 253.67 55.0046 252.343L52.7814 252.223Z" fill="#2F648E"/>
<path d="M52.2578 248.962L52.9608 252.796C52.9608 252.796 53.6558 253.313 55.0307 252.938L54.6952 248.812L52.2578 248.962Z" fill="url(#paint4_linear_941_13681)"/>
<path d="M50.3588 203.196C47.528 220.28 50.9728 245.421 52.1347 250.341C52.2058 250.643 52.4489 250.873 52.7542 250.924C53.2728 251.01 54.1267 251.08 54.9684 250.836C55.2584 250.751 55.4622 250.49 55.474 250.188C55.6299 246.21 55.3493 221.788 57.987 212.136C58.1207 211.647 58.4194 211.22 58.8327 210.926L63.9522 207.287L64.3447 201.404L50.3588 203.196Z" fill="#2F648E"/>
<path d="M68.3968 170.825C59.9134 170.685 50.553 173.052 50.553 173.052C48.0242 187.807 50.1108 204.826 50.1108 204.826C56.6785 206.548 64.0871 203.773 64.0871 203.773C65.1787 197.606 70.2717 180.249 70.2717 180.249C74.4166 179.735 77.8312 178.539 80.6431 176.958C78.4982 174.472 77.4871 171.308 77.0479 169.438C74.0485 170.37 71.0134 170.868 68.3968 170.825Z" fill="#2F648E"/>
<path d="M93.4552 158.329C92.6218 157.323 91.5671 157.799 91.5671 157.799C90.3187 163.072 83.7728 167.348 77.0479 169.438C77.4871 171.308 78.4982 174.472 80.643 176.958C91.8036 170.683 93.4552 158.329 93.4552 158.329Z" fill="url(#paint5_linear_941_13681)"/>
<path d="M93.2527 158.585C93.3399 158.863 92.3301 159.285 91.7356 158.151C91.7148 157.608 91.3843 155.28 91.709 154.837C93.4383 152.479 96.791 149.524 96.791 149.524C97.3576 150.083 96.8908 150.632 96.8908 150.632L95.2644 152.327C95.6046 152.941 96.0195 153.46 96.214 154.204C96.3614 154.767 96.2712 155.369 95.9868 155.881C95.7013 156.396 95.3118 157.064 94.9436 157.588C94.2465 158.578 93.2527 158.585 93.2527 158.585Z" fill="url(#paint6_linear_941_13681)"/>
<path d="M94.5529 153.426L93.0709 154.682L92.6055 155.933L93.9269 157.399C93.9269 157.399 94.3713 154.917 94.7015 154.38C95.0317 153.843 94.8604 153.583 94.5529 153.426Z" fill="url(#paint7_linear_941_13681)"/>
<path d="M53.8066 181.267L50.5527 173.052C50.5527 173.052 42.6288 178.436 41.3257 185.263C42.8229 185.373 45.5474 185.762 48.2141 187.109C48.8 183.885 53.8066 181.267 53.8066 181.267Z" fill="#2F648E"/>
<path d="M59.8039 163.938L57.1046 171.744C57.0599 171.873 57.1131 172.016 57.2328 172.082C57.9686 172.489 60.6195 173.665 63.8141 171.64C64.1469 171.429 64.3735 171.085 64.424 170.694L65.2982 163.938L59.8039 163.938Z" fill="url(#paint8_linear_941_13681)"/>
<path d="M65.6771 156.709C65.6771 156.709 68.6412 162.289 68.2612 164.542C67.8812 166.796 64.2077 166.634 60.9999 164.804L58.7583 158.779L65.6771 156.709Z" fill="url(#paint9_linear_941_13681)"/>
<path d="M61.1415 161.845C61.2719 161.788 61.3199 161.628 61.2418 161.509C61.0044 161.146 60.5592 160.406 60.4172 159.758C60.4172 159.758 59.8843 159.417 61.7734 158.964C63.6625 158.512 66.4795 157.81 67.0717 156.203C67.649 154.635 65.2979 152.122 63.7122 153.834C63.6097 153.944 63.4398 153.956 63.3479 153.836C62.9511 153.32 61.9081 152.248 60.46 152.898C59.105 153.506 58.9523 154.499 58.971 154.999C58.9764 155.147 58.8448 155.261 58.7001 155.233C58.0149 155.103 56.3708 154.991 55.6034 156.677C54.9714 158.066 55.3822 158.853 55.7564 159.237C55.8776 159.362 55.8245 159.567 55.6582 159.618C55.2079 159.756 54.6264 160.138 54.6847 161.193C54.7652 162.651 56.3958 162.523 56.86 162.456C56.936 162.445 57.0127 162.471 57.0642 162.528C57.4622 162.969 59.2557 164.839 61.1968 165.065C61.3648 165.084 61.4951 164.918 61.4401 164.758L60.6 162.316C60.561 162.203 60.6153 162.078 60.7249 162.03L61.1415 161.845Z" fill="#2F648E"/>
<path d="M61.4794 162.192C61.4794 162.192 59.369 160.744 59.2148 161.963C59.0606 163.182 61.1152 163.729 62.133 163.275L61.4794 162.192Z" fill="url(#paint10_linear_941_13681)"/>
<path d="M66.8524 154.198C66.8524 154.198 63.4893 148.391 57.4801 151.861C51.4711 155.331 54.7215 159.593 54.7215 159.593L66.8524 154.198Z" fill="url(#paint11_linear_941_13681)"/>
<path d="M54.5323 154.504C54.5323 154.504 61.7724 148.724 65.1933 154.936C66.5918 154.321 66.8523 154.198 66.8523 154.198C66.8523 154.198 63.8143 148.635 59.6705 150.508C55.5269 152.382 54.5249 153.281 54.5323 154.504Z" fill="url(#paint12_linear_941_13681)"/>
<path d="M62.8198 156.174C62.7992 156.183 62.7747 156.183 62.7529 156.172L62.7061 156.147C61.6281 155.57 59.8242 154.605 58.6269 155.101C58.0493 155.339 57.4876 155.699 56.9443 156.046C56.5608 156.291 56.1641 156.545 55.7667 156.753C55.2254 157.038 54.6292 157.342 53.9449 157.683L53.9433 157.684C53.907 157.701 53.8633 157.686 53.8449 157.65C53.8262 157.613 53.8414 157.569 53.8784 157.55C54.5622 157.209 55.1568 156.905 55.697 156.622C56.0894 156.416 56.4833 156.164 56.8635 155.921C57.4132 155.569 57.9852 155.207 58.5698 154.963C59.8322 154.44 61.6752 155.427 62.7762 156.015L62.8233 156.04C62.8595 156.06 62.8729 156.105 62.8541 156.142C62.8463 156.156 62.834 156.167 62.8198 156.174Z" fill="white"/>
<path d="M54.7409 160.533L69.019 155.041C69.1089 155.006 69.1672 154.919 69.1646 154.822C69.162 154.726 69.099 154.642 69.0072 154.612C68.2707 154.375 67.0518 154.043 66.564 154.261C64.9987 154.962 54.7215 159.593 54.7215 159.593C54.7215 159.593 54.4656 159.713 54.7409 160.533Z" fill="url(#paint13_linear_941_13681)"/>
<path d="M56.2167 171.899C57.545 175.019 59.5514 178.381 61.8891 181.862L60.3482 204.794C56.7023 206.069 53.1661 206.851 49.9151 206.354C49.3641 198.164 49.0342 190.555 49.3957 184.763C49.6587 180.805 49.7368 176.822 49.2442 173.799C49.963 173.053 51.9645 172.376 56.2167 171.899Z" fill="#2F648E"/>
<path d="M64.968 170.667C64.2008 174.766 63.2196 178.719 61.8891 181.861L60.3481 204.793C61.9127 204.896 63.4472 204.724 64.9722 204.466C66.5241 198.301 67.8812 190.421 69.1693 181.933C69.031 177.951 69.1307 174.026 69.5878 170.63C67.9766 170.348 66.4449 170.376 64.968 170.667Z" fill="#2F648E"/>
<path d="M49.3851 196.75H59.6431V195.863H49.3018L49.3851 196.75Z" fill="white"/>
<path d="M49.5761 200.817H59.6429V199.427H49.4771L49.5761 200.817Z" fill="white"/>
<path d="M62.1245 196.75H66.6653L66.8359 195.863H62.1245V196.75Z" fill="white"/>
<path d="M62.1245 200.817H65.8273L66.1252 199.427H62.1245V200.817Z" fill="white"/>
<path d="M60.7313 188.996C60.7313 188.996 51.8346 194.024 48.8328 189.731C48.2095 188.84 48.0606 187.953 48.2141 187.109C45.5473 185.762 42.8229 185.373 41.3257 185.263C40.9327 187.321 41.1405 189.509 42.3498 191.721C47.608 201.34 61.9087 191.19 61.9087 191.19L60.7313 188.996Z" fill="url(#paint14_linear_941_13681)"/>
<path d="M59.6625 195.357L64.5179 178.401C64.573 178.208 64.7373 178.068 64.9361 178.045C65.8158 177.942 68.3649 177.654 71.3081 177.405C74.8533 177.105 78.9702 176.862 81.4305 177.069C81.7802 177.098 81.9915 177.468 81.836 177.783C80.4371 180.613 74.6824 192.126 71.8007 195.898C71.7052 196.023 71.5576 196.096 71.4003 196.094L60.1349 195.99C59.8071 195.987 59.5723 195.672 59.6625 195.357Z" fill="url(#paint15_linear_941_13681)"/>
<path d="M71.8117 175.935L75.332 175.348C75.5195 175.317 75.673 175.496 75.6135 175.677L75.265 176.733C75.2346 176.825 75.1545 176.891 75.0586 176.904L71.671 177.356C71.4958 177.38 71.3513 177.221 71.3916 177.048L71.6073 176.127C71.6305 176.027 71.7111 175.952 71.8117 175.935Z" fill="#7D97F4"/>
<path d="M69.1758 178.915L69.4657 177.405C69.4949 177.253 69.62 177.139 69.7734 177.123L76.8836 176.402C77.1229 176.377 77.3145 176.597 77.2583 176.831L76.8063 178.713C76.77 178.864 76.639 178.972 76.4843 178.98L69.5362 179.33C69.3102 179.341 69.1332 179.138 69.1758 178.915Z" fill="#7D97F4"/>
<path d="M60.8355 191.26C60.8355 191.26 60.1592 188.479 60.432 187.492C60.7048 186.506 61.2335 185.237 62.9954 185.519C64.7574 185.801 66.8359 186.543 66.8359 186.543C66.8359 186.543 66.7309 187.828 65.3918 187.414L66.2222 188.056C66.2222 188.056 66.1036 189.085 64.9723 188.536L65.7447 189.388C65.7447 189.388 65.259 190.233 64.4268 189.691C63.5945 189.149 63.1957 191.595 60.8355 191.26Z" fill="url(#paint16_linear_941_13681)"/>
<path d="M209.477 257.479C211.494 257.653 214.993 257.936 217.751 258.057C219.409 258.13 220.364 257.968 220.914 257.748C220.913 257.81 220.911 257.868 220.909 257.923C220.896 258.213 220.66 258.445 220.367 258.462C215.154 258.753 211.009 258.562 209.533 258.472C209.228 258.454 209.046 258.122 209.202 257.862C209.28 257.732 209.375 257.605 209.477 257.479Z" fill="#7D97F4"/>
<path d="M217.751 258.058C214.993 257.936 211.494 257.653 209.478 257.479C211.46 255.047 217.751 253.408 217.751 253.408H219.528C220.751 255.169 220.927 256.847 220.914 257.748C220.364 257.968 219.41 258.131 217.751 258.058Z" fill="url(#paint17_linear_941_13681)"/>
<path d="M219.827 250.507L219.661 253.797C219.643 254.154 219.376 254.453 219.019 254.504C218.664 254.555 218.189 254.562 217.685 254.394C217.374 254.29 217.144 254.029 217.087 253.71L216.512 250.507L219.827 250.507Z" fill="url(#paint18_linear_941_13681)"/>
<path d="M242.907 258.033C243.781 257.911 244.177 257.457 244.343 256.971C244.344 256.976 244.345 256.98 244.346 256.984C244.475 257.496 244.177 258.027 243.581 258.28C242.86 258.585 242.072 258.637 241.46 258.612C240.804 258.585 240.202 258.313 239.871 257.878L239.866 257.872C240.524 258.198 241.449 258.236 242.907 258.033Z" fill="#7D97F4"/>
<path d="M238.785 250.486H240.25C242.482 250.44 243.884 255.148 244.343 256.971C244.177 257.457 243.782 257.911 242.907 258.033C241.449 258.236 240.524 258.198 239.866 257.872C238.66 256.285 238.062 253.961 237.775 252.604C237.448 251.062 238.785 250.486 238.785 250.486Z" fill="url(#paint19_linear_941_13681)"/>
<path d="M240.062 247.432L240.876 250.668C240.976 251.065 240.786 251.475 240.419 251.664C239.964 251.897 239.323 252.143 238.734 252.072C238.457 252.038 238.227 251.843 238.135 251.582L236.94 248.177L240.062 247.432Z" fill="url(#paint20_linear_941_13681)"/>
<path d="M241.033 248.367C240.021 249.265 236.728 249.383 236.728 249.383C224.866 220.914 220.014 216.869 220.014 216.869C221.726 227.615 220.29 251.405 220.29 251.405C218.332 252.269 215.809 251.405 215.809 251.405C215.65 233.813 212.946 218.471 209.751 206.375C217.769 206.195 222.032 203.452 223.424 202.351C230.107 213.125 241.033 248.367 241.033 248.367Z" fill="#08A4BB"/>
<path d="M221.388 169.611C222.906 177.18 222.362 190.727 222.005 196.907C221.924 198.301 222.689 200.128 223.502 201.644C223.949 202.479 223.54 203.514 222.639 203.807C220.374 204.544 216.37 205.916 211.587 206.93C210.47 207.167 209.311 206.456 209.009 205.355C204.305 188.179 198.994 177.27 198.994 177.27C205.122 167.484 221.388 169.611 221.388 169.611Z" fill="#FDB913"/>
<path d="M219.204 216.195C219.272 216.195 219.34 216.177 219.402 216.14C219.581 216.03 219.637 215.797 219.529 215.618C219.465 215.513 217.93 213.033 214.825 211.535C214.637 211.445 214.409 211.523 214.318 211.712C214.227 211.901 214.306 212.128 214.495 212.219C217.39 213.616 218.865 215.99 218.88 216.013C218.951 216.131 219.076 216.195 219.204 216.195Z" fill="#2FBBA4"/>
<path d="M230.906 191.334C230.419 194.86 228.978 198.706 226.098 202.792L225.002 201.899C225.002 201.899 226.267 196.77 225.548 190.948C227.325 190.602 229.424 190.959 230.906 191.334Z" fill="url(#paint21_linear_941_13681)"/>
<path d="M219.693 178.95L221.388 169.61C221.388 169.61 232.712 178.267 230.906 191.334C229.424 190.959 227.325 190.602 225.548 190.948C225.03 186.755 223.484 182.203 219.693 178.95Z" fill="#FDB913"/>
<path d="M198.994 177.27L203.365 186.684C202.659 192.367 199.605 194.825 196.313 195.767C196.108 193.177 195.453 191.084 194.845 189.637C199.052 185.294 198.994 177.27 198.994 177.27Z" fill="#FDB913"/>
<path d="M194.845 189.637C195.453 191.084 196.108 193.177 196.313 195.767C187.53 199.175 185.206 192.566 185.206 192.566L186.829 192.28C190.495 192.666 193.056 191.484 194.845 189.637Z" fill="url(#paint22_linear_941_13681)"/>
<path d="M203.021 165.647L205.132 173.405C205.369 174.276 206.311 174.744 207.15 174.409C208.055 174.047 209.203 173.554 210.192 173.02C211.247 172.45 211.577 171.093 210.909 170.097L206.522 163.555L203.021 165.647Z" fill="url(#paint23_linear_941_13681)"/>
<path d="M202.526 173.405L210.054 182.468L216.08 204.93C216.245 205.544 215.861 206.17 215.239 206.302L209.814 207.45C207.171 201.374 205.011 194.841 203.245 187.934L200.56 175.227C201.221 174.442 201.876 173.82 202.526 173.405Z" fill="#08A4BB"/>
<path d="M210.054 182.492L212.979 169.521L218.253 169.281L222.665 184.29C223.747 189.669 224.406 196.172 224.87 203.194L218.125 205.225C217.628 205.375 217.1 205.119 216.91 204.636L213.794 196.724L210.054 182.492Z" fill="#08A4BB"/>
<path d="M206.853 199.874L214.153 197.806L214.513 199.119L207.285 201.223L206.853 199.874Z" fill="white"/>
<path d="M207.662 202.103L214.837 200.215L215.124 201.294L208.058 203.236L207.662 202.103Z" fill="white"/>
<path d="M214.226 197.806L214.675 199.029L224.295 196.026L224.169 194.749L214.226 197.806Z" fill="white"/>
<path d="M215.125 200.162L224.439 197.464L224.583 198.723L215.592 201.384L215.125 200.162Z" fill="white"/>
<path d="M181.181 187.375L235.255 207.056C237.523 207.882 238.607 210.464 237.608 212.661L237.444 213.022C236.56 214.965 234.263 215.818 232.325 214.921L179.819 190.632L181.181 187.375Z" fill="#2F648E"/>
<path opacity="0.21" d="M156.326 201.749C171.068 201.749 183.02 190.013 183.02 175.537C183.02 161.06 171.068 149.324 156.326 149.324C141.583 149.324 129.632 161.06 129.632 175.537C129.632 190.013 141.583 201.749 156.326 201.749Z" fill="#91B3FA"/>
<path d="M127 174.167C127 190.276 140.299 203.335 156.703 203.335C173.108 203.335 186.406 190.276 186.406 174.167C186.406 158.059 173.108 145 156.703 145C140.299 145 127 158.059 127 174.167ZM131.363 174.167C131.363 160.425 142.708 149.285 156.703 149.285C170.698 149.285 182.043 160.425 182.043 174.167C182.043 187.91 170.698 199.05 156.703 199.05C142.708 199.05 131.363 187.91 131.363 174.167Z" fill="#FDB913"/>
<path d="M183.5 178.795C183.49 178.795 183.48 178.794 183.47 178.792C183.34 178.77 183.253 178.647 183.275 178.518C183.39 177.846 183.48 177.157 183.543 176.47C183.555 176.339 183.678 176.241 183.801 176.255C183.932 176.267 184.028 176.382 184.016 176.513C183.952 177.212 183.86 177.914 183.744 178.598C183.723 178.717 183.617 178.8 183.5 178.795ZM183.636 170.638C183.523 170.633 183.426 170.548 183.41 170.433C183.157 168.576 182.703 166.741 182.06 164.978C182.06 164.978 182.06 164.977 182.06 164.977C178.275 154.587 168.577 147.571 157.352 147.103C152.117 146.885 146.968 148.127 142.461 150.695C142.347 150.759 142.202 150.72 142.137 150.606C142.072 150.492 142.112 150.347 142.226 150.282C146.81 147.67 152.048 146.407 157.372 146.628C168.789 147.104 178.655 154.243 182.506 164.813C182.506 164.813 182.506 164.814 182.506 164.814C183.16 166.609 183.623 168.478 183.881 170.368C183.899 170.498 183.808 170.618 183.678 170.636C183.663 170.638 183.649 170.638 183.636 170.638Z" fill="#BDD0FB"/>
<path d="M198.404 159.753C198.385 159.887 200.165 168.606 200.165 168.606L205.122 167.484L204.663 158.969C204.663 158.969 198.726 157.523 198.404 159.753Z" fill="url(#paint24_linear_941_13681)"/>
<path d="M203.548 160.867L204.141 165.33C204.148 165.388 204.148 165.444 204.14 165.501C204.09 165.851 203.83 167.042 202.627 166.702C201.536 166.393 200.536 166.127 199.845 166.338C199.535 166.433 199.348 166.747 199.413 167.065C199.574 167.857 199.972 169.636 200.554 171.128C200.672 171.431 201.003 171.59 201.315 171.499C202.255 171.225 204.222 170.591 205.685 169.711C205.883 169.592 206.001 169.376 205.991 169.145C205.944 168.018 205.812 164.593 205.923 163.633C206.027 162.732 207.133 162.192 207.614 161.998C207.771 161.935 207.895 161.811 207.958 161.653C208.18 161.095 208.487 159.805 206.861 159.276C206.52 159.165 206.341 158.798 206.462 158.462C206.703 157.791 206.804 156.768 205.546 156.204C204.268 155.631 203.313 156.313 202.797 156.866C202.589 157.09 202.254 157.125 201.995 156.961C201.848 156.868 201.658 156.838 201.429 156.98C201.12 157.173 200.711 157.042 200.552 156.714C200.246 156.086 199.622 155.413 198.37 155.627C196.148 156.007 195.897 158.469 196.483 159.912C197.069 161.354 199.454 160.805 200.65 160.077C201.56 159.525 202.74 160.104 203.253 160.414C203.416 160.512 203.523 160.679 203.548 160.867Z" fill="#2F648E"/>
<path d="M206.122 165.26C206.122 165.26 205.209 162.703 206.147 162.076C207.085 161.45 208.475 161.775 208.169 163.628C207.788 165.932 206.122 165.26 206.122 165.26Z" fill="url(#paint25_linear_941_13681)"/>
<path d="M225.454 201.743L220.342 201.327L218.128 203.368C218.128 203.368 218.652 204.091 220.29 203.675C221.927 203.259 224.17 203.157 224.17 203.157C224.17 203.157 226.431 204.176 226.458 202.269L225.454 201.743Z" fill="url(#paint26_linear_941_13681)"/>
<path d="M185.857 193.776C185.415 194.121 183.901 193.4 182.974 192.901C182.522 192.659 182.303 192.13 182.458 191.641C182.681 190.938 183.053 190.03 183.511 189.916C184.271 189.726 187.679 192.352 185.857 193.776Z" fill="url(#paint27_linear_941_13681)"/>
<path d="M234.189 214.203C234.09 214.203 233.998 214.142 233.964 214.043C233.921 213.919 233.987 213.784 234.111 213.741C235.621 213.219 236.411 212.377 236.46 211.239C236.511 210.083 235.779 209.009 234.641 208.565L228.148 206.034C228.026 205.986 227.965 205.848 228.013 205.726C228.06 205.604 228.198 205.544 228.32 205.591L234.813 208.122C236.141 208.64 236.994 209.901 236.935 211.259C236.895 212.189 236.399 213.453 234.266 214.19C234.241 214.199 234.214 214.203 234.189 214.203Z" fill="#BDD0FB"/>
<path d="M226.234 205.269C226.205 205.269 226.176 205.264 226.148 205.253L225.306 204.925C225.184 204.878 225.123 204.74 225.171 204.618C225.219 204.495 225.357 204.435 225.479 204.482L226.32 204.811C226.442 204.858 226.503 204.996 226.455 205.118C226.419 205.212 226.329 205.269 226.234 205.269Z" fill="#BDD0FB"/>
<path d="M195.722 160.048C195.722 160.048 196.277 153.753 202.786 154.319C209.295 154.885 208.22 159.817 208.22 159.817L195.722 160.048Z" fill="url(#paint28_linear_941_13681)"/>
<path d="M206.354 155.399C206.354 155.399 197.875 153.353 197.431 160.016C195.993 160.048 195.722 160.047 195.722 160.047C195.722 160.047 196.097 154.09 200.379 154.038C204.66 153.985 205.873 154.353 206.354 155.399Z" fill="url(#paint29_linear_941_13681)"/>
<path d="M199.949 160.126C199.971 160.126 199.992 160.116 200.006 160.098L200.036 160.058C200.726 159.136 201.88 157.594 203.099 157.54C203.686 157.513 204.309 157.596 204.911 157.676C205.336 157.732 205.775 157.791 206.197 157.81C206.772 157.837 207.402 157.859 208.122 157.878H208.124C208.161 157.878 208.193 157.848 208.194 157.809C208.195 157.771 208.165 157.739 208.126 157.737C207.406 157.719 206.778 157.697 206.204 157.67C205.788 157.651 205.351 157.593 204.93 157.537C204.321 157.456 203.688 157.375 203.093 157.399C201.807 157.457 200.628 159.033 199.923 159.974L199.893 160.014C199.87 160.045 199.877 160.089 199.907 160.112C199.92 160.122 199.935 160.126 199.949 160.126Z" fill="white"/>
<path d="M208.578 160.626L194.209 161.63C194.119 161.636 194.034 161.584 193.998 161.501C193.962 161.418 193.982 161.321 194.049 161.259C194.583 160.763 195.49 159.994 195.993 159.986C197.608 159.96 208.22 159.816 208.22 159.816C208.22 159.816 208.487 159.817 208.578 160.626Z" fill="url(#paint30_linear_941_13681)"/>
<defs>
<linearGradient id="paint0_linear_941_13681" x1="105.861" y1="134.994" x2="109.115" y2="147.496" gradientUnits="userSpaceOnUse">
<stop stop-color="#FE7062"/>
<stop offset="1" stop-color="#FF928E"/>
</linearGradient>
<linearGradient id="paint1_linear_941_13681" x1="137.935" y1="193.731" x2="140.227" y2="149.304" gradientUnits="userSpaceOnUse">
<stop stop-color="#FEBBBA"/>
<stop offset="1" stop-color="#FF928E"/>
</linearGradient>
<linearGradient id="paint2_linear_941_13681" x1="105.718" y1="91.3469" x2="109.228" y2="104.834" gradientUnits="userSpaceOnUse">
<stop stop-color="#FE7062"/>
<stop offset="1" stop-color="#FF928E"/>
</linearGradient>
<linearGradient id="paint3_linear_941_13681" x1="63.832" y1="251.108" x2="67.0436" y2="251.108" gradientUnits="userSpaceOnUse">
<stop stop-color="#FEBBBA"/>
<stop offset="1" stop-color="#FF928E"/>
</linearGradient>
<linearGradient id="paint4_linear_941_13681" x1="52.2578" y1="250.944" x2="55.0307" y2="250.944" gradientUnits="userSpaceOnUse">
<stop stop-color="#FEBBBA"/>
<stop offset="1" stop-color="#FF928E"/>
</linearGradient>
<linearGradient id="paint5_linear_941_13681" x1="77.0478" y1="167.322" x2="93.4552" y2="167.322" gradientUnits="userSpaceOnUse">
<stop stop-color="#FEBBBA"/>
<stop offset="1" stop-color="#FF928E"/>
</linearGradient>
<linearGradient id="paint6_linear_941_13681" x1="89.7999" y1="164.572" x2="78.7902" y2="189.622" gradientUnits="userSpaceOnUse">
<stop stop-color="#FEBBBA"/>
<stop offset="1" stop-color="#FF928E"/>
</linearGradient>
<linearGradient id="paint7_linear_941_13681" x1="93.3761" y1="156.229" x2="97.9701" y2="149.166" gradientUnits="userSpaceOnUse">
<stop stop-color="#FEBBBA"/>
<stop offset="1" stop-color="#FF928E"/>
</linearGradient>
<linearGradient id="paint8_linear_941_13681" x1="57.0889" y1="168.365" x2="65.2982" y2="168.365" gradientUnits="userSpaceOnUse">
<stop stop-color="#FEBBBA"/>
<stop offset="1" stop-color="#FF928E"/>
</linearGradient>
<linearGradient id="paint9_linear_941_13681" x1="67.2505" y1="163.143" x2="58.2244" y2="157.637" gradientUnits="userSpaceOnUse">
<stop stop-color="#FEBBBA"/>
<stop offset="1" stop-color="#FF928E"/>
</linearGradient>
<linearGradient id="paint10_linear_941_13681" x1="64.8798" y1="165.195" x2="56.7588" y2="160.242" gradientUnits="userSpaceOnUse">
<stop stop-color="#FEBBBA"/>
<stop offset="1" stop-color="#FF928E"/>
</linearGradient>
<linearGradient id="paint11_linear_941_13681" x1="59.3168" y1="159.508" x2="62.7593" y2="145.354" gradientUnits="userSpaceOnUse">
<stop stop-color="#FE7062"/>
<stop offset="1" stop-color="#FF928E"/>
</linearGradient>
<linearGradient id="paint12_linear_941_13681" x1="63.5549" y1="130.809" x2="62.6735" y2="138.037" gradientUnits="userSpaceOnUse">
<stop stop-color="#FE7062"/>
<stop offset="1" stop-color="#FF928E"/>
</linearGradient>
<linearGradient id="paint13_linear_941_13681" x1="70.3801" y1="126.199" x2="68.2646" y2="133.956" gradientUnits="userSpaceOnUse">
<stop stop-color="#FE7062"/>
<stop offset="1" stop-color="#FF928E"/>
</linearGradient>
<linearGradient id="paint14_linear_941_13681" x1="41.1451" y1="190.563" x2="61.9087" y2="190.563" gradientUnits="userSpaceOnUse">
<stop stop-color="#FEBBBA"/>
<stop offset="1" stop-color="#FF928E"/>
</linearGradient>
<linearGradient id="paint15_linear_941_13681" x1="68.1906" y1="175.8" x2="79.6078" y2="223.372" gradientUnits="userSpaceOnUse">
<stop stop-color="#09005D"/>
<stop offset="1" stop-color="#1A0F91"/>
</linearGradient>
<linearGradient id="paint16_linear_941_13681" x1="60.3672" y1="188.385" x2="66.8359" y2="188.385" gradientUnits="userSpaceOnUse">
<stop stop-color="#FEBBBA"/>
<stop offset="1" stop-color="#FF928E"/>
</linearGradient>
<linearGradient id="paint17_linear_941_13681" x1="220.915" y1="255.741" x2="209.478" y2="255.741" gradientUnits="userSpaceOnUse">
<stop stop-color="#09005D"/>
<stop offset="1" stop-color="#1A0F91"/>
</linearGradient>
<linearGradient id="paint18_linear_941_13681" x1="219.827" y1="252.521" x2="216.512" y2="252.521" gradientUnits="userSpaceOnUse">
<stop stop-color="#FEBBBA"/>
<stop offset="1" stop-color="#FF928E"/>
</linearGradient>
<linearGradient id="paint19_linear_941_13681" x1="244.343" y1="254.322" x2="237.723" y2="254.322" gradientUnits="userSpaceOnUse">
<stop stop-color="#09005D"/>
<stop offset="1" stop-color="#1A0F91"/>
</linearGradient>
<linearGradient id="paint20_linear_941_13681" x1="240.902" y1="249.758" x2="236.94" y2="249.758" gradientUnits="userSpaceOnUse">
<stop stop-color="#FEBBBA"/>
<stop offset="1" stop-color="#FF928E"/>
</linearGradient>
<linearGradient id="paint21_linear_941_13681" x1="222.751" y1="192.009" x2="236.855" y2="204.498" gradientUnits="userSpaceOnUse">
<stop stop-color="#FEBBBA"/>
<stop offset="1" stop-color="#FF928E"/>
</linearGradient>
<linearGradient id="paint22_linear_941_13681" x1="196.313" y1="193.19" x2="185.206" y2="193.19" gradientUnits="userSpaceOnUse">
<stop stop-color="#FEBBBA"/>
<stop offset="1" stop-color="#FF928E"/>
</linearGradient>
<linearGradient id="paint23_linear_941_13681" x1="207.11" y1="163.508" x2="207.231" y2="184.25" gradientUnits="userSpaceOnUse">
<stop stop-color="#FEBBBA"/>
<stop offset="1" stop-color="#FF928E"/>
</linearGradient>
<linearGradient id="paint24_linear_941_13681" x1="200.379" y1="160.098" x2="208.555" y2="174.924" gradientUnits="userSpaceOnUse">
<stop stop-color="#FEBBBA"/>
<stop offset="1" stop-color="#FF928E"/>
</linearGradient>
<linearGradient id="paint25_linear_941_13681" x1="213.651" y1="172.819" x2="206.746" y2="163.334" gradientUnits="userSpaceOnUse">
<stop stop-color="#FEBBBA"/>
<stop offset="1" stop-color="#FF928E"/>
</linearGradient>
<linearGradient id="paint26_linear_941_13681" x1="217.182" y1="198.299" x2="231.286" y2="210.787" gradientUnits="userSpaceOnUse">
<stop stop-color="#FEBBBA"/>
<stop offset="1" stop-color="#FF928E"/>
</linearGradient>
<linearGradient id="paint27_linear_941_13681" x1="186.386" y1="191.886" x2="182.409" y2="191.886" gradientUnits="userSpaceOnUse">
<stop stop-color="#FEBBBA"/>
<stop offset="1" stop-color="#FF928E"/>
</linearGradient>
<linearGradient id="paint28_linear_941_13681" x1="203.536" y1="154.726" x2="200.892" y2="163.188" gradientUnits="userSpaceOnUse">
<stop stop-color="#FE7062"/>
<stop offset="1" stop-color="#FF928E"/>
</linearGradient>
<linearGradient id="paint29_linear_941_13681" x1="201.474" y1="131.993" x2="201.298" y2="142.395" gradientUnits="userSpaceOnUse">
<stop stop-color="#FE7062"/>
<stop offset="1" stop-color="#FF928E"/>
</linearGradient>
<linearGradient id="paint30_linear_941_13681" x1="204.45" y1="149.381" x2="208.681" y2="133.867" gradientUnits="userSpaceOnUse">
<stop stop-color="#FE7062"/>
<stop offset="1" stop-color="#FF928E"/>
</linearGradient>
</defs>
</svg>
