<svg width="20" height="20" viewBox="0 0 20 20" fill="none" xmlns="http://www.w3.org/2000/svg">
<g clip-path="url(#clip0_4289_11398)">
<path d="M4.78008 11.25L10.9051 17.375C11.1551 17.625 11.2751 17.9167 11.2651 18.25C11.2551 18.5833 11.1247 18.875 10.8738 19.125C10.6238 19.3542 10.3322 19.4742 9.99882 19.485C9.66549 19.4958 9.37382 19.3758 9.12382 19.125L0.873826 10.875C0.748826 10.75 0.660077 10.6146 0.607577 10.4687C0.555077 10.3229 0.52966 10.1667 0.531327 10C0.532994 9.83333 0.559243 9.67708 0.610077 9.53125C0.66091 9.38542 0.749244 9.25 0.875077 9.125L9.12507 0.874999C9.35424 0.645833 9.64091 0.53125 9.98507 0.53125C10.3292 0.53125 10.6259 0.645833 10.8751 0.874999C11.1251 1.125 11.2501 1.42208 11.2501 1.76625C11.2501 2.11042 11.1251 2.40708 10.8751 2.65625L4.78008 8.75H18.7488C19.103 8.75 19.4001 8.87 19.6401 9.11C19.8801 9.35 19.9997 9.64667 19.9988 10C19.998 10.3533 19.878 10.6504 19.6388 10.8912C19.3997 11.1321 19.103 11.2517 18.7488 11.25H4.78008Z" fill="black"/>
</g>
<defs>
<clipPath id="clip0_4289_11398">
<rect width="20" height="20" fill="white"/>
</clipPath>
</defs>
</svg>
