<svg width="390" height="73" viewBox="0 0 390 73" fill="none" xmlns="http://www.w3.org/2000/svg">
<mask id="path-1-inside-1_20_9034" fill="white">
<path d="M380.146 13.9138C385.739 14.4692 390 19.1741 390 24.7947V47.4681C390 59.4956 390 65.5093 386.264 69.2457C382.527 72.9822 376.513 72.9822 364.486 72.9822H25.514C13.4866 72.9822 7.47288 72.9822 3.73644 69.2457C0 65.5093 0 59.4956 0 47.4681V24.7947C4.04877e-05 19.1741 4.26146 14.4692 9.85449 13.9138L149.546 0.0434771C156.656 -0.662458 162.195 7.52017 162.195 14.6648C162.195 32.7817 176.882 47.4685 194.999 47.4685C213.116 47.4685 227.803 32.7817 227.803 14.6648C227.803 7.51987 233.342 -0.663298 240.452 0.042697L380.146 13.9138Z"/>
</mask>
<path d="M380.146 13.9138C385.739 14.4692 390 19.1741 390 24.7947V47.4681C390 59.4956 390 65.5093 386.264 69.2457C382.527 72.9822 376.513 72.9822 364.486 72.9822H25.514C13.4866 72.9822 7.47288 72.9822 3.73644 69.2457C0 65.5093 0 59.4956 0 47.4681V24.7947C4.04877e-05 19.1741 4.26146 14.4692 9.85449 13.9138L149.546 0.0434771C156.656 -0.662458 162.195 7.52017 162.195 14.6648C162.195 32.7817 176.882 47.4685 194.999 47.4685C213.116 47.4685 227.803 32.7817 227.803 14.6648C227.803 7.51987 233.342 -0.663298 240.452 0.042697L380.146 13.9138Z" fill="#1A1A1A"/>
<path d="M380.146 13.9138L380.244 12.9187L380.146 13.9138ZM390 24.7947H391V24.7946L390 24.7947ZM0 24.7947L-1 24.7946V24.7947H0ZM9.85449 13.9138L9.75569 12.9187L9.75568 12.9187L9.85449 13.9138ZM194.999 47.4685V48.4685V47.4685ZM240.452 0.042697L240.354 1.0378L240.452 0.042697ZM3.73644 69.2457L3.02933 69.9528L3.73644 69.2457ZM386.264 69.2457L386.971 69.9528L386.264 69.2457ZM380.146 13.9138L380.047 14.9089C385.128 15.4135 389 19.6882 389 24.7947L390 24.7947L391 24.7946C391 18.66 386.349 13.5249 380.244 12.9187L380.146 13.9138ZM390 24.7947H389V47.4681H390H391V24.7947H390ZM364.486 72.9822V71.9822H25.514V72.9822V73.9822H364.486V72.9822ZM0 47.4681H1V24.7947H0H-1V47.4681H0ZM0 24.7947L1 24.7947C1.00004 19.6882 4.87171 15.4135 9.95331 14.9089L9.85449 13.9138L9.75568 12.9187C3.65122 13.5249 -0.999956 18.66 -1 24.7946L0 24.7947ZM9.85449 13.9138L9.9533 14.9089L149.645 1.03858L149.546 0.0434771L149.447 -0.95163L9.75569 12.9187L9.85449 13.9138ZM162.195 14.6648L161.195 14.6648C161.195 33.334 176.33 48.4685 194.999 48.4685V47.4685V46.4685C177.434 46.4685 163.195 32.2294 163.195 14.6648L162.195 14.6648ZM194.999 47.4685V48.4685C213.668 48.4685 228.803 33.334 228.803 14.6648L227.803 14.6648L226.803 14.6648C226.803 32.2294 212.564 46.4685 194.999 46.4685V47.4685ZM240.452 0.042697L240.354 1.0378L380.047 14.9089L380.146 13.9138L380.244 12.9187L240.551 -0.952409L240.452 0.042697ZM227.803 14.6648H228.803C228.803 11.3289 230.104 7.71472 232.243 5.03319C234.381 2.35293 237.241 0.728763 240.354 1.0378L240.452 0.042697L240.551 -0.952409C236.554 -1.34936 233.089 0.765053 230.68 3.7861C228.271 6.80588 226.803 10.8557 226.803 14.6648H227.803ZM149.546 0.0434771L149.645 1.03858C152.757 0.72957 155.617 2.35363 157.755 5.03374C159.894 7.7151 161.195 11.3291 161.195 14.6648H162.195H163.195C163.195 10.8559 161.727 6.80623 159.319 3.78661C156.909 0.765729 153.445 -1.34855 149.447 -0.95163L149.546 0.0434771ZM25.514 72.9822V71.9822C19.472 71.9822 15.0411 71.98 11.6494 71.524C8.28634 71.0719 6.095 70.1901 4.44355 68.5386L3.73644 69.2457L3.02933 69.9528C5.11432 72.0378 7.79806 73.0242 11.3829 73.5062C14.9389 73.9843 19.5286 73.9822 25.514 73.9822V72.9822ZM0 47.4681H-1C-1 53.4536 -1.00212 58.0433 -0.524028 61.5993C-0.0420638 65.1841 0.944345 67.8678 3.02933 69.9528L3.73644 69.2457L4.44355 68.5386C2.7921 66.8872 1.91028 64.6958 1.45814 61.3328C1.00212 57.941 1 53.5101 1 47.4681H0ZM390 47.4681H389C389 53.5101 388.998 57.941 388.542 61.3328C388.09 64.6958 387.208 66.8872 385.556 68.5386L386.264 69.2457L386.971 69.9528C389.056 67.8678 390.042 65.1841 390.524 61.5993C391.002 58.0433 391 53.4536 391 47.4681H390ZM364.486 72.9822V73.9822C370.471 73.9822 375.061 73.9843 378.617 73.5062C382.202 73.0242 384.886 72.0378 386.971 69.9528L386.264 69.2457L385.556 68.5386C383.905 70.1901 381.714 71.0719 378.351 71.524C374.959 71.98 370.528 71.9822 364.486 71.9822V72.9822Z" fill="#44474F" mask="url(#path-1-inside-1_20_9034)"/>
</svg>
