<svg width="20" height="20" viewBox="0 0 20 20" fill="none" xmlns="http://www.w3.org/2000/svg">
<path d="M1.66699 14.2148H10.0003" stroke="#2F648E" stroke-width="1.5" stroke-miterlimit="10" stroke-linecap="round" stroke-linejoin="round"/>
<path d="M3.51648 11.25H8.14986C9.63319 11.25 9.99984 11.6167 9.99984 13.0833V16.5083C9.99984 17.975 9.63319 18.3417 8.14986 18.3417H3.51648C2.03315 18.3417 1.6665 17.975 1.6665 16.5083V13.0833C1.6665 11.6167 2.03315 11.25 3.51648 11.25Z" stroke="#2F648E" stroke-width="1.5" stroke-linecap="round" stroke-linejoin="round"/>
<path d="M18.3333 12.5C18.3333 15.725 15.725 18.3333 12.5 18.3333L13.375 16.875" stroke="#2F648E" stroke-width="1.5" stroke-linecap="round" stroke-linejoin="round"/>
<path d="M1.66699 7.5013C1.66699 4.2763 4.27533 1.66797 7.50033 1.66797L6.62534 3.1263" stroke="#2F648E" stroke-width="1.5" stroke-linecap="round" stroke-linejoin="round"/>
<path d="M15.1359 5.32474C15.0942 5.32057 15.0442 5.32057 14.9984 5.32474C14.0067 5.29141 13.2192 4.47891 13.2192 3.47891C13.2192 2.45807 14.0442 1.62891 15.0692 1.62891C16.0901 1.62891 16.9192 2.45807 16.9192 3.47891C16.9151 4.47891 16.1276 5.29141 15.1359 5.32474Z" stroke="#2F648E" stroke-width="1.2" stroke-linecap="round" stroke-linejoin="round"/>
<path d="M13.0526 6.86094C12.0443 7.53594 12.0443 8.63594 13.0526 9.30677C14.1985 10.0734 16.0776 10.0734 17.2235 9.30677C18.2318 8.63177 18.2318 7.53177 17.2235 6.86094C16.0818 6.09844 14.2026 6.09844 13.0526 6.86094Z" stroke="#2F648E" stroke-width="1.2" stroke-linecap="round" stroke-linejoin="round"/>
</svg>
