<svg width="20" height="21" viewBox="0 0 20 21" fill="none" xmlns="http://www.w3.org/2000/svg">
<path d="M5.5833 15.2493H3.45831C2.26665 15.2493 1.66663 14.6493 1.66663 13.4576V3.70764C1.66663 2.51597 2.26665 1.91595 3.45831 1.91595H7.04164C8.2333 1.91595 8.83327 2.51597 8.83327 3.70764V5.24929" stroke="#2F648E" stroke-width="1.5" stroke-miterlimit="10" stroke-linecap="round" stroke-linejoin="round"/>
<path d="M14.475 7.26592V16.5659C14.475 17.9076 13.8084 18.5826 12.4667 18.5826H7.60003C6.25836 18.5826 5.58337 17.9076 5.58337 16.5659V7.26592C5.58337 5.92425 6.25836 5.24927 7.60003 5.24927H12.4667C13.8084 5.24927 14.475 5.92425 14.475 7.26592Z" stroke="#2F648E" stroke-width="1.5" stroke-miterlimit="10" stroke-linecap="round" stroke-linejoin="round"/>
<path d="M11.1667 5.24929V3.70764C11.1667 2.51597 11.7667 1.91595 12.9584 1.91595H16.5417C17.7334 1.91595 18.3334 2.51597 18.3334 3.70764V13.4576C18.3334 14.6493 17.7334 15.2493 16.5417 15.2493H14.4751" stroke="#2F648E" stroke-width="1.5" stroke-miterlimit="10" stroke-linecap="round" stroke-linejoin="round"/>
<path d="M8.33337 9.41595H11.6667" stroke="#2F648E" stroke-width="1.5" stroke-miterlimit="10" stroke-linecap="round" stroke-linejoin="round"/>
<path d="M8.33337 11.916H11.6667" stroke="#2F648E" stroke-width="1.5" stroke-miterlimit="10" stroke-linecap="round" stroke-linejoin="round"/>
<path d="M10 18.5826V16.0826" stroke="#2F648E" stroke-width="1.5" stroke-miterlimit="10" stroke-linecap="round" stroke-linejoin="round"/>
</svg>
