<svg width="20" height="20" viewBox="0 0 20 20" fill="none" xmlns="http://www.w3.org/2000/svg">
<path d="M7.08335 15.8307H6.66669C3.33335 15.8307 1.66669 14.9974 1.66669 10.8307V6.66406C1.66669 3.33073 3.33335 1.66406 6.66669 1.66406H13.3334C16.6667 1.66406 18.3334 3.33073 18.3334 6.66406V10.8307C18.3334 14.1641 16.6667 15.8307 13.3334 15.8307H12.9167C12.6584 15.8307 12.4084 15.9557 12.25 16.1641L11 17.8307C10.45 18.5641 9.55002 18.5641 9.00002 17.8307L7.75002 16.1641C7.61669 15.9807 7.30835 15.8307 7.08335 15.8307Z" stroke="#2F648E" stroke-width="1.5" stroke-miterlimit="10" stroke-linecap="round" stroke-linejoin="round"/>
<path d="M13.3304 9.16667H13.3378" stroke="#2F648E" stroke-width="2" stroke-linecap="round" stroke-linejoin="round"/>
<path d="M9.99626 9.16667H10.0037" stroke="#2F648E" stroke-width="2" stroke-linecap="round" stroke-linejoin="round"/>
<path d="M6.66209 9.16667H6.66957" stroke="#2F648E" stroke-width="2" stroke-linecap="round" stroke-linejoin="round"/>
</svg>
