<svg width="20" height="20" viewBox="0 0 20 20" fill="none" xmlns="http://www.w3.org/2000/svg">
<path d="M11.6666 4.16667C11.6666 3.25 10.9166 2.5 9.99996 2.5C9.08329 2.5 8.33329 3.25 8.33329 4.16667C8.33329 5.08333 9.08329 5.83333 9.99996 5.83333C10.9166 5.83333 11.6666 5.08333 11.6666 4.16667Z" fill="#2F648E" stroke="#2F648E" stroke-width="0.416667"/>
<path d="M11.6666 15.8307C11.6666 14.9141 10.9166 14.1641 9.99996 14.1641C9.08329 14.1641 8.33329 14.9141 8.33329 15.8307C8.33329 16.7474 9.08329 17.4974 9.99996 17.4974C10.9166 17.4974 11.6666 16.7474 11.6666 15.8307Z" fill="#2F648E" stroke="#2F648E" stroke-width="0.416667"/>
<path d="M11.6666 10.0026C11.6666 9.08594 10.9166 8.33594 9.99996 8.33594C9.08329 8.33594 8.33329 9.08594 8.33329 10.0026C8.33329 10.9193 9.08329 11.6693 9.99996 11.6693C10.9166 11.6693 11.6666 10.9193 11.6666 10.0026Z" fill="#2F648E" stroke="#2F648E" stroke-width="0.416667"/>
</svg>
