<svg width="20" height="20" viewBox="0 0 20 20" fill="none" xmlns="http://www.w3.org/2000/svg">
<path d="M10 18.001C12.1217 18.001 14.1566 17.1581 15.6569 15.6578C17.1571 14.1575 18 12.1227 18 10.001C18 7.87924 17.1571 5.84441 15.6569 4.34412C14.1566 2.84383 12.1217 2.00098 10 2.00098C7.87827 2.00098 5.84344 2.84383 4.34315 4.34412C2.84285 5.84441 2 7.87924 2 10.001C2 12.1227 2.84285 14.1575 4.34315 15.6578C5.84344 17.1581 7.87827 18.001 10 18.001ZM10 0.000976562C11.3132 0.000976563 12.6136 0.259634 13.8268 0.762181C15.0401 1.26473 16.1425 2.00132 17.0711 2.92991C17.9997 3.85849 18.7362 4.96089 19.2388 6.17414C19.7413 7.3874 20 8.68776 20 10.001C20 12.6531 18.9464 15.1967 17.0711 17.072C15.1957 18.9474 12.6522 20.001 10 20.001C4.47 20.001 0 15.501 0 10.001C0 7.34881 1.05357 4.80527 2.92893 2.92991C4.8043 1.05454 7.34784 0.000976563 10 0.000976562ZM10.5 5.00098V10.251L15 12.921L14.25 14.151L9 11.001V5.00098H10.5Z" fill="white"/>
</svg>
