<svg width="46" height="46" viewBox="0 0 46 46" fill="none" xmlns="http://www.w3.org/2000/svg">
<g filter="url(#filter0_di_3_12750)">
<path d="M37.7905 14.0556V32.5267C37.7905 35.357 37.5299 37.3679 36.8595 38.8017C36.8595 38.8203 36.8409 38.8575 36.8222 38.8761C36.4126 39.3975 35.8727 39.6582 35.2396 39.6582C34.2527 39.6582 33.0611 39.0065 31.7763 37.6286C30.2495 35.99 27.9032 36.1204 26.5626 37.9079L24.6821 40.403C23.9373 41.4085 22.9504 41.9112 21.9635 41.9112C20.9766 41.9112 19.9897 41.4085 19.2449 40.403L17.3458 37.8893C16.0237 36.1204 13.6962 35.99 12.1693 37.61L12.1507 37.6286C10.0466 39.8816 8.18471 40.2168 7.10475 38.8761C7.08613 38.8575 7.06748 38.8203 7.06748 38.8017C6.39716 37.3679 6.13647 35.357 6.13647 32.5267V14.0556C6.13647 11.2254 6.39716 9.21443 7.06748 7.78069C7.06748 7.76207 7.06751 7.74345 7.10475 7.72483C8.16609 6.36557 10.0466 6.70073 12.1507 8.95375L12.1693 8.97237C13.6962 10.5923 16.0237 10.462 17.3458 8.69307L19.2449 6.17936C19.9897 5.17388 20.9766 4.67114 21.9635 4.67114C22.9504 4.67114 23.9373 5.17388 24.6821 6.17936L26.5626 8.67445C27.9032 10.462 30.2495 10.5923 31.7763 8.95375C33.0611 7.57587 34.2527 6.92417 35.2396 6.92417C35.8727 6.92417 36.4126 7.20347 36.8222 7.72483C36.8595 7.74345 36.8595 7.76207 36.8595 7.78069C37.5299 9.21443 37.7905 11.2254 37.7905 14.0556Z" fill="#2F648E"/>
</g>
<path d="M30.342 21.4292H15.4459C14.6825 21.4292 14.0494 20.7962 14.0494 20.0327C14.0494 19.2693 14.6825 18.6362 15.4459 18.6362H30.342C31.1054 18.6362 31.7385 19.2693 31.7385 20.0327C31.7385 20.7962 31.1054 21.4292 30.342 21.4292Z" fill="white"/>
<path d="M26.618 27.9471H15.4459C14.6825 27.9471 14.0494 27.314 14.0494 26.5506C14.0494 25.7871 14.6825 25.1541 15.4459 25.1541H26.618C27.3814 25.1541 28.0145 25.7871 28.0145 26.5506C28.0145 27.314 27.3814 27.9471 26.618 27.9471Z" fill="#2FBBA4"/>
<defs>
<filter id="filter0_di_3_12750" x="3.49644" y="1.3711" width="38.6941" height="44.2801" filterUnits="userSpaceOnUse" color-interpolation-filters="sRGB">
<feFlood flood-opacity="0" result="BackgroundImageFix"/>
<feColorMatrix in="SourceAlpha" type="matrix" values="0 0 0 0 0 0 0 0 0 0 0 0 0 0 0 0 0 0 127 0" result="hardAlpha"/>
<feMorphology radius="1.10001" operator="dilate" in="SourceAlpha" result="effect1_dropShadow_3_12750"/>
<feOffset dy="1.10001"/>
<feGaussianBlur stdDeviation="0.77001"/>
<feComposite in2="hardAlpha" operator="out"/>
<feColorMatrix type="matrix" values="0 0 0 0 0.184314 0 0 0 0 0.733333 0 0 0 0 0.643137 0 0 0 0.1 0"/>
<feBlend mode="normal" in2="BackgroundImageFix" result="effect1_dropShadow_3_12750"/>
<feBlend mode="normal" in="SourceGraphic" in2="effect1_dropShadow_3_12750" result="shape"/>
<feColorMatrix in="SourceAlpha" type="matrix" values="0 0 0 0 0 0 0 0 0 0 0 0 0 0 0 0 0 0 127 0" result="hardAlpha"/>
<feOffset dx="4.40006" dy="-3.30004"/>
<feGaussianBlur stdDeviation="2.20003"/>
<feComposite in2="hardAlpha" operator="arithmetic" k2="-1" k3="1"/>
<feColorMatrix type="matrix" values="0 0 0 0 0 0 0 0 0 0 0 0 0 0 0 0 0 0 0.25 0"/>
<feBlend mode="normal" in2="shape" result="effect2_innerShadow_3_12750"/>
</filter>
</defs>
</svg>
