<svg width="20" height="19" viewBox="0 0 20 19" fill="none" xmlns="http://www.w3.org/2000/svg">
<path d="M19.5 2.74989V7.24989C19.5 7.4488 19.421 7.63957 19.2803 7.78022C19.1397 7.92087 18.9489 7.99989 18.75 7.99989H14.25C14.0511 7.99989 13.8603 7.92087 13.7197 7.78022C13.579 7.63957 13.5 7.4488 13.5 7.24989C13.5 7.05098 13.579 6.86021 13.7197 6.71956C13.8603 6.57891 14.0511 6.49989 14.25 6.49989H16.8188L14.3259 4.21614L14.3025 4.19364C13.2601 3.1516 11.9337 2.43982 10.4891 2.14721C9.04448 1.85461 7.54567 1.99416 6.17991 2.54842C4.81414 3.10268 3.64197 4.04709 2.80982 5.26367C1.97768 6.48024 1.52245 7.91504 1.501 9.38883C1.47956 10.8626 1.89286 12.3101 2.68926 13.5503C3.48566 14.7906 4.62986 15.7687 5.97892 16.3625C7.32798 16.9562 8.82209 17.1393 10.2746 16.8889C11.7271 16.6384 13.0736 15.9655 14.1459 14.9543C14.2905 14.8175 14.4835 14.7438 14.6825 14.7493C14.8814 14.7549 15.07 14.8392 15.2067 14.9838C15.3435 15.1284 15.4172 15.3214 15.4117 15.5203C15.4061 15.7192 15.3218 15.9078 15.1772 16.0446C13.5098 17.6259 11.298 18.5051 9.00001 18.4999H8.87626C7.40226 18.4797 5.95579 18.0978 4.66398 17.3876C3.37216 16.6775 2.27455 15.6609 1.46762 14.4273C0.660696 13.1936 0.169152 11.7806 0.0361952 10.3125C-0.0967615 8.84435 0.13294 7.36604 0.70511 6.00747C1.27728 4.64891 2.1744 3.45169 3.31762 2.52104C4.46085 1.59039 5.81517 0.954798 7.26156 0.670133C8.70794 0.385468 10.2021 0.460444 11.6127 0.88847C13.0234 1.3165 14.3073 2.08447 15.3516 3.12489L18 5.54364V2.74989C18 2.55098 18.079 2.36021 18.2197 2.21956C18.3603 2.07891 18.5511 1.99989 18.75 1.99989C18.9489 1.99989 19.1397 2.07891 19.2803 2.21956C19.421 2.36021 19.5 2.55098 19.5 2.74989Z" fill="#2F648E"/>
</svg>
