<svg width="20" height="20" viewBox="0 0 20 20" fill="none" xmlns="http://www.w3.org/2000/svg">
<path d="M10.7416 4.90625H4.25828C2.83328 4.90625 1.66663 6.0729 1.66663 7.4979V16.9646C1.66663 18.1729 2.53329 18.6896 3.59162 18.0979L6.86662 16.2729C7.21662 16.0812 7.78329 16.0812 8.12496 16.2729L11.4 18.0979C12.4583 18.6896 13.325 18.1729 13.325 16.9646V7.4979C13.3333 6.0729 12.1666 4.90625 10.7416 4.90625Z" fill="#EEF7FD" stroke="#2F648E" stroke-width="1.25" stroke-linecap="round" stroke-linejoin="round"/>
<path d="M13.3333 7.4979V16.9646C13.3333 18.1729 12.4666 18.6812 11.4083 18.0979L8.1333 16.2729C7.7833 16.0812 7.21662 16.0812 6.86662 16.2729L3.59162 18.0979C2.53329 18.6812 1.66663 18.1729 1.66663 16.9646V7.4979C1.66663 6.0729 2.83328 4.90625 4.25828 4.90625H10.7416C12.1666 4.90625 13.3333 6.0729 13.3333 7.4979Z" fill="#EEF7FD" stroke="#2F648E" stroke-width="1.5" stroke-linecap="round" stroke-linejoin="round"/>
<path d="M18.3333 4.25572V13.7224C18.3333 14.9307 17.4666 15.4391 16.4083 14.8557L13.3333 13.1391V7.48905C13.3333 6.06405 12.1666 4.8974 10.7416 4.8974H6.66663V4.25572C6.66663 2.83072 7.83328 1.66406 9.25828 1.66406H15.7416C17.1666 1.66406 18.3333 2.83072 18.3333 4.25572Z" fill="#EEF7FD" stroke="#2F648E" stroke-width="1.5" stroke-linecap="round" stroke-linejoin="round"/>
</svg>
