<svg width="24" height="24" viewBox="0 0 24 24" fill="none" xmlns="http://www.w3.org/2000/svg">
<path d="M1.1665 8.75032V6.04199C1.1665 3.34449 3.344 1.16699 6.0415 1.16699H8.74984" stroke="#2F648E" stroke-width="1.5" stroke-linecap="round" stroke-linejoin="round"/>
<path d="M15.25 1.16699H17.9583C20.6558 1.16699 22.8333 3.34449 22.8333 6.04199V8.75032" stroke="#2F648E" stroke-width="1.5" stroke-linecap="round" stroke-linejoin="round"/>
<path d="M22.8335 16.333V17.958C22.8335 20.6555 20.656 22.833 17.9585 22.833H16.3335" stroke="#2F648E" stroke-width="1.5" stroke-linecap="round" stroke-linejoin="round"/>
<path d="M8.74984 22.8333H6.0415C3.344 22.8333 1.1665 20.6558 1.1665 17.9583V15.25" stroke="#2F648E" stroke-width="1.5" stroke-linecap="round" stroke-linejoin="round"/>
<path d="M17.4168 9.29199V14.7087C17.4168 16.8753 16.3335 17.9587 14.1668 17.9587H9.8335C7.66683 17.9587 6.5835 16.8753 6.5835 14.7087V9.29199C6.5835 7.12533 7.66683 6.04199 9.8335 6.04199H14.1668C16.3335 6.04199 17.4168 7.12533 17.4168 9.29199Z" stroke="#2F648E" stroke-width="1.5" stroke-linecap="round" stroke-linejoin="round"/>
<path d="M19.5832 12H4.4165" stroke="#2F648E" stroke-width="1.5" stroke-linecap="round" stroke-linejoin="round"/>
</svg>
