<svg width="46" height="46" viewBox="0 0 46 46" fill="none" xmlns="http://www.w3.org/2000/svg">
<g clip-path="url(#clip0_4289_11354)">
<g filter="url(#filter0_di_4289_11354)">
<path d="M0.84375 7.35577C0.84375 3.42361 4.05973 0.242545 8.00493 0.299333C11.8265 0.354283 14.9339 3.48836 14.958 7.31018C14.9716 9.45052 14.032 11.3714 12.5391 12.6744C12.3815 12.8118 12.4043 13.0628 12.5842 13.1693L13.914 13.9561C14.129 14.0833 14.0388 14.4128 13.7889 14.4128L7.76736 14.4113C3.93145 14.34 0.84375 11.2087 0.84375 7.35577Z" fill="#2FBBA4"/>
</g>
<g filter="url(#filter1_di_4289_11354)">
<path d="M35.234 25.9146H19.2245C15.2259 25.9146 13.0377 21.2547 15.5916 18.1779L15.7336 18.0067C16.8586 16.6513 17.4745 14.9451 17.4745 13.1836V10.0963C17.4746 4.68513 21.8611 0.298584 27.2723 0.298584C32.6835 0.298584 37.07 4.68513 37.07 10.0963V13.2878C37.07 15.0678 37.6988 16.7906 38.8454 18.1522C41.4311 21.2227 39.2483 25.9146 35.234 25.9146Z" fill="#2F648E"/>
</g>
<path d="M43.6481 33.8556V44.4396H10.8076V33.9352C10.8076 31.5569 12.233 29.4106 14.424 28.4883L19.7256 26.1836L21.5106 25.4074C22.8651 24.8186 23.741 23.4824 23.741 22.0054V21.3203H30.7139V21.9704C30.7139 23.4536 31.5985 24.7949 32.9626 25.3794L40.1332 28.4533C42.27 29.4001 43.6481 31.5176 43.6481 33.8556Z" fill="white"/>
<path d="M19.7232 28.7069C21.5326 29.2476 24.1958 29.8242 27.4422 29.7674C30.4881 29.7142 32.9885 29.1219 34.7284 28.5662L35.5929 26.5076L32.9604 25.3793C31.5966 24.7947 30.7123 23.4537 30.7123 21.9699V21.3203H23.7394V22.0053C23.7394 23.4821 22.8634 24.8181 21.5092 25.407L19.377 26.3341L19.7232 28.7069Z" fill="#FFCEBF"/>
<g filter="url(#filter2_di_4289_11354)">
<path d="M40.133 28.4487L34.7314 26.1335L34.7305 26.1336V44.4352H43.6483V33.8515C43.6483 31.5137 42.2703 29.3958 40.133 28.4487Z" fill="#2F648E"/>
</g>
<g filter="url(#filter3_di_4289_11354)">
<path d="M19.7256 26.1772V44.4332H10.8076V33.9289C10.8076 31.5506 12.233 29.4042 14.424 28.482L19.7256 26.1772Z" fill="#2F648E"/>
</g>
<path d="M29.6414 25.1475C30.4436 25.1475 31.208 24.9864 31.9048 24.6957C31.1574 24.0058 30.7108 23.024 30.7108 21.9699V21.3203H23.7379V22.0052C23.7379 22.5387 23.623 23.0536 23.4131 23.5217C24.4689 24.5282 25.8974 25.1474 27.4712 25.1474L29.6414 25.1475Z" fill="#FFB09E"/>
<path d="M34.1932 10.8201V16.5886C34.1932 19.8383 31.5587 22.4727 28.3091 22.4727H26.139C22.8892 22.4727 20.2549 19.8382 20.2549 16.5886V10.8201C20.2549 8.70605 21.9687 6.99219 24.0828 6.99219H30.3653C32.4794 6.99228 34.1932 8.70605 34.1932 10.8201Z" fill="#FFCEBF"/>
<g filter="url(#filter4_di_4289_11354)">
<path d="M34.1945 13.8171C34.1918 13.8251 34.1886 13.8328 34.1862 13.8409C33.9735 14.5755 33.4153 15.9631 32.0662 17.0034C31.438 17.4879 30.7215 17.8379 29.9366 18.0438C29.5809 18.1372 29.3681 18.5013 29.4614 18.8571C29.54 19.1562 29.8098 19.3542 30.1052 19.3542C30.1612 19.3542 30.218 19.3471 30.2747 19.3323C31.233 19.0808 32.1094 18.6521 32.8797 18.0583C33.4116 17.6481 33.8421 17.195 34.1906 16.7395C34.1919 16.6878 34.1946 16.6365 34.1946 16.5845V13.8171H34.1945Z" fill="#2FBBA4"/>
</g>
<g filter="url(#filter5_di_4289_11354)">
<path d="M29.2055 19.8898H27.6447C26.9343 19.8898 26.3584 19.3139 26.3584 18.6035C26.3584 17.8931 26.9343 17.3171 27.6447 17.3171H29.2055C29.9159 17.3171 30.4918 17.8931 30.4918 18.6035C30.4917 19.314 29.9159 19.8898 29.2055 19.8898Z" fill="#2FBBA4"/>
</g>
<g filter="url(#filter6_di_4289_11354)">
<path d="M28.6155 5.48043C28.7649 3.59568 30.5693 2.34487 32.2963 1.69702C35.1531 3.40878 37.0657 6.53437 37.0657 10.1071V10.7807C36.9078 10.8138 36.7506 10.8429 36.5952 10.8661C35.6438 11.0082 34.8337 10.9466 34.2801 10.8661C30.7134 10.3909 28.435 7.75675 28.6155 5.48043Z" fill="#2F648E"/>
</g>
<g filter="url(#filter7_di_4289_11354)">
<path d="M27.2664 0.297119C29.4791 0.297119 31.5203 1.03089 33.1605 2.26806C32.3423 3.69177 30.4635 6.50664 26.9404 8.59054C24.3251 10.1376 21.859 10.6575 20.3403 10.8537H17.4688V10.0948C17.4687 4.68367 21.8552 0.297119 27.2664 0.297119Z" fill="#2F648E"/>
</g>
<g filter="url(#filter8_di_4289_11354)">
<path d="M38.219 44.4322H16.8993L15.7234 33.3394C15.64 32.5526 16.2568 31.8669 17.048 31.8669H38.0704C38.8616 31.8669 39.4784 32.5526 39.395 33.3394L38.219 44.4322Z" fill="#2FBBA4"/>
</g>
<g filter="url(#filter9_di_4289_11354)">
<path d="M44.6535 45.1028H1.16602C0.803503 45.1028 0.509766 44.809 0.509766 44.4465C0.509766 44.0841 0.803503 43.7903 1.16602 43.7903H44.6535C45.016 43.7903 45.3098 44.0841 45.3098 44.4465C45.3098 44.809 45.016 45.1028 44.6535 45.1028Z" fill="#2FBBA4"/>
</g>
<path d="M27.5582 40.0155C28.5881 40.0155 29.423 39.1806 29.423 38.1507C29.423 37.1208 28.5881 36.2859 27.5582 36.2859C26.5283 36.2859 25.6934 37.1208 25.6934 38.1507C25.6934 39.1806 26.5283 40.0155 27.5582 40.0155Z" fill="white"/>
<path d="M5.23628 8.02016C5.60408 8.02016 5.90224 7.722 5.90224 7.35419C5.90224 6.98639 5.60408 6.68823 5.23628 6.68823C4.86847 6.68823 4.57031 6.98639 4.57031 7.35419C4.57031 7.722 4.86847 8.02016 5.23628 8.02016Z" fill="white"/>
<path d="M7.89936 8.02016C8.26716 8.02016 8.56532 7.722 8.56532 7.35419C8.56532 6.98639 8.26716 6.68823 7.89936 6.68823C7.53156 6.68823 7.2334 6.98639 7.2334 7.35419C7.2334 7.722 7.53156 8.02016 7.89936 8.02016Z" fill="white"/>
<path d="M10.5654 8.02016C10.9332 8.02016 11.2313 7.722 11.2313 7.35419C11.2313 6.98639 10.9332 6.68823 10.5654 6.68823C10.1976 6.68823 9.89941 6.98639 9.89941 7.35419C9.89941 7.722 10.1976 8.02016 10.5654 8.02016Z" fill="white"/>
</g>
<defs>
<filter id="filter0_di_4289_11354" x="0.0848379" y="-0.650056" width="16.138" height="16.138" filterUnits="userSpaceOnUse" color-interpolation-filters="sRGB">
<feFlood flood-opacity="0" result="BackgroundImageFix"/>
<feColorMatrix in="SourceAlpha" type="matrix" values="0 0 0 0 0 0 0 0 0 0 0 0 0 0 0 0 0 0 127 0" result="hardAlpha"/>
<feMorphology radius="0.316213" operator="dilate" in="SourceAlpha" result="effect1_dropShadow_4289_11354"/>
<feOffset dy="0.316213"/>
<feGaussianBlur stdDeviation="0.221349"/>
<feComposite in2="hardAlpha" operator="out"/>
<feColorMatrix type="matrix" values="0 0 0 0 0.184314 0 0 0 0 0.733333 0 0 0 0 0.643137 0 0 0 0.1 0"/>
<feBlend mode="normal" in2="BackgroundImageFix" result="effect1_dropShadow_4289_11354"/>
<feBlend mode="normal" in="SourceGraphic" in2="effect1_dropShadow_4289_11354" result="shape"/>
<feColorMatrix in="SourceAlpha" type="matrix" values="0 0 0 0 0 0 0 0 0 0 0 0 0 0 0 0 0 0 127 0" result="hardAlpha"/>
<feOffset dx="1.26485" dy="-0.94864"/>
<feGaussianBlur stdDeviation="0.632427"/>
<feComposite in2="hardAlpha" operator="arithmetic" k2="-1" k3="1"/>
<feColorMatrix type="matrix" values="0 0 0 0 0 0 0 0 0 0 0 0 0 0 0 0 0 0 0.25 0"/>
<feBlend mode="normal" in2="shape" result="effect2_innerShadow_4289_11354"/>
</filter>
<filter id="filter1_di_4289_11354" x="12.7233" y="-3.49598" width="29.0123" height="32.4462" filterUnits="userSpaceOnUse" color-interpolation-filters="sRGB">
<feFlood flood-opacity="0" result="BackgroundImageFix"/>
<feColorMatrix in="SourceAlpha" type="matrix" values="0 0 0 0 0 0 0 0 0 0 0 0 0 0 0 0 0 0 127 0" result="hardAlpha"/>
<feOffset dy="1.26485"/>
<feGaussianBlur stdDeviation="0.885397"/>
<feComposite in2="hardAlpha" operator="out"/>
<feColorMatrix type="matrix" values="0 0 0 0 0.184314 0 0 0 0 0.733333 0 0 0 0 0.643137 0 0 0 0.1 0"/>
<feBlend mode="normal" in2="BackgroundImageFix" result="effect1_dropShadow_4289_11354"/>
<feBlend mode="normal" in="SourceGraphic" in2="effect1_dropShadow_4289_11354" result="shape"/>
<feColorMatrix in="SourceAlpha" type="matrix" values="0 0 0 0 0 0 0 0 0 0 0 0 0 0 0 0 0 0 127 0" result="hardAlpha"/>
<feOffset dy="-3.79456"/>
<feGaussianBlur stdDeviation="2.52971"/>
<feComposite in2="hardAlpha" operator="arithmetic" k2="-1" k3="1"/>
<feColorMatrix type="matrix" values="0 0 0 0 0 0 0 0 0 0 0 0 0 0 0 0 0 0 0.25 0"/>
<feBlend mode="normal" in2="shape" result="effect2_innerShadow_4289_11354"/>
</filter>
<filter id="filter2_di_4289_11354" x="32.9597" y="22.339" width="12.4596" height="25.132" filterUnits="userSpaceOnUse" color-interpolation-filters="sRGB">
<feFlood flood-opacity="0" result="BackgroundImageFix"/>
<feColorMatrix in="SourceAlpha" type="matrix" values="0 0 0 0 0 0 0 0 0 0 0 0 0 0 0 0 0 0 127 0" result="hardAlpha"/>
<feOffset dy="1.26485"/>
<feGaussianBlur stdDeviation="0.885397"/>
<feComposite in2="hardAlpha" operator="out"/>
<feColorMatrix type="matrix" values="0 0 0 0 0.184314 0 0 0 0 0.733333 0 0 0 0 0.643137 0 0 0 0.1 0"/>
<feBlend mode="normal" in2="BackgroundImageFix" result="effect1_dropShadow_4289_11354"/>
<feBlend mode="normal" in="SourceGraphic" in2="effect1_dropShadow_4289_11354" result="shape"/>
<feColorMatrix in="SourceAlpha" type="matrix" values="0 0 0 0 0 0 0 0 0 0 0 0 0 0 0 0 0 0 127 0" result="hardAlpha"/>
<feOffset dy="-3.79456"/>
<feGaussianBlur stdDeviation="2.52971"/>
<feComposite in2="hardAlpha" operator="arithmetic" k2="-1" k3="1"/>
<feColorMatrix type="matrix" values="0 0 0 0 0 0 0 0 0 0 0 0 0 0 0 0 0 0 0.25 0"/>
<feBlend mode="normal" in2="shape" result="effect2_innerShadow_4289_11354"/>
</filter>
<filter id="filter3_di_4289_11354" x="9.03682" y="22.3827" width="12.4596" height="25.0863" filterUnits="userSpaceOnUse" color-interpolation-filters="sRGB">
<feFlood flood-opacity="0" result="BackgroundImageFix"/>
<feColorMatrix in="SourceAlpha" type="matrix" values="0 0 0 0 0 0 0 0 0 0 0 0 0 0 0 0 0 0 127 0" result="hardAlpha"/>
<feOffset dy="1.26485"/>
<feGaussianBlur stdDeviation="0.885397"/>
<feComposite in2="hardAlpha" operator="out"/>
<feColorMatrix type="matrix" values="0 0 0 0 0.184314 0 0 0 0 0.733333 0 0 0 0 0.643137 0 0 0 0.1 0"/>
<feBlend mode="normal" in2="BackgroundImageFix" result="effect1_dropShadow_4289_11354"/>
<feBlend mode="normal" in="SourceGraphic" in2="effect1_dropShadow_4289_11354" result="shape"/>
<feColorMatrix in="SourceAlpha" type="matrix" values="0 0 0 0 0 0 0 0 0 0 0 0 0 0 0 0 0 0 127 0" result="hardAlpha"/>
<feOffset dy="-3.79456"/>
<feGaussianBlur stdDeviation="2.52971"/>
<feComposite in2="hardAlpha" operator="arithmetic" k2="-1" k3="1"/>
<feColorMatrix type="matrix" values="0 0 0 0 0 0 0 0 0 0 0 0 0 0 0 0 0 0 0.25 0"/>
<feBlend mode="normal" in2="shape" result="effect2_innerShadow_4289_11354"/>
</filter>
<filter id="filter4_di_4289_11354" x="28.6805" y="12.8685" width="6.77865" height="7.56088" filterUnits="userSpaceOnUse" color-interpolation-filters="sRGB">
<feFlood flood-opacity="0" result="BackgroundImageFix"/>
<feColorMatrix in="SourceAlpha" type="matrix" values="0 0 0 0 0 0 0 0 0 0 0 0 0 0 0 0 0 0 127 0" result="hardAlpha"/>
<feMorphology radius="0.316213" operator="dilate" in="SourceAlpha" result="effect1_dropShadow_4289_11354"/>
<feOffset dy="0.316213"/>
<feGaussianBlur stdDeviation="0.221349"/>
<feComposite in2="hardAlpha" operator="out"/>
<feColorMatrix type="matrix" values="0 0 0 0 0.184314 0 0 0 0 0.733333 0 0 0 0 0.643137 0 0 0 0.1 0"/>
<feBlend mode="normal" in2="BackgroundImageFix" result="effect1_dropShadow_4289_11354"/>
<feBlend mode="normal" in="SourceGraphic" in2="effect1_dropShadow_4289_11354" result="shape"/>
<feColorMatrix in="SourceAlpha" type="matrix" values="0 0 0 0 0 0 0 0 0 0 0 0 0 0 0 0 0 0 127 0" result="hardAlpha"/>
<feOffset dx="1.26485" dy="-0.94864"/>
<feGaussianBlur stdDeviation="0.632427"/>
<feComposite in2="hardAlpha" operator="arithmetic" k2="-1" k3="1"/>
<feColorMatrix type="matrix" values="0 0 0 0 0 0 0 0 0 0 0 0 0 0 0 0 0 0 0.25 0"/>
<feBlend mode="normal" in2="shape" result="effect2_innerShadow_4289_11354"/>
</filter>
<filter id="filter5_di_4289_11354" x="25.5995" y="16.3685" width="6.15755" height="4.59652" filterUnits="userSpaceOnUse" color-interpolation-filters="sRGB">
<feFlood flood-opacity="0" result="BackgroundImageFix"/>
<feColorMatrix in="SourceAlpha" type="matrix" values="0 0 0 0 0 0 0 0 0 0 0 0 0 0 0 0 0 0 127 0" result="hardAlpha"/>
<feMorphology radius="0.316213" operator="dilate" in="SourceAlpha" result="effect1_dropShadow_4289_11354"/>
<feOffset dy="0.316213"/>
<feGaussianBlur stdDeviation="0.221349"/>
<feComposite in2="hardAlpha" operator="out"/>
<feColorMatrix type="matrix" values="0 0 0 0 0.184314 0 0 0 0 0.733333 0 0 0 0 0.643137 0 0 0 0.1 0"/>
<feBlend mode="normal" in2="BackgroundImageFix" result="effect1_dropShadow_4289_11354"/>
<feBlend mode="normal" in="SourceGraphic" in2="effect1_dropShadow_4289_11354" result="shape"/>
<feColorMatrix in="SourceAlpha" type="matrix" values="0 0 0 0 0 0 0 0 0 0 0 0 0 0 0 0 0 0 127 0" result="hardAlpha"/>
<feOffset dx="1.26485" dy="-0.94864"/>
<feGaussianBlur stdDeviation="0.632427"/>
<feComposite in2="hardAlpha" operator="arithmetic" k2="-1" k3="1"/>
<feColorMatrix type="matrix" values="0 0 0 0 0 0 0 0 0 0 0 0 0 0 0 0 0 0 0.25 0"/>
<feBlend mode="normal" in2="shape" result="effect2_innerShadow_4289_11354"/>
</filter>
<filter id="filter6_di_4289_11354" x="26.8347" y="-2.09754" width="12.0016" height="16.0844" filterUnits="userSpaceOnUse" color-interpolation-filters="sRGB">
<feFlood flood-opacity="0" result="BackgroundImageFix"/>
<feColorMatrix in="SourceAlpha" type="matrix" values="0 0 0 0 0 0 0 0 0 0 0 0 0 0 0 0 0 0 127 0" result="hardAlpha"/>
<feOffset dy="1.26485"/>
<feGaussianBlur stdDeviation="0.885397"/>
<feComposite in2="hardAlpha" operator="out"/>
<feColorMatrix type="matrix" values="0 0 0 0 0.184314 0 0 0 0 0.733333 0 0 0 0 0.643137 0 0 0 0.1 0"/>
<feBlend mode="normal" in2="BackgroundImageFix" result="effect1_dropShadow_4289_11354"/>
<feBlend mode="normal" in="SourceGraphic" in2="effect1_dropShadow_4289_11354" result="shape"/>
<feColorMatrix in="SourceAlpha" type="matrix" values="0 0 0 0 0 0 0 0 0 0 0 0 0 0 0 0 0 0 127 0" result="hardAlpha"/>
<feOffset dy="-3.79456"/>
<feGaussianBlur stdDeviation="2.52971"/>
<feComposite in2="hardAlpha" operator="arithmetic" k2="-1" k3="1"/>
<feColorMatrix type="matrix" values="0 0 0 0 0 0 0 0 0 0 0 0 0 0 0 0 0 0 0.25 0"/>
<feBlend mode="normal" in2="shape" result="effect2_innerShadow_4289_11354"/>
</filter>
<filter id="filter7_di_4289_11354" x="15.698" y="-3.49744" width="19.233" height="17.3869" filterUnits="userSpaceOnUse" color-interpolation-filters="sRGB">
<feFlood flood-opacity="0" result="BackgroundImageFix"/>
<feColorMatrix in="SourceAlpha" type="matrix" values="0 0 0 0 0 0 0 0 0 0 0 0 0 0 0 0 0 0 127 0" result="hardAlpha"/>
<feOffset dy="1.26485"/>
<feGaussianBlur stdDeviation="0.885397"/>
<feComposite in2="hardAlpha" operator="out"/>
<feColorMatrix type="matrix" values="0 0 0 0 0.184314 0 0 0 0 0.733333 0 0 0 0 0.643137 0 0 0 0.1 0"/>
<feBlend mode="normal" in2="BackgroundImageFix" result="effect1_dropShadow_4289_11354"/>
<feBlend mode="normal" in="SourceGraphic" in2="effect1_dropShadow_4289_11354" result="shape"/>
<feColorMatrix in="SourceAlpha" type="matrix" values="0 0 0 0 0 0 0 0 0 0 0 0 0 0 0 0 0 0 127 0" result="hardAlpha"/>
<feOffset dy="-3.79456"/>
<feGaussianBlur stdDeviation="2.52971"/>
<feComposite in2="hardAlpha" operator="arithmetic" k2="-1" k3="1"/>
<feColorMatrix type="matrix" values="0 0 0 0 0 0 0 0 0 0 0 0 0 0 0 0 0 0 0.25 0"/>
<feBlend mode="normal" in2="shape" result="effect2_innerShadow_4289_11354"/>
</filter>
<filter id="filter8_di_4289_11354" x="14.9569" y="30.9183" width="25.7103" height="14.589" filterUnits="userSpaceOnUse" color-interpolation-filters="sRGB">
<feFlood flood-opacity="0" result="BackgroundImageFix"/>
<feColorMatrix in="SourceAlpha" type="matrix" values="0 0 0 0 0 0 0 0 0 0 0 0 0 0 0 0 0 0 127 0" result="hardAlpha"/>
<feMorphology radius="0.316213" operator="dilate" in="SourceAlpha" result="effect1_dropShadow_4289_11354"/>
<feOffset dy="0.316213"/>
<feGaussianBlur stdDeviation="0.221349"/>
<feComposite in2="hardAlpha" operator="out"/>
<feColorMatrix type="matrix" values="0 0 0 0 0.184314 0 0 0 0 0.733333 0 0 0 0 0.643137 0 0 0 0.1 0"/>
<feBlend mode="normal" in2="BackgroundImageFix" result="effect1_dropShadow_4289_11354"/>
<feBlend mode="normal" in="SourceGraphic" in2="effect1_dropShadow_4289_11354" result="shape"/>
<feColorMatrix in="SourceAlpha" type="matrix" values="0 0 0 0 0 0 0 0 0 0 0 0 0 0 0 0 0 0 127 0" result="hardAlpha"/>
<feOffset dx="1.26485" dy="-0.94864"/>
<feGaussianBlur stdDeviation="0.632427"/>
<feComposite in2="hardAlpha" operator="arithmetic" k2="-1" k3="1"/>
<feColorMatrix type="matrix" values="0 0 0 0 0 0 0 0 0 0 0 0 0 0 0 0 0 0 0.25 0"/>
<feBlend mode="normal" in2="shape" result="effect2_innerShadow_4289_11354"/>
</filter>
<filter id="filter9_di_4289_11354" x="-2.52588" y="39.9957" width="52.8949" height="9.40756" filterUnits="userSpaceOnUse" color-interpolation-filters="sRGB">
<feFlood flood-opacity="0" result="BackgroundImageFix"/>
<feColorMatrix in="SourceAlpha" type="matrix" values="0 0 0 0 0 0 0 0 0 0 0 0 0 0 0 0 0 0 127 0" result="hardAlpha"/>
<feMorphology radius="1.26485" operator="dilate" in="SourceAlpha" result="effect1_dropShadow_4289_11354"/>
<feOffset dy="1.26485"/>
<feGaussianBlur stdDeviation="0.885397"/>
<feComposite in2="hardAlpha" operator="out"/>
<feColorMatrix type="matrix" values="0 0 0 0 0.184314 0 0 0 0 0.733333 0 0 0 0 0.643137 0 0 0 0.1 0"/>
<feBlend mode="normal" in2="BackgroundImageFix" result="effect1_dropShadow_4289_11354"/>
<feBlend mode="normal" in="SourceGraphic" in2="effect1_dropShadow_4289_11354" result="shape"/>
<feColorMatrix in="SourceAlpha" type="matrix" values="0 0 0 0 0 0 0 0 0 0 0 0 0 0 0 0 0 0 127 0" result="hardAlpha"/>
<feOffset dx="5.05941" dy="-3.79456"/>
<feGaussianBlur stdDeviation="2.52971"/>
<feComposite in2="hardAlpha" operator="arithmetic" k2="-1" k3="1"/>
<feColorMatrix type="matrix" values="0 0 0 0 0 0 0 0 0 0 0 0 0 0 0 0 0 0 0.25 0"/>
<feBlend mode="normal" in2="shape" result="effect2_innerShadow_4289_11354"/>
</filter>
<clipPath id="clip0_4289_11354">
<rect width="44.8" height="44.8" fill="white" transform="translate(0.509766 0.300049)"/>
</clipPath>
</defs>
</svg>
