<svg width="46" height="45" viewBox="0 0 46 45" fill="none" xmlns="http://www.w3.org/2000/svg">
<g clip-path="url(#clip0_4289_11120)">
<g filter="url(#filter0_di_4289_11120)">
<path d="M38.258 0.999268H11.4825C8.85285 0.999268 6.71625 3.12873 6.71625 5.7441V7.34477H5.10129C3.39344 7.34477 2 8.7382 2 10.4389C2 12.1396 3.39344 13.5402 5.10129 13.5402H6.71625V19.3426H5.10129C3.39344 19.3426 2 20.7289 2 22.4368C2 24.1446 3.39344 25.5309 5.10129 25.5309H6.71625V31.3333H5.10129C3.39344 31.3333 2 32.7268 2 34.4346C2 36.1425 3.39344 37.5288 5.10129 37.5288H6.71625V39.1294C6.71625 41.7448 8.85285 43.8743 11.4825 43.8743H38.258C40.8876 43.8743 43.0314 41.7448 43.0314 39.1294V5.7441C43.0314 3.12873 40.8876 0.999268 38.258 0.999268ZM20.1719 36.2711C20.1719 35.8781 20.4934 35.5565 20.8864 35.5565H33.5774C33.9705 35.5565 34.292 35.8781 34.292 36.2711C34.292 36.6641 33.9705 36.9857 33.5774 36.9857H20.8864C20.4934 36.9857 20.1719 36.6641 20.1719 36.2711ZM33.5774 31.6049H20.8864C20.4934 31.6049 20.1719 31.2833 20.1719 30.8903C20.1719 30.4973 20.4934 30.1757 20.8864 30.1757H33.5774C33.9705 30.1757 34.292 30.4901 34.292 30.8903C34.292 31.2905 33.9705 31.6049 33.5774 31.6049ZM27.1748 18.185H27.282C31.1121 18.185 34.2206 21.2934 34.2206 25.1165V25.5023C34.2206 25.8953 33.899 26.2169 33.506 26.2169H20.9579C20.5577 26.2169 20.2433 25.8953 20.2433 25.5023V25.1165C20.2433 21.2934 23.3518 18.185 27.1748 18.185ZM3.42917 10.4389C3.42917 9.52425 4.17948 8.77393 5.10129 8.77393H9.76752C10.6893 8.77393 11.4325 9.52425 11.4325 10.4389C11.4325 11.3536 10.6893 12.111 9.76752 12.111H5.10129C4.17948 12.111 3.42917 11.3607 3.42917 10.4389ZM3.42917 22.4368C3.42917 21.515 4.17948 20.7718 5.10129 20.7718H9.76752C10.6893 20.7718 11.4325 21.515 11.4325 22.4368C11.4325 23.3586 10.6893 24.1017 9.76752 24.1017H5.10129C4.17948 24.1017 3.42917 23.3586 3.42917 22.4368ZM3.42917 34.4346C3.42917 33.5128 4.17948 32.7625 5.10129 32.7625H9.76752C10.6893 32.7625 11.4325 33.5128 11.4325 34.4346C11.4325 35.3564 10.6893 36.0996 9.76752 36.0996H5.10129C4.17948 36.0996 3.42917 35.3493 3.42917 34.4346Z" fill="#2FBBA4"/>
<path d="M27.1748 18.185H27.282C31.1121 18.185 34.2206 21.2934 34.2206 25.1165V25.5023C34.2206 25.8953 33.899 26.2169 33.506 26.2169H20.9579C20.5577 26.2169 20.2433 25.8953 20.2433 25.5023V25.1165C20.2433 21.2934 23.3518 18.185 27.1748 18.185Z" fill="#2FBBA4"/>
<path d="M33.5774 31.6049H20.8864C20.4934 31.6049 20.1719 31.2833 20.1719 30.8903C20.1719 30.4973 20.4934 30.1757 20.8864 30.1757H33.5774C33.9705 30.1757 34.292 30.4901 34.292 30.8903C34.292 31.2905 33.9705 31.6049 33.5774 31.6049Z" fill="#2FBBA4"/>
<path d="M20.1719 36.2711C20.1719 35.8781 20.4934 35.5565 20.8864 35.5565H33.5774C33.9705 35.5565 34.292 35.8781 34.292 36.2711C34.292 36.6641 33.9705 36.9857 33.5774 36.9857H20.8864C20.4934 36.9857 20.1719 36.6641 20.1719 36.2711Z" fill="#2FBBA4"/>
<path fill-rule="evenodd" clip-rule="evenodd" d="M27.2319 7.88784C24.7523 7.88784 22.7372 9.86009 22.7372 12.2825C22.7372 14.6978 24.7594 16.6701 27.2319 16.6701C29.7043 16.6701 31.7195 14.705 31.7195 12.2825C31.7195 9.86009 29.7115 7.88784 27.2319 7.88784Z" fill="#2FBBA4"/>
</g>
<g filter="url(#filter1_di_4289_11120)">
<path d="M34.013 31.5652H21.322C20.929 31.5652 20.6074 31.2436 20.6074 30.8506C20.6074 30.4575 20.929 30.136 21.322 30.136H34.013C34.406 30.136 34.7276 30.4504 34.7276 30.8506C34.7276 31.2507 34.406 31.5652 34.013 31.5652Z" fill="#2F648E"/>
<path d="M20.6074 36.2314C20.6074 35.8384 20.929 35.5168 21.322 35.5168H34.013C34.406 35.5168 34.7276 35.8384 34.7276 36.2314C34.7276 36.6244 34.406 36.946 34.013 36.946H21.322C20.929 36.946 20.6074 36.6244 20.6074 36.2314Z" fill="#2F648E"/>
</g>
<g filter="url(#filter2_di_4289_11120)">
<path d="M27.6111 18.1477H27.7183C31.5485 18.1477 34.6569 21.2561 34.6569 25.0792V25.465C34.6569 25.8581 34.3354 26.1796 33.9424 26.1796H21.3943C20.9941 26.1796 20.6797 25.8581 20.6797 25.465V25.0792C20.6797 21.2561 23.7881 18.1477 27.6111 18.1477Z" fill="#2F648E"/>
</g>
<g filter="url(#filter3_di_4289_11120)">
<path fill-rule="evenodd" clip-rule="evenodd" d="M27.6666 7.85083C25.187 7.85083 23.1719 9.82308 23.1719 12.2455C23.1719 14.6608 25.1941 16.6331 27.6666 16.6331C30.1391 16.6331 32.1542 14.668 32.1542 12.2455C32.1542 9.82308 30.1462 7.85083 27.6666 7.85083Z" fill="#2F648E"/>
</g>
</g>
<defs>
<filter id="filter0_di_4289_11120" x="0.735146" y="-1.71113" width="43.561" height="47.7537" filterUnits="userSpaceOnUse" color-interpolation-filters="sRGB">
<feFlood flood-opacity="0" result="BackgroundImageFix"/>
<feColorMatrix in="SourceAlpha" type="matrix" values="0 0 0 0 0 0 0 0 0 0 0 0 0 0 0 0 0 0 127 0" result="hardAlpha"/>
<feOffset dy="0.903467"/>
<feGaussianBlur stdDeviation="0.632427"/>
<feComposite in2="hardAlpha" operator="out"/>
<feColorMatrix type="matrix" values="0 0 0 0 0.184314 0 0 0 0 0.733333 0 0 0 0 0.643137 0 0 0 0.1 0"/>
<feBlend mode="normal" in2="BackgroundImageFix" result="effect1_dropShadow_4289_11120"/>
<feBlend mode="normal" in="SourceGraphic" in2="effect1_dropShadow_4289_11120" result="shape"/>
<feColorMatrix in="SourceAlpha" type="matrix" values="0 0 0 0 0 0 0 0 0 0 0 0 0 0 0 0 0 0 127 0" result="hardAlpha"/>
<feOffset dy="-2.7104"/>
<feGaussianBlur stdDeviation="1.80693"/>
<feComposite in2="hardAlpha" operator="arithmetic" k2="-1" k3="1"/>
<feColorMatrix type="matrix" values="0 0 0 0 0 0 0 0 0 0 0 0 0 0 0 0 0 0 0.25 0"/>
<feBlend mode="normal" in2="shape" result="effect2_innerShadow_4289_11120"/>
</filter>
<filter id="filter1_di_4289_11120" x="18.4391" y="27.4256" width="19.9023" height="12.5922" filterUnits="userSpaceOnUse" color-interpolation-filters="sRGB">
<feFlood flood-opacity="0" result="BackgroundImageFix"/>
<feColorMatrix in="SourceAlpha" type="matrix" values="0 0 0 0 0 0 0 0 0 0 0 0 0 0 0 0 0 0 127 0" result="hardAlpha"/>
<feMorphology radius="0.903467" operator="dilate" in="SourceAlpha" result="effect1_dropShadow_4289_11120"/>
<feOffset dy="0.903467"/>
<feGaussianBlur stdDeviation="0.632427"/>
<feComposite in2="hardAlpha" operator="out"/>
<feColorMatrix type="matrix" values="0 0 0 0 0.184314 0 0 0 0 0.733333 0 0 0 0 0.643137 0 0 0 0.1 0"/>
<feBlend mode="normal" in2="BackgroundImageFix" result="effect1_dropShadow_4289_11120"/>
<feBlend mode="normal" in="SourceGraphic" in2="effect1_dropShadow_4289_11120" result="shape"/>
<feColorMatrix in="SourceAlpha" type="matrix" values="0 0 0 0 0 0 0 0 0 0 0 0 0 0 0 0 0 0 127 0" result="hardAlpha"/>
<feOffset dx="3.61387" dy="-2.7104"/>
<feGaussianBlur stdDeviation="1.80693"/>
<feComposite in2="hardAlpha" operator="arithmetic" k2="-1" k3="1"/>
<feColorMatrix type="matrix" values="0 0 0 0 0 0 0 0 0 0 0 0 0 0 0 0 0 0 0.25 0"/>
<feBlend mode="normal" in2="shape" result="effect2_innerShadow_4289_11120"/>
</filter>
<filter id="filter2_di_4289_11120" x="18.5114" y="15.4373" width="19.7597" height="13.8142" filterUnits="userSpaceOnUse" color-interpolation-filters="sRGB">
<feFlood flood-opacity="0" result="BackgroundImageFix"/>
<feColorMatrix in="SourceAlpha" type="matrix" values="0 0 0 0 0 0 0 0 0 0 0 0 0 0 0 0 0 0 127 0" result="hardAlpha"/>
<feMorphology radius="0.903467" operator="dilate" in="SourceAlpha" result="effect1_dropShadow_4289_11120"/>
<feOffset dy="0.903467"/>
<feGaussianBlur stdDeviation="0.632427"/>
<feComposite in2="hardAlpha" operator="out"/>
<feColorMatrix type="matrix" values="0 0 0 0 0.184314 0 0 0 0 0.733333 0 0 0 0 0.643137 0 0 0 0.1 0"/>
<feBlend mode="normal" in2="BackgroundImageFix" result="effect1_dropShadow_4289_11120"/>
<feBlend mode="normal" in="SourceGraphic" in2="effect1_dropShadow_4289_11120" result="shape"/>
<feColorMatrix in="SourceAlpha" type="matrix" values="0 0 0 0 0 0 0 0 0 0 0 0 0 0 0 0 0 0 127 0" result="hardAlpha"/>
<feOffset dx="3.61387" dy="-2.7104"/>
<feGaussianBlur stdDeviation="1.80693"/>
<feComposite in2="hardAlpha" operator="arithmetic" k2="-1" k3="1"/>
<feColorMatrix type="matrix" values="0 0 0 0 0 0 0 0 0 0 0 0 0 0 0 0 0 0 0.25 0"/>
<feBlend mode="normal" in2="shape" result="effect2_innerShadow_4289_11120"/>
</filter>
<filter id="filter3_di_4289_11120" x="21.0036" y="5.14043" width="14.7646" height="14.5644" filterUnits="userSpaceOnUse" color-interpolation-filters="sRGB">
<feFlood flood-opacity="0" result="BackgroundImageFix"/>
<feColorMatrix in="SourceAlpha" type="matrix" values="0 0 0 0 0 0 0 0 0 0 0 0 0 0 0 0 0 0 127 0" result="hardAlpha"/>
<feMorphology radius="0.903467" operator="dilate" in="SourceAlpha" result="effect1_dropShadow_4289_11120"/>
<feOffset dy="0.903467"/>
<feGaussianBlur stdDeviation="0.632427"/>
<feComposite in2="hardAlpha" operator="out"/>
<feColorMatrix type="matrix" values="0 0 0 0 0.184314 0 0 0 0 0.733333 0 0 0 0 0.643137 0 0 0 0.1 0"/>
<feBlend mode="normal" in2="BackgroundImageFix" result="effect1_dropShadow_4289_11120"/>
<feBlend mode="normal" in="SourceGraphic" in2="effect1_dropShadow_4289_11120" result="shape"/>
<feColorMatrix in="SourceAlpha" type="matrix" values="0 0 0 0 0 0 0 0 0 0 0 0 0 0 0 0 0 0 127 0" result="hardAlpha"/>
<feOffset dx="3.61387" dy="-2.7104"/>
<feGaussianBlur stdDeviation="1.80693"/>
<feComposite in2="hardAlpha" operator="arithmetic" k2="-1" k3="1"/>
<feColorMatrix type="matrix" values="0 0 0 0 0 0 0 0 0 0 0 0 0 0 0 0 0 0 0.25 0"/>
<feBlend mode="normal" in2="shape" result="effect2_innerShadow_4289_11120"/>
</filter>
<clipPath id="clip0_4289_11120">
<rect width="44.8" height="44.8" fill="white" transform="translate(0.509766 -0.000732422)"/>
</clipPath>
</defs>
</svg>
