<svg width="46" height="45" viewBox="0 0 46 45" fill="none" xmlns="http://www.w3.org/2000/svg">
<g clip-path="url(#clip0_4289_11158)">
<g filter="url(#filter0_di_4289_11158)">
<path fill-rule="evenodd" clip-rule="evenodd" d="M27.4112 31.0498H4.17448C3.86696 31.0498 3.61719 30.8 3.61719 30.4924V13.0299C3.61719 12.7223 3.86696 12.4727 4.17448 12.4727H10.0412V16.0681C10.0412 16.7062 10.4972 17.2531 11.1249 17.3679C23.9533 19.7144 19.9227 19.7323 32.4935 17.4217V19.1086C32.4935 19.7659 32.8652 20.3669 33.4533 20.6604C34.0415 20.954 34.745 20.8898 35.2704 20.4947L35.595 20.2505L35.9197 20.4947C36.4451 20.8898 37.1486 20.954 37.7368 20.6604C38.3249 20.3669 38.6966 19.7659 38.6966 19.1086V14.7423C38.6966 14.1235 38.3669 13.5515 37.8314 13.2415L37.5771 13.0943V12.4727H40.5778C40.8854 12.4727 41.1351 12.7223 41.1351 13.0299V24.6097C40.7636 24.4022 40.3391 24.2764 39.8841 24.2508C39.2004 24.2124 38.9172 24.2543 38.6714 24.1648C38.4255 24.0753 38.2354 23.8613 37.6866 23.451C36.6552 22.6795 35.2955 22.6795 34.264 23.451C33.7152 23.8613 33.5251 24.0753 33.2793 24.1648C33.0335 24.2543 32.7506 24.2124 32.0669 24.2508C30.7801 24.3232 29.737 25.1978 29.443 26.4504L29.4426 26.4517C29.2868 27.1188 29.2792 27.4048 29.1487 27.6314C29.0181 27.8578 28.7748 28.0077 28.2768 28.476C27.5477 29.1573 27.2418 30.1168 27.4112 31.0498Z" fill="#2F648E"/>
</g>
<g filter="url(#filter1_di_4289_11158)">
<path d="M32.5478 16.0677V8.14453L22.4001 10.8421C22.1082 10.9197 21.801 10.9197 21.509 10.8421L11.3613 8.14453V16.0677C24.0047 18.3802 19.9044 18.3802 32.5478 16.0677Z" fill="#2FBBA4"/>
</g>
<g filter="url(#filter2_di_4289_11158)">
<path d="M22.0615 9.5635L34.9339 6.14165V13.8541L34.0205 14.383C33.893 14.4568 33.8144 14.593 33.8144 14.7404V19.1066C33.8144 19.2632 33.903 19.4063 34.043 19.4761C34.183 19.546 34.3505 19.5308 34.4756 19.4367L35.5946 18.5951L36.7135 19.4367C36.8386 19.5308 37.0062 19.546 37.1462 19.4761C37.2862 19.4063 37.3747 19.2632 37.3747 19.1066V14.7404C37.3747 14.593 37.2962 14.4568 37.1687 14.383L36.2553 13.8541V5.50424C36.2561 5.49374 36.2565 5.48314 36.2565 5.47247C36.2565 5.28525 36.1305 5.12148 35.9495 5.07348L22.0614 1.38497C21.9919 1.36647 21.9189 1.36647 21.8494 1.38497L7.96123 5.07348C7.78032 5.12148 7.6543 5.28525 7.6543 5.47247C7.6543 5.65969 7.78023 5.82354 7.96115 5.87162L21.8493 9.5635C21.9188 9.58199 21.9919 9.58199 22.0615 9.5635Z" fill="#2FBBA4"/>
</g>
<g filter="url(#filter3_di_4289_11158)">
<path d="M20.2332 24.8516C20.4074 24.8516 20.5489 24.993 20.5489 25.1672V27.693C20.5489 27.8673 20.4074 28.0088 20.2332 28.0088H6.77475C6.60047 28.0088 6.45898 27.8673 6.45898 27.693V25.1672C6.45898 24.993 6.60047 24.8516 6.77475 24.8516H20.2332Z" fill="#2FBBA4"/>
</g>
<g filter="url(#filter4_di_4289_11158)">
<path d="M39.8086 25.5711C38.0099 25.4703 38.3376 25.5894 36.8941 24.5103C36.3396 24.0955 35.6087 24.0955 35.0542 24.5103C33.6107 25.5894 33.9383 25.4703 32.1397 25.5711C31.4477 25.6101 30.8864 26.0798 30.7282 26.7535C30.3181 28.5086 30.4923 28.2061 29.1794 29.4411C28.6729 29.9131 28.5469 30.6349 28.8586 31.2536C29.6719 32.862 29.6101 32.5183 29.397 34.3078C29.3146 34.9952 29.6812 35.6298 30.3181 35.9003C31.9747 36.6106 31.7066 36.386 32.6942 37.896C33.0723 38.4734 33.7596 38.7254 34.4241 38.5237C36.1471 38.0037 35.7989 38.0037 37.5242 38.5237C38.1864 38.7254 38.8761 38.4734 39.2542 37.896C40.2394 36.386 39.9736 36.6106 41.6302 35.9003C42.2672 35.6298 42.6314 34.9952 42.5512 34.3078C42.3359 32.5183 42.2763 32.862 43.0897 31.2536C43.4013 30.6349 43.2731 29.9131 42.769 29.4411C41.4561 28.2061 41.6302 28.5086 41.2177 26.7535C41.062 26.0798 40.5006 25.6101 39.8086 25.5711Z" fill="#2FBBA4"/>
</g>
<g filter="url(#filter5_di_4289_11158)">
<path d="M39.9142 31.3848C39.9142 33.5605 38.1407 35.336 35.963 35.336C33.7872 35.336 32.0117 33.5605 32.0117 31.3848C32.0117 29.2091 33.7872 27.4336 35.963 27.4336C38.1407 27.4336 39.9142 29.2091 39.9142 31.3848Z" fill="#2F648E"/>
</g>
<g filter="url(#filter6_di_4289_11158)">
<path d="M42.6486 40.314L41.4048 37.4102C41.2464 37.474 41.134 37.5288 41.0395 37.6081C40.8392 37.7762 40.7344 38.0424 40.3603 38.6158L40.3592 38.6175C39.8078 39.4597 38.9001 39.9297 37.94 39.9131L38.8062 41.9627C38.8423 42.0481 38.9228 42.1061 39.0151 42.1133C39.1074 42.1205 39.196 42.0757 39.2449 41.997L40.3374 40.2381L42.3711 40.6543C42.4614 40.6727 42.5546 40.6395 42.6128 40.568C42.6711 40.4966 42.6849 40.3987 42.6486 40.314Z" fill="#2FBBA4"/>
<path d="M33.1056 42.7594L34.4646 39.8684C33.3398 40.0695 32.2268 39.5929 31.5883 38.6175L31.5878 38.617C31.2122 38.0426 31.107 37.7761 30.9065 37.6076L30.8895 37.5937L29.3121 40.9926C29.2733 41.0763 29.2841 41.1746 29.3403 41.2478C29.3965 41.3209 29.4887 41.3568 29.5796 41.341L31.6237 40.9828L32.6671 42.7785C32.7134 42.8581 32.8001 42.9056 32.8921 42.9015C32.9841 42.8976 33.0663 42.8428 33.1056 42.7594Z" fill="#2FBBA4"/>
</g>
</g>
<defs>
<filter id="filter0_di_4289_11158" x="2.35233" y="9.76226" width="40.0473" height="23.4559" filterUnits="userSpaceOnUse" color-interpolation-filters="sRGB">
<feFlood flood-opacity="0" result="BackgroundImageFix"/>
<feColorMatrix in="SourceAlpha" type="matrix" values="0 0 0 0 0 0 0 0 0 0 0 0 0 0 0 0 0 0 127 0" result="hardAlpha"/>
<feOffset dy="0.903467"/>
<feGaussianBlur stdDeviation="0.632427"/>
<feComposite in2="hardAlpha" operator="out"/>
<feColorMatrix type="matrix" values="0 0 0 0 0.184314 0 0 0 0 0.733333 0 0 0 0 0.643137 0 0 0 0.1 0"/>
<feBlend mode="normal" in2="BackgroundImageFix" result="effect1_dropShadow_4289_11158"/>
<feBlend mode="normal" in="SourceGraphic" in2="effect1_dropShadow_4289_11158" result="shape"/>
<feColorMatrix in="SourceAlpha" type="matrix" values="0 0 0 0 0 0 0 0 0 0 0 0 0 0 0 0 0 0 127 0" result="hardAlpha"/>
<feOffset dy="-2.7104"/>
<feGaussianBlur stdDeviation="1.80693"/>
<feComposite in2="hardAlpha" operator="arithmetic" k2="-1" k3="1"/>
<feColorMatrix type="matrix" values="0 0 0 0 0 0 0 0 0 0 0 0 0 0 0 0 0 0 0.25 0"/>
<feBlend mode="normal" in2="shape" result="effect2_innerShadow_4289_11158"/>
</filter>
<filter id="filter1_di_4289_11158" x="9.19301" y="5.43413" width="26.9687" height="15.4397" filterUnits="userSpaceOnUse" color-interpolation-filters="sRGB">
<feFlood flood-opacity="0" result="BackgroundImageFix"/>
<feColorMatrix in="SourceAlpha" type="matrix" values="0 0 0 0 0 0 0 0 0 0 0 0 0 0 0 0 0 0 127 0" result="hardAlpha"/>
<feMorphology radius="0.903467" operator="dilate" in="SourceAlpha" result="effect1_dropShadow_4289_11158"/>
<feOffset dy="0.903467"/>
<feGaussianBlur stdDeviation="0.632427"/>
<feComposite in2="hardAlpha" operator="out"/>
<feColorMatrix type="matrix" values="0 0 0 0 0.184314 0 0 0 0 0.733333 0 0 0 0 0.643137 0 0 0 0.1 0"/>
<feBlend mode="normal" in2="BackgroundImageFix" result="effect1_dropShadow_4289_11158"/>
<feBlend mode="normal" in="SourceGraphic" in2="effect1_dropShadow_4289_11158" result="shape"/>
<feColorMatrix in="SourceAlpha" type="matrix" values="0 0 0 0 0 0 0 0 0 0 0 0 0 0 0 0 0 0 127 0" result="hardAlpha"/>
<feOffset dx="3.61387" dy="-2.7104"/>
<feGaussianBlur stdDeviation="1.80693"/>
<feComposite in2="hardAlpha" operator="arithmetic" k2="-1" k3="1"/>
<feColorMatrix type="matrix" values="0 0 0 0 0 0 0 0 0 0 0 0 0 0 0 0 0 0 0.25 0"/>
<feBlend mode="normal" in2="shape" result="effect2_innerShadow_4289_11158"/>
</filter>
<filter id="filter2_di_4289_11158" x="5.48598" y="-1.33931" width="35.5029" height="23.9306" filterUnits="userSpaceOnUse" color-interpolation-filters="sRGB">
<feFlood flood-opacity="0" result="BackgroundImageFix"/>
<feColorMatrix in="SourceAlpha" type="matrix" values="0 0 0 0 0 0 0 0 0 0 0 0 0 0 0 0 0 0 127 0" result="hardAlpha"/>
<feMorphology radius="0.903467" operator="dilate" in="SourceAlpha" result="effect1_dropShadow_4289_11158"/>
<feOffset dy="0.903467"/>
<feGaussianBlur stdDeviation="0.632427"/>
<feComposite in2="hardAlpha" operator="out"/>
<feColorMatrix type="matrix" values="0 0 0 0 0.184314 0 0 0 0 0.733333 0 0 0 0 0.643137 0 0 0 0.1 0"/>
<feBlend mode="normal" in2="BackgroundImageFix" result="effect1_dropShadow_4289_11158"/>
<feBlend mode="normal" in="SourceGraphic" in2="effect1_dropShadow_4289_11158" result="shape"/>
<feColorMatrix in="SourceAlpha" type="matrix" values="0 0 0 0 0 0 0 0 0 0 0 0 0 0 0 0 0 0 127 0" result="hardAlpha"/>
<feOffset dx="3.61387" dy="-2.7104"/>
<feGaussianBlur stdDeviation="1.80693"/>
<feComposite in2="hardAlpha" operator="arithmetic" k2="-1" k3="1"/>
<feColorMatrix type="matrix" values="0 0 0 0 0 0 0 0 0 0 0 0 0 0 0 0 0 0 0.25 0"/>
<feBlend mode="normal" in2="shape" result="effect2_innerShadow_4289_11158"/>
</filter>
<filter id="filter3_di_4289_11158" x="4.29066" y="22.1412" width="19.872" height="8.93941" filterUnits="userSpaceOnUse" color-interpolation-filters="sRGB">
<feFlood flood-opacity="0" result="BackgroundImageFix"/>
<feColorMatrix in="SourceAlpha" type="matrix" values="0 0 0 0 0 0 0 0 0 0 0 0 0 0 0 0 0 0 127 0" result="hardAlpha"/>
<feMorphology radius="0.903467" operator="dilate" in="SourceAlpha" result="effect1_dropShadow_4289_11158"/>
<feOffset dy="0.903467"/>
<feGaussianBlur stdDeviation="0.632427"/>
<feComposite in2="hardAlpha" operator="out"/>
<feColorMatrix type="matrix" values="0 0 0 0 0.184314 0 0 0 0 0.733333 0 0 0 0 0.643137 0 0 0 0.1 0"/>
<feBlend mode="normal" in2="BackgroundImageFix" result="effect1_dropShadow_4289_11158"/>
<feBlend mode="normal" in="SourceGraphic" in2="effect1_dropShadow_4289_11158" result="shape"/>
<feColorMatrix in="SourceAlpha" type="matrix" values="0 0 0 0 0 0 0 0 0 0 0 0 0 0 0 0 0 0 127 0" result="hardAlpha"/>
<feOffset dx="3.61387" dy="-2.7104"/>
<feGaussianBlur stdDeviation="1.80693"/>
<feComposite in2="hardAlpha" operator="arithmetic" k2="-1" k3="1"/>
<feColorMatrix type="matrix" values="0 0 0 0 0 0 0 0 0 0 0 0 0 0 0 0 0 0 0.25 0"/>
<feBlend mode="normal" in2="shape" result="effect2_innerShadow_4289_11158"/>
</filter>
<filter id="filter4_di_4289_11158" x="26.5211" y="21.4888" width="20.3505" height="20.1755" filterUnits="userSpaceOnUse" color-interpolation-filters="sRGB">
<feFlood flood-opacity="0" result="BackgroundImageFix"/>
<feColorMatrix in="SourceAlpha" type="matrix" values="0 0 0 0 0 0 0 0 0 0 0 0 0 0 0 0 0 0 127 0" result="hardAlpha"/>
<feMorphology radius="0.903467" operator="dilate" in="SourceAlpha" result="effect1_dropShadow_4289_11158"/>
<feOffset dy="0.903467"/>
<feGaussianBlur stdDeviation="0.632427"/>
<feComposite in2="hardAlpha" operator="out"/>
<feColorMatrix type="matrix" values="0 0 0 0 0.184314 0 0 0 0 0.733333 0 0 0 0 0.643137 0 0 0 0.1 0"/>
<feBlend mode="normal" in2="BackgroundImageFix" result="effect1_dropShadow_4289_11158"/>
<feBlend mode="normal" in="SourceGraphic" in2="effect1_dropShadow_4289_11158" result="shape"/>
<feColorMatrix in="SourceAlpha" type="matrix" values="0 0 0 0 0 0 0 0 0 0 0 0 0 0 0 0 0 0 127 0" result="hardAlpha"/>
<feOffset dx="3.61387" dy="-2.7104"/>
<feGaussianBlur stdDeviation="1.80693"/>
<feComposite in2="hardAlpha" operator="arithmetic" k2="-1" k3="1"/>
<feColorMatrix type="matrix" values="0 0 0 0 0 0 0 0 0 0 0 0 0 0 0 0 0 0 0.25 0"/>
<feBlend mode="normal" in2="shape" result="effect2_innerShadow_4289_11158"/>
</filter>
<filter id="filter5_di_4289_11158" x="30.7469" y="24.7232" width="10.4321" height="12.7811" filterUnits="userSpaceOnUse" color-interpolation-filters="sRGB">
<feFlood flood-opacity="0" result="BackgroundImageFix"/>
<feColorMatrix in="SourceAlpha" type="matrix" values="0 0 0 0 0 0 0 0 0 0 0 0 0 0 0 0 0 0 127 0" result="hardAlpha"/>
<feOffset dy="0.903467"/>
<feGaussianBlur stdDeviation="0.632427"/>
<feComposite in2="hardAlpha" operator="out"/>
<feColorMatrix type="matrix" values="0 0 0 0 0.184314 0 0 0 0 0.733333 0 0 0 0 0.643137 0 0 0 0.1 0"/>
<feBlend mode="normal" in2="BackgroundImageFix" result="effect1_dropShadow_4289_11158"/>
<feBlend mode="normal" in="SourceGraphic" in2="effect1_dropShadow_4289_11158" result="shape"/>
<feColorMatrix in="SourceAlpha" type="matrix" values="0 0 0 0 0 0 0 0 0 0 0 0 0 0 0 0 0 0 127 0" result="hardAlpha"/>
<feOffset dy="-2.7104"/>
<feGaussianBlur stdDeviation="1.80693"/>
<feComposite in2="hardAlpha" operator="arithmetic" k2="-1" k3="1"/>
<feColorMatrix type="matrix" values="0 0 0 0 0 0 0 0 0 0 0 0 0 0 0 0 0 0 0.25 0"/>
<feBlend mode="normal" in2="shape" result="effect2_innerShadow_4289_11158"/>
</filter>
<filter id="filter6_di_4289_11158" x="27.1207" y="34.6998" width="19.1621" height="11.2739" filterUnits="userSpaceOnUse" color-interpolation-filters="sRGB">
<feFlood flood-opacity="0" result="BackgroundImageFix"/>
<feColorMatrix in="SourceAlpha" type="matrix" values="0 0 0 0 0 0 0 0 0 0 0 0 0 0 0 0 0 0 127 0" result="hardAlpha"/>
<feMorphology radius="0.903467" operator="dilate" in="SourceAlpha" result="effect1_dropShadow_4289_11158"/>
<feOffset dy="0.903467"/>
<feGaussianBlur stdDeviation="0.632427"/>
<feComposite in2="hardAlpha" operator="out"/>
<feColorMatrix type="matrix" values="0 0 0 0 0.184314 0 0 0 0 0.733333 0 0 0 0 0.643137 0 0 0 0.1 0"/>
<feBlend mode="normal" in2="BackgroundImageFix" result="effect1_dropShadow_4289_11158"/>
<feBlend mode="normal" in="SourceGraphic" in2="effect1_dropShadow_4289_11158" result="shape"/>
<feColorMatrix in="SourceAlpha" type="matrix" values="0 0 0 0 0 0 0 0 0 0 0 0 0 0 0 0 0 0 127 0" result="hardAlpha"/>
<feOffset dx="3.61387" dy="-2.7104"/>
<feGaussianBlur stdDeviation="1.80693"/>
<feComposite in2="hardAlpha" operator="arithmetic" k2="-1" k3="1"/>
<feColorMatrix type="matrix" values="0 0 0 0 0 0 0 0 0 0 0 0 0 0 0 0 0 0 0.25 0"/>
<feBlend mode="normal" in2="shape" result="effect2_innerShadow_4289_11158"/>
</filter>
<clipPath id="clip0_4289_11158">
<rect width="42.875" height="42.875" fill="white" transform="translate(2 0.699219)"/>
</clipPath>
</defs>
</svg>
