<svg width="46" height="46" viewBox="0 0 46 46" fill="none" xmlns="http://www.w3.org/2000/svg">
<g clip-path="url(#clip0_4289_11142)">
<g filter="url(#filter0_di_4289_11142)">
<path d="M24.1038 25.5125L23.0775 25.7543V26.6665C23.0776 27.1254 22.8956 27.5656 22.5715 27.8905C22.2474 28.2154 21.8078 28.3985 21.3489 28.3997H20.0991C19.6394 28.3997 19.1986 28.2171 18.8735 27.8921C18.5485 27.567 18.3659 27.1262 18.3659 26.6665V25.9276L3.04492 22.1555V37.9508C3.04492 38.1127 3.07695 38.273 3.13918 38.4225C3.20141 38.5719 3.29261 38.7076 3.40751 38.8217C3.52241 38.9357 3.65875 39.0259 3.80866 39.087C3.95858 39.1481 4.11911 39.179 4.281 39.1778H24.4413C24.2238 38.8489 24.1065 38.4638 24.1038 38.0694V25.5125Z" fill="#2F648E"/>
</g>
<g filter="url(#filter1_di_4289_11142)">
<path d="M38.7721 15.3226V13.2016C38.7721 12.8278 38.6236 12.4694 38.3593 12.205C38.095 11.9407 37.7365 11.7922 37.3627 11.7922H3.40944C3.03564 11.7922 2.67716 11.9407 2.41284 12.205C2.14853 12.4694 2.00004 12.8278 2.00004 13.2016V19.8564C1.99771 20.168 2.09907 20.4716 2.28815 20.7193C2.47724 20.967 2.74333 21.1448 3.04455 21.2247C3.09016 21.2475 4.30343 21.5349 18.3655 24.9968V24.1302C18.3667 23.6713 18.5498 23.2316 18.8748 22.9075C19.1997 22.5835 19.6398 22.4015 20.0987 22.4015H21.3485C21.807 22.4015 22.2467 22.5836 22.5709 22.9078C22.895 23.232 23.0772 23.6717 23.0772 24.1302V24.8417L24.1034 24.5909V17.3614C24.1034 16.8207 24.3182 16.3021 24.7006 15.9197C25.083 15.5374 25.6015 15.3226 26.1423 15.3226H38.7721Z" fill="#2FBBA4"/>
</g>
<g filter="url(#filter2_di_4289_11142)">
<path d="M26.8675 16.2375H26.1422C25.8434 16.2375 25.5569 16.3562 25.3456 16.5675C25.1343 16.7788 25.0156 17.0654 25.0156 17.3642V38.0718C25.0168 38.3703 25.1359 38.6561 25.3469 38.8671C25.5579 39.0782 25.8438 39.1972 26.1422 39.1984H26.8675C26.6465 38.8643 26.5291 38.4724 26.5299 38.0718V17.3642C26.5285 16.9635 26.646 16.5714 26.8675 16.2375Z" fill="#2FBBA4"/>
</g>
<g filter="url(#filter3_di_4289_11142)">
<path d="M39.2366 19.8252V16.2219H28.568C28.2692 16.2219 27.9827 16.3406 27.7714 16.5519C27.5601 16.7632 27.4414 17.0497 27.4414 17.3485V38.0699C27.4426 38.3683 27.5617 38.6542 27.7727 38.8652C27.9837 39.0762 28.2696 39.1953 28.568 39.1965H43.7476C44.046 39.1953 44.3318 39.0762 44.5429 38.8652C44.7539 38.6542 44.873 38.3683 44.8742 38.0699V21.8732H41.2754C41.0069 21.8732 40.741 21.8202 40.4931 21.7171C40.2451 21.6141 40.0199 21.4631 39.8305 21.2728C39.6411 21.0825 39.4911 20.8567 39.3891 20.6083C39.2872 20.3599 39.2354 20.0938 39.2366 19.8252Z" fill="#2FBBA4"/>
</g>
<g filter="url(#filter4_di_4289_11142)">
<path d="M29.9378 19.9726C29.8393 20.0659 29.7805 20.1936 29.7734 20.3291V21.5834C29.7734 21.6527 29.7872 21.7213 29.8138 21.7852C29.8404 21.8492 29.8795 21.9072 29.9287 21.956C29.9779 22.0047 30.0362 22.0433 30.1004 22.0694C30.1646 22.0955 30.2333 22.1086 30.3025 22.108H31.5432C31.68 22.1092 31.8118 22.057 31.9107 21.9624C32.0095 21.8679 32.0675 21.7384 32.0723 21.6017V20.3565C32.0723 20.2162 32.0165 20.0816 31.9173 19.9824C31.8181 19.8831 31.6835 19.8274 31.5432 19.8274H30.3025C30.1668 19.8272 30.0362 19.8792 29.9378 19.9726Z" fill="#2F648E"/>
</g>
<g filter="url(#filter5_di_4289_11142)">
<path d="M42.9999 24.4163C42.9999 24.5373 42.9518 24.6533 42.8663 24.7388C42.7808 24.8244 42.6647 24.8724 42.5438 24.8724H29.7725C29.6516 24.8724 29.5355 24.8244 29.45 24.7388C29.3645 24.6533 29.3164 24.5373 29.3164 24.4163C29.3164 24.2954 29.3645 24.1793 29.45 24.0938C29.5355 24.0083 29.6516 23.9602 29.7725 23.9602H42.5438C42.6045 23.9602 42.6645 23.9723 42.7205 23.9958C42.7764 24.0193 42.8271 24.0537 42.8696 24.097C42.912 24.1403 42.9454 24.1917 42.9678 24.2481C42.9902 24.3045 43.0011 24.3648 42.9999 24.4254V24.4163Z" fill="#2F648E"/>
<path d="M42.5438 26.7744H29.7725C29.6516 26.7744 29.5355 26.7264 29.45 26.6408C29.3645 26.5553 29.3164 26.4393 29.3164 26.3183C29.3164 26.1974 29.3645 26.0813 29.45 25.9958C29.5355 25.9103 29.6516 25.8622 29.7725 25.8622H42.5438C42.6647 25.8622 42.7808 25.9103 42.8663 25.9958C42.9518 26.0813 42.9999 26.1974 42.9999 26.3183C42.9999 26.4393 42.9518 26.5553 42.8663 26.6408C42.7808 26.7264 42.6647 26.7744 42.5438 26.7744Z" fill="#2F648E"/>
<path d="M42.5438 28.681H29.7725C29.6516 28.681 29.5355 28.633 29.45 28.5474C29.3645 28.4619 29.3164 28.3459 29.3164 28.2249C29.3164 28.1039 29.3645 27.9879 29.45 27.9024C29.5355 27.8168 29.6516 27.7688 29.7725 27.7688H42.5438C42.6647 27.7688 42.7808 27.8168 42.8663 27.9024C42.9518 27.9879 42.9999 28.1039 42.9999 28.2249C42.9999 28.3459 42.9518 28.4619 42.8663 28.5474C42.7808 28.633 42.6647 28.681 42.5438 28.681Z" fill="#2F648E"/>
<path d="M42.5438 30.583H29.7725C29.6516 30.583 29.5355 30.535 29.45 30.4494C29.3645 30.3639 29.3164 30.2479 29.3164 30.1269C29.3164 30.0059 29.3645 29.8899 29.45 29.8044C29.5355 29.7188 29.6516 29.6708 29.7725 29.6708H42.5438C42.6647 29.6708 42.7808 29.7188 42.8663 29.8044C42.9518 29.8899 42.9999 30.0059 42.9999 30.1269C42.9999 30.2479 42.9518 30.3639 42.8663 30.4494C42.7808 30.535 42.6647 30.583 42.5438 30.583Z" fill="#2F648E"/>
<path d="M42.5438 32.485H29.7725C29.6516 32.485 29.5355 32.437 29.45 32.3514C29.3645 32.2659 29.3164 32.1499 29.3164 32.0289C29.3164 31.9079 29.3645 31.7919 29.45 31.7064C29.5355 31.6208 29.6516 31.5728 29.7725 31.5728H42.5438C42.6647 31.5728 42.7808 31.6208 42.8663 31.7064C42.9518 31.7919 42.9999 31.9079 42.9999 32.0289C42.9999 32.1499 42.9518 32.2659 42.8663 32.3514C42.7808 32.437 42.6647 32.485 42.5438 32.485Z" fill="#2F648E"/>
<path d="M42.5438 34.387H29.7725C29.6516 34.387 29.5355 34.339 29.45 34.2534C29.3645 34.1679 29.3164 34.0519 29.3164 33.9309C29.3164 33.8099 29.3645 33.6939 29.45 33.6084C29.5355 33.5228 29.6516 33.4748 29.7725 33.4748H42.5438C42.6647 33.4748 42.7808 33.5228 42.8663 33.6084C42.9518 33.6939 42.9999 33.8099 42.9999 33.9309C42.9999 34.0519 42.9518 34.1679 42.8663 34.2534C42.7808 34.339 42.6647 34.387 42.5438 34.387Z" fill="#2F648E"/>
<path d="M36.1581 36.2936H29.7725C29.6516 36.2936 29.5355 36.2455 29.45 36.16C29.3645 36.0745 29.3164 35.9584 29.3164 35.8375C29.3164 35.7165 29.3645 35.6005 29.45 35.5149C29.5355 35.4294 29.6516 35.3814 29.7725 35.3814H36.1581C36.2791 35.3814 36.3951 35.4294 36.4807 35.5149C36.5662 35.6005 36.6143 35.7165 36.6143 35.8375C36.6143 35.9584 36.5662 36.0745 36.4807 36.16C36.3951 36.2455 36.2791 36.2936 36.1581 36.2936Z" fill="#2F648E"/>
</g>
<g filter="url(#filter6_di_4289_11142)">
<path d="M41.2751 20.9629H44.8738L40.1485 16.2375V19.8272C40.1473 19.9759 40.1755 20.1234 40.2316 20.2611C40.2877 20.3989 40.3705 20.5241 40.4752 20.6297C40.5799 20.7353 40.7045 20.8191 40.8418 20.8763C40.9791 20.9335 41.1264 20.9629 41.2751 20.9629Z" fill="#2F648E"/>
</g>
<g filter="url(#filter7_di_4289_11142)">
<path d="M21.3481 23.304H20.0938C19.6429 23.304 19.2773 23.6695 19.2773 24.1204V26.6838C19.2773 27.1347 19.6429 27.5002 20.0938 27.5002H21.3481C21.799 27.5002 22.1646 27.1347 22.1646 26.6838V24.1204C22.1646 23.6695 21.799 23.304 21.3481 23.304Z" fill="#2FBBA4"/>
</g>
<g filter="url(#filter8_di_4289_11142)">
<path d="M13.5516 9.34827H27.2123L28.0105 11.7794H30.4827L29.4473 8.61392C29.2933 8.14393 28.9947 7.73466 28.5941 7.44466C28.1935 7.15465 27.7114 6.99875 27.2169 6.99927H13.5288C13.035 6.99971 12.554 7.15605 12.1543 7.44599C11.7546 7.73593 11.4567 8.14467 11.303 8.61392L10.2676 11.7794H12.7534L13.5516 9.34827Z" fill="#2F648E"/>
</g>
</g>
<defs>
<filter id="filter0_di_4289_11142" x="1.78007" y="19.4451" width="23.9262" height="21.9009" filterUnits="userSpaceOnUse" color-interpolation-filters="sRGB">
<feFlood flood-opacity="0" result="BackgroundImageFix"/>
<feColorMatrix in="SourceAlpha" type="matrix" values="0 0 0 0 0 0 0 0 0 0 0 0 0 0 0 0 0 0 127 0" result="hardAlpha"/>
<feOffset dy="0.903467"/>
<feGaussianBlur stdDeviation="0.632427"/>
<feComposite in2="hardAlpha" operator="out"/>
<feColorMatrix type="matrix" values="0 0 0 0 0.184314 0 0 0 0 0.733333 0 0 0 0 0.643137 0 0 0 0.1 0"/>
<feBlend mode="normal" in2="BackgroundImageFix" result="effect1_dropShadow_4289_11142"/>
<feBlend mode="normal" in="SourceGraphic" in2="effect1_dropShadow_4289_11142" result="shape"/>
<feColorMatrix in="SourceAlpha" type="matrix" values="0 0 0 0 0 0 0 0 0 0 0 0 0 0 0 0 0 0 127 0" result="hardAlpha"/>
<feOffset dy="-2.7104"/>
<feGaussianBlur stdDeviation="1.80693"/>
<feComposite in2="hardAlpha" operator="arithmetic" k2="-1" k3="1"/>
<feColorMatrix type="matrix" values="0 0 0 0 0 0 0 0 0 0 0 0 0 0 0 0 0 0 0.25 0"/>
<feBlend mode="normal" in2="shape" result="effect2_innerShadow_4289_11142"/>
</filter>
<filter id="filter1_di_4289_11142" x="-0.16832" y="9.08184" width="42.5546" height="18.9868" filterUnits="userSpaceOnUse" color-interpolation-filters="sRGB">
<feFlood flood-opacity="0" result="BackgroundImageFix"/>
<feColorMatrix in="SourceAlpha" type="matrix" values="0 0 0 0 0 0 0 0 0 0 0 0 0 0 0 0 0 0 127 0" result="hardAlpha"/>
<feMorphology radius="0.903467" operator="dilate" in="SourceAlpha" result="effect1_dropShadow_4289_11142"/>
<feOffset dy="0.903467"/>
<feGaussianBlur stdDeviation="0.632427"/>
<feComposite in2="hardAlpha" operator="out"/>
<feColorMatrix type="matrix" values="0 0 0 0 0.184314 0 0 0 0 0.733333 0 0 0 0 0.643137 0 0 0 0.1 0"/>
<feBlend mode="normal" in2="BackgroundImageFix" result="effect1_dropShadow_4289_11142"/>
<feBlend mode="normal" in="SourceGraphic" in2="effect1_dropShadow_4289_11142" result="shape"/>
<feColorMatrix in="SourceAlpha" type="matrix" values="0 0 0 0 0 0 0 0 0 0 0 0 0 0 0 0 0 0 127 0" result="hardAlpha"/>
<feOffset dx="3.61387" dy="-2.7104"/>
<feGaussianBlur stdDeviation="1.80693"/>
<feComposite in2="hardAlpha" operator="arithmetic" k2="-1" k3="1"/>
<feColorMatrix type="matrix" values="0 0 0 0 0 0 0 0 0 0 0 0 0 0 0 0 0 0 0.25 0"/>
<feBlend mode="normal" in2="shape" result="effect2_innerShadow_4289_11142"/>
</filter>
<filter id="filter2_di_4289_11142" x="22.8473" y="13.5271" width="7.63375" height="28.7431" filterUnits="userSpaceOnUse" color-interpolation-filters="sRGB">
<feFlood flood-opacity="0" result="BackgroundImageFix"/>
<feColorMatrix in="SourceAlpha" type="matrix" values="0 0 0 0 0 0 0 0 0 0 0 0 0 0 0 0 0 0 127 0" result="hardAlpha"/>
<feMorphology radius="0.903467" operator="dilate" in="SourceAlpha" result="effect1_dropShadow_4289_11142"/>
<feOffset dy="0.903467"/>
<feGaussianBlur stdDeviation="0.632427"/>
<feComposite in2="hardAlpha" operator="out"/>
<feColorMatrix type="matrix" values="0 0 0 0 0.184314 0 0 0 0 0.733333 0 0 0 0 0.643137 0 0 0 0.1 0"/>
<feBlend mode="normal" in2="BackgroundImageFix" result="effect1_dropShadow_4289_11142"/>
<feBlend mode="normal" in="SourceGraphic" in2="effect1_dropShadow_4289_11142" result="shape"/>
<feColorMatrix in="SourceAlpha" type="matrix" values="0 0 0 0 0 0 0 0 0 0 0 0 0 0 0 0 0 0 127 0" result="hardAlpha"/>
<feOffset dx="3.61387" dy="-2.7104"/>
<feGaussianBlur stdDeviation="1.80693"/>
<feComposite in2="hardAlpha" operator="arithmetic" k2="-1" k3="1"/>
<feColorMatrix type="matrix" values="0 0 0 0 0 0 0 0 0 0 0 0 0 0 0 0 0 0 0.25 0"/>
<feBlend mode="normal" in2="shape" result="effect2_innerShadow_4289_11142"/>
</filter>
<filter id="filter3_di_4289_11142" x="25.2731" y="13.5115" width="23.2148" height="28.7568" filterUnits="userSpaceOnUse" color-interpolation-filters="sRGB">
<feFlood flood-opacity="0" result="BackgroundImageFix"/>
<feColorMatrix in="SourceAlpha" type="matrix" values="0 0 0 0 0 0 0 0 0 0 0 0 0 0 0 0 0 0 127 0" result="hardAlpha"/>
<feMorphology radius="0.903467" operator="dilate" in="SourceAlpha" result="effect1_dropShadow_4289_11142"/>
<feOffset dy="0.903467"/>
<feGaussianBlur stdDeviation="0.632427"/>
<feComposite in2="hardAlpha" operator="out"/>
<feColorMatrix type="matrix" values="0 0 0 0 0.184314 0 0 0 0 0.733333 0 0 0 0 0.643137 0 0 0 0.1 0"/>
<feBlend mode="normal" in2="BackgroundImageFix" result="effect1_dropShadow_4289_11142"/>
<feBlend mode="normal" in="SourceGraphic" in2="effect1_dropShadow_4289_11142" result="shape"/>
<feColorMatrix in="SourceAlpha" type="matrix" values="0 0 0 0 0 0 0 0 0 0 0 0 0 0 0 0 0 0 127 0" result="hardAlpha"/>
<feOffset dx="3.61387" dy="-2.7104"/>
<feGaussianBlur stdDeviation="1.80693"/>
<feComposite in2="hardAlpha" operator="arithmetic" k2="-1" k3="1"/>
<feColorMatrix type="matrix" values="0 0 0 0 0 0 0 0 0 0 0 0 0 0 0 0 0 0 0.25 0"/>
<feBlend mode="normal" in2="shape" result="effect2_innerShadow_4289_11142"/>
</filter>
<filter id="filter4_di_4289_11142" x="28.5086" y="17.117" width="4.82854" height="7.15924" filterUnits="userSpaceOnUse" color-interpolation-filters="sRGB">
<feFlood flood-opacity="0" result="BackgroundImageFix"/>
<feColorMatrix in="SourceAlpha" type="matrix" values="0 0 0 0 0 0 0 0 0 0 0 0 0 0 0 0 0 0 127 0" result="hardAlpha"/>
<feOffset dy="0.903467"/>
<feGaussianBlur stdDeviation="0.632427"/>
<feComposite in2="hardAlpha" operator="out"/>
<feColorMatrix type="matrix" values="0 0 0 0 0.184314 0 0 0 0 0.733333 0 0 0 0 0.643137 0 0 0 0.1 0"/>
<feBlend mode="normal" in2="BackgroundImageFix" result="effect1_dropShadow_4289_11142"/>
<feBlend mode="normal" in="SourceGraphic" in2="effect1_dropShadow_4289_11142" result="shape"/>
<feColorMatrix in="SourceAlpha" type="matrix" values="0 0 0 0 0 0 0 0 0 0 0 0 0 0 0 0 0 0 127 0" result="hardAlpha"/>
<feOffset dy="-2.7104"/>
<feGaussianBlur stdDeviation="1.80693"/>
<feComposite in2="hardAlpha" operator="arithmetic" k2="-1" k3="1"/>
<feColorMatrix type="matrix" values="0 0 0 0 0 0 0 0 0 0 0 0 0 0 0 0 0 0 0.25 0"/>
<feBlend mode="normal" in2="shape" result="effect2_innerShadow_4289_11142"/>
</filter>
<filter id="filter5_di_4289_11142" x="28.0516" y="21.2498" width="16.2133" height="17.2122" filterUnits="userSpaceOnUse" color-interpolation-filters="sRGB">
<feFlood flood-opacity="0" result="BackgroundImageFix"/>
<feColorMatrix in="SourceAlpha" type="matrix" values="0 0 0 0 0 0 0 0 0 0 0 0 0 0 0 0 0 0 127 0" result="hardAlpha"/>
<feOffset dy="0.903467"/>
<feGaussianBlur stdDeviation="0.632427"/>
<feComposite in2="hardAlpha" operator="out"/>
<feColorMatrix type="matrix" values="0 0 0 0 0.184314 0 0 0 0 0.733333 0 0 0 0 0.643137 0 0 0 0.1 0"/>
<feBlend mode="normal" in2="BackgroundImageFix" result="effect1_dropShadow_4289_11142"/>
<feBlend mode="normal" in="SourceGraphic" in2="effect1_dropShadow_4289_11142" result="shape"/>
<feColorMatrix in="SourceAlpha" type="matrix" values="0 0 0 0 0 0 0 0 0 0 0 0 0 0 0 0 0 0 127 0" result="hardAlpha"/>
<feOffset dy="-2.7104"/>
<feGaussianBlur stdDeviation="1.80693"/>
<feComposite in2="hardAlpha" operator="arithmetic" k2="-1" k3="1"/>
<feColorMatrix type="matrix" values="0 0 0 0 0 0 0 0 0 0 0 0 0 0 0 0 0 0 0.25 0"/>
<feBlend mode="normal" in2="shape" result="effect2_innerShadow_4289_11142"/>
</filter>
<filter id="filter6_di_4289_11142" x="38.8836" y="13.5271" width="7.25529" height="9.60406" filterUnits="userSpaceOnUse" color-interpolation-filters="sRGB">
<feFlood flood-opacity="0" result="BackgroundImageFix"/>
<feColorMatrix in="SourceAlpha" type="matrix" values="0 0 0 0 0 0 0 0 0 0 0 0 0 0 0 0 0 0 127 0" result="hardAlpha"/>
<feOffset dy="0.903467"/>
<feGaussianBlur stdDeviation="0.632427"/>
<feComposite in2="hardAlpha" operator="out"/>
<feColorMatrix type="matrix" values="0 0 0 0 0.184314 0 0 0 0 0.733333 0 0 0 0 0.643137 0 0 0 0.1 0"/>
<feBlend mode="normal" in2="BackgroundImageFix" result="effect1_dropShadow_4289_11142"/>
<feBlend mode="normal" in="SourceGraphic" in2="effect1_dropShadow_4289_11142" result="shape"/>
<feColorMatrix in="SourceAlpha" type="matrix" values="0 0 0 0 0 0 0 0 0 0 0 0 0 0 0 0 0 0 127 0" result="hardAlpha"/>
<feOffset dy="-2.7104"/>
<feGaussianBlur stdDeviation="1.80693"/>
<feComposite in2="hardAlpha" operator="arithmetic" k2="-1" k3="1"/>
<feColorMatrix type="matrix" values="0 0 0 0 0 0 0 0 0 0 0 0 0 0 0 0 0 0 0.25 0"/>
<feBlend mode="normal" in2="shape" result="effect2_innerShadow_4289_11142"/>
</filter>
<filter id="filter7_di_4289_11142" x="17.109" y="20.5936" width="8.66988" height="9.97848" filterUnits="userSpaceOnUse" color-interpolation-filters="sRGB">
<feFlood flood-opacity="0" result="BackgroundImageFix"/>
<feColorMatrix in="SourceAlpha" type="matrix" values="0 0 0 0 0 0 0 0 0 0 0 0 0 0 0 0 0 0 127 0" result="hardAlpha"/>
<feMorphology radius="0.903467" operator="dilate" in="SourceAlpha" result="effect1_dropShadow_4289_11142"/>
<feOffset dy="0.903467"/>
<feGaussianBlur stdDeviation="0.632427"/>
<feComposite in2="hardAlpha" operator="out"/>
<feColorMatrix type="matrix" values="0 0 0 0 0.184314 0 0 0 0 0.733333 0 0 0 0 0.643137 0 0 0 0.1 0"/>
<feBlend mode="normal" in2="BackgroundImageFix" result="effect1_dropShadow_4289_11142"/>
<feBlend mode="normal" in="SourceGraphic" in2="effect1_dropShadow_4289_11142" result="shape"/>
<feColorMatrix in="SourceAlpha" type="matrix" values="0 0 0 0 0 0 0 0 0 0 0 0 0 0 0 0 0 0 127 0" result="hardAlpha"/>
<feOffset dx="3.61387" dy="-2.7104"/>
<feGaussianBlur stdDeviation="1.80693"/>
<feComposite in2="hardAlpha" operator="arithmetic" k2="-1" k3="1"/>
<feColorMatrix type="matrix" values="0 0 0 0 0 0 0 0 0 0 0 0 0 0 0 0 0 0 0.25 0"/>
<feBlend mode="normal" in2="shape" result="effect2_innerShadow_4289_11142"/>
</filter>
<filter id="filter8_di_4289_11142" x="9.00272" y="4.28887" width="22.7446" height="9.65875" filterUnits="userSpaceOnUse" color-interpolation-filters="sRGB">
<feFlood flood-opacity="0" result="BackgroundImageFix"/>
<feColorMatrix in="SourceAlpha" type="matrix" values="0 0 0 0 0 0 0 0 0 0 0 0 0 0 0 0 0 0 127 0" result="hardAlpha"/>
<feOffset dy="0.903467"/>
<feGaussianBlur stdDeviation="0.632427"/>
<feComposite in2="hardAlpha" operator="out"/>
<feColorMatrix type="matrix" values="0 0 0 0 0.184314 0 0 0 0 0.733333 0 0 0 0 0.643137 0 0 0 0.1 0"/>
<feBlend mode="normal" in2="BackgroundImageFix" result="effect1_dropShadow_4289_11142"/>
<feBlend mode="normal" in="SourceGraphic" in2="effect1_dropShadow_4289_11142" result="shape"/>
<feColorMatrix in="SourceAlpha" type="matrix" values="0 0 0 0 0 0 0 0 0 0 0 0 0 0 0 0 0 0 127 0" result="hardAlpha"/>
<feOffset dy="-2.7104"/>
<feGaussianBlur stdDeviation="1.80693"/>
<feComposite in2="hardAlpha" operator="arithmetic" k2="-1" k3="1"/>
<feColorMatrix type="matrix" values="0 0 0 0 0 0 0 0 0 0 0 0 0 0 0 0 0 0 0.25 0"/>
<feBlend mode="normal" in2="shape" result="effect2_innerShadow_4289_11142"/>
</filter>
<clipPath id="clip0_4289_11142">
<rect width="44.8" height="44.8" fill="white" transform="translate(0.509766 0.300049)"/>
</clipPath>
</defs>
</svg>
