<svg width="46" height="46" viewBox="0 0 46 46" fill="none" xmlns="http://www.w3.org/2000/svg">
<g filter="url(#filter0_di_4318_11591)">
<path d="M21.5102 3.10239H18.7102C18.7102 2.33239 19.3402 1.70239 20.1102 1.70239C20.8802 1.70239 21.5102 2.33239 21.5102 3.10239ZM14.5102 1.70239C13.7402 1.70239 13.1102 2.33239 13.1102 3.10239H15.9102C15.9102 2.33239 15.2802 1.70239 14.5102 1.70239ZM8.91016 1.70239C8.14016 1.70239 7.51016 2.33239 7.51016 3.10239H10.3102C10.3102 2.33239 9.68016 1.70239 8.91016 1.70239ZM25.7102 1.70239C24.9402 1.70239 24.3102 2.33239 24.3102 3.10239H27.1102C27.1102 2.33239 26.4802 1.70239 25.7102 1.70239ZM31.3102 1.70239C30.5402 1.70239 29.9102 2.33239 29.9102 3.10239H32.7102C32.7102 2.33239 32.0802 1.70239 31.3102 1.70239ZM34.1102 3.10239H32.7102V4.50239C32.7102 5.27239 32.0802 5.90239 31.3102 5.90239C30.5402 5.90239 29.9102 5.27239 29.9102 4.50239V3.10239H27.1102V4.50239C27.1102 5.27239 26.4802 5.90239 25.7102 5.90239C24.9402 5.90239 24.3102 5.27239 24.3102 4.50239V3.10239H21.5102V4.50239C21.5102 5.27239 20.8802 5.90239 20.1102 5.90239C19.3402 5.90239 18.7102 5.27239 18.7102 4.50239V3.10239H15.9102V4.50239C15.9102 5.27239 15.2802 5.90239 14.5102 5.90239C13.7402 5.90239 13.1102 5.27239 13.1102 4.50239V3.10239H10.3102V4.50239C10.3102 5.27239 9.68016 5.90239 8.91016 5.90239C8.14016 5.90239 7.51016 5.27239 7.51016 4.50239V3.10239H6.11016C3.80016 3.10239 1.91016 4.99239 1.91016 7.30239V10.1024H38.3102V7.30239C38.3102 4.99239 36.4202 3.10239 34.1102 3.10239Z" fill="#2F648E"/>
</g>
<g filter="url(#filter1_di_4318_11591)">
<path d="M38.3102 24.4516V12.9016H1.91016V33.9016C1.91016 36.2116 3.80016 38.1016 6.11016 38.1016H24.6602C24.4362 37.2056 24.3102 36.2676 24.3102 35.3016C24.3102 29.1136 29.3222 24.1016 35.5102 24.1016C36.4762 24.1016 37.4142 24.2276 38.3102 24.4516Z" fill="#2F648E"/>
</g>
<g filter="url(#filter2_di_4318_11591)">
<path d="M15.9098 21.3032C15.1398 21.3032 14.5098 20.6732 14.5098 19.9032C14.5098 19.1332 15.1398 18.5032 15.9098 18.5032H17.3098C18.0798 18.5032 18.7098 19.1332 18.7098 19.9032C18.7098 20.6732 18.0798 21.3032 17.3098 21.3032H15.9098Z" fill="#2FBBA4"/>
<path d="M15.9098 26.9032C15.1398 26.9032 14.5098 26.2732 14.5098 25.5032C14.5098 24.7332 15.1398 24.1032 15.9098 24.1032H17.3098C18.0798 24.1032 18.7098 24.7332 18.7098 25.5032C18.7098 26.2732 18.0798 26.9032 17.3098 26.9032H15.9098Z" fill="#2FBBA4"/>
<path d="M10.3098 29.7032C11.0798 29.7032 11.7098 30.3332 11.7098 31.1032C11.7098 31.8732 11.0798 32.5032 10.3098 32.5032H8.90977C8.13977 32.5032 7.50977 31.8732 7.50977 31.1032C7.50977 30.3332 8.13977 29.7032 8.90977 29.7032H10.3098Z" fill="#2FBBA4"/>
<path d="M10.3098 24.1032C11.0798 24.1032 11.7098 24.7332 11.7098 25.5032C11.7098 26.2732 11.0798 26.9032 10.3098 26.9032H8.90977C8.13977 26.9032 7.50977 26.2732 7.50977 25.5032C7.50977 24.7332 8.13977 24.1032 8.90977 24.1032H10.3098Z" fill="#2FBBA4"/>
<path d="M16.6098 29.7032C18.1498 29.7032 19.4098 29.5632 19.4098 31.1032C19.4098 32.6432 18.1498 32.5032 16.6098 32.5032C15.0698 32.5032 13.8098 32.6432 13.8098 31.1032C13.8098 29.5632 15.0698 29.7032 16.6098 29.7032Z" fill="#2FBBA4"/>
<path d="M24.3098 24.1032C25.0798 24.1032 25.7098 24.7332 25.7098 25.5032C25.7098 26.2732 25.0798 26.9032 24.3098 26.9032H22.9098C22.1398 26.9032 21.5098 26.2732 21.5098 25.5032C21.5098 24.7332 22.1398 24.1032 22.9098 24.1032H24.3098Z" fill="#2FBBA4"/>
<path d="M24.3098 18.5032C25.0798 18.5032 25.7098 19.1332 25.7098 19.9032C25.7098 20.6732 25.0798 21.3032 24.3098 21.3032H22.9098C22.1398 21.3032 21.5098 20.6732 21.5098 19.9032C21.5098 19.1332 22.1398 18.5032 22.9098 18.5032H24.3098Z" fill="#2FBBA4"/>
<path d="M31.3098 18.5032C32.0798 18.5032 32.7098 19.1332 32.7098 19.9032C32.7098 20.6732 32.0798 21.3032 31.3098 21.3032H29.9098C29.1398 21.3032 28.5098 20.6732 28.5098 19.9032C28.5098 19.1332 29.1398 18.5032 29.9098 18.5032H31.3098Z" fill="#2FBBA4"/>
</g>
<g filter="url(#filter3_di_4318_11591)">
<path d="M33.4944 31.9976C33.7604 32.7256 33.4103 33.5236 32.6823 33.8036L29.0144 35.2036C28.8464 35.2736 28.6784 35.3016 28.5104 35.3016C28.2304 35.3016 27.9504 35.2176 27.7124 35.0496C27.3344 34.7976 27.1104 34.3636 27.1104 33.9016V30.0656C27.1104 29.2956 27.7404 28.6656 28.5104 28.6656C29.0004 28.6656 29.4064 28.9316 29.6584 29.3096C31.2124 27.7836 33.3264 26.9016 35.5104 26.9016C38.1424 26.9016 40.6484 28.1616 42.2304 30.2616C42.6924 30.8776 42.5664 31.7596 41.9504 32.2216C41.3344 32.6836 40.4524 32.5576 39.9904 31.9416C38.9404 30.5416 37.2604 29.7016 35.5104 29.7016C34.1244 29.7016 32.7944 30.2476 31.7864 31.1716C32.4724 30.9616 33.2284 31.2976 33.4944 31.9976Z" fill="#2FBBA4"/>
<path d="M42.0204 35.3996C42.4404 35.2316 42.9304 35.2876 43.3084 35.5536C43.6864 35.8056 43.9104 36.2396 43.9104 36.7016V40.9016C43.9104 41.6716 43.2804 42.3016 42.5104 42.3016C41.9224 42.3016 41.4324 41.9376 41.2224 41.4336C39.6824 42.8616 37.6384 43.7016 35.5104 43.7016C32.8784 43.7016 30.3724 42.4416 28.7904 40.3416C28.3284 39.7256 28.4544 38.8436 29.0704 38.3816C29.6864 37.9196 30.5684 38.0456 31.0304 38.6616C32.0804 40.0616 33.7604 40.9016 35.5104 40.9016C36.8964 40.9016 38.2264 40.3556 39.2484 39.4316C38.5624 39.6416 37.8064 39.3056 37.5404 38.6056C37.2744 37.8776 37.6244 37.0796 38.3524 36.7996L42.0204 35.3996Z" fill="#2FBBA4"/>
</g>
<defs>
<filter id="filter0_di_4318_11591" x="0.589139" y="-1.12836" width="39.0424" height="13.4953" filterUnits="userSpaceOnUse" color-interpolation-filters="sRGB">
<feFlood flood-opacity="0" result="BackgroundImageFix"/>
<feColorMatrix in="SourceAlpha" type="matrix" values="0 0 0 0 0 0 0 0 0 0 0 0 0 0 0 0 0 0 127 0" result="hardAlpha"/>
<feOffset dy="0.943583"/>
<feGaussianBlur stdDeviation="0.660509"/>
<feComposite in2="hardAlpha" operator="out"/>
<feColorMatrix type="matrix" values="0 0 0 0 0.184314 0 0 0 0 0.733333 0 0 0 0 0.643137 0 0 0 0.1 0"/>
<feBlend mode="normal" in2="BackgroundImageFix" result="effect1_dropShadow_4318_11591"/>
<feBlend mode="normal" in="SourceGraphic" in2="effect1_dropShadow_4318_11591" result="shape"/>
<feColorMatrix in="SourceAlpha" type="matrix" values="0 0 0 0 0 0 0 0 0 0 0 0 0 0 0 0 0 0 127 0" result="hardAlpha"/>
<feOffset dy="-2.83075"/>
<feGaussianBlur stdDeviation="1.88717"/>
<feComposite in2="hardAlpha" operator="arithmetic" k2="-1" k3="1"/>
<feColorMatrix type="matrix" values="0 0 0 0 0 0 0 0 0 0 0 0 0 0 0 0 0 0 0.25 0"/>
<feBlend mode="normal" in2="shape" result="effect2_innerShadow_4318_11591"/>
</filter>
<filter id="filter1_di_4318_11591" x="0.589139" y="10.0709" width="39.0424" height="30.2953" filterUnits="userSpaceOnUse" color-interpolation-filters="sRGB">
<feFlood flood-opacity="0" result="BackgroundImageFix"/>
<feColorMatrix in="SourceAlpha" type="matrix" values="0 0 0 0 0 0 0 0 0 0 0 0 0 0 0 0 0 0 127 0" result="hardAlpha"/>
<feOffset dy="0.943583"/>
<feGaussianBlur stdDeviation="0.660509"/>
<feComposite in2="hardAlpha" operator="out"/>
<feColorMatrix type="matrix" values="0 0 0 0 0.184314 0 0 0 0 0.733333 0 0 0 0 0.643137 0 0 0 0.1 0"/>
<feBlend mode="normal" in2="BackgroundImageFix" result="effect1_dropShadow_4318_11591"/>
<feBlend mode="normal" in="SourceGraphic" in2="effect1_dropShadow_4318_11591" result="shape"/>
<feColorMatrix in="SourceAlpha" type="matrix" values="0 0 0 0 0 0 0 0 0 0 0 0 0 0 0 0 0 0 127 0" result="hardAlpha"/>
<feOffset dy="-2.83075"/>
<feGaussianBlur stdDeviation="1.88717"/>
<feComposite in2="hardAlpha" operator="arithmetic" k2="-1" k3="1"/>
<feColorMatrix type="matrix" values="0 0 0 0 0 0 0 0 0 0 0 0 0 0 0 0 0 0 0.25 0"/>
<feBlend mode="normal" in2="shape" result="effect2_innerShadow_4318_11591"/>
</filter>
<filter id="filter2_di_4318_11591" x="-47.1193" y="-49.7831" width="170.878" height="159.681" filterUnits="userSpaceOnUse" color-interpolation-filters="sRGB">
<feFlood flood-opacity="0" result="BackgroundImageFix"/>
<feColorMatrix in="SourceAlpha" type="matrix" values="0 0 0 0 0 0 0 0 0 0 0 0 0 0 0 0 0 0 127 0" result="hardAlpha"/>
<feMorphology radius="22.7621" operator="dilate" in="SourceAlpha" result="effect1_dropShadow_4318_11591"/>
<feOffset dy="22.7621"/>
<feGaussianBlur stdDeviation="15.9335"/>
<feComposite in2="hardAlpha" operator="out"/>
<feColorMatrix type="matrix" values="0 0 0 0 0.184314 0 0 0 0 0.733333 0 0 0 0 0.643137 0 0 0 0.1 0"/>
<feBlend mode="normal" in2="BackgroundImageFix" result="effect1_dropShadow_4318_11591"/>
<feBlend mode="normal" in="SourceGraphic" in2="effect1_dropShadow_4318_11591" result="shape"/>
<feColorMatrix in="SourceAlpha" type="matrix" values="0 0 0 0 0 0 0 0 0 0 0 0 0 0 0 0 0 0 127 0" result="hardAlpha"/>
<feOffset dx="91.0484" dy="-68.2863"/>
<feGaussianBlur stdDeviation="45.5242"/>
<feComposite in2="hardAlpha" operator="arithmetic" k2="-1" k3="1"/>
<feColorMatrix type="matrix" values="0 0 0 0 0 0 0 0 0 0 0 0 0 0 0 0 0 0 0.25 0"/>
<feBlend mode="normal" in2="shape" result="effect2_innerShadow_4318_11591"/>
</filter>
<filter id="filter3_di_4318_11591" x="-27.5187" y="-41.3847" width="162.477" height="162.478" filterUnits="userSpaceOnUse" color-interpolation-filters="sRGB">
<feFlood flood-opacity="0" result="BackgroundImageFix"/>
<feColorMatrix in="SourceAlpha" type="matrix" values="0 0 0 0 0 0 0 0 0 0 0 0 0 0 0 0 0 0 127 0" result="hardAlpha"/>
<feMorphology radius="22.7621" operator="dilate" in="SourceAlpha" result="effect1_dropShadow_4318_11591"/>
<feOffset dy="22.7621"/>
<feGaussianBlur stdDeviation="15.9335"/>
<feComposite in2="hardAlpha" operator="out"/>
<feColorMatrix type="matrix" values="0 0 0 0 0.184314 0 0 0 0 0.733333 0 0 0 0 0.643137 0 0 0 0.1 0"/>
<feBlend mode="normal" in2="BackgroundImageFix" result="effect1_dropShadow_4318_11591"/>
<feBlend mode="normal" in="SourceGraphic" in2="effect1_dropShadow_4318_11591" result="shape"/>
<feColorMatrix in="SourceAlpha" type="matrix" values="0 0 0 0 0 0 0 0 0 0 0 0 0 0 0 0 0 0 127 0" result="hardAlpha"/>
<feOffset dx="91.0484" dy="-68.2863"/>
<feGaussianBlur stdDeviation="45.5242"/>
<feComposite in2="hardAlpha" operator="arithmetic" k2="-1" k3="1"/>
<feColorMatrix type="matrix" values="0 0 0 0 0 0 0 0 0 0 0 0 0 0 0 0 0 0 0.25 0"/>
<feBlend mode="normal" in2="shape" result="effect2_innerShadow_4318_11591"/>
</filter>
</defs>
</svg>
