<svg width="24" height="24" viewBox="0 0 24 24" fill="none" xmlns="http://www.w3.org/2000/svg">
<path d="M16 2.00146H8C4 2.00146 2 4.00146 2 8.00147V21.0015C2 21.5515 2.45 22.0015 3 22.0015H16C20 22.0015 22 20.0015 22 16.0015V8.00147C22 4.00146 20 2.00146 16 2.00146Z" stroke="#2F648E" stroke-width="1.5" stroke-linecap="round" stroke-linejoin="round"/>
<path d="M12.9098 7.84064L7.71979 13.0306C7.51979 13.2306 7.3298 13.6206 7.2898 13.9006L7.0098 15.8806C6.9098 16.6006 7.40979 17.1006 8.12979 17.0006L10.1098 16.7206C10.3898 16.6806 10.7798 16.4906 10.9798 16.2906L16.1698 11.1006C17.0598 10.2106 17.4898 9.17064 16.1698 7.85064C14.8498 6.52064 13.8098 6.94064 12.9098 7.84064Z" stroke="#2F648E" stroke-width="1.5" stroke-miterlimit="10" stroke-linecap="round" stroke-linejoin="round"/>
<path d="M12.1699 8.58203C12.6099 10.152 13.8399 11.392 15.4199 11.832" stroke="#2F648E" stroke-width="1.5" stroke-miterlimit="10" stroke-linecap="round" stroke-linejoin="round"/>
</svg>
