<svg width="46" height="46" viewBox="0 0 46 46" fill="none" xmlns="http://www.w3.org/2000/svg">
<g clip-path="url(#clip0_4289_11130)">
<g filter="url(#filter0_di_4289_11130)">
<path d="M24.8663 8.1451C24.8645 7.7033 24.7262 7.27286 24.4704 6.91266C24.2145 6.55246 23.8537 6.2801 23.4371 6.13283V1.71385C23.4371 1.52433 23.3618 1.34257 23.2278 1.20856C23.0938 1.07455 22.9121 0.999268 22.7226 0.999268C22.533 0.999268 22.3513 1.07455 22.2173 1.20856C22.0833 1.34257 22.008 1.52433 22.008 1.71385V6.13283C21.5903 6.27836 21.2282 6.55026 20.972 6.91083C20.7158 7.27141 20.5781 7.70277 20.5781 8.1451C20.5781 8.58743 20.7158 9.0188 20.972 9.37937C21.2282 9.73994 21.5903 10.0118 22.008 10.1574V15.4224C21.5903 15.5679 21.2282 15.8398 20.972 16.2004C20.7158 16.561 20.5781 16.9924 20.5781 17.4347C20.5781 17.877 20.7158 18.3084 20.972 18.669C21.2282 19.0295 21.5903 19.3014 22.008 19.447V24.712C21.5903 24.8575 21.2282 25.1294 20.972 25.49C20.7158 25.8506 20.5781 26.2819 20.5781 26.7243C20.5781 27.1666 20.7158 27.598 20.972 27.9585C21.2282 28.3191 21.5903 28.591 22.008 28.7365V34.0016C21.5903 34.1471 21.2282 34.419 20.972 34.7796C20.7158 35.1402 20.5781 35.5715 20.5781 36.0139C20.5781 36.4562 20.7158 36.8875 20.972 37.2481C21.2282 37.6087 21.5903 37.8806 22.008 38.0261V43.1597C22.008 43.3492 22.0833 43.531 22.2173 43.665C22.3513 43.799 22.533 43.8743 22.7226 43.8743C22.9121 43.8743 23.0938 43.799 23.2278 43.665C23.3618 43.531 23.4371 43.3492 23.4371 43.1597V38.0261C23.8548 37.8806 24.2169 37.6087 24.4731 37.2481C24.7293 36.8875 24.867 36.4562 24.867 36.0139C24.867 35.5715 24.7293 35.1402 24.4731 34.7796C24.2169 34.419 23.8548 34.1471 23.4371 34.0016V28.7365C23.8548 28.591 24.2169 28.3191 24.4731 27.9585C24.7293 27.598 24.867 27.1666 24.867 26.7243C24.867 26.2819 24.7293 25.8506 24.4731 25.49C24.2169 25.1294 23.8548 24.8575 23.4371 24.712V19.447C23.8548 19.3014 24.2169 19.0295 24.4731 18.669C24.7293 18.3084 24.867 17.877 24.867 17.4347C24.867 16.9924 24.7293 16.561 24.4731 16.2004C24.2169 15.8398 23.8548 15.5679 23.4371 15.4224V10.1574C23.8537 10.0101 24.2145 9.73774 24.4704 9.37754C24.7262 9.01734 24.8645 8.5869 24.8663 8.1451Z" fill="#2FBBA4"/>
</g>
<g filter="url(#filter1_di_4289_11130)">
<path d="M42.7316 3.1438H31.2318C31.1299 3.1438 31.0291 3.16561 30.9363 3.20776C30.8435 3.24991 30.7608 3.31143 30.6937 3.38819L26.5312 8.14588L30.6944 12.9043C30.7615 12.9808 30.8441 13.0422 30.9368 13.0842C31.0294 13.1262 31.13 13.148 31.2318 13.148H42.7316C42.9211 13.148 43.1028 13.0727 43.2369 12.9387C43.3709 12.8047 43.4462 12.6229 43.4462 12.4334V3.85838C43.4462 3.66886 43.3709 3.48711 43.2369 3.3531C43.1028 3.21909 42.9211 3.1438 42.7316 3.1438ZM32.0128 6.00213H32.7274C32.9169 6.00213 33.0987 6.07742 33.2327 6.21143C33.3667 6.34544 33.442 6.5272 33.442 6.71672C33.442 6.90624 33.3667 7.08799 33.2327 7.222C33.0987 7.35601 32.9169 7.4313 32.7274 7.4313H32.0128C31.8233 7.4313 31.6415 7.35601 31.5075 7.222C31.3735 7.08799 31.2982 6.90624 31.2982 6.71672C31.2982 6.5272 31.3735 6.34544 31.5075 6.21143C31.6415 6.07742 31.8233 6.00213 32.0128 6.00213ZM37.7295 10.2896H32.0128C31.8233 10.2896 31.6415 10.2143 31.5075 10.0803C31.3735 9.94633 31.2982 9.76457 31.2982 9.57505C31.2982 9.38553 31.3735 9.20377 31.5075 9.06976C31.6415 8.93575 31.8233 8.86047 32.0128 8.86047H37.7295C37.919 8.86047 38.1008 8.93575 38.2348 9.06976C38.3688 9.20377 38.4441 9.38553 38.4441 9.57505C38.4441 9.76457 38.3688 9.94633 38.2348 10.0803C38.1008 10.2143 37.919 10.2896 37.7295 10.2896ZM41.3024 7.4313H35.5857C35.3962 7.4313 35.2145 7.35601 35.0804 7.222C34.9464 7.08799 34.8712 6.90624 34.8712 6.71672C34.8712 6.5272 34.9464 6.34544 35.0804 6.21143C35.2145 6.07742 35.3962 6.00213 35.5857 6.00213H41.3024C41.4919 6.00213 41.6737 6.07742 41.8077 6.21143C41.9417 6.34544 42.017 6.5272 42.017 6.71672C42.017 6.90624 41.9417 7.08799 41.8077 7.222C41.6737 7.35601 41.4919 7.4313 41.3024 7.4313Z" fill="#2F648E"/>
</g>
<g filter="url(#filter2_di_4289_11130)">
<path d="M14.2137 41.0152C14.3157 41.0153 14.4166 40.9935 14.5095 40.9513C14.6025 40.9092 14.6853 40.8476 14.7525 40.7708L18.9149 36.0131L14.7517 31.2547C14.6846 31.178 14.6019 31.1166 14.5091 31.0746C14.4163 31.0326 14.3155 31.0109 14.2137 31.011H2.71458C2.52506 31.011 2.34331 31.0863 2.2093 31.2203C2.07529 31.3543 2 31.5361 2 31.7256V40.3006C2 40.4901 2.07529 40.6718 2.2093 40.8059C2.34331 40.9399 2.52506 41.0152 2.71458 41.0152H14.2137ZM7.71667 33.8693H13.4333C13.6229 33.8693 13.8046 33.9446 13.9386 34.0786C14.0726 34.2126 14.1479 34.3944 14.1479 34.5839C14.1479 34.7734 14.0726 34.9552 13.9386 35.0892C13.8046 35.2232 13.6229 35.2985 13.4333 35.2985H7.71667C7.52715 35.2985 7.34539 35.2232 7.21138 35.0892C7.07737 34.9552 7.00208 34.7734 7.00208 34.5839C7.00208 34.3944 7.07737 34.2126 7.21138 34.0786C7.34539 33.9446 7.52715 33.8693 7.71667 33.8693ZM4.14375 33.8693H4.85833C5.04785 33.8693 5.22961 33.9446 5.36362 34.0786C5.49763 34.2126 5.57292 34.3944 5.57292 34.5839C5.57292 34.7734 5.49763 34.9552 5.36362 35.0892C5.22961 35.2232 5.04785 35.2985 4.85833 35.2985H4.14375C3.95423 35.2985 3.77247 35.2232 3.63846 35.0892C3.50445 34.9552 3.42917 34.7734 3.42917 34.5839C3.42917 34.3944 3.50445 34.2126 3.63846 34.0786C3.77247 33.9446 3.95423 33.8693 4.14375 33.8693ZM4.14375 36.7277H9.86042C10.0499 36.7277 10.2317 36.8029 10.3657 36.9369C10.4997 37.071 10.575 37.2527 10.575 37.4422C10.575 37.6318 10.4997 37.8135 10.3657 37.9475C10.2317 38.0815 10.0499 38.1568 9.86042 38.1568H4.14375C3.95423 38.1568 3.77247 38.0815 3.63846 37.9475C3.50445 37.8135 3.42917 37.6318 3.42917 37.4422C3.42917 37.2527 3.50445 37.071 3.63846 36.9369C3.77247 36.8029 3.95423 36.7277 4.14375 36.7277Z" fill="#2F648E"/>
</g>
<g filter="url(#filter3_di_4289_11130)">
<path d="M2.71458 22.437H14.2137C14.3157 22.4371 14.4166 22.4154 14.5095 22.3732C14.6025 22.3311 14.6853 22.2695 14.7525 22.1926L18.9149 17.4349L14.7517 12.6765C14.6846 12.5999 14.6019 12.5385 14.5091 12.4965C14.4163 12.4545 14.3155 12.4328 14.2137 12.4329H2.71458C2.52506 12.4329 2.34331 12.5081 2.2093 12.6422C2.07529 12.7762 2 12.9579 2 13.1474V21.7224C2 21.912 2.07529 22.0937 2.2093 22.2277C2.34331 22.3617 2.52506 22.437 2.71458 22.437ZM7.71667 15.2912H13.4333C13.6229 15.2912 13.8046 15.3665 13.9386 15.5005C14.0726 15.6345 14.1479 15.8163 14.1479 16.0058C14.1479 16.1953 14.0726 16.3771 13.9386 16.5111C13.8046 16.6451 13.6229 16.7204 13.4333 16.7204H7.71667C7.52715 16.7204 7.34539 16.6451 7.21138 16.5111C7.07737 16.3771 7.00208 16.1953 7.00208 16.0058C7.00208 15.8163 7.07737 15.6345 7.21138 15.5005C7.34539 15.3665 7.52715 15.2912 7.71667 15.2912ZM4.14375 15.2912H4.85833C5.04785 15.2912 5.22961 15.3665 5.36362 15.5005C5.49763 15.6345 5.57292 15.8163 5.57292 16.0058C5.57292 16.1953 5.49763 16.3771 5.36362 16.5111C5.22961 16.6451 5.04785 16.7204 4.85833 16.7204H4.14375C3.95423 16.7204 3.77247 16.6451 3.63846 16.5111C3.50445 16.3771 3.42917 16.1953 3.42917 16.0058C3.42917 15.8163 3.50445 15.6345 3.63846 15.5005C3.77247 15.3665 3.95423 15.2912 4.14375 15.2912ZM4.14375 18.1495H9.86042C10.0499 18.1495 10.2317 18.2248 10.3657 18.3588C10.4997 18.4928 10.575 18.6746 10.575 18.8641C10.575 19.0536 10.4997 19.2354 10.3657 19.3694C10.2317 19.5034 10.0499 19.5787 9.86042 19.5787H4.14375C3.95423 19.5787 3.77247 19.5034 3.63846 19.3694C3.50445 19.2354 3.42917 19.0536 3.42917 18.8641C3.42917 18.6746 3.50445 18.4928 3.63846 18.3588C3.77247 18.2248 3.95423 18.1495 4.14375 18.1495Z" fill="#2F648E"/>
</g>
<g filter="url(#filter4_di_4289_11130)">
<path d="M42.7316 21.7219H31.2318C31.1299 21.7219 31.0291 21.7437 30.9363 21.7859C30.8435 21.828 30.7608 21.8896 30.6937 21.9663L26.5312 26.724L30.6944 31.4824C30.7615 31.559 30.8441 31.6203 30.9368 31.6623C31.0294 31.7043 31.13 31.7261 31.2318 31.7261H42.7316C42.9211 31.7261 43.1028 31.6508 43.2369 31.5168C43.3709 31.3828 43.4462 31.201 43.4462 31.0115V22.4365C43.4462 22.247 43.3709 22.0652 43.2369 21.9312C43.1028 21.7972 42.9211 21.7219 42.7316 21.7219ZM32.0128 24.5803H32.7274C32.9169 24.5803 33.0987 24.6555 33.2327 24.7896C33.3667 24.9236 33.442 25.1053 33.442 25.2948C33.442 25.4844 33.3667 25.6661 33.2327 25.8001C33.0987 25.9341 32.9169 26.0094 32.7274 26.0094H32.0128C31.8233 26.0094 31.6415 25.9341 31.5075 25.8001C31.3735 25.6661 31.2982 25.4844 31.2982 25.2948C31.2982 25.1053 31.3735 24.9236 31.5075 24.7896C31.6415 24.6555 31.8233 24.5803 32.0128 24.5803ZM37.7295 28.8678H32.0128C31.8233 28.8678 31.6415 28.7925 31.5075 28.6585C31.3735 28.5245 31.2982 28.3427 31.2982 28.1532C31.2982 27.9637 31.3735 27.7819 31.5075 27.6479C31.6415 27.5139 31.8233 27.4386 32.0128 27.4386H37.7295C37.919 27.4386 38.1008 27.5139 38.2348 27.6479C38.3688 27.7819 38.4441 27.9637 38.4441 28.1532C38.4441 28.3427 38.3688 28.5245 38.2348 28.6585C38.1008 28.7925 37.919 28.8678 37.7295 28.8678ZM41.3024 26.0094H35.5857C35.3962 26.0094 35.2145 25.9341 35.0804 25.8001C34.9464 25.6661 34.8712 25.4844 34.8712 25.2948C34.8712 25.1053 34.9464 24.9236 35.0804 24.7896C35.2145 24.6555 35.3962 24.5803 35.5857 24.5803H41.3024C41.4919 24.5803 41.6737 24.6555 41.8077 24.7896C41.9417 24.9236 42.017 25.1053 42.017 25.2948C42.017 25.4844 41.9417 25.6661 41.8077 25.8001C41.6737 25.9341 41.4919 26.0094 41.3024 26.0094Z" fill="#2F648E"/>
</g>
</g>
<defs>
<filter id="filter0_di_4289_11130" x="18.4098" y="-1.71113" width="10.0712" height="48.6572" filterUnits="userSpaceOnUse" color-interpolation-filters="sRGB">
<feFlood flood-opacity="0" result="BackgroundImageFix"/>
<feColorMatrix in="SourceAlpha" type="matrix" values="0 0 0 0 0 0 0 0 0 0 0 0 0 0 0 0 0 0 127 0" result="hardAlpha"/>
<feMorphology radius="0.903467" operator="dilate" in="SourceAlpha" result="effect1_dropShadow_4289_11130"/>
<feOffset dy="0.903467"/>
<feGaussianBlur stdDeviation="0.632427"/>
<feComposite in2="hardAlpha" operator="out"/>
<feColorMatrix type="matrix" values="0 0 0 0 0.184314 0 0 0 0 0.733333 0 0 0 0 0.643137 0 0 0 0.1 0"/>
<feBlend mode="normal" in2="BackgroundImageFix" result="effect1_dropShadow_4289_11130"/>
<feBlend mode="normal" in="SourceGraphic" in2="effect1_dropShadow_4289_11130" result="shape"/>
<feColorMatrix in="SourceAlpha" type="matrix" values="0 0 0 0 0 0 0 0 0 0 0 0 0 0 0 0 0 0 127 0" result="hardAlpha"/>
<feOffset dx="3.61387" dy="-2.7104"/>
<feGaussianBlur stdDeviation="1.80693"/>
<feComposite in2="hardAlpha" operator="arithmetic" k2="-1" k3="1"/>
<feColorMatrix type="matrix" values="0 0 0 0 0 0 0 0 0 0 0 0 0 0 0 0 0 0 0.25 0"/>
<feBlend mode="normal" in2="shape" result="effect2_innerShadow_4289_11130"/>
</filter>
<filter id="filter1_di_4289_11130" x="25.2664" y="0.433398" width="19.4447" height="14.8829" filterUnits="userSpaceOnUse" color-interpolation-filters="sRGB">
<feFlood flood-opacity="0" result="BackgroundImageFix"/>
<feColorMatrix in="SourceAlpha" type="matrix" values="0 0 0 0 0 0 0 0 0 0 0 0 0 0 0 0 0 0 127 0" result="hardAlpha"/>
<feOffset dy="0.903467"/>
<feGaussianBlur stdDeviation="0.632427"/>
<feComposite in2="hardAlpha" operator="out"/>
<feColorMatrix type="matrix" values="0 0 0 0 0.184314 0 0 0 0 0.733333 0 0 0 0 0.643137 0 0 0 0.1 0"/>
<feBlend mode="normal" in2="BackgroundImageFix" result="effect1_dropShadow_4289_11130"/>
<feBlend mode="normal" in="SourceGraphic" in2="effect1_dropShadow_4289_11130" result="shape"/>
<feColorMatrix in="SourceAlpha" type="matrix" values="0 0 0 0 0 0 0 0 0 0 0 0 0 0 0 0 0 0 127 0" result="hardAlpha"/>
<feOffset dy="-2.7104"/>
<feGaussianBlur stdDeviation="1.80693"/>
<feComposite in2="hardAlpha" operator="arithmetic" k2="-1" k3="1"/>
<feColorMatrix type="matrix" values="0 0 0 0 0 0 0 0 0 0 0 0 0 0 0 0 0 0 0.25 0"/>
<feBlend mode="normal" in2="shape" result="effect2_innerShadow_4289_11130"/>
</filter>
<filter id="filter2_di_4289_11130" x="0.735146" y="28.3006" width="19.4447" height="14.8829" filterUnits="userSpaceOnUse" color-interpolation-filters="sRGB">
<feFlood flood-opacity="0" result="BackgroundImageFix"/>
<feColorMatrix in="SourceAlpha" type="matrix" values="0 0 0 0 0 0 0 0 0 0 0 0 0 0 0 0 0 0 127 0" result="hardAlpha"/>
<feOffset dy="0.903467"/>
<feGaussianBlur stdDeviation="0.632427"/>
<feComposite in2="hardAlpha" operator="out"/>
<feColorMatrix type="matrix" values="0 0 0 0 0.184314 0 0 0 0 0.733333 0 0 0 0 0.643137 0 0 0 0.1 0"/>
<feBlend mode="normal" in2="BackgroundImageFix" result="effect1_dropShadow_4289_11130"/>
<feBlend mode="normal" in="SourceGraphic" in2="effect1_dropShadow_4289_11130" result="shape"/>
<feColorMatrix in="SourceAlpha" type="matrix" values="0 0 0 0 0 0 0 0 0 0 0 0 0 0 0 0 0 0 127 0" result="hardAlpha"/>
<feOffset dy="-2.7104"/>
<feGaussianBlur stdDeviation="1.80693"/>
<feComposite in2="hardAlpha" operator="arithmetic" k2="-1" k3="1"/>
<feColorMatrix type="matrix" values="0 0 0 0 0 0 0 0 0 0 0 0 0 0 0 0 0 0 0.25 0"/>
<feBlend mode="normal" in2="shape" result="effect2_innerShadow_4289_11130"/>
</filter>
<filter id="filter3_di_4289_11130" x="0.735146" y="9.72246" width="19.4447" height="14.8829" filterUnits="userSpaceOnUse" color-interpolation-filters="sRGB">
<feFlood flood-opacity="0" result="BackgroundImageFix"/>
<feColorMatrix in="SourceAlpha" type="matrix" values="0 0 0 0 0 0 0 0 0 0 0 0 0 0 0 0 0 0 127 0" result="hardAlpha"/>
<feOffset dy="0.903467"/>
<feGaussianBlur stdDeviation="0.632427"/>
<feComposite in2="hardAlpha" operator="out"/>
<feColorMatrix type="matrix" values="0 0 0 0 0.184314 0 0 0 0 0.733333 0 0 0 0 0.643137 0 0 0 0.1 0"/>
<feBlend mode="normal" in2="BackgroundImageFix" result="effect1_dropShadow_4289_11130"/>
<feBlend mode="normal" in="SourceGraphic" in2="effect1_dropShadow_4289_11130" result="shape"/>
<feColorMatrix in="SourceAlpha" type="matrix" values="0 0 0 0 0 0 0 0 0 0 0 0 0 0 0 0 0 0 127 0" result="hardAlpha"/>
<feOffset dy="-2.7104"/>
<feGaussianBlur stdDeviation="1.80693"/>
<feComposite in2="hardAlpha" operator="arithmetic" k2="-1" k3="1"/>
<feColorMatrix type="matrix" values="0 0 0 0 0 0 0 0 0 0 0 0 0 0 0 0 0 0 0.25 0"/>
<feBlend mode="normal" in2="shape" result="effect2_innerShadow_4289_11130"/>
</filter>
<filter id="filter4_di_4289_11130" x="25.2664" y="19.0115" width="19.4447" height="14.8829" filterUnits="userSpaceOnUse" color-interpolation-filters="sRGB">
<feFlood flood-opacity="0" result="BackgroundImageFix"/>
<feColorMatrix in="SourceAlpha" type="matrix" values="0 0 0 0 0 0 0 0 0 0 0 0 0 0 0 0 0 0 127 0" result="hardAlpha"/>
<feOffset dy="0.903467"/>
<feGaussianBlur stdDeviation="0.632427"/>
<feComposite in2="hardAlpha" operator="out"/>
<feColorMatrix type="matrix" values="0 0 0 0 0.184314 0 0 0 0 0.733333 0 0 0 0 0.643137 0 0 0 0.1 0"/>
<feBlend mode="normal" in2="BackgroundImageFix" result="effect1_dropShadow_4289_11130"/>
<feBlend mode="normal" in="SourceGraphic" in2="effect1_dropShadow_4289_11130" result="shape"/>
<feColorMatrix in="SourceAlpha" type="matrix" values="0 0 0 0 0 0 0 0 0 0 0 0 0 0 0 0 0 0 127 0" result="hardAlpha"/>
<feOffset dy="-2.7104"/>
<feGaussianBlur stdDeviation="1.80693"/>
<feComposite in2="hardAlpha" operator="arithmetic" k2="-1" k3="1"/>
<feColorMatrix type="matrix" values="0 0 0 0 0 0 0 0 0 0 0 0 0 0 0 0 0 0 0.25 0"/>
<feBlend mode="normal" in2="shape" result="effect2_innerShadow_4289_11130"/>
</filter>
<clipPath id="clip0_4289_11130">
<rect width="44.8" height="44.8" fill="white" transform="translate(0.509766 0.300049)"/>
</clipPath>
</defs>
</svg>
