<svg width="46" height="46" viewBox="0 0 46 46" fill="none" xmlns="http://www.w3.org/2000/svg">
<g clip-path="url(#clip0_4289_11272)">
<g filter="url(#filter0_di_4289_11272)">
<path d="M32.0796 27.3213C31.5312 27.3213 31.0205 27.1636 30.5887 26.8906C29.805 26.3959 29.2852 25.5218 29.2852 24.5267C29.2852 23.8104 29.5547 23.158 29.9981 22.6633L34.7313 23.6447C34.8238 23.9223 34.8741 24.2182 34.8741 24.5267C34.8741 26.0702 33.6231 27.3213 32.0796 27.3213Z" fill="#2FBBA4"/>
</g>
<g filter="url(#filter1_di_4289_11272)">
<path d="M38.5372 15.8426L39.2284 12.51C39.8419 9.55443 38.2824 6.65256 35.6387 5.46326L36.1711 2.89499C36.3254 2.15238 35.8489 1.42463 35.1052 1.2704C34.3626 1.11617 33.6348 1.59372 33.4805 2.33632L32.9482 4.90573C30.0498 4.94458 27.4644 6.98617 26.8509 9.94173L26.3173 12.5157L26.2134 13.0161L25.4592 16.648C25.353 17.1576 25.1313 17.626 24.8194 18.0281C24.5498 18.3777 24.2127 18.677 23.8255 18.9101C23.0659 19.3671 22.4911 20.128 22.2969 21.0659L29.9971 22.6631L34.7304 23.6456L38.9791 24.5276C39.0259 24.3014 39.0488 24.0763 39.0488 23.8536C39.0488 23.3794 38.9461 22.9213 38.7574 22.5043C38.6683 22.3055 38.5598 22.117 38.4341 21.9411C37.8686 21.1505 37.639 20.1691 37.8366 19.2163L38.5372 15.8426Z" fill="#2F648E"/>
</g>
<g filter="url(#filter2_di_4289_11272)">
<path d="M25.4591 16.6468L26.2133 13.0149L38.5358 15.8414H38.5371L37.8366 19.2151C37.6391 20.1679 37.8686 21.1493 38.4341 21.9398C38.5598 22.1158 38.6683 22.3043 38.7574 22.5031C38.9459 22.9201 39.0488 23.3782 39.0488 23.8523C39.0488 24.0751 39.0259 24.3002 38.9791 24.5264L34.7304 23.6444L29.9971 22.6619L22.2969 21.0647C22.4911 20.1268 23.0658 19.3659 23.8255 18.9089C24.2128 18.6758 24.5498 18.3765 24.8194 18.0269C25.1312 17.6247 25.3529 17.1563 25.4591 16.6468Z" fill="#2FBBA4"/>
</g>
<g filter="url(#filter3_di_4289_11272)">
<path d="M26.2127 13.0164L25.4586 16.6483C25.3523 17.1579 25.1307 17.6263 24.8188 18.0284C24.1962 17.8673 23.5438 17.7816 22.8709 17.7816C18.5569 17.7816 15.0404 21.2982 15.0404 25.6121C15.0404 29.9193 18.5569 33.4357 22.8709 33.4357C26.7427 33.4357 29.9736 30.5944 30.5871 26.8918C31.0189 27.1648 31.5297 27.3225 32.078 27.3225C33.6215 27.3225 34.8725 26.0714 34.8725 24.528C34.8725 24.2196 34.8222 23.9237 34.7297 23.646L38.9784 24.528C39.0253 24.3018 39.0481 24.0768 39.0481 23.854C39.0481 23.3799 38.9454 22.9217 38.7568 22.5047L41.3753 22.7778V28.44L35.9715 29.0032C35.6584 30.2405 35.1648 31.4069 34.5308 32.4797L37.9606 36.6931L33.9516 40.7022L29.7382 37.2724C28.6654 37.9064 27.4989 38.4 26.2616 38.713L25.6984 44.1169H20.0363L19.4731 38.713C18.2438 38.4 17.0693 37.9063 15.9954 37.2724L11.7831 40.7022L7.78221 36.6931L11.2039 32.4797C10.5698 31.4069 10.0763 30.2405 9.76325 29.0032L4.35938 28.44V22.7778L9.76325 22.2145C10.0763 20.9852 10.5698 19.8108 11.2039 18.7369L7.78221 14.5246L11.7831 10.5237L15.9954 13.9454C17.0693 13.3113 18.2438 12.8177 19.4731 12.5047L20.0363 7.10083H25.6984L26.2616 12.5047L26.3165 12.5161L26.2127 13.0164Z" fill="#2F648E"/>
</g>
<g filter="url(#filter4_di_4289_11272)">
<path d="M22.847 30.5783C20.1054 30.5783 17.875 28.3493 17.875 25.6096C17.875 25.294 18.1308 25.0383 18.4462 25.0383C18.7617 25.0383 19.0175 25.294 19.0175 25.6096C19.0175 27.7194 20.7354 29.4358 22.847 29.4358C24.6963 29.4358 26.3191 28.0597 26.6215 26.2348C26.6729 25.9236 26.9672 25.7127 27.2784 25.7646C27.5897 25.8161 27.8002 26.1103 27.7486 26.4215C27.3493 28.8302 25.2879 30.5783 22.847 30.5783Z" fill="#2FBBA4"/>
</g>
</g>
<defs>
<filter id="filter0_di_4289_11272" x="27.1168" y="19.9529" width="11.3711" height="10.4401" filterUnits="userSpaceOnUse" color-interpolation-filters="sRGB">
<feFlood flood-opacity="0" result="BackgroundImageFix"/>
<feColorMatrix in="SourceAlpha" type="matrix" values="0 0 0 0 0 0 0 0 0 0 0 0 0 0 0 0 0 0 127 0" result="hardAlpha"/>
<feMorphology radius="0.903467" operator="dilate" in="SourceAlpha" result="effect1_dropShadow_4289_11272"/>
<feOffset dy="0.903467"/>
<feGaussianBlur stdDeviation="0.632427"/>
<feComposite in2="hardAlpha" operator="out"/>
<feColorMatrix type="matrix" values="0 0 0 0 0.184314 0 0 0 0 0.733333 0 0 0 0 0.643137 0 0 0 0.1 0"/>
<feBlend mode="normal" in2="BackgroundImageFix" result="effect1_dropShadow_4289_11272"/>
<feBlend mode="normal" in="SourceGraphic" in2="effect1_dropShadow_4289_11272" result="shape"/>
<feColorMatrix in="SourceAlpha" type="matrix" values="0 0 0 0 0 0 0 0 0 0 0 0 0 0 0 0 0 0 127 0" result="hardAlpha"/>
<feOffset dx="3.61387" dy="-2.7104"/>
<feGaussianBlur stdDeviation="1.80693"/>
<feComposite in2="hardAlpha" operator="arithmetic" k2="-1" k3="1"/>
<feColorMatrix type="matrix" values="0 0 0 0 0 0 0 0 0 0 0 0 0 0 0 0 0 0 0.25 0"/>
<feBlend mode="normal" in2="shape" result="effect2_innerShadow_4289_11272"/>
</filter>
<filter id="filter1_di_4289_11272" x="21.032" y="-1.46895" width="19.5942" height="28.1649" filterUnits="userSpaceOnUse" color-interpolation-filters="sRGB">
<feFlood flood-opacity="0" result="BackgroundImageFix"/>
<feColorMatrix in="SourceAlpha" type="matrix" values="0 0 0 0 0 0 0 0 0 0 0 0 0 0 0 0 0 0 127 0" result="hardAlpha"/>
<feOffset dy="0.903467"/>
<feGaussianBlur stdDeviation="0.632427"/>
<feComposite in2="hardAlpha" operator="out"/>
<feColorMatrix type="matrix" values="0 0 0 0 0.184314 0 0 0 0 0.733333 0 0 0 0 0.643137 0 0 0 0.1 0"/>
<feBlend mode="normal" in2="BackgroundImageFix" result="effect1_dropShadow_4289_11272"/>
<feBlend mode="normal" in="SourceGraphic" in2="effect1_dropShadow_4289_11272" result="shape"/>
<feColorMatrix in="SourceAlpha" type="matrix" values="0 0 0 0 0 0 0 0 0 0 0 0 0 0 0 0 0 0 127 0" result="hardAlpha"/>
<feOffset dy="-2.7104"/>
<feGaussianBlur stdDeviation="1.80693"/>
<feComposite in2="hardAlpha" operator="arithmetic" k2="-1" k3="1"/>
<feColorMatrix type="matrix" values="0 0 0 0 0 0 0 0 0 0 0 0 0 0 0 0 0 0 0.25 0"/>
<feBlend mode="normal" in2="shape" result="effect2_innerShadow_4289_11272"/>
</filter>
<filter id="filter2_di_4289_11272" x="20.1286" y="10.3045" width="22.5341" height="17.2937" filterUnits="userSpaceOnUse" color-interpolation-filters="sRGB">
<feFlood flood-opacity="0" result="BackgroundImageFix"/>
<feColorMatrix in="SourceAlpha" type="matrix" values="0 0 0 0 0 0 0 0 0 0 0 0 0 0 0 0 0 0 127 0" result="hardAlpha"/>
<feMorphology radius="0.903467" operator="dilate" in="SourceAlpha" result="effect1_dropShadow_4289_11272"/>
<feOffset dy="0.903467"/>
<feGaussianBlur stdDeviation="0.632427"/>
<feComposite in2="hardAlpha" operator="out"/>
<feColorMatrix type="matrix" values="0 0 0 0 0.184314 0 0 0 0 0.733333 0 0 0 0 0.643137 0 0 0 0.1 0"/>
<feBlend mode="normal" in2="BackgroundImageFix" result="effect1_dropShadow_4289_11272"/>
<feBlend mode="normal" in="SourceGraphic" in2="effect1_dropShadow_4289_11272" result="shape"/>
<feColorMatrix in="SourceAlpha" type="matrix" values="0 0 0 0 0 0 0 0 0 0 0 0 0 0 0 0 0 0 127 0" result="hardAlpha"/>
<feOffset dx="3.61387" dy="-2.7104"/>
<feGaussianBlur stdDeviation="1.80693"/>
<feComposite in2="hardAlpha" operator="arithmetic" k2="-1" k3="1"/>
<feColorMatrix type="matrix" values="0 0 0 0 0 0 0 0 0 0 0 0 0 0 0 0 0 0 0.25 0"/>
<feBlend mode="normal" in2="shape" result="effect2_innerShadow_4289_11272"/>
</filter>
<filter id="filter3_di_4289_11272" x="3.09452" y="4.39043" width="39.5453" height="41.8948" filterUnits="userSpaceOnUse" color-interpolation-filters="sRGB">
<feFlood flood-opacity="0" result="BackgroundImageFix"/>
<feColorMatrix in="SourceAlpha" type="matrix" values="0 0 0 0 0 0 0 0 0 0 0 0 0 0 0 0 0 0 127 0" result="hardAlpha"/>
<feOffset dy="0.903467"/>
<feGaussianBlur stdDeviation="0.632427"/>
<feComposite in2="hardAlpha" operator="out"/>
<feColorMatrix type="matrix" values="0 0 0 0 0.184314 0 0 0 0 0.733333 0 0 0 0 0.643137 0 0 0 0.1 0"/>
<feBlend mode="normal" in2="BackgroundImageFix" result="effect1_dropShadow_4289_11272"/>
<feBlend mode="normal" in="SourceGraphic" in2="effect1_dropShadow_4289_11272" result="shape"/>
<feColorMatrix in="SourceAlpha" type="matrix" values="0 0 0 0 0 0 0 0 0 0 0 0 0 0 0 0 0 0 127 0" result="hardAlpha"/>
<feOffset dy="-2.7104"/>
<feGaussianBlur stdDeviation="1.80693"/>
<feComposite in2="hardAlpha" operator="arithmetic" k2="-1" k3="1"/>
<feColorMatrix type="matrix" values="0 0 0 0 0 0 0 0 0 0 0 0 0 0 0 0 0 0 0.25 0"/>
<feBlend mode="normal" in2="shape" result="effect2_innerShadow_4289_11272"/>
</filter>
<filter id="filter4_di_4289_11272" x="15.7067" y="22.3279" width="15.663" height="11.3222" filterUnits="userSpaceOnUse" color-interpolation-filters="sRGB">
<feFlood flood-opacity="0" result="BackgroundImageFix"/>
<feColorMatrix in="SourceAlpha" type="matrix" values="0 0 0 0 0 0 0 0 0 0 0 0 0 0 0 0 0 0 127 0" result="hardAlpha"/>
<feMorphology radius="0.903467" operator="dilate" in="SourceAlpha" result="effect1_dropShadow_4289_11272"/>
<feOffset dy="0.903467"/>
<feGaussianBlur stdDeviation="0.632427"/>
<feComposite in2="hardAlpha" operator="out"/>
<feColorMatrix type="matrix" values="0 0 0 0 0.184314 0 0 0 0 0.733333 0 0 0 0 0.643137 0 0 0 0.1 0"/>
<feBlend mode="normal" in2="BackgroundImageFix" result="effect1_dropShadow_4289_11272"/>
<feBlend mode="normal" in="SourceGraphic" in2="effect1_dropShadow_4289_11272" result="shape"/>
<feColorMatrix in="SourceAlpha" type="matrix" values="0 0 0 0 0 0 0 0 0 0 0 0 0 0 0 0 0 0 127 0" result="hardAlpha"/>
<feOffset dx="3.61387" dy="-2.7104"/>
<feGaussianBlur stdDeviation="1.80693"/>
<feComposite in2="hardAlpha" operator="arithmetic" k2="-1" k3="1"/>
<feColorMatrix type="matrix" values="0 0 0 0 0 0 0 0 0 0 0 0 0 0 0 0 0 0 0.25 0"/>
<feBlend mode="normal" in2="shape" result="effect2_innerShadow_4289_11272"/>
</filter>
<clipPath id="clip0_4289_11272">
<rect width="44.8" height="44.8" fill="white" transform="translate(0.509766 0.300049)"/>
</clipPath>
</defs>
</svg>
