<svg width="12" height="12" viewBox="0 0 12 12" fill="none" xmlns="http://www.w3.org/2000/svg">
<path d="M10.1248 6.10152C10.1267 6.03402 10.1267 5.96652 10.1248 5.89902L10.8242 5.02527C10.8608 4.97939 10.8862 4.92554 10.8983 4.86806C10.9103 4.81058 10.9087 4.75107 10.8935 4.69433C10.7787 4.26343 10.6072 3.84967 10.3835 3.46386C10.3542 3.41338 10.3135 3.37045 10.2647 3.33846C10.2159 3.30648 10.1603 3.28634 10.1023 3.27964L8.9904 3.15589C8.94415 3.10714 8.89728 3.06027 8.84978 3.01527L8.71853 1.90058C8.71178 1.84255 8.69156 1.78691 8.6595 1.73808C8.62743 1.68925 8.5844 1.64858 8.53384 1.61933C8.14806 1.39585 7.73428 1.22466 7.30337 1.11027C7.24663 1.09511 7.18712 1.09349 7.12964 1.10554C7.07216 1.11759 7.01831 1.14297 6.97243 1.17964L6.10103 1.87527C6.03353 1.87527 5.96603 1.87527 5.89853 1.87527L5.02478 1.1773C4.9789 1.14063 4.92505 1.11524 4.86757 1.10319C4.81009 1.09114 4.75058 1.09276 4.69384 1.10792C4.26294 1.22278 3.84918 1.39427 3.46337 1.61792C3.4129 1.64723 3.36996 1.68792 3.33798 1.73674C3.30599 1.78557 3.28585 1.84119 3.27915 1.89917L3.1554 3.01292C3.10665 3.05948 3.05978 3.10636 3.01478 3.15355L1.90009 3.28152C1.84206 3.28827 1.78642 3.30848 1.73759 3.34055C1.68876 3.37261 1.6481 3.41564 1.61884 3.4662C1.39541 3.85206 1.22407 4.26582 1.10931 4.69667C1.09421 4.75345 1.09267 4.81298 1.1048 4.87046C1.11693 4.92795 1.1424 4.98177 1.17915 5.02761L1.87478 5.89902C1.87478 5.96652 1.87478 6.03402 1.87478 6.10152L1.17681 6.97527C1.14014 7.02114 1.11475 7.07499 1.1027 7.13247C1.09065 7.18995 1.09227 7.24946 1.10743 7.3062C1.22229 7.7371 1.39378 8.15087 1.61743 8.53667C1.64674 8.58715 1.68743 8.63009 1.73626 8.66207C1.78508 8.69405 1.8407 8.71419 1.89868 8.72089L3.01056 8.84464C3.05712 8.89339 3.104 8.94027 3.15118 8.98527L3.28103 10.1C3.28778 10.158 3.30799 10.2136 3.34006 10.2625C3.37212 10.3113 3.41515 10.3519 3.46572 10.3812C3.85157 10.6046 4.26533 10.776 4.69618 10.8907C4.75296 10.9058 4.81249 10.9074 4.86997 10.8952C4.92746 10.8831 4.98129 10.8576 5.02712 10.8209L5.89853 10.1253C5.96603 10.1271 6.03353 10.1271 6.10103 10.1253L6.97478 10.8246C7.02065 10.8613 7.0745 10.8867 7.13198 10.8987C7.18947 10.9108 7.24897 10.9092 7.30572 10.894C7.73668 10.7794 8.15047 10.6079 8.53618 10.384C8.58666 10.3547 8.6296 10.314 8.66158 10.2652C8.69356 10.2164 8.7137 10.1607 8.7204 10.1028L8.84415 8.99089C8.8929 8.94464 8.93978 8.89777 8.98478 8.85027L10.0995 8.71902C10.1575 8.71227 10.2131 8.69205 10.262 8.65999C10.3108 8.62792 10.3515 8.58489 10.3807 8.53433C10.6041 8.14847 10.7755 7.73472 10.8902 7.30386C10.9053 7.24708 10.9069 7.18755 10.8948 7.13007C10.8826 7.07259 10.8572 7.01876 10.8204 6.97292L10.1248 6.10152ZM5.99978 7.87527C5.62894 7.87527 5.26643 7.7653 4.95808 7.55927C4.64974 7.35324 4.40942 7.06041 4.2675 6.7178C4.12559 6.37519 4.08846 5.99819 4.1608 5.63447C4.23315 5.27076 4.41173 4.93666 4.67395 4.67444C4.93618 4.41222 5.27027 4.23364 5.63398 4.16129C5.9977 4.08895 6.3747 4.12608 6.71731 4.26799C7.05992 4.40991 7.35276 4.65023 7.55878 4.95857C7.76481 5.26691 7.87478 5.62943 7.87478 6.00027C7.87478 6.49755 7.67723 6.97446 7.3256 7.32609C6.97397 7.67772 6.49706 7.87527 5.99978 7.87527Z" fill="#08A4BB"/>
</svg>
