<svg width="12" height="12" viewBox="0 0 12 12" fill="none" xmlns="http://www.w3.org/2000/svg">
<path d="M9.93637 9.37508C9.93641 9.62138 9.88252 9.86471 9.7785 10.088C9.67449 10.3112 9.52285 10.509 9.33426 10.6674C9.14566 10.8258 8.92468 10.9411 8.68681 11.005C8.44895 11.0689 8.19998 11.08 7.95738 11.0374C7.71478 10.9949 7.48443 10.8998 7.28251 10.7587C7.0806 10.6177 6.912 10.4341 6.78857 10.221C6.66514 10.0078 6.58986 9.77026 6.56802 9.52493C6.54618 9.2796 6.57831 9.03246 6.66216 8.80086L4.17778 7.20477C3.94051 7.43752 3.63978 7.59501 3.31334 7.65749C2.98689 7.71998 2.64926 7.68467 2.34281 7.556C2.03636 7.42733 1.77472 7.21102 1.59073 6.93422C1.40674 6.65742 1.30859 6.33245 1.30859 6.00008C1.30859 5.66771 1.40674 5.34274 1.59073 5.06594C1.77472 4.78914 2.03636 4.57284 2.34281 4.44417C2.64926 4.3155 2.98689 4.28019 3.31334 4.34267C3.63978 4.40516 3.94051 4.56265 4.17778 4.7954L6.66216 3.20165C6.51989 2.81073 6.52665 2.3811 6.68115 1.99486C6.83564 1.60861 7.12703 1.29283 7.49963 1.10785C7.87224 0.92287 8.29994 0.881665 8.70101 0.992107C9.10208 1.10255 9.44839 1.3569 9.67378 1.70654C9.89917 2.05619 9.98782 2.47663 9.92281 2.88751C9.85779 3.2984 9.64366 3.67092 9.32134 3.93391C8.99901 4.19689 8.59109 4.33189 8.17552 4.31311C7.75994 4.29433 7.36586 4.12309 7.06856 3.83211L4.58419 5.42821C4.71846 5.79925 4.71846 6.20561 4.58419 6.57665L7.06856 8.17274C7.30576 7.9406 7.60615 7.78356 7.93214 7.72126C8.25814 7.65897 8.59527 7.69418 8.90135 7.82251C9.20743 7.95084 9.46887 8.16657 9.65297 8.44272C9.83707 8.71888 9.93565 9.04319 9.93637 9.37508Z" fill="#08A4BB"/>
</svg>
