<svg width="10" height="10" viewBox="0 0 10 10" fill="none" xmlns="http://www.w3.org/2000/svg">
<path d="M4.625 9.12524C4.625 9.2247 4.58549 9.32008 4.51516 9.39041C4.44484 9.46074 4.34946 9.50024 4.25 9.50024H1.25C1.15054 9.50024 1.05516 9.46074 0.984835 9.39041C0.914509 9.32008 0.875 9.2247 0.875 9.12524V0.875244C0.875 0.775788 0.914509 0.680405 0.984835 0.610079C1.05516 0.539753 1.15054 0.500244 1.25 0.500244H4.25C4.34946 0.500244 4.44484 0.539753 4.51516 0.610079C4.58549 0.680405 4.625 0.775788 4.625 0.875244C4.625 0.9747 4.58549 1.07008 4.51516 1.14041C4.44484 1.21074 4.34946 1.25024 4.25 1.25024H1.625V8.75024H4.25C4.34946 8.75024 4.44484 8.78975 4.51516 8.86008C4.58549 8.9304 4.625 9.02579 4.625 9.12524ZM9.76531 4.73493L7.89031 2.85993C7.83787 2.80743 7.77102 2.77166 7.69824 2.75717C7.62546 2.74268 7.55001 2.7501 7.48145 2.77851C7.4129 2.80692 7.35431 2.85503 7.3131 2.91675C7.2719 2.97847 7.24994 3.05103 7.25 3.12524V4.62524H4.25C4.15054 4.62524 4.05516 4.66475 3.98484 4.73508C3.91451 4.80541 3.875 4.90079 3.875 5.00024C3.875 5.0997 3.91451 5.19508 3.98484 5.26541C4.05516 5.33574 4.15054 5.37524 4.25 5.37524H7.25V6.87524C7.24994 6.94946 7.2719 7.02202 7.3131 7.08374C7.35431 7.14546 7.4129 7.19357 7.48145 7.22198C7.55001 7.25038 7.62546 7.25781 7.69824 7.24332C7.77102 7.22882 7.83787 7.19306 7.89031 7.14056L9.76531 5.26556C9.80018 5.23073 9.82784 5.18937 9.84671 5.14385C9.86558 5.09832 9.87529 5.04952 9.87529 5.00024C9.87529 4.95096 9.86558 4.90217 9.84671 4.85664C9.82784 4.81112 9.80018 4.76976 9.76531 4.73493Z" fill="#08A4BB"/>
</svg>
