<svg width="43" height="46" viewBox="0 0 43 46" fill="none" xmlns="http://www.w3.org/2000/svg">
<g filter="url(#filter0_di_4289_11300)">
<path d="M41.1301 20.2455L39.4405 18.7637C39.0308 18.4039 38.8159 17.8661 38.8789 17.3234C38.9276 16.9019 38.9537 16.4732 38.9537 16.0387C38.9537 15.6041 38.9276 15.1743 38.8789 14.7528C38.816 14.2102 39.0309 13.6735 39.4405 13.3125L41.1301 11.8307C41.7035 11.3285 41.8318 10.4855 41.4352 9.83478L39.6293 6.86759C39.2316 6.2169 38.4242 5.94502 37.7141 6.22287L35.609 7.05044C35.0996 7.24993 34.5261 7.1799 34.0725 6.87356C33.5845 6.54586 33.068 6.25498 32.529 6.00564C32.0338 5.77764 31.6776 5.32527 31.5839 4.7874L31.1945 2.55993C31.0626 1.80953 30.4107 1.26099 29.6484 1.26099H26.1742C25.4119 1.26099 24.76 1.80953 24.6282 2.55993L24.2388 4.7874C24.145 5.32527 23.7888 5.77764 23.2937 6.00564C22.7547 6.25498 22.2382 6.54586 21.7501 6.87356C21.2966 7.1799 20.7231 7.24993 20.2137 7.05044L18.1086 6.22287C17.3985 5.94502 16.5911 6.2169 16.1934 6.86759L14.3874 9.83478C13.9909 10.4855 14.1191 11.3285 14.6926 11.8307L16.3822 13.3125C16.7919 13.6735 17.0068 14.2101 16.9438 14.7528C16.8951 15.1743 16.869 15.6041 16.869 16.0387C16.869 16.4732 16.8951 16.9019 16.9438 17.3234C17.0067 17.866 16.7918 18.4039 16.3822 18.7637L14.6926 20.2455C14.1192 20.7489 13.9909 21.5907 14.3874 22.2414L16.1934 25.2086C16.5911 25.8605 17.3985 26.1312 18.1086 25.8533L20.2137 25.0269C20.7231 24.8263 21.2966 24.8963 21.7501 25.2026C22.2382 25.5315 22.7547 25.8225 23.2937 26.0706C23.7889 26.2986 24.1451 26.7521 24.2388 27.29L24.6282 29.5163C24.76 30.2678 25.4119 30.8152 26.1742 30.8152H29.6484C30.4106 30.8152 31.0625 30.2678 31.1943 29.5163L31.5837 27.29C31.6775 26.7521 32.0337 26.2986 32.5288 26.0706C33.0678 25.8224 33.5844 25.5315 34.0724 25.2026C34.5259 24.8963 35.0994 24.8263 35.6088 25.0269L37.714 25.8533C38.424 26.1312 39.2314 25.8605 39.6291 25.2086L41.4351 22.2414C41.8318 21.5907 41.7035 20.749 41.1301 20.2455ZM27.9113 21.8187C24.7186 21.8187 22.1301 19.2303 22.1301 16.0387C22.1301 12.8459 24.7185 10.2575 27.9113 10.2575C31.1042 10.2575 33.6926 12.8459 33.6926 16.0387C33.6925 19.2303 31.1041 21.8187 27.9113 21.8187Z" fill="#2FBBA4"/>
</g>
<g filter="url(#filter1_di_4289_11300)">
<path d="M27.911 7.01099C22.9265 7.01099 18.8848 11.0516 18.8848 16.0372C18.8848 21.0217 22.9265 25.0622 27.911 25.0622C32.8955 25.0622 36.9373 21.0216 36.9373 16.0372C36.9372 11.0515 32.8954 7.01099 27.911 7.01099ZM27.911 21.8172C24.7183 21.8172 22.1298 19.2288 22.1298 16.0372C22.1298 12.8444 24.7182 10.2559 27.911 10.2559C31.1038 10.2559 33.6922 12.8443 33.6922 16.0372C33.6921 19.2288 31.1038 21.8172 27.911 21.8172Z" fill="#2F648E"/>
</g>
<g filter="url(#filter2_di_4289_11300)">
<path d="M27.9125 8.81177C23.9227 8.81177 20.6875 12.046 20.6875 16.0368C20.6875 20.0266 23.9227 23.2608 27.9125 23.2608C31.9023 23.2608 35.1375 20.0266 35.1375 16.0368C35.1375 12.046 31.9023 8.81177 27.9125 8.81177ZM27.9125 20.6635C25.3568 20.6635 23.285 18.5916 23.285 16.0369C23.285 13.4812 25.3568 11.4093 27.9125 11.4093C30.4682 11.4093 32.54 13.4812 32.54 16.0369C32.54 18.5915 30.4681 20.6635 27.9125 20.6635Z" fill="#2FBBA4"/>
</g>
<g filter="url(#filter3_di_4289_11300)">
<path d="M21.7425 36.4586L20.5154 35.3824C20.2179 35.1212 20.0619 34.7306 20.1075 34.3365C20.1429 34.0304 20.1619 33.7191 20.1619 33.4035C20.1619 33.0879 20.1429 32.7757 20.1075 32.4696C20.0618 32.0754 20.2179 31.6857 20.5154 31.4236L21.7425 30.3474C22.159 29.9827 22.2521 29.3705 21.9641 28.8979L20.6526 26.743C20.3637 26.2704 19.7773 26.073 19.2616 26.2747L17.7328 26.8757C17.3629 27.0206 16.9463 26.9697 16.6169 26.7473C16.2625 26.5093 15.8874 26.298 15.496 26.1169C15.1364 25.9514 14.8777 25.6229 14.8096 25.2322L14.5268 23.6145C14.431 23.0695 13.9576 22.6711 13.404 22.6711H10.8809C10.3273 22.6711 9.8539 23.0695 9.75814 23.6145L9.47534 25.2322C9.40724 25.6229 9.14848 25.9514 8.78892 26.1169C8.39741 26.298 8.0223 26.5093 7.66795 26.7473C7.33857 26.9697 6.92201 27.0207 6.55211 26.8757L5.02324 26.2747C4.50757 26.073 3.92119 26.2704 3.63233 26.743L2.32078 28.8979C2.03277 29.3705 2.12591 29.9827 2.54239 30.3474L3.76945 31.4236C4.06697 31.6857 4.223 32.0754 4.17735 32.4696C4.14196 32.7757 4.12304 33.0878 4.12304 33.4035C4.12304 33.7192 4.14204 34.0304 4.17735 34.3365C4.22308 34.7306 4.06697 35.1212 3.76945 35.3824L2.54239 36.4586C2.12591 36.8242 2.03277 37.4356 2.32078 37.9081L3.63233 40.063C3.92119 40.5364 4.50757 40.7331 5.02324 40.5313L6.55211 39.9311C6.92201 39.7854 7.33857 39.8363 7.66795 40.0587C8.02238 40.2976 8.3975 40.5088 8.78892 40.6891C9.14848 40.8546 9.40716 41.1841 9.47534 41.5747L9.75814 43.1915C9.8539 43.7373 10.3273 44.1348 10.8809 44.1348H13.404C13.9576 44.1348 14.431 43.7372 14.5268 43.1915L14.8096 41.5747C14.8777 41.184 15.1364 40.8546 15.496 40.6891C15.8875 40.5088 16.2626 40.2976 16.6169 40.0587C16.9463 39.8363 17.3628 39.7854 17.7328 39.9311L19.2616 40.5313C19.7773 40.7331 20.3637 40.5365 20.6526 40.063L21.9641 37.9081C22.2521 37.4356 22.159 36.8242 21.7425 36.4586ZM12.1425 37.6012C9.82371 37.6012 7.94395 35.7213 7.94395 33.4035C7.94395 31.0847 9.8238 29.2049 12.1425 29.2049C14.4612 29.2049 16.341 31.0848 16.341 33.4035C16.341 35.7213 14.4612 37.6012 12.1425 37.6012Z" fill="#2FBBA4"/>
</g>
<g filter="url(#filter4_di_4289_11300)">
<path d="M12.1431 26.8508C8.52314 26.8508 5.58789 29.7852 5.58789 33.4061C5.58789 37.026 8.52322 39.9604 12.1431 39.9604C15.763 39.9604 18.6983 37.026 18.6983 33.4061C18.6983 29.7852 15.7631 26.8508 12.1431 26.8508ZM12.1431 37.6038C9.82435 37.6038 7.94458 35.7239 7.94458 33.4061C7.94458 31.0873 9.82443 29.2075 12.1431 29.2075C14.4618 29.2075 16.3417 31.0874 16.3417 33.4061C16.3417 35.7239 14.4618 37.6038 12.1431 37.6038Z" fill="#2F648E"/>
</g>
<g filter="url(#filter5_di_4289_11300)">
<path d="M22.3375 4.19738L20.4703 6.06453C20.2198 6.3159 19.8104 6.3117 19.5649 6.05108C19.3287 5.80056 19.353 5.39955 19.5977 5.15491L20.4947 4.25707C18.2602 3.83252 15.86 4.48153 14.1341 6.20661C12.9399 7.40156 12.2604 8.91958 12.0961 10.4817C12.0626 10.8007 11.7989 11.0456 11.4781 11.0456H11.4644C11.0945 11.0456 10.809 10.7243 10.8472 10.3564C11.0309 8.58549 11.7748 6.86234 13.0789 5.48446C14.9831 3.47271 17.6405 2.62278 20.1819 2.93299L19.5791 2.33022C19.3286 2.08054 19.3328 1.67112 19.5934 1.42564C19.8439 1.18941 20.2449 1.21379 20.4896 1.45759L22.3374 3.30625C22.5846 3.55257 22.5838 3.9519 22.3375 4.19738Z" fill="#2F648E"/>
</g>
<g filter="url(#filter6_di_4289_11300)">
<path d="M24.4771 32.6413L22.61 34.5085C22.3586 34.759 22.3628 35.1684 22.6234 35.4139C22.8739 35.6502 23.2749 35.6258 23.5196 35.3811L24.4174 34.4841C24.842 36.7187 24.193 39.1188 22.4679 40.8447C21.2729 42.0389 19.7549 42.7184 18.1928 42.8827C17.8738 42.9163 17.6289 43.1799 17.6289 43.5007V43.5144C17.6289 43.8843 17.9502 44.1698 18.3181 44.1316C20.089 43.9479 21.8121 43.204 23.19 41.8999C25.2018 39.9957 26.0517 37.3383 25.7415 34.7969L26.3443 35.3997C26.594 35.6502 27.0034 35.646 27.2488 35.3854C27.4851 35.1349 27.4607 34.7339 27.2169 34.4893L25.3682 32.6414C25.1219 32.3942 24.7226 32.395 24.4771 32.6413Z" fill="#2F648E"/>
</g>
<defs>
<filter id="filter0_di_4289_11300" x="12.9714" y="0.568709" width="30.6706" height="31.9277" filterUnits="userSpaceOnUse" color-interpolation-filters="sRGB">
<feFlood flood-opacity="0" result="BackgroundImageFix"/>
<feColorMatrix in="SourceAlpha" type="matrix" values="0 0 0 0 0 0 0 0 0 0 0 0 0 0 0 0 0 0 127 0" result="hardAlpha"/>
<feMorphology radius="0.494484" operator="dilate" in="SourceAlpha" result="effect1_dropShadow_4289_11300"/>
<feOffset dy="0.494484"/>
<feGaussianBlur stdDeviation="0.346139"/>
<feComposite in2="hardAlpha" operator="out"/>
<feColorMatrix type="matrix" values="0 0 0 0 0.184314 0 0 0 0 0.733333 0 0 0 0 0.643137 0 0 0 0.1 0"/>
<feBlend mode="normal" in2="BackgroundImageFix" result="effect1_dropShadow_4289_11300"/>
<feBlend mode="normal" in="SourceGraphic" in2="effect1_dropShadow_4289_11300" result="shape"/>
<feColorMatrix in="SourceAlpha" type="matrix" values="0 0 0 0 0 0 0 0 0 0 0 0 0 0 0 0 0 0 127 0" result="hardAlpha"/>
<feOffset dx="1.97793" dy="-0.287412"/>
<feGaussianBlur stdDeviation="0.988967"/>
<feComposite in2="hardAlpha" operator="arithmetic" k2="-1" k3="1"/>
<feColorMatrix type="matrix" values="0 0 0 0 0 0 0 0 0 0 0 0 0 0 0 0 0 0 0.25 0"/>
<feBlend mode="normal" in2="shape" result="effect2_innerShadow_4289_11300"/>
</filter>
<filter id="filter1_di_4289_11300" x="15.8453" y="3.2116" width="26.1581" height="26.1566" filterUnits="userSpaceOnUse" color-interpolation-filters="sRGB">
<feFlood flood-opacity="0" result="BackgroundImageFix"/>
<feColorMatrix in="SourceAlpha" type="matrix" values="0 0 0 0 0 0 0 0 0 0 0 0 0 0 0 0 0 0 127 0" result="hardAlpha"/>
<feMorphology radius="1.26646" operator="dilate" in="SourceAlpha" result="effect1_dropShadow_4289_11300"/>
<feOffset dy="1.26646"/>
<feGaussianBlur stdDeviation="0.886523"/>
<feComposite in2="hardAlpha" operator="out"/>
<feColorMatrix type="matrix" values="0 0 0 0 0.184314 0 0 0 0 0.733333 0 0 0 0 0.643137 0 0 0 0.1 0"/>
<feBlend mode="normal" in2="BackgroundImageFix" result="effect1_dropShadow_4289_11300"/>
<feBlend mode="normal" in="SourceGraphic" in2="effect1_dropShadow_4289_11300" result="shape"/>
<feColorMatrix in="SourceAlpha" type="matrix" values="0 0 0 0 0 0 0 0 0 0 0 0 0 0 0 0 0 0 127 0" result="hardAlpha"/>
<feOffset dx="5.06585" dy="-3.79939"/>
<feGaussianBlur stdDeviation="2.53292"/>
<feComposite in2="hardAlpha" operator="arithmetic" k2="-1" k3="1"/>
<feColorMatrix type="matrix" values="0 0 0 0 0 0 0 0 0 0 0 0 0 0 0 0 0 0 0.25 0"/>
<feBlend mode="normal" in2="shape" result="effect2_innerShadow_4289_11300"/>
</filter>
<filter id="filter2_di_4289_11300" x="18.7451" y="6.38375" width="19.63" height="19.6287" filterUnits="userSpaceOnUse" color-interpolation-filters="sRGB">
<feFlood flood-opacity="0" result="BackgroundImageFix"/>
<feColorMatrix in="SourceAlpha" type="matrix" values="0 0 0 0 0 0 0 0 0 0 0 0 0 0 0 0 0 0 127 0" result="hardAlpha"/>
<feMorphology radius="0.809339" operator="dilate" in="SourceAlpha" result="effect1_dropShadow_4289_11300"/>
<feOffset dy="0.809339"/>
<feGaussianBlur stdDeviation="0.566537"/>
<feComposite in2="hardAlpha" operator="out"/>
<feColorMatrix type="matrix" values="0 0 0 0 0.184314 0 0 0 0 0.733333 0 0 0 0 0.643137 0 0 0 0.1 0"/>
<feBlend mode="normal" in2="BackgroundImageFix" result="effect1_dropShadow_4289_11300"/>
<feBlend mode="normal" in="SourceGraphic" in2="effect1_dropShadow_4289_11300" result="shape"/>
<feColorMatrix in="SourceAlpha" type="matrix" values="0 0 0 0 0 0 0 0 0 0 0 0 0 0 0 0 0 0 127 0" result="hardAlpha"/>
<feOffset dx="3.23735" dy="-2.42802"/>
<feGaussianBlur stdDeviation="1.61868"/>
<feComposite in2="hardAlpha" operator="arithmetic" k2="-1" k3="1"/>
<feColorMatrix type="matrix" values="0 0 0 0 0 0 0 0 0 0 0 0 0 0 0 0 0 0 0.25 0"/>
<feBlend mode="normal" in2="shape" result="effect2_innerShadow_4289_11300"/>
</filter>
<filter id="filter3_di_4289_11300" x="0.967536" y="21.9789" width="23.1413" height="23.8371" filterUnits="userSpaceOnUse" color-interpolation-filters="sRGB">
<feFlood flood-opacity="0" result="BackgroundImageFix"/>
<feColorMatrix in="SourceAlpha" type="matrix" values="0 0 0 0 0 0 0 0 0 0 0 0 0 0 0 0 0 0 127 0" result="hardAlpha"/>
<feMorphology radius="0.494484" operator="dilate" in="SourceAlpha" result="effect1_dropShadow_4289_11300"/>
<feOffset dy="0.494484"/>
<feGaussianBlur stdDeviation="0.346139"/>
<feComposite in2="hardAlpha" operator="out"/>
<feColorMatrix type="matrix" values="0 0 0 0 0.184314 0 0 0 0 0.733333 0 0 0 0 0.643137 0 0 0 0.1 0"/>
<feBlend mode="normal" in2="BackgroundImageFix" result="effect1_dropShadow_4289_11300"/>
<feBlend mode="normal" in="SourceGraphic" in2="effect1_dropShadow_4289_11300" result="shape"/>
<feColorMatrix in="SourceAlpha" type="matrix" values="0 0 0 0 0 0 0 0 0 0 0 0 0 0 0 0 0 0 127 0" result="hardAlpha"/>
<feOffset dx="1.97793" dy="-0.287412"/>
<feGaussianBlur stdDeviation="0.988967"/>
<feComposite in2="hardAlpha" operator="arithmetic" k2="-1" k3="1"/>
<feColorMatrix type="matrix" values="0 0 0 0 0 0 0 0 0 0 0 0 0 0 0 0 0 0 0.25 0"/>
<feBlend mode="normal" in2="shape" result="effect2_innerShadow_4289_11300"/>
</filter>
<filter id="filter4_di_4289_11300" x="2.54838" y="23.0514" width="21.2157" height="21.215" filterUnits="userSpaceOnUse" color-interpolation-filters="sRGB">
<feFlood flood-opacity="0" result="BackgroundImageFix"/>
<feColorMatrix in="SourceAlpha" type="matrix" values="0 0 0 0 0 0 0 0 0 0 0 0 0 0 0 0 0 0 127 0" result="hardAlpha"/>
<feMorphology radius="1.26646" operator="dilate" in="SourceAlpha" result="effect1_dropShadow_4289_11300"/>
<feOffset dy="1.26646"/>
<feGaussianBlur stdDeviation="0.886523"/>
<feComposite in2="hardAlpha" operator="out"/>
<feColorMatrix type="matrix" values="0 0 0 0 0.184314 0 0 0 0 0.733333 0 0 0 0 0.643137 0 0 0 0.1 0"/>
<feBlend mode="normal" in2="BackgroundImageFix" result="effect1_dropShadow_4289_11300"/>
<feBlend mode="normal" in="SourceGraphic" in2="effect1_dropShadow_4289_11300" result="shape"/>
<feColorMatrix in="SourceAlpha" type="matrix" values="0 0 0 0 0 0 0 0 0 0 0 0 0 0 0 0 0 0 127 0" result="hardAlpha"/>
<feOffset dx="5.06585" dy="-3.79939"/>
<feGaussianBlur stdDeviation="2.53292"/>
<feComposite in2="hardAlpha" operator="arithmetic" k2="-1" k3="1"/>
<feColorMatrix type="matrix" values="0 0 0 0 0 0 0 0 0 0 0 0 0 0 0 0 0 0 0.25 0"/>
<feBlend mode="normal" in2="shape" result="effect2_innerShadow_4289_11300"/>
</filter>
<filter id="filter5_di_4289_11300" x="7.80424" y="-2.5384" width="19.7841" height="17.89" filterUnits="userSpaceOnUse" color-interpolation-filters="sRGB">
<feFlood flood-opacity="0" result="BackgroundImageFix"/>
<feColorMatrix in="SourceAlpha" type="matrix" values="0 0 0 0 0 0 0 0 0 0 0 0 0 0 0 0 0 0 127 0" result="hardAlpha"/>
<feMorphology radius="1.26646" operator="dilate" in="SourceAlpha" result="effect1_dropShadow_4289_11300"/>
<feOffset dy="1.26646"/>
<feGaussianBlur stdDeviation="0.886523"/>
<feComposite in2="hardAlpha" operator="out"/>
<feColorMatrix type="matrix" values="0 0 0 0 0.184314 0 0 0 0 0.733333 0 0 0 0 0.643137 0 0 0 0.1 0"/>
<feBlend mode="normal" in2="BackgroundImageFix" result="effect1_dropShadow_4289_11300"/>
<feBlend mode="normal" in="SourceGraphic" in2="effect1_dropShadow_4289_11300" result="shape"/>
<feColorMatrix in="SourceAlpha" type="matrix" values="0 0 0 0 0 0 0 0 0 0 0 0 0 0 0 0 0 0 127 0" result="hardAlpha"/>
<feOffset dx="5.06585" dy="-3.79939"/>
<feGaussianBlur stdDeviation="2.53292"/>
<feComposite in2="hardAlpha" operator="arithmetic" k2="-1" k3="1"/>
<feColorMatrix type="matrix" values="0 0 0 0 0 0 0 0 0 0 0 0 0 0 0 0 0 0 0.25 0"/>
<feBlend mode="normal" in2="shape" result="effect2_innerShadow_4289_11300"/>
</filter>
<filter id="filter6_di_4289_11300" x="14.5894" y="28.6569" width="17.8895" height="19.7841" filterUnits="userSpaceOnUse" color-interpolation-filters="sRGB">
<feFlood flood-opacity="0" result="BackgroundImageFix"/>
<feColorMatrix in="SourceAlpha" type="matrix" values="0 0 0 0 0 0 0 0 0 0 0 0 0 0 0 0 0 0 127 0" result="hardAlpha"/>
<feMorphology radius="1.26646" operator="dilate" in="SourceAlpha" result="effect1_dropShadow_4289_11300"/>
<feOffset dy="1.26646"/>
<feGaussianBlur stdDeviation="0.886523"/>
<feComposite in2="hardAlpha" operator="out"/>
<feColorMatrix type="matrix" values="0 0 0 0 0.184314 0 0 0 0 0.733333 0 0 0 0 0.643137 0 0 0 0.1 0"/>
<feBlend mode="normal" in2="BackgroundImageFix" result="effect1_dropShadow_4289_11300"/>
<feBlend mode="normal" in="SourceGraphic" in2="effect1_dropShadow_4289_11300" result="shape"/>
<feColorMatrix in="SourceAlpha" type="matrix" values="0 0 0 0 0 0 0 0 0 0 0 0 0 0 0 0 0 0 127 0" result="hardAlpha"/>
<feOffset dx="5.06585" dy="-3.79939"/>
<feGaussianBlur stdDeviation="2.53292"/>
<feComposite in2="hardAlpha" operator="arithmetic" k2="-1" k3="1"/>
<feColorMatrix type="matrix" values="0 0 0 0 0 0 0 0 0 0 0 0 0 0 0 0 0 0 0.25 0"/>
<feBlend mode="normal" in2="shape" result="effect2_innerShadow_4289_11300"/>
</filter>
</defs>
</svg>
