<svg width="46" height="46" viewBox="0 0 46 46" fill="none" xmlns="http://www.w3.org/2000/svg">
<g clip-path="url(#clip0_4318_11551)">
<g filter="url(#filter0_di_4318_11551)">
<path d="M36.5796 13.2171C38.2966 13.2171 39.6885 11.8201 39.6885 10.1082C39.6885 8.39625 38.2916 6.99927 36.5796 6.99927C34.8677 6.99927 33.4707 8.39625 33.4707 10.1082C33.4707 11.8201 34.8677 13.2171 36.5796 13.2171Z" fill="#2FBBA4"/>
</g>
<g filter="url(#filter1_di_4318_11551)">
<path d="M10.3062 13.2171C12.0232 13.2171 13.4151 11.8201 13.4151 10.1082C13.4151 8.39625 12.0181 6.99927 10.3062 6.99927C8.59424 6.99927 7.19727 8.39625 7.19727 10.1082C7.19727 11.8201 8.59424 13.2171 10.3062 13.2171Z" fill="#2FBBA4"/>
</g>
<g filter="url(#filter2_di_4318_11551)">
<path d="M16.874 17.274C16.2543 16.4359 15.5024 15.7399 14.6236 15.2065C14.1715 14.9271 13.6787 14.6934 13.1555 14.5106C11.342 13.8705 9.27445 13.8705 7.45584 14.5106C4.19453 15.6586 2 18.8691 2 22.4962V23.0956H12.4342C13.247 20.7335 14.8014 18.6913 16.874 17.274Z" fill="#2FBBA4"/>
</g>
<g filter="url(#filter3_di_4318_11551)">
<path d="M39.424 14.5106C37.6054 13.8705 35.543 13.8705 33.7244 14.5106C33.2062 14.6934 32.7084 14.9271 32.2563 15.2065C31.3825 15.7399 30.6307 16.4359 30.0059 17.274C32.0683 18.6812 33.6329 20.7284 34.4457 23.0956H44.8748V22.4962C44.8748 18.8691 42.6854 15.6586 39.419 14.5106H39.424Z" fill="#2FBBA4"/>
</g>
<g filter="url(#filter4_di_4318_11551)">
<path d="M30.4477 26.4693H31.992C31.9463 25.494 31.7482 24.544 31.3824 23.6551C31.0065 22.7254 30.4579 21.8771 29.7721 21.1253L28.6799 22.2174C28.5986 22.2987 28.497 22.3343 28.3903 22.3343C28.2837 22.3343 28.1821 22.2936 28.1008 22.2174C27.9433 22.06 27.9433 21.8009 28.1008 21.6434L29.193 20.5512C27.7147 19.205 25.8453 18.4278 23.8438 18.3364V19.8756C23.8438 20.0991 23.6609 20.282 23.4374 20.282C23.2139 20.282 23.031 20.0991 23.031 19.8756V18.3313C21.4816 18.4024 19.9932 18.885 18.7029 19.7435C18.3422 19.9823 18.0019 20.2566 17.6819 20.5512L18.774 21.6383C18.9315 21.7958 18.9315 22.0549 18.774 22.2124C18.6928 22.2936 18.5912 22.3292 18.4845 22.3292C18.3778 22.3292 18.2762 22.2886 18.1949 22.2124L17.1027 21.1202C16.4169 21.872 15.8683 22.7204 15.4924 23.65C15.1266 24.544 14.9285 25.494 14.8828 26.4693H16.4271C16.6506 26.4693 16.8335 26.6522 16.8335 26.8757C16.8335 27.0992 16.6506 27.2821 16.4271 27.2821H14.8828C14.9743 29.2785 15.7515 31.153 17.1027 32.6313L18.1949 31.5391C18.3524 31.3816 18.6115 31.3816 18.769 31.5391C18.9264 31.6966 18.9264 31.9557 18.769 32.1131L17.6768 33.2053C19.155 34.5515 21.0295 35.3287 23.0259 35.4202V33.8759C23.0259 33.6524 23.2088 33.4695 23.4323 33.4695C23.6558 33.4695 23.8387 33.6524 23.8387 33.8759V35.4202C25.8402 35.3287 27.7096 34.5515 29.1879 33.2053L28.0957 32.1131C27.9382 31.9557 27.9382 31.6966 28.0957 31.5391C28.2532 31.3816 28.5122 31.3816 28.6697 31.5391L29.7619 32.6313C31.1132 31.1479 31.8853 29.2785 31.9818 27.2821H30.4375C30.214 27.2821 30.0311 27.0992 30.0311 26.8757C30.0311 26.6522 30.214 26.4693 30.4375 26.4693H30.4477ZM23.8489 26.8757C23.8489 26.9824 23.8082 27.0891 23.732 27.1653L20.8416 30.0558C20.7603 30.137 20.6587 30.1726 20.552 30.1726C20.4453 30.1726 20.3437 30.132 20.2625 30.0558C20.105 29.8983 20.105 29.6392 20.2625 29.4817L23.031 26.7132V22.9642C23.031 22.7407 23.2139 22.5578 23.4374 22.5578C23.6609 22.5578 23.8438 22.7407 23.8438 22.9642V26.8859L23.8489 26.8757Z" fill="#2F648E"/>
</g>
<g filter="url(#filter5_di_4318_11551)">
<path d="M29.2188 17.7135C29.1426 17.6627 29.0765 17.6272 29.0105 17.5865C27.3189 16.5756 25.4038 16.0422 23.4429 16.0422C21.482 16.0422 19.5618 16.5705 17.8905 17.5713C17.8042 17.617 17.7432 17.6577 17.6823 17.6983C15.4928 19.08 13.8723 21.178 13.1053 23.6215C12.7751 24.673 12.6074 25.7703 12.6074 26.8777C12.6074 32.8517 17.4689 37.7183 23.4429 37.7183C29.4169 37.7183 34.2784 32.8568 34.2784 26.8777C34.2784 25.7703 34.1107 24.6781 33.7805 23.6215C33.0135 21.1831 31.393 19.08 29.2188 17.7085V17.7135ZM30.0722 33.5172C28.2993 35.2901 25.9473 36.2654 23.4429 36.2654C20.9385 36.2654 18.5814 35.2901 16.8136 33.5172C15.0407 31.7443 14.0603 29.3872 14.0603 26.8828C14.0603 25.6535 14.294 24.4698 14.7461 23.3522C15.2134 22.2042 15.9043 21.1628 16.8034 20.2586C16.8034 20.2586 16.8034 20.2535 16.8085 20.2484C16.8136 20.2433 16.8136 20.2484 16.8187 20.2433C17.2606 19.8014 17.7432 19.4102 18.2614 19.0699C19.7904 18.0488 21.5786 17.5103 23.4327 17.5053H23.4429H23.4581C25.9575 17.5053 28.3044 18.4806 30.0671 20.2433C30.0671 20.2433 30.0722 20.2433 30.0773 20.2484C30.0773 20.2484 30.0773 20.2535 30.0824 20.2586C30.9815 21.1577 31.6724 22.1991 32.1397 23.3522C32.5969 24.4648 32.8255 25.6535 32.8255 26.8828C32.8255 29.3872 31.8502 31.7443 30.0722 33.5172Z" fill="#2F648E"/>
</g>
</g>
<defs>
<filter id="filter0_di_4318_11551" x="31.3024" y="4.28887" width="12" height="12" filterUnits="userSpaceOnUse" color-interpolation-filters="sRGB">
<feFlood flood-opacity="0" result="BackgroundImageFix"/>
<feColorMatrix in="SourceAlpha" type="matrix" values="0 0 0 0 0 0 0 0 0 0 0 0 0 0 0 0 0 0 127 0" result="hardAlpha"/>
<feMorphology radius="0.903467" operator="dilate" in="SourceAlpha" result="effect1_dropShadow_4318_11551"/>
<feOffset dy="0.903467"/>
<feGaussianBlur stdDeviation="0.632427"/>
<feComposite in2="hardAlpha" operator="out"/>
<feColorMatrix type="matrix" values="0 0 0 0 0.184314 0 0 0 0 0.733333 0 0 0 0 0.643137 0 0 0 0.1 0"/>
<feBlend mode="normal" in2="BackgroundImageFix" result="effect1_dropShadow_4318_11551"/>
<feBlend mode="normal" in="SourceGraphic" in2="effect1_dropShadow_4318_11551" result="shape"/>
<feColorMatrix in="SourceAlpha" type="matrix" values="0 0 0 0 0 0 0 0 0 0 0 0 0 0 0 0 0 0 127 0" result="hardAlpha"/>
<feOffset dx="3.61387" dy="-2.7104"/>
<feGaussianBlur stdDeviation="1.80693"/>
<feComposite in2="hardAlpha" operator="arithmetic" k2="-1" k3="1"/>
<feColorMatrix type="matrix" values="0 0 0 0 0 0 0 0 0 0 0 0 0 0 0 0 0 0 0.25 0"/>
<feBlend mode="normal" in2="shape" result="effect2_innerShadow_4318_11551"/>
</filter>
<filter id="filter1_di_4318_11551" x="5.02895" y="4.28887" width="12" height="12" filterUnits="userSpaceOnUse" color-interpolation-filters="sRGB">
<feFlood flood-opacity="0" result="BackgroundImageFix"/>
<feColorMatrix in="SourceAlpha" type="matrix" values="0 0 0 0 0 0 0 0 0 0 0 0 0 0 0 0 0 0 127 0" result="hardAlpha"/>
<feMorphology radius="0.903467" operator="dilate" in="SourceAlpha" result="effect1_dropShadow_4318_11551"/>
<feOffset dy="0.903467"/>
<feGaussianBlur stdDeviation="0.632427"/>
<feComposite in2="hardAlpha" operator="out"/>
<feColorMatrix type="matrix" values="0 0 0 0 0.184314 0 0 0 0 0.733333 0 0 0 0 0.643137 0 0 0 0.1 0"/>
<feBlend mode="normal" in2="BackgroundImageFix" result="effect1_dropShadow_4318_11551"/>
<feBlend mode="normal" in="SourceGraphic" in2="effect1_dropShadow_4318_11551" result="shape"/>
<feColorMatrix in="SourceAlpha" type="matrix" values="0 0 0 0 0 0 0 0 0 0 0 0 0 0 0 0 0 0 127 0" result="hardAlpha"/>
<feOffset dx="3.61387" dy="-2.7104"/>
<feGaussianBlur stdDeviation="1.80693"/>
<feComposite in2="hardAlpha" operator="arithmetic" k2="-1" k3="1"/>
<feColorMatrix type="matrix" values="0 0 0 0 0 0 0 0 0 0 0 0 0 0 0 0 0 0 0.25 0"/>
<feBlend mode="normal" in2="shape" result="effect2_innerShadow_4318_11551"/>
</filter>
<filter id="filter2_di_4318_11551" x="-0.16832" y="11.3201" width="20.6562" height="14.8474" filterUnits="userSpaceOnUse" color-interpolation-filters="sRGB">
<feFlood flood-opacity="0" result="BackgroundImageFix"/>
<feColorMatrix in="SourceAlpha" type="matrix" values="0 0 0 0 0 0 0 0 0 0 0 0 0 0 0 0 0 0 127 0" result="hardAlpha"/>
<feMorphology radius="0.903467" operator="dilate" in="SourceAlpha" result="effect1_dropShadow_4318_11551"/>
<feOffset dy="0.903467"/>
<feGaussianBlur stdDeviation="0.632427"/>
<feComposite in2="hardAlpha" operator="out"/>
<feColorMatrix type="matrix" values="0 0 0 0 0.184314 0 0 0 0 0.733333 0 0 0 0 0.643137 0 0 0 0.1 0"/>
<feBlend mode="normal" in2="BackgroundImageFix" result="effect1_dropShadow_4318_11551"/>
<feBlend mode="normal" in="SourceGraphic" in2="effect1_dropShadow_4318_11551" result="shape"/>
<feColorMatrix in="SourceAlpha" type="matrix" values="0 0 0 0 0 0 0 0 0 0 0 0 0 0 0 0 0 0 127 0" result="hardAlpha"/>
<feOffset dx="3.61387" dy="-2.7104"/>
<feGaussianBlur stdDeviation="1.80693"/>
<feComposite in2="hardAlpha" operator="arithmetic" k2="-1" k3="1"/>
<feColorMatrix type="matrix" values="0 0 0 0 0 0 0 0 0 0 0 0 0 0 0 0 0 0 0.25 0"/>
<feBlend mode="normal" in2="shape" result="effect2_innerShadow_4318_11551"/>
</filter>
<filter id="filter3_di_4318_11551" x="27.8375" y="11.3201" width="20.6513" height="14.8474" filterUnits="userSpaceOnUse" color-interpolation-filters="sRGB">
<feFlood flood-opacity="0" result="BackgroundImageFix"/>
<feColorMatrix in="SourceAlpha" type="matrix" values="0 0 0 0 0 0 0 0 0 0 0 0 0 0 0 0 0 0 127 0" result="hardAlpha"/>
<feMorphology radius="0.903467" operator="dilate" in="SourceAlpha" result="effect1_dropShadow_4318_11551"/>
<feOffset dy="0.903467"/>
<feGaussianBlur stdDeviation="0.632427"/>
<feComposite in2="hardAlpha" operator="out"/>
<feColorMatrix type="matrix" values="0 0 0 0 0.184314 0 0 0 0 0.733333 0 0 0 0 0.643137 0 0 0 0.1 0"/>
<feBlend mode="normal" in2="BackgroundImageFix" result="effect1_dropShadow_4318_11551"/>
<feBlend mode="normal" in="SourceGraphic" in2="effect1_dropShadow_4318_11551" result="shape"/>
<feColorMatrix in="SourceAlpha" type="matrix" values="0 0 0 0 0 0 0 0 0 0 0 0 0 0 0 0 0 0 127 0" result="hardAlpha"/>
<feOffset dx="3.61387" dy="-2.7104"/>
<feGaussianBlur stdDeviation="1.80693"/>
<feComposite in2="hardAlpha" operator="arithmetic" k2="-1" k3="1"/>
<feColorMatrix type="matrix" values="0 0 0 0 0 0 0 0 0 0 0 0 0 0 0 0 0 0 0.25 0"/>
<feBlend mode="normal" in2="shape" result="effect2_innerShadow_4318_11551"/>
</filter>
<filter id="filter4_di_4318_11551" x="13.618" y="15.6209" width="19.6391" height="21.9676" filterUnits="userSpaceOnUse" color-interpolation-filters="sRGB">
<feFlood flood-opacity="0" result="BackgroundImageFix"/>
<feColorMatrix in="SourceAlpha" type="matrix" values="0 0 0 0 0 0 0 0 0 0 0 0 0 0 0 0 0 0 127 0" result="hardAlpha"/>
<feOffset dy="0.903467"/>
<feGaussianBlur stdDeviation="0.632427"/>
<feComposite in2="hardAlpha" operator="out"/>
<feColorMatrix type="matrix" values="0 0 0 0 0.184314 0 0 0 0 0.733333 0 0 0 0 0.643137 0 0 0 0.1 0"/>
<feBlend mode="normal" in2="BackgroundImageFix" result="effect1_dropShadow_4318_11551"/>
<feBlend mode="normal" in="SourceGraphic" in2="effect1_dropShadow_4318_11551" result="shape"/>
<feColorMatrix in="SourceAlpha" type="matrix" values="0 0 0 0 0 0 0 0 0 0 0 0 0 0 0 0 0 0 127 0" result="hardAlpha"/>
<feOffset dy="-2.7104"/>
<feGaussianBlur stdDeviation="1.80693"/>
<feComposite in2="hardAlpha" operator="arithmetic" k2="-1" k3="1"/>
<feColorMatrix type="matrix" values="0 0 0 0 0 0 0 0 0 0 0 0 0 0 0 0 0 0 0.25 0"/>
<feBlend mode="normal" in2="shape" result="effect2_innerShadow_4318_11551"/>
</filter>
<filter id="filter5_di_4318_11551" x="11.3426" y="13.3318" width="24.2006" height="26.5547" filterUnits="userSpaceOnUse" color-interpolation-filters="sRGB">
<feFlood flood-opacity="0" result="BackgroundImageFix"/>
<feColorMatrix in="SourceAlpha" type="matrix" values="0 0 0 0 0 0 0 0 0 0 0 0 0 0 0 0 0 0 127 0" result="hardAlpha"/>
<feOffset dy="0.903467"/>
<feGaussianBlur stdDeviation="0.632427"/>
<feComposite in2="hardAlpha" operator="out"/>
<feColorMatrix type="matrix" values="0 0 0 0 0.184314 0 0 0 0 0.733333 0 0 0 0 0.643137 0 0 0 0.1 0"/>
<feBlend mode="normal" in2="BackgroundImageFix" result="effect1_dropShadow_4318_11551"/>
<feBlend mode="normal" in="SourceGraphic" in2="effect1_dropShadow_4318_11551" result="shape"/>
<feColorMatrix in="SourceAlpha" type="matrix" values="0 0 0 0 0 0 0 0 0 0 0 0 0 0 0 0 0 0 127 0" result="hardAlpha"/>
<feOffset dy="-2.7104"/>
<feGaussianBlur stdDeviation="1.80693"/>
<feComposite in2="hardAlpha" operator="arithmetic" k2="-1" k3="1"/>
<feColorMatrix type="matrix" values="0 0 0 0 0 0 0 0 0 0 0 0 0 0 0 0 0 0 0.25 0"/>
<feBlend mode="normal" in2="shape" result="effect2_innerShadow_4318_11551"/>
</filter>
<clipPath id="clip0_4318_11551">
<rect width="44.8" height="44.8" fill="white" transform="translate(0.509766 0.300049)"/>
</clipPath>
</defs>
</svg>
