<svg width="20" height="20" viewBox="0 0 20 20" fill="none" xmlns="http://www.w3.org/2000/svg">
<path d="M14.3505 9.22543C14.2614 9.02853 14.0656 8.90313 13.85 8.90313H11.65V1.75313C11.65 1.44953 11.4036 1.20312 11.1 1.20312H8.89998C8.59638 1.20312 8.34998 1.44953 8.34998 1.75313V8.90313H6.14998C5.93438 8.90313 5.73858 9.02963 5.64948 9.22543C5.55928 9.42233 5.59448 9.65223 5.73638 9.81503L9.58638 14.215C9.69088 14.3349 9.84158 14.4031 9.99998 14.4031C10.1584 14.4031 10.3091 14.3338 10.4136 14.215L14.2636 9.81503C14.4066 9.65333 14.4396 9.42233 14.3505 9.22543Z" fill="#2F648E"/>
<path d="M16.05 12.3008V15.6008H3.95V12.3008H1.75V16.7008C1.75 17.3091 2.2428 17.8008 2.85 17.8008H17.15C17.7583 17.8008 18.25 17.3091 18.25 16.7008V12.3008H16.05Z" fill="#2F648E"/>
</svg>
