<svg width="20" height="20" viewBox="0 0 20 20" fill="none" xmlns="http://www.w3.org/2000/svg">
<path d="M5.58318 15H3.45819C2.26652 15 1.6665 14.4 1.6665 13.2083V3.45836C1.6665 2.26669 2.26652 1.66667 3.45819 1.66667H7.04151C8.23318 1.66667 8.83315 2.26669 8.83315 3.45836V5.00001" stroke="#2F648E" stroke-width="1.5" stroke-miterlimit="10" stroke-linecap="round" stroke-linejoin="round"/>
<path d="M14.4751 7.01665V16.3167C14.4751 17.6583 13.8085 18.3333 12.4668 18.3333H7.60015C6.25848 18.3333 5.5835 17.6583 5.5835 16.3167V7.01665C5.5835 5.67499 6.25848 5 7.60015 5H12.4668C13.8085 5 14.4751 5.67499 14.4751 7.01665Z" stroke="#2F648E" stroke-width="1.5" stroke-miterlimit="10" stroke-linecap="round" stroke-linejoin="round"/>
<path d="M11.1665 5.00001V3.45836C11.1665 2.26669 11.7665 1.66667 12.9581 1.66667H16.5415C17.7331 1.66667 18.3332 2.26669 18.3332 3.45836V13.2083C18.3332 14.4 17.7331 15 16.5415 15H14.4748" stroke="#2F648E" stroke-width="1.5" stroke-miterlimit="10" stroke-linecap="round" stroke-linejoin="round"/>
<path d="M8.3335 9.16667H11.6668" stroke="#2F648E" stroke-width="1.5" stroke-miterlimit="10" stroke-linecap="round" stroke-linejoin="round"/>
<path d="M8.3335 11.6667H11.6668" stroke="#2F648E" stroke-width="1.5" stroke-miterlimit="10" stroke-linecap="round" stroke-linejoin="round"/>
<path d="M10 18.3333V15.8333" stroke="#2F648E" stroke-width="1.5" stroke-miterlimit="10" stroke-linecap="round" stroke-linejoin="round"/>
</svg>
