<svg width="34" height="37" viewBox="0 0 34 37" fill="none" xmlns="http://www.w3.org/2000/svg">
<g filter="url(#filter0_dddd_3_5333)">
<rect x="2" y="1" width="30" height="30" rx="7" fill="#FDB913"/>
<g filter="url(#filter1_i_3_5333)">
<path d="M21.5 12.25H20L19.5065 10.7694C19.3535 10.3097 18.9237 10 18.4392 10H15.5608C15.0763 10 14.6465 10.3097 14.4935 10.7694L14 12.25H12.5C11 12.25 10.25 13 10.25 14.5V20.5C10.25 22 11 22.75 12.5 22.75H21.5C23 22.75 23.75 22 23.75 20.5V14.5C23.75 13 23 12.25 21.5 12.25ZM17 19.75C15.7572 19.75 14.75 18.7428 14.75 17.5C14.75 16.2572 15.7572 15.25 17 15.25C18.2428 15.25 19.25 16.2572 19.25 17.5C19.25 18.7428 18.2428 19.75 17 19.75ZM21.125 15.625C20.711 15.625 20.375 15.289 20.375 14.875C20.375 14.461 20.711 14.125 21.125 14.125C21.539 14.125 21.875 14.461 21.875 14.875C21.875 15.289 21.539 15.625 21.125 15.625Z" fill="white"/>
</g>
</g>
<defs>
<filter id="filter0_dddd_3_5333" x="0" y="0" width="34" height="37" filterUnits="userSpaceOnUse" color-interpolation-filters="sRGB">
<feFlood flood-opacity="0" result="BackgroundImageFix"/>
<feColorMatrix in="SourceAlpha" type="matrix" values="0 0 0 0 0 0 0 0 0 0 0 0 0 0 0 0 0 0 127 0" result="hardAlpha"/>
<feOffset/>
<feGaussianBlur stdDeviation="0.5"/>
<feColorMatrix type="matrix" values="0 0 0 0 0 0 0 0 0 0 0 0 0 0 0 0 0 0 0.1 0"/>
<feBlend mode="normal" in2="BackgroundImageFix" result="effect1_dropShadow_3_5333"/>
<feColorMatrix in="SourceAlpha" type="matrix" values="0 0 0 0 0 0 0 0 0 0 0 0 0 0 0 0 0 0 127 0" result="hardAlpha"/>
<feOffset dy="1"/>
<feGaussianBlur stdDeviation="0.5"/>
<feColorMatrix type="matrix" values="0 0 0 0 0 0 0 0 0 0 0 0 0 0 0 0 0 0 0.09 0"/>
<feBlend mode="normal" in2="effect1_dropShadow_3_5333" result="effect2_dropShadow_3_5333"/>
<feColorMatrix in="SourceAlpha" type="matrix" values="0 0 0 0 0 0 0 0 0 0 0 0 0 0 0 0 0 0 127 0" result="hardAlpha"/>
<feOffset dy="2"/>
<feGaussianBlur stdDeviation="0.5"/>
<feColorMatrix type="matrix" values="0 0 0 0 0 0 0 0 0 0 0 0 0 0 0 0 0 0 0.05 0"/>
<feBlend mode="normal" in2="effect2_dropShadow_3_5333" result="effect3_dropShadow_3_5333"/>
<feColorMatrix in="SourceAlpha" type="matrix" values="0 0 0 0 0 0 0 0 0 0 0 0 0 0 0 0 0 0 127 0" result="hardAlpha"/>
<feOffset dy="4"/>
<feGaussianBlur stdDeviation="1"/>
<feColorMatrix type="matrix" values="0 0 0 0 0 0 0 0 0 0 0 0 0 0 0 0 0 0 0.01 0"/>
<feBlend mode="normal" in2="effect3_dropShadow_3_5333" result="effect4_dropShadow_3_5333"/>
<feBlend mode="normal" in="SourceGraphic" in2="effect4_dropShadow_3_5333" result="shape"/>
</filter>
<filter id="filter1_i_3_5333" x="8" y="6" width="18" height="19" filterUnits="userSpaceOnUse" color-interpolation-filters="sRGB">
<feFlood flood-opacity="0" result="BackgroundImageFix"/>
<feBlend mode="normal" in="SourceGraphic" in2="BackgroundImageFix" result="shape"/>
<feColorMatrix in="SourceAlpha" type="matrix" values="0 0 0 0 0 0 0 0 0 0 0 0 0 0 0 0 0 0 127 0" result="hardAlpha"/>
<feOffset dy="-1"/>
<feGaussianBlur stdDeviation="1.5"/>
<feComposite in2="hardAlpha" operator="arithmetic" k2="-1" k3="1"/>
<feColorMatrix type="matrix" values="0 0 0 0 0 0 0 0 0 0 0 0 0 0 0 0 0 0 0.25 0"/>
<feBlend mode="normal" in2="shape" result="effect1_innerShadow_3_5333"/>
</filter>
</defs>
</svg>
