<svg width="20" height="20" viewBox="0 0 20 20" fill="none" xmlns="http://www.w3.org/2000/svg">
<path d="M10 10.625C10.9889 10.625 11.9556 10.3318 12.7779 9.78235C13.6001 9.23294 14.241 8.45205 14.6194 7.53842C14.9978 6.62479 15.0969 5.61946 14.9039 4.64955C14.711 3.67965 14.2348 2.78873 13.5355 2.08947C12.8363 1.39021 11.9454 0.914002 10.9755 0.721076C10.0055 0.52815 9.00021 0.627166 8.08658 1.0056C7.17295 1.38404 6.39206 2.02491 5.84265 2.84715C5.29325 3.6694 5 4.6361 5 5.625C5.00152 6.95062 5.52879 8.22151 6.46614 9.15886C7.4035 10.0962 8.67438 10.6235 10 10.625ZM10 1.25C10.8653 1.25 11.7112 1.50659 12.4306 1.98732C13.1501 2.46805 13.7108 3.15134 14.042 3.95076C14.3731 4.75019 14.4597 5.62986 14.2909 6.47852C14.1221 7.32719 13.7054 8.10674 13.0936 8.71859C12.4817 9.33045 11.7022 9.74713 10.8535 9.91594C10.0049 10.0847 9.12519 9.99811 8.32576 9.66698C7.52633 9.33584 6.84305 8.77509 6.36232 8.05562C5.88159 7.33616 5.625 6.4903 5.625 5.625C5.6263 4.46508 6.08766 3.35304 6.90785 2.53285C7.72803 1.71266 8.84008 1.2513 10 1.25ZM10 15C9.56735 15 9.14442 15.1283 8.78469 15.3687C8.42496 15.609 8.14458 15.9507 7.97901 16.3504C7.81345 16.7501 7.77013 17.1899 7.85453 17.6143C7.93894 18.0386 8.14728 18.4284 8.45321 18.7343C8.75913 19.0402 9.14891 19.2486 9.57324 19.333C9.99757 19.4174 10.4374 19.3741 10.8371 19.2085C11.2368 19.0429 11.5785 18.7625 11.8188 18.4028C12.0592 18.0431 12.1875 17.6201 12.1875 17.1875C12.1868 16.6075 11.9561 16.0515 11.5461 15.6415C11.136 15.2314 10.58 15.0007 10 15ZM10 18.75C9.69097 18.75 9.38887 18.6584 9.13192 18.4867C8.87497 18.315 8.6747 18.071 8.55644 17.7854C8.43818 17.4999 8.40723 17.1858 8.46752 16.8827C8.52781 16.5796 8.67663 16.3012 8.89515 16.0826C9.11367 15.8641 9.39208 15.7153 9.69517 15.655C9.99827 15.5947 10.3124 15.6257 10.5979 15.7439C10.8835 15.8622 11.1275 16.0625 11.2992 16.3194C11.4709 16.5764 11.5625 16.8785 11.5625 17.1875C11.562 17.6018 11.3972 17.9989 11.1043 18.2918C10.8114 18.5847 10.4143 18.7495 10 18.75ZM2.8125 15C2.37985 15 1.95692 15.1283 1.59719 15.3687C1.23746 15.609 0.957081 15.9507 0.791515 16.3504C0.625948 16.7501 0.582628 17.1899 0.667033 17.6143C0.751438 18.0386 0.959778 18.4284 1.2657 18.7343C1.57163 19.0402 1.96141 19.2486 2.38574 19.333C2.81007 19.4174 3.24991 19.3741 3.64962 19.2085C4.04933 19.0429 4.39098 18.7625 4.63134 18.4028C4.87171 18.0431 5 17.6201 5 17.1875C4.99932 16.6075 4.76864 16.0515 4.35855 15.6415C3.94846 15.2314 3.39245 15.0007 2.8125 15ZM2.8125 18.75C2.50347 18.75 2.20137 18.6584 1.94442 18.4867C1.68747 18.315 1.4872 18.071 1.36894 17.7854C1.25068 17.4999 1.21973 17.1858 1.28002 16.8827C1.34031 16.5796 1.48913 16.3012 1.70765 16.0826C1.92617 15.8641 2.20458 15.7153 2.50767 15.655C2.81077 15.5947 3.12493 15.6257 3.41044 15.7439C3.69595 15.8622 3.93998 16.0625 4.11167 16.3194C4.28336 16.5764 4.375 16.8785 4.375 17.1875C4.37451 17.6018 4.20974 17.9989 3.91682 18.2918C3.6239 18.5847 3.22675 18.7495 2.8125 18.75ZM17.1875 15C16.7549 15 16.3319 15.1283 15.9722 15.3687C15.6125 15.609 15.3321 15.9507 15.1665 16.3504C15.0009 16.7501 14.9576 17.1899 15.042 17.6143C15.1264 18.0386 15.3348 18.4284 15.6407 18.7343C15.9466 19.0402 16.3364 19.2486 16.7607 19.333C17.1851 19.4174 17.6249 19.3741 18.0246 19.2085C18.4243 19.0429 18.766 18.7625 19.0063 18.4028C19.2467 18.0431 19.375 17.6201 19.375 17.1875C19.3743 16.6075 19.1436 16.0515 18.7336 15.6415C18.3235 15.2314 17.7675 15.0007 17.1875 15ZM17.1875 18.75C16.8785 18.75 16.5764 18.6584 16.3194 18.4867C16.0625 18.315 15.8622 18.071 15.7439 17.7854C15.6257 17.4999 15.5947 17.1858 15.655 16.8827C15.7153 16.5796 15.8641 16.3012 16.0826 16.0826C16.3012 15.8641 16.5796 15.7153 16.8827 15.655C17.1858 15.5947 17.4999 15.6257 17.7854 15.7439C18.071 15.8622 18.315 16.0625 18.4867 16.3194C18.6584 16.5764 18.75 16.8785 18.75 17.1875C18.7495 17.6018 18.5847 17.9989 18.2918 18.2918C17.9989 18.5847 17.6018 18.7495 17.1875 18.75ZM2.5 14.0625V13.4375C2.50027 13.1889 2.59913 12.9506 2.77489 12.7749C2.95064 12.5991 3.18894 12.5003 3.4375 12.5H9.6875V11.5625C9.6875 11.4796 9.72042 11.4001 9.77903 11.3415C9.83764 11.2829 9.91712 11.25 10 11.25C10.0829 11.25 10.1624 11.2829 10.221 11.3415C10.2796 11.4001 10.3125 11.4796 10.3125 11.5625V12.5H16.5625C16.8111 12.5003 17.0494 12.5991 17.2251 12.7749C17.4009 12.9506 17.4997 13.1889 17.5 13.4375V14.0625C17.5 14.1454 17.4671 14.2249 17.4085 14.2835C17.3499 14.3421 17.2704 14.375 17.1875 14.375C17.1046 14.375 17.0251 14.3421 16.9665 14.2835C16.9079 14.2249 16.875 14.1454 16.875 14.0625V13.4375C16.8749 13.3546 16.842 13.2752 16.7834 13.2166C16.7248 13.158 16.6454 13.1251 16.5625 13.125H10.3125V14.0625C10.3125 14.1454 10.2796 14.2249 10.221 14.2835C10.1624 14.3421 10.0829 14.375 10 14.375C9.91712 14.375 9.83764 14.3421 9.77903 14.2835C9.72042 14.2249 9.6875 14.1454 9.6875 14.0625V13.125H3.4375C3.35465 13.1251 3.27521 13.158 3.21662 13.2166C3.15803 13.2752 3.12508 13.3546 3.125 13.4375V14.0625C3.125 14.1454 3.09208 14.2249 3.03347 14.2835C2.97487 14.3421 2.89538 14.375 2.8125 14.375C2.72962 14.375 2.65014 14.3421 2.59153 14.2835C2.53293 14.2249 2.5 14.1454 2.5 14.0625ZM7.39548 7.66113C7.53247 7.42281 7.72974 7.22471 7.9675 7.08673C8.20525 6.94874 8.47511 6.87573 8.75 6.875H11.25C11.5249 6.87573 11.7948 6.94874 12.0325 7.08673C12.2703 7.22471 12.4675 7.42281 12.6045 7.66113C12.625 7.69672 12.6522 7.72794 12.6847 7.75299C12.7172 7.77805 12.7543 7.79646 12.794 7.80717C12.8336 7.81788 12.8749 7.82069 12.9156 7.81542C12.9563 7.81016 12.9956 7.79693 13.0312 7.77649C13.0667 7.75605 13.098 7.7288 13.123 7.6963C13.1481 7.6638 13.1665 7.62668 13.1772 7.58707C13.1879 7.54745 13.1907 7.50611 13.1854 7.46541C13.1802 7.42471 13.167 7.38544 13.1465 7.34986C12.9763 7.05468 12.7397 6.8032 12.4554 6.61531C12.1712 6.42743 11.8471 6.3083 11.5088 6.26738C11.8254 5.96584 12.0443 5.57638 12.1374 5.14924C12.2304 4.72209 12.1934 4.27686 12.031 3.87097C11.8686 3.46509 11.5883 3.11716 11.2263 2.87209C10.8643 2.62701 10.4372 2.49602 10 2.49602C9.56283 2.49602 9.1357 2.62701 8.77369 2.87209C8.41167 3.11716 8.1314 3.46509 7.96901 3.87097C7.80663 4.27686 7.76958 4.72209 7.86265 5.14924C7.95572 5.57638 8.17464 5.96584 8.49117 6.26738C8.1529 6.3083 7.82881 6.42743 7.54456 6.61531C7.26031 6.8032 7.0237 7.05468 6.85349 7.34986C6.81221 7.42173 6.80117 7.50706 6.82281 7.58707C6.84444 7.66707 6.89697 7.73521 6.96884 7.77649C7.04072 7.81777 7.12604 7.82881 7.20605 7.80717C7.28606 7.78554 7.3542 7.73301 7.39548 7.66113ZM8.4375 4.6875C8.4375 4.37847 8.52914 4.07638 8.70083 3.81942C8.87252 3.56247 9.11655 3.3622 9.40206 3.24394C9.68757 3.12568 10.0017 3.09474 10.3048 3.15503C10.6079 3.21531 10.8863 3.36413 11.1049 3.58265C11.3234 3.80117 11.4722 4.07958 11.5325 4.38267C11.5928 4.68577 11.5618 4.99994 11.4436 5.28545C11.3253 5.57095 11.125 5.81498 10.8681 5.98667C10.6111 6.15836 10.309 6.25 10 6.25C9.58575 6.24952 9.1886 6.08474 8.89568 5.79182C8.60276 5.4989 8.43799 5.10175 8.4375 4.6875Z" fill="#2F648E" stroke="#2F648E" stroke-width="0.6"/>
</svg>
