<svg width="20" height="20" viewBox="0 0 20 20" fill="none" xmlns="http://www.w3.org/2000/svg">
<g clip-path="url(#clip0_1362_5087)">
<path d="M8.92492 3.26308L16.3714 7.9979C16.5211 8.09311 16.6547 8.2008 16.7728 8.31886C17.2705 8.81654 17.4976 9.49951 17.4996 10.2138C17.5016 10.9125 17.2865 11.6427 16.898 12.2536C16.7575 12.4745 16.5947 12.6801 16.4117 12.8631L12.8632 16.4116C12.6802 16.5946 12.4746 16.7574 12.2537 16.8979C11.6428 17.2864 10.9126 17.5015 10.2139 17.4995C9.49963 17.4976 8.81664 17.2704 8.31897 16.7727C8.2009 16.6546 8.09321 16.521 7.998 16.3713L3.26318 8.92482C2.50662 7.73497 2.35596 6.52087 2.6229 5.4725C2.80076 4.77401 3.16404 4.15043 3.65729 3.65718C4.15055 3.16392 4.77414 2.80065 5.47263 2.62279C6.52101 2.35583 7.73507 2.50652 8.92492 3.26308ZM16.1205 8.39341L8.67408 3.65859C7.60316 2.97764 6.51886 2.83988 5.58797 3.07692C4.97301 3.23351 4.42361 3.55371 3.98869 3.98863C3.55377 4.42355 3.23357 4.97293 3.07698 5.58789C2.83995 6.51876 2.97771 7.60306 3.65866 8.674L8.39348 16.1205C8.46918 16.2395 8.55538 16.3463 8.65037 16.4413C9.05521 16.8462 9.61941 17.031 10.2139 17.0326C10.8241 17.0343 11.4644 16.8448 12.0028 16.5024C12.1942 16.3808 12.3725 16.2394 12.5318 16.0802L16.0802 12.5317C16.2395 12.3725 16.3808 12.1941 16.5025 12.0028C16.8448 11.4644 17.0344 10.824 17.0327 10.2139C17.031 9.61935 16.8462 9.05516 16.4413 8.65031C16.3464 8.55534 16.2396 8.4691 16.1205 8.39341Z" fill="#2F648E" stroke="#2F648E"/>
<path d="M5.18839 5.18839C5.50081 4.87596 5.91031 4.71973 6.31978 4.71973C6.72923 4.71973 7.13873 4.87596 7.45116 5.18839C7.76358 5.50081 7.9198 5.9103 7.9198 6.31976C7.9198 6.72923 7.76358 7.13872 7.45116 7.45116C7.13873 7.76358 6.72923 7.91982 6.31978 7.91982C5.91031 7.91982 5.50084 7.7636 5.1884 7.45117C4.87597 7.13873 4.71973 6.72923 4.71973 6.31976C4.71973 5.9103 4.87596 5.50081 5.18839 5.18839ZM6.31978 5.18848C6.03023 5.18848 5.74068 5.29894 5.51981 5.51981C5.29894 5.74068 5.18848 6.03022 5.18848 6.31976C5.18848 6.60931 5.29893 6.89885 5.51981 7.11973C5.74069 7.34061 6.03023 7.45106 6.31978 7.45106C6.60931 7.45106 6.89885 7.34061 7.11972 7.11974C7.3406 6.89886 7.45105 6.60931 7.45105 6.31976C7.45105 6.03022 7.3406 5.74068 7.11973 5.51981C6.89886 5.29894 6.60931 5.18848 6.31978 5.18848Z" fill="#2F648E" stroke="#2F648E"/>
</g>
<defs>
<clipPath id="clip0_1362_5087">
<rect width="20" height="20" fill="white"/>
</clipPath>
</defs>
</svg>
