<svg width="11" height="11" viewBox="0 0 11 11" fill="none" xmlns="http://www.w3.org/2000/svg">
<path d="M8.92398 2.68489H7.7903L7.41735 1.56588C7.30171 1.21841 6.97686 0.984375 6.61068 0.984375H4.43521C4.06903 0.984375 3.74418 1.21841 3.62854 1.56588L3.25559 2.68489H2.12191C0.988227 2.68489 0.421387 3.25173 0.421387 4.38541V8.92013C0.421387 10.0538 0.988227 10.6207 2.12191 10.6207H8.92398C10.0577 10.6207 10.6245 10.0538 10.6245 8.92013V4.38541C10.6245 3.25173 10.0577 2.68489 8.92398 2.68489ZM5.52295 8.35329C4.58369 8.35329 3.82243 7.59203 3.82243 6.65277C3.82243 5.71352 4.58369 4.95225 5.52295 4.95225C6.4622 4.95225 7.22346 5.71352 7.22346 6.65277C7.22346 7.59203 6.4622 8.35329 5.52295 8.35329ZM8.64056 5.23567C8.32767 5.23567 8.07372 4.98173 8.07372 4.66883C8.07372 4.35594 8.32767 4.10199 8.64056 4.10199C8.95346 4.10199 9.2074 4.35594 9.2074 4.66883C9.2074 4.98173 8.95346 5.23567 8.64056 5.23567Z" fill="white"/>
</svg>
