<svg width="3" height="16" viewBox="0 0 3 16" fill="none" xmlns="http://www.w3.org/2000/svg">
<path d="M8.09486e-07 1.625C8.09486e-07 1.32833 0.0879743 1.03832 0.252796 0.791645C0.417618 0.544972 0.651886 0.352713 0.925975 0.239181C1.20006 0.12565 1.50166 0.0959449 1.79264 0.153823C2.08361 0.211701 2.35088 0.354562 2.56066 0.56434C2.77044 0.774119 2.9133 1.04139 2.97118 1.33236C3.02906 1.62334 2.99935 1.92494 2.88582 2.19902C2.77229 2.47311 2.58003 2.70738 2.33336 2.8722C2.08668 3.03703 1.79667 3.125 1.5 3.125C1.10218 3.125 0.720645 2.96696 0.439341 2.68566C0.158036 2.40435 8.09486e-07 2.02282 8.09486e-07 1.625ZM1.5 6.5C1.20333 6.5 0.913319 6.58797 0.666645 6.75279C0.419972 6.91761 0.227713 7.15188 0.114181 7.42597C0.000649914 7.70006 -0.0290551 8.00166 0.0288227 8.29263C0.0867005 8.5836 0.229562 8.85088 0.439341 9.06065C0.649119 9.27043 0.916393 9.4133 1.20736 9.47117C1.49834 9.52905 1.79994 9.49935 2.07403 9.38581C2.34811 9.27228 2.58238 9.08002 2.7472 8.83335C2.91203 8.58668 3 8.29667 3 8C3 7.60217 2.84196 7.22064 2.56066 6.93934C2.27936 6.65803 1.89782 6.5 1.5 6.5ZM1.5 12.875C1.20333 12.875 0.913319 12.963 0.666645 13.1278C0.419972 13.2926 0.227713 13.5269 0.114181 13.801C0.000649914 14.0751 -0.0290551 14.3767 0.0288227 14.6676C0.0867005 14.9586 0.229562 15.2259 0.439341 15.4357C0.649119 15.6454 0.916393 15.7883 1.20736 15.8462C1.49834 15.904 1.79994 15.8743 2.07403 15.7608C2.34811 15.6473 2.58238 15.455 2.7472 15.2083C2.91203 14.9617 3 14.6717 3 14.375C3 13.9772 2.84196 13.5956 2.56066 13.3143C2.27936 13.033 1.89782 12.875 1.5 12.875Z" fill="white"/>
</svg>
