<svg width="31" height="31" viewBox="0 0 31 31" fill="none" xmlns="http://www.w3.org/2000/svg">
<path d="M11.125 24.25H10.5C5.5 24.25 3 23 3 16.75V10.5C3 5.5 5.5 3 10.5 3H20.5C25.5 3 28 5.5 28 10.5V16.75C28 21.75 25.5 24.25 20.5 24.25H19.875C19.4875 24.25 19.1125 24.4375 18.875 24.75L17 27.25C16.175 28.35 14.825 28.35 14 27.25L12.125 24.75C11.925 24.475 11.4625 24.25 11.125 24.25Z" stroke="white" stroke-width="1.5" stroke-miterlimit="10" stroke-linecap="round" stroke-linejoin="round"/>
<path d="M20.4956 14.25H20.5068" stroke="white" stroke-width="2" stroke-linecap="round" stroke-linejoin="round"/>
<path d="M15.4944 14.25H15.5056" stroke="white" stroke-width="2" stroke-linecap="round" stroke-linejoin="round"/>
<path d="M10.4931 14.25H10.5044" stroke="white" stroke-width="2" stroke-linecap="round" stroke-linejoin="round"/>
</svg>
