<svg width="9" height="9" viewBox="0 0 9 9" fill="none" xmlns="http://www.w3.org/2000/svg">
<path d="M7.95835 7.2307C8.05521 7.32757 8.10963 7.45894 8.10963 7.59593C8.10963 7.73292 8.05521 7.8643 7.95835 7.96117C7.86148 8.05803 7.7301 8.11245 7.59311 8.11245C7.45612 8.11245 7.32474 8.05803 7.22788 7.96117L4.49979 5.23222L1.77085 7.96031C1.67398 8.05718 1.5426 8.11159 1.40561 8.11159C1.26862 8.11159 1.13724 8.05718 1.04038 7.96031C0.94351 7.86344 0.889091 7.73206 0.889091 7.59507C0.889091 7.45809 0.94351 7.32671 1.04038 7.22984L3.76932 4.50175L1.04124 1.77281C0.94437 1.67594 0.889951 1.54456 0.889951 1.40757C0.889951 1.27058 0.94437 1.13921 1.04124 1.04234C1.1381 0.945474 1.26948 0.891055 1.40647 0.891055C1.54346 0.891055 1.67484 0.945474 1.7717 1.04234L4.49979 3.77129L7.22874 1.04191C7.3256 0.945044 7.45698 0.890625 7.59397 0.890625C7.73096 0.890625 7.86234 0.945044 7.9592 1.04191C8.05607 1.13878 8.11049 1.27015 8.11049 1.40714C8.11049 1.54413 8.05607 1.67551 7.9592 1.77238L5.23026 4.50175L7.95835 7.2307Z" fill="#2F648E"/>
</svg>
